<svg height="1000px" width="937.5px" xmlns="http://www.w3.org/2000/svg">
  <g>
    <path d="M0 500c0 -63.477 12.37 -124.186 37.109 -182.129c24.74 -57.943 58.024 -107.829 99.854 -149.658c41.829 -41.83 91.715 -75.114 149.658 -99.854c57.943 -24.739 118.652 -37.109 182.129 -37.109c63.477 0 124.186 12.37 182.129 37.109c57.943 24.74 107.829 58.024 149.658 99.854c41.83 41.829 75.114 91.715 99.854 149.658c24.739 57.943 37.109 118.652 37.109 182.129c0 63.477 -12.37 124.186 -37.109 182.129c-24.74 57.943 -58.024 107.829 -99.854 149.658c-41.829 41.83 -91.715 75.114 -149.658 99.854c-57.943 24.739 -118.652 37.109 -182.129 37.109c-63.477 0 -124.186 -12.37 -182.129 -37.109c-57.943 -24.74 -107.829 -58.024 -149.658 -99.854c-41.83 -41.829 -75.114 -91.715 -99.854 -149.658c-24.739 -57.943 -37.109 -118.652 -37.109 -182.129c0 0 0 0 0 0m176.758 31.25c0 14.648 5.045 27.181 15.137 37.598c0 0 153.32 152.832 153.32 152.832c9.44 10.416 21.972 15.625 37.597 15.625c14.649 0 27.181 -5.209 37.598 -15.625c0 0 314.942 -314.942 314.942 -314.942c10.416 -10.416 15.625 -22.949 15.625 -37.597c0 -14.649 -5.209 -27.019 -15.625 -37.11c-10.417 -10.091 -22.95 -15.136 -37.598 -15.136c-14.649 0 -27.181 5.045 -37.598 15.136c0 0 -277.344 277.344 -277.344 277.344c0 0 -115.722 -115.234 -115.722 -115.234c-10.091 -10.417 -22.542 -15.625 -37.354 -15.625c-14.811 0 -27.425 5.208 -37.841 15.625c-10.092 10.091 -15.137 22.461 -15.137 37.109c0 0 0 0 0 0" />
  </g>
</svg>