<svg height="1000" width="814.941" xmlns="http://www.w3.org/2000/svg"><path d="M-.488 647.908q0 -7.564 4.88 -12.932l101.992 -122.488 21.96 27.328 77.592 96.136q4.88 6.344 3.904 13.664t-7.32 12.2q-10.736 8.296 -22.448 0l-23.424 -19.032q16.104 60.512 62.952 100.772t113.704 54.9q5.856 .488 10.248 0t10.492 -7.32 6.1 -20.496v-388.936q0 -9.76 -5.856 -15.616t-11.712 -6.832l-5.368 -.976h-40.016q-19.52 0 -33.428 -13.664t-13.908 -33.184 13.664 -33.184 33.672 -13.664h41.48q1.952 -.488 3.66 -.976t4.392 -1.708 4.88 -2.928 4.148 -4.148 3.172 -6.1 1.22 -8.052v-9.76q-30.744 -13.664 -49.532 -42.456t-18.788 -63.928q0 -47.336 33.672 -81.252t81.496 -33.916 81.984 33.916 34.16 81.252q0 35.136 -19.276 63.928t-50.02 42.456v10.248q0 4.392 1.22 7.808t3.416 5.856 4.392 4.148 4.636 2.684 4.392 1.708 3.416 1.22h42.943999999999996q19.032 0 32.94 13.664t13.908 33.184q0 19.032 -13.908 32.94t-32.94 13.908h-40.992q-2.44 0 -6.344 .732t-10.492 6.588 -6.588 15.616v389.424q0 13.664 6.1 20.496t10.736 7.32 10.492 0q66.856 -14.64 113.948 -54.9t63.196 -100.772l-23.424 19.032q-6.344 4.88 -13.42 3.904t-12.444 -6.344q-8.296 -12.2 0 -23.424l77.592 -96.136 21.472 -27.328 102.48 122.488q4.88 6.344 4.148 15.128t-7.076 14.152q-5.856 4.88 -13.664 4.88t-13.176 -4.88l-29.768 -25.376q-16.592 102.48 -87.108 178.852t-170.556 102.236q-.976 .976 -1.952 .976 -14.152 3.416 -24.644 12.688t-13.908 21.472q-3.904 15.616 -16.592 25.62t-29.28 10.004q-16.104 0 -28.548 -10.004t-16.348 -25.62q-3.416 -12.2 -13.908 -21.472t-24.644 -12.688q-1.464 0 -2.44 -.976 -100.04 -25.864 -170.556 -102.236t-87.108 -178.852l-29.28 25.376q-6.344 5.368 -15.128 4.636t-14.64 -7.564q-4.88 -5.856 -4.88 -13.42zm350.384 -523.38q0 19.032 10.248 34.16v-4.88q0 -19.52 13.664 -33.184t33.184 -13.664 33.184 13.42 13.664 33.428v4.88q11.224 -15.616 11.224 -34.16 0 -23.424 -17.08 -40.016t-40.992 -16.592 -40.504 16.592 -16.592 40.016z"/></svg>