<svg height="1000px" width="937.98828125px" xmlns="http://www.w3.org/2000/svg">
  <g>
    <path d="M0 497.0703125c0 0 390.625 -391.113 390.625 -391.113c12.695 -12.045 27.181 -18.067 43.457 -18.067c16.602 0 30.925 6.022 42.969 18.067c12.044 12.044 18.066 26.448 18.066 43.213c0 16.764 -6.022 31.331 -18.066 43.701c0 0 -243.164 242.676 -243.164 242.676c0 0 642.09 0 642.09 0c17.252 0 31.901 6.022 43.945 18.066c12.044 12.044 18.066 26.53 18.066 43.457c0 16.927 -6.022 31.25 -18.066 42.969c-12.044 11.719 -26.693 17.578 -43.945 17.578c0 0 -642.09 0 -642.09 0c0 0 243.164 243.652 243.164 243.652c12.044 12.044 18.066 26.449 18.066 43.213c0 16.764 -6.022 31.169 -18.066 43.213c-12.044 12.044 -26.449 18.066 -43.213 18.066c-16.764 0 -31.169 -6.022 -43.213 -18.066c0 0 -390.625 -390.625 -390.625 -390.625" />
  </g>
</svg>