<svg height="1000px" width="937.5px" xmlns="http://www.w3.org/2000/svg">
  <g>
    <path d="M0 651.3671875c0 0 0 -304.688 0 -304.688c0 -14.322 5.29 -26.611 15.869 -36.865c10.58 -10.254 23.031 -15.381 37.354 -15.381c0 0 204.589 0 204.589 0c0 0 0 -146.972 0 -146.972c0 -26.693 7.569 -44.434 22.706 -53.223c15.136 -8.789 33.284 -6.185 54.443 7.813c0 0 582.031 361.816 582.031 361.816c13.672 10.091 20.508 21.81 20.508 35.156c0 6.185 -1.709 12.207 -5.127 18.067c-3.418 5.859 -6.917 10.091 -10.498 12.695c0 0 -4.883 4.394 -4.883 4.394c0 0 -582.031 363.282 -582.031 363.282c-21.159 13.997 -39.307 16.52 -54.443 7.568c-15.137 -8.952 -22.706 -26.774 -22.706 -53.467c0 0 0 -146.972 0 -146.972c0 0 -204.589 0 -204.589 0c-14.323 0 -26.774 -5.29 -37.354 -15.869c-10.579 -10.58 -15.869 -23.031 -15.869 -37.354c0 0 0 0 0 0" />
  </g>
</svg>