<svg height="1000px" width="937.98828125px" xmlns="http://www.w3.org/2000/svg">
  <g>
    <path d="M0 502.9296875c0 -17.253 5.941 -31.657 17.822 -43.213c11.882 -11.556 26.286 -17.334 43.213 -17.334c0 0 642.578 0 642.578 0c0 0 -242.675 -244.14 -242.675 -244.14c-12.37 -12.045 -18.555 -26.53 -18.555 -43.458c0 -16.927 6.185 -31.087 18.555 -42.48c11.718 -12.37 25.797 -18.555 42.236 -18.555c16.439 0 31.168 6.185 44.189 18.555c0 0 390.625 390.625 390.625 390.625c0 0 -390.625 390.625 -390.625 390.625c-13.346 12.37 -27.995 18.555 -43.945 18.555c-15.951 0 -30.111 -6.185 -42.48 -18.555c-12.37 -12.37 -18.555 -26.937 -18.555 -43.701c0 -16.764 6.185 -31.006 18.555 -42.725c0 0 242.675 -242.676 242.675 -242.676c0 0 -642.578 0 -642.578 0c-16.927 0 -31.331 -6.022 -43.213 -18.066c-11.881 -12.044 -17.822 -26.53 -17.822 -43.457c0 0 0 0 0 0" />
  </g>
</svg>