<svg height="1000px" width="937.5px" xmlns="http://www.w3.org/2000/svg">
  <g>
    <path d="M0 500c0 -5.859 1.709 -11.719 5.127 -17.578c3.418 -5.859 6.917 -10.254 10.498 -13.184c0 0 4.883 -4.394 4.883 -4.394c0 0 582.031 -362.305 582.031 -362.305c21.159 -14.323 39.307 -16.927 54.443 -7.812c15.137 9.114 22.706 27.018 22.706 53.711c0 0 0 146.484 0 146.484c0 0 204.589 0 204.589 0c14.323 0 26.774 5.208 37.354 15.625c10.579 10.417 15.869 22.786 15.869 37.109c0 0 0 304.688 0 304.688c0 14.323 -5.29 26.692 -15.869 37.109c-10.58 10.417 -23.031 15.625 -37.354 15.625c0 0 -204.59 0 -204.59 0c0 0 0 146.973 0 146.973c0 26.692 -7.568 44.433 -22.705 53.222c-15.136 8.789 -33.284 6.185 -54.443 -7.812c0 0 -582.031 -362.305 -582.031 -362.305c-13.672 -9.765 -20.508 -21.484 -20.508 -35.156c0 0 0 0 0 0" />
  </g>
</svg>