<svg height="1000px" width="819.3359375px" xmlns="http://www.w3.org/2000/svg">
  <g>
    <path d="M4.638671875 688.232421875c-8.952 -15.137 -6.429 -33.285 7.568 -54.443c0 0 362.793 -582.032 362.793 -582.032c9.766 -13.671 21.322 -20.507 34.668 -20.507c6.185 0 12.207 1.709 18.067 5.127c5.859 3.418 10.091 6.754 12.695 10.009c0 0 4.395 5.371 4.395 5.371c0 0 362.793 582.032 362.793 582.032c13.997 21.158 16.52 39.306 7.568 54.443c-8.952 15.137 -26.774 22.705 -53.467 22.705c0 0 -146.973 0 -146.973 0c0 0 0 204.59 0 204.59c0 14.323 -5.127 26.774 -15.38 37.353c-10.254 10.58 -22.543 15.87 -36.866 15.87c0 0 -305.175 0 -305.175 0c-14.323 0 -26.693 -5.29 -37.11 -15.87c-10.416 -10.579 -15.625 -23.03 -15.625 -37.353c0 0 0 -204.59 0 -204.59c0 0 -146.484 0 -146.484 0c-26.693 0 -44.515 -7.568 -53.467 -22.705c0 0 0 0 0 0" />
  </g>
</svg>