<svg height="1000px" width="817.3828125px" xmlns="http://www.w3.org/2000/svg">
  <g>
    <path d="M0 566.89453125c0 -16.602 6.022 -30.924 18.066 -42.969c12.045 -12.044 26.53 -18.066 43.457 -18.066c16.928 0 31.25 6.022 42.969 18.066c0 0 243.164 242.676 243.164 242.676c0 0 0 -641.602 0 -641.602c0 -17.252 6.022 -31.819 18.067 -43.701c12.044 -11.881 26.53 -17.822 43.457 -17.822c16.927 0 31.25 5.941 42.968 17.822c11.719 11.882 17.579 26.449 17.579 43.701c0 0 0 641.602 0 641.602c0 0 243.652 -242.676 243.652 -242.676c12.044 -12.044 26.448 -18.066 43.213 -18.066c16.764 0 31.168 6.022 43.213 18.066c12.044 11.719 18.066 26.042 18.066 42.969c0 16.927 -6.022 31.413 -18.066 43.457c0 0 -390.625 390.625 -390.625 390.625c0 0 -391.114 -390.625 -391.114 -390.625c-12.044 -12.695 -18.066 -27.181 -18.066 -43.457c0 0 0 0 0 0" />
  </g>
</svg>