<svg height="1000px" width="817.3828125px" xmlns="http://www.w3.org/2000/svg">
  <g>
    <path d="M0 495.849609375c0 -17.09 6.022 -31.657 18.066 -43.701c0 0 390.625 -390.625 390.625 -390.625c0 0 391.114 390.625 391.114 390.625c11.718 12.044 17.578 26.693 17.578 43.945c0 16.927 -5.86 31.25 -17.578 42.969c-12.045 12.044 -26.53 18.066 -43.457 18.066c-16.927 0 -31.25 -6.022 -42.969 -18.066c0 0 -243.652 -243.164 -243.652 -243.164c0 0 0 642.09 0 642.09c0 16.927 -5.86 31.331 -17.579 43.213c-11.718 11.881 -26.204 17.822 -43.457 17.822c-16.927 0 -31.331 -5.941 -43.212 -17.822c-11.882 -11.882 -17.823 -26.286 -17.823 -43.213c0 0 0 -642.09 0 -642.09c0 0 -243.164 243.164 -243.164 243.164c-12.044 12.044 -26.448 18.066 -43.213 18.066c-16.764 0 -31.168 -6.022 -43.213 -18.066c-12.044 -11.719 -18.066 -26.123 -18.066 -43.213c0 0 0 0 0 0" />
  </g>
</svg>