<svg height="1000px" width="820.3125px" xmlns="http://www.w3.org/2000/svg">
  <g>
    <path d="M4.638671875 311.5234375c8.952 -14.974 26.774 -22.461 53.467 -22.461c0 0 147.461 0 147.461 0c0 0 0 -205.078 0 -205.078c0 -14.323 5.127 -26.693 15.381 -37.109c10.253 -10.417 22.542 -15.625 36.865 -15.625c0 0 304.687 0 304.687 0c14.323 0 26.774 5.208 37.354 15.625c10.579 10.416 15.869 22.786 15.869 37.109c0 0 0 205.078 0 205.078c0 0 146.484 0 146.484 0c26.693 0 44.515 7.487 53.467 22.461c8.952 14.974 6.429 33.04 -7.568 54.199c0 0 -362.793 582.031 -362.793 582.031c-0.977 1.628 -2.523 3.581 -4.639 5.86c-2.116 2.278 -6.185 5.371 -12.207 9.277c-6.022 3.906 -12.126 5.86 -18.31 5.86c-6.185 0 -12.207 -1.709 -18.067 -5.127c-5.859 -3.418 -10.254 -6.918 -13.183 -10.498c0 0 -3.907 -5.372 -3.907 -5.372c0 0 -362.793 -582.031 -362.793 -582.031c-13.997 -21.159 -16.52 -39.225 -7.568 -54.199c0 0 0 0 0 0" />
  </g>
</svg>