<svg height="1000" width="888.672" xmlns="http://www.w3.org/2000/svg"><path d="M0 509.56q0-196.664 129.808-333.304 136.64-144.448 350.384-144.448 174.704 0 287.92 98.576 120.536 104.432 120.536 277.184 0 135.176-76.616 233.264-75.64 97.6-174.216 97.6-49.776 0-78.08-31.232-27.328-31.232-27.328-64.904 0-1.464.488-4.148t.488-4.636q0-1.464.244-5.368t.244-5.856q-21.96 44.408-46.848 68.32-46.36 46.36-112.24 46.36-66.368 0-110.776-51.728-44.896-52.216-44.896-145.424 0-108.336 68.32-203.008 68.808-95.16 165.92-95.16 57.096 0 90.28 34.648 24.888 27.816 32.696 61.976l19.52-75.152h103.944l-70.76 259.616q-2.928 12.2-7.076 28.06t-4.636 18.788q-3.416 14.152-3.416 26.84 0 18.056 11.224 33.672 11.224 16.104 35.136 16.104 47.336 0 95.648-67.344 47.824-68.32 47.824-179.096 0-164.456-130.784-236.68-80.032-45.384-183.488-45.384-187.88 0-301.096 124.928-102.48 111.752-102.48 270.352 0 176.168 120.536 277.672 106.872 90.768 259.128 90.768 105.408 0 195.688-42.456 49.776-21.96 102.968-62.952l13.176-9.76q3.904-3.416 9.76-5.612t13.42-2.928 15.372 4.392 12.688 16.348q5.856 16.104 3.416 28.304t-8.296 19.032l-6.344 7.32q-77.592 65.88-169.336 101.016-92.232 34.648-188.856 34.648-228.872 0-354.776-155.184-104.432-127.856-104.432-304.024zm339.648 41.968q0 43.432 18.544 70.76 18.056 26.84 51.728 26.84 58.56 0 97.112-97.112 37.088-97.6 37.088-153.232 0-32.208-17.08-53.68-17.568-21.472-47.336-21.472-57.584 0-98.576 77.592-41.48 77.104-41.48 150.304z"/></svg>