<svg height="1000px" width="888.671875px" xmlns="http://www.w3.org/2000/svg">
  <g>
    <path d="M0 509.27734375c0 -131.185 43.294 -242.35 129.883 -333.496c91.146 -96.354 208.008 -144.531 350.586 -144.531c116.536 0 212.565 32.877 288.086 98.632c80.403 69.662 120.605 162.11 120.605 277.344c0 90.169 -25.553 167.969 -76.66 233.399c-50.456 65.104 -108.561 97.656 -174.316 97.656c-33.204 0 -59.245 -10.417 -78.125 -31.25c-18.23 -20.833 -27.344 -42.481 -27.344 -64.941c0 -0.977 0.163 -2.361 0.488 -4.151c0.326 -1.79 0.488 -3.336 0.488 -4.639c0 -0.976 0.082 -2.766 0.245 -5.371c0.162 -2.604 0.244 -4.557 0.244 -5.859c-14.649 29.622 -30.274 52.409 -46.875 68.359c-30.925 30.925 -68.36 46.387 -112.305 46.387c-44.271 0 -81.217 -17.253 -110.84 -51.758c-29.948 -34.83 -44.922 -83.333 -44.922 -145.508c0 -72.265 22.787 -139.974 68.36 -203.125c45.898 -63.476 101.237 -95.214 166.015 -95.214c38.086 0 68.197 11.556 90.332 34.668c16.602 18.554 27.507 39.225 32.715 62.011c0 0 19.531 -75.195 19.531 -75.195c0 0 104.004 0 104.004 0c0 0 -70.8 259.766 -70.8 259.766c-1.954 8.138 -4.314 17.496 -7.081 28.076c-2.766 10.579 -4.313 16.845 -4.638 18.799c-2.279 9.44 -3.418 18.392 -3.418 26.855c0 12.044 3.743 23.275 11.23 33.691c7.487 10.743 19.206 16.114 35.157 16.114c31.575 0 63.476 -22.461 95.703 -67.383c31.901 -45.573 47.851 -105.306 47.851 -179.199c0 -109.701 -43.62 -188.64 -130.859 -236.817c-53.386 -30.273 -114.583 -45.41 -183.594 -45.41c-125.325 0 -225.749 41.667 -301.269 125c-68.36 74.544 -102.54 164.714 -102.54 270.508c0 117.513 40.202 210.124 120.606 277.832c71.289 60.547 157.715 90.82 259.277 90.82c70.313 0 135.58 -14.16 195.801 -42.48c33.203 -14.649 67.546 -35.645 103.027 -62.988c0 0 13.184 -9.766 13.184 -9.766c2.604 -2.279 5.859 -4.15 9.766 -5.615c3.906 -1.465 8.382 -2.442 13.427 -2.93c5.046 -0.488 10.173 0.977 15.381 4.395c5.209 3.418 9.44 8.87 12.696 16.357c3.906 10.742 5.045 20.182 3.418 28.32c-1.628 8.138 -4.395 14.486 -8.301 19.043c0 0 -6.348 7.324 -6.348 7.324c-51.758 43.946 -108.236 77.637 -169.434 101.075c-61.523 23.112 -124.511 34.668 -188.964 34.668c-152.67 0 -270.996 -51.758 -354.981 -155.274c-69.661 -85.286 -104.492 -186.686 -104.492 -304.199c0 0 0 0 0 0m339.844 41.992c0 28.972 6.185 52.572 18.554 70.801c12.045 17.904 29.297 26.855 51.758 26.855c39.063 0 71.452 -32.389 97.168 -97.168c24.74 -65.104 37.11 -116.21 37.11 -153.32c0 -21.484 -5.697 -39.388 -17.09 -53.711c-11.719 -14.323 -27.507 -21.484 -47.364 -21.484c-38.411 0 -71.289 25.879 -98.632 77.637c-27.67 51.432 -41.504 101.562 -41.504 150.39c0 0 0 0 0 0" />
  </g>
</svg>