<svg height="1000px" width="829.58984375px" xmlns="http://www.w3.org/2000/svg">
  <g>
    <path d="M0 801.7578125c0 -45.898 16.113 -85.286 48.34 -118.164c0 0 401.855 -404.297 401.855 -404.297c20.834 -21.159 45.98 -31.738 75.44 -31.738c29.459 0 54.606 10.579 75.439 31.738c21.159 20.508 31.739 46.061 31.739 76.66c0 29.623 -10.58 55.013 -31.739 76.172c0 0 -300.781 303.711 -300.781 303.711c0 0 -54.688 -55.664 -54.688 -55.664c0 0 301.27 -303.711 301.27 -303.711c5.534 -5.534 8.301 -12.37 8.301 -20.508c0 -8.463 -2.767 -15.462 -8.301 -20.996c-5.859 -5.859 -12.939 -8.789 -21.24 -8.789c-8.301 0 -15.381 2.93 -21.24 8.789c0 0 -401.368 404.297 -401.368 404.297c-16.927 16.927 -25.39 37.76 -25.39 62.5c0 24.74 8.463 45.573 25.39 62.5c17.253 17.253 38.086 25.879 62.5 25.879c24.414 0 45.248 -8.626 62.5 -25.879c0 0 482.422 -484.375 482.422 -484.375c28.321 -28.971 42.481 -63.477 42.481 -103.516c0 -40.039 -14.16 -74.218 -42.481 -102.539c-28.646 -28.646 -62.988 -42.968 -103.027 -42.968c-40.039 0 -74.382 14.322 -103.027 42.968c0 0 -366.7 369.141 -366.7 369.141c0 0 -54.687 -56.152 -54.687 -56.152c0 0 366.699 -368.653 366.699 -368.653c43.294 -43.294 95.785 -64.941 157.471 -64.941c61.686 0 114.176 21.647 157.47 64.941c43.295 43.295 64.942 96.029 64.942 158.203c0 62.826 -21.647 115.886 -64.942 159.18c0 0 -481.933 484.375 -481.933 484.375c-32.552 32.552 -71.615 48.828 -117.188 48.828c-45.573 0 -84.635 -16.276 -117.187 -48.828c-32.227 -32.878 -48.34 -72.266 -48.34 -118.164c0 0 0 0 0 0" />
  </g>
</svg>