<svg height="1000" width="829.59" xmlns="http://www.w3.org/2000/svg"><path d="M0 801.872q0 68.808 48.312 118.096 48.8 48.8 117.12 48.8t117.12 -48.8l481.656 -484.096q64.904 -64.904 64.904 -159.088 0 -93.208 -64.904 -158.112t-157.38 -64.904 -157.38 64.904l-366.488 368.44 54.656 56.12 366.488 -368.928q42.944 -42.944 102.968 -42.944t102.968 42.944q42.456 42.456 42.456 102.48t-42.456 103.456l-482.144 484.096q-25.864 25.864 -62.464 25.864t-62.464 -25.864q-25.376 -25.376 -25.376 -62.464t25.376 -62.464l401.136 -404.064q8.784 -8.784 21.228 -8.784t21.228 8.784q8.296 8.296 8.296 20.984 0 12.2 -8.296 20.496l-301.096 303.536 54.656 55.632 300.608 -303.536q31.72 -31.72 31.72 -76.128 0 -45.872 -31.72 -76.616 -31.232 -31.72 -75.396 -31.72t-75.396 31.72l-401.624 404.064q-48.312 49.288 -48.312 118.096z"/></svg>