<svg height="1000" width="829.59" xmlns="http://www.w3.org/2000/svg"><path d="M0 801.872q0 -68.808 48.312 -118.096l401.624 -404.064q31.232 -31.72 75.396 -31.72t75.396 31.72q31.72 30.744 31.72 76.616 0 44.408 -31.72 76.128l-300.608 303.536 -54.656 -55.632 301.096 -303.536q8.296 -8.296 8.296 -20.496 0 -12.688 -8.296 -20.984 -8.784 -8.784 -21.228 -8.784t-21.228 8.784l-401.136 404.064q-25.376 25.376 -25.376 62.464t25.376 62.464q25.864 25.864 62.464 25.864t62.464 -25.864l482.144 -484.096q42.456 -43.432 42.456 -103.456t-42.456 -102.48q-42.944 -42.944 -102.968 -42.944t-102.968 42.944l-366.488 368.928 -54.656 -56.12 366.488 -368.44q64.904 -64.904 157.38 -64.904t157.38 64.904 64.904 158.112q0 94.184 -64.904 159.088l-481.656 484.096q-48.8 48.8 -117.12 48.8t-117.12 -48.8q-48.312 -49.288 -48.312 -118.096z"/></svg>