<svg height="1000" width="937.5" xmlns="http://www.w3.org/2000/svg"><path d="M0 500.288q0-95.648 37.088-182.268t99.796-149.328 149.328-99.796 182.268-37.088q95.16 0 181.78 37.088t149.572 99.796 100.04 149.328 37.088 182.268q0 95.16-37.088 182.024t-100.04 149.572-149.572 99.796-181.78 37.088q-95.648 0-182.268-37.088t-149.328-99.796-99.796-149.572-37.088-182.024zm386.984-196.664l26.84 244.488q2.44 20.496 17.324 35.38t35.868 16.836q23.912 2.44 42.7-12.688t21.228-39.528l26.84-244.488v-16.592q-3.904-35.136-31.232-57.584t-62.464-19.032-57.828 30.744-19.276 62.464zm12.2 411.384q0 30.256 21.472 51.728t51.728 21.472 51.728-21.472 21.472-51.728-21.472-51.728q-20.496-20.496-51.728-20.496t-51.728 20.496q-21.472 21.472-21.472 51.728z"/></svg>