<svg height="1000" width="937.5" xmlns="http://www.w3.org/2000/svg"><path d="M0 500.288q0-95.648 37.088-182.268t99.796-149.328 149.328-99.796 182.268-37.088q95.16 0 182.024 37.088t149.572 99.796 99.796 149.328 37.088 182.268q0 95.16-37.088 182.024t-99.796 149.572-149.572 99.796-182.024 37.088q-95.648 0-182.268-37.088t-149.328-99.796-99.796-149.572-37.088-182.024zm117.12 0q0 95.648 47.092 176.412t128.1 127.856 176.168 47.092q95.648 0 176.412-47.092t127.856-127.856 47.092-176.412q0-95.16-47.092-176.168t-127.856-128.1-176.412-47.092q-71.248 0-136.396 27.816t-112.24 74.908-74.908 112.24-27.816 136.396zm270.352-196.664q-3.416-35.136 19.032-62.464t58.072-30.744q35.136-3.416 62.464 19.032t30.744 57.584q.976 8.784 0 16.592l-26.84 244.488q-1.952 23.912-20.74 39.284t-43.188 12.932q-20.984-1.952-35.868-16.836t-17.324-35.38zm11.712 411.384q0-31.232 21.96-51.728 20.008-20.496 51.484-20.496t51.484 20.496q21.96 20.496 21.96 51.728t-21.96 51.728q-20.496 21.96-51.728 21.96-30.744 0-51.24-21.96-21.96-20.496-21.96-51.728z"/></svg>