<svg height="1000" width="904.785" xmlns="http://www.w3.org/2000/svg"><path d="M0 410.008q.976-21.472 14.64-41.48 15.128-22.936 39.284-34.892t48.556-10.004q2.928 0 8.296.976 40.992 3.904 75.152-6.832 92.232-29.768 238.632-176.168 54.168-54.168 126.636-73.2t144.692 0 126.392 73.2 73.2 126.636 0 144.692-73.2 126.392q-40.504 40.504-71.736 76.86t-50.752 62.708-32.94 51.972-19.276 41.236-8.296 33.428-1.952 25.864 1.464 21.228q.976 5.856.976 8.784 1.952 24.4-10.248 48.8t-34.648 39.528q-20.008 13.176-41.48 14.396t-46.36-6.1q-.488 0-10.492-2.44t-20.252-5.368-28.792-10.248-37.332-16.104-44.164-23.912-50.752-33.184-56.364-44.164-61.244-56.364q-27.328-27.328-50.996-54.656t-40.992-51.24-31.72-46.36-24.4-42.212-17.324-36.112-12.2-30.744-7.32-23.424-4.392-16.836-1.952-8.296q-7.32-24.888-6.344-46.36zm98.088 65.392q4.88 29.768 23.424 67.1t52.46 82.228 76.86 87.84q88.328 87.84 170.312 129.808t110.288 13.176q20.984-22.448 1.952-76.372t-70.272-120.292q-7.808 10.736-14.152 17.08-33.184 32.696-80.52 32.696t-80.52-32.696q-33.184-33.184-33.184-81.008t33.184-81.008q6.344-5.368 16.592-13.176-66.368-51.24-120.048-70.516t-76.128 1.708q-15.128 13.664-10.248 43.432z"/></svg>