<svg height="1000" width="937.5" xmlns="http://www.w3.org/2000/svg"><path d="M0 880.928v-761.28q0 -36.112 26.108 -61.976t62.22 -25.864h761.28q36.112 0 61.732 25.864t25.62 61.976v761.28q0 36.112 -25.62 61.976t-61.732 25.864h-761.28q-36.112 0 -62.22 -25.864t-26.108 -61.976zm88.328 0h761.28v-527.04h-761.28v527.04zm60.024 -58.56v-175.68h175.68v175.68h-175.68zm0 -234.24v-175.68h175.68v175.68h-175.68zm234.24 234.24v-175.68h175.68v175.68h-175.68zm0 -234.24v-175.68h175.68v175.68h-175.68zm234.24 234.24v-175.68h175.68v175.68h-175.68zm0 -234.24v-175.68h175.68v175.68h-175.68z"/></svg>