<svg height="1000px" width="1054.6875px" xmlns="http://www.w3.org/2000/svg">
  <g>
    <path d="M0 754.39453125c0 0 0 -508.301 0 -508.301c0 -43.294 15.544 -80.159 46.631 -110.595c31.087 -30.437 68.441 -45.655 112.06 -45.655c0 0 737.305 0 737.305 0c43.62 0 80.973 15.218 112.061 45.655c31.087 30.436 46.63 67.301 46.63 110.595c0 0 0 508.301 0 508.301c0 42.969 -15.543 79.671 -46.63 110.107c-31.088 30.437 -68.441 45.655 -112.061 45.655c0 0 -737.305 0 -737.305 0c-43.619 0 -80.973 -15.218 -112.06 -45.655c-31.087 -30.436 -46.631 -67.138 -46.631 -110.107c0 0 0 0 0 0m114.258 -508.301c0 12.044 4.313 22.298 12.939 30.762c8.627 8.463 19.125 12.695 31.494 12.695c12.045 0 22.38 -4.232 31.006 -12.695c8.627 -8.464 12.94 -18.718 12.94 -30.762c0 -12.044 -4.313 -22.461 -12.94 -31.25c-8.626 -8.789 -18.961 -13.183 -31.006 -13.183c-12.044 0 -22.461 4.394 -31.25 13.183c-8.789 8.789 -13.183 19.206 -13.183 31.25c0 0 0 0 0 0m179.199 245.117c0 42.318 10.498 81.462 31.494 117.432c20.996 35.97 49.479 64.453 85.449 85.449c35.97 20.996 75.114 31.494 117.432 31.494c42.318 0 81.462 -10.498 117.432 -31.494c35.97 -20.996 64.453 -49.479 85.449 -85.449c20.996 -35.97 31.494 -75.114 31.494 -117.432c0 -42.317 -10.498 -81.461 -31.494 -117.431c-20.996 -35.97 -49.479 -64.453 -85.449 -85.449c-35.97 -20.997 -75.114 -31.495 -117.432 -31.495c-42.318 0 -81.462 10.498 -117.432 31.495c-35.97 20.996 -64.453 49.479 -85.449 85.449c-20.996 35.97 -31.494 75.114 -31.494 117.431c0 0 0 0 0 0m87.891 0c0 -40.364 14.241 -74.788 42.724 -103.271c28.483 -28.483 63.07 -42.725 103.76 -42.725c40.69 0 75.277 14.242 103.76 42.725c28.483 28.483 42.724 62.907 42.724 103.271c0 40.691 -14.323 75.358 -42.968 104.004c-28.646 28.646 -63.151 42.969 -103.516 42.969c-40.365 0 -74.87 -14.323 -103.516 -42.969c-28.645 -28.646 -42.968 -63.313 -42.968 -104.004c0 0 0 0 0 0" />
  </g>
</svg>