<svg height="1000px" width="937.5px" xmlns="http://www.w3.org/2000/svg">
  <g>
    <path d="M0 500c0 -63.477 12.37 -124.186 37.109 -182.129c24.74 -57.943 58.024 -107.829 99.854 -149.658c41.829 -41.83 91.715 -75.114 149.658 -99.854c57.943 -24.739 118.652 -37.109 182.129 -37.109c63.477 0 124.186 12.37 182.129 37.109c57.943 24.74 107.829 58.024 149.658 99.854c41.83 41.829 75.114 91.715 99.854 149.658c24.739 57.943 37.109 118.652 37.109 182.129c0 63.477 -12.37 124.186 -37.109 182.129c-24.74 57.943 -58.024 107.829 -99.854 149.658c-41.829 41.83 -91.715 75.114 -149.658 99.854c-57.943 24.739 -118.652 37.109 -182.129 37.109c-63.477 0 -124.186 -12.37 -182.129 -37.109c-57.943 -24.74 -107.829 -58.024 -149.658 -99.854c-41.83 -41.829 -75.114 -91.715 -99.854 -149.658c-24.739 -57.943 -37.109 -118.652 -37.109 -182.129c0 0 0 0 0 0m260.742 155.273c0 14.649 5.209 27.019 15.625 37.11c10.091 10.416 22.298 15.625 36.621 15.625c14.649 0 27.181 -5.209 37.598 -15.625c0 0 118.164 -118.164 118.164 -118.164c0 0 118.652 118.164 118.652 118.164c10.091 10.416 22.461 15.625 37.11 15.625c14.323 0 26.692 -5.209 37.109 -15.625c10.091 -10.091 15.137 -22.461 15.137 -37.11c0 -14.648 -5.046 -27.018 -15.137 -37.109c0 0 -118.652 -118.164 -118.652 -118.164c0 0 118.652 -119.141 118.652 -119.141c10.091 -10.091 15.137 -22.461 15.137 -37.109c0 -14.648 -5.046 -27.018 -15.137 -37.109c-10.091 -10.092 -22.461 -15.137 -37.109 -15.137c-14.649 0 -27.019 5.045 -37.11 15.137c0 0 -118.652 119.14 -118.652 119.14c0 0 -118.164 -119.14 -118.164 -119.14c-10.417 -10.092 -22.868 -15.137 -37.354 -15.137c-14.485 0 -26.774 5.045 -36.865 15.137c-10.416 10.091 -15.625 22.461 -15.625 37.109c0 14.648 5.209 27.018 15.625 37.109c0 0 118.164 119.141 118.164 119.141c0 0 -118.164 118.164 -118.164 118.164c-10.416 10.091 -15.625 22.461 -15.625 37.109c0 0 0 0 0 0" />
  </g>
</svg>