<svg height="1000" width="686.523" xmlns="http://www.w3.org/2000/svg"><path d="M0 759.904q0 -35.624 25.864 -61.488l195.2 -195.2 -195.2 -195.688q-25.864 -25.376 -25.864 -61t25.864 -61 61.244 -25.376 60.756 25.376l195.688 195.688 195.2 -195.688q25.376 -25.376 61 -25.376t61 25.376 25.376 61 -25.376 61l-195.2 195.688 195.2 195.2q25.376 25.864 25.376 61.488t-25.376 61q-24.888 25.376 -61 25.376t-61 -25.376l-195.2 -195.2 -195.688 195.2q-24.888 25.376 -61 25.376t-61 -25.376q-25.864 -25.376 -25.864 -61z"/></svg>