<svg height="1000" width="937.5" xmlns="http://www.w3.org/2000/svg"><path d="M0 500.288q0 -95.16 37.088 -182.024t99.796 -149.572 149.572 -99.796 182.024 -37.088 182.024 37.088 149.572 99.796 99.796 149.572 37.088 182.024 -37.088 182.024 -99.796 149.572 -149.572 99.796 -182.024 37.088 -182.024 -37.088 -149.572 -99.796 -99.796 -149.572 -37.088 -182.024zm260.592 155.184q0 21.96 15.616 37.088 15.128 15.616 36.6 15.616 21.96 0 37.576 -15.616l118.096 -118.096 118.584 118.096q15.128 15.616 37.088 15.616 21.472 0 37.088 -15.616 15.128 -15.128 15.128 -37.088t-15.128 -37.088l-118.584 -118.096 118.584 -119.072q15.128 -15.128 15.128 -37.088t-15.128 -37.088 -37.088 -15.128 -37.088 15.128l-118.584 119.072 -118.096 -119.072q-15.616 -15.128 -37.332 -15.128t-36.844 15.128q-15.616 15.128 -15.616 37.088t15.616 37.088l118.096 119.072 -118.096 118.096q-15.616 15.128 -15.616 37.088z"/></svg>