<svg height="1000" width="1018.066" xmlns="http://www.w3.org/2000/svg"><path d="M2.196 410.984q5.124 -8.296 19.764 -8.296h68.808q17.08 -78.568 59.536 -147.132t102.236 -117.852 136.884 -77.592 160.064 -28.304q95.16 0 181.78 37.088t149.572 99.552 100.04 149.084 37.088 181.78 -37.088 182.024 -100.04 149.816 -149.572 100.284 -181.78 37.332q-161.04 0 -288.408 -99.552 -23.912 -18.544 -27.572 -48.556t14.884 -53.436q18.544 -23.912 48.556 -27.572t53.436 14.884q88.816 68.32 199.104 68.32 87.84 0 162.016 -43.432t117.364 -117.852 43.188 -162.26q0 -65.392 -25.62 -125.172t-68.808 -102.968 -102.968 -68.808 -125.172 -25.62q-106.872 0 -191.54 63.196t-116.388 162.748h43.432q14.64 0 19.52 8.296t-2.928 20.496l-134.688 221.552q-5.856 7.808 -13.664 7.808 -3.416 0 -6.588 -1.952t-4.636 -3.904l-1.464 -1.952 -135.664 -221.552q-7.808 -12.2 -2.684 -20.496z"/></svg>