<svg height="1000" width="937.5" xmlns="http://www.w3.org/2000/svg"><path d="M0 900.448v-557.296q0 -20.984 15.128 -35.868t36.112 -14.884h122q20.984 0 35.868 14.884t14.884 35.868v557.296q0 20.984 -14.884 36.112t-35.868 15.128h-122q-20.984 0 -36.112 -15.128t-15.128 -36.112zm362.096 0v-379.176q0 -20.984 14.884 -36.112t35.868 -15.128h122q20.984 0 35.868 15.128t14.884 36.112v379.176q0 20.984 -14.64 35.868t-36.112 14.884h-122q-20.984 0 -35.868 -14.884t-14.884 -35.868zm351.36 0v-801.296q0 -20.984 14.884 -35.868t35.868 -14.884h122q20.984 0 35.868 14.884t14.884 35.868v801.296q0 21.472 -14.884 36.356t-35.868 14.884h-122q-20.984 0 -35.868 -15.128t-14.884 -36.112z"/></svg>