<svg height="1000" width="1294.434" xmlns="http://www.w3.org/2000/svg"><path d="M0 370.48q0 -107.848 68.32 -199.348t185.44 -144.692 255.224 -53.192q103.944 0 198.128 31.476t162.016 84.668 108.092 126.636 40.26 154.452q0 64.904 -25.62 125.416t-72.468 109.556 -109.312 85.888 -140.3 56.852 -160.796 20.008q-103.456 0 -193.736 -29.768l-116.144 81.008q-64.904 41.48 -91.5 24.156t-10.98 -96.868l23.424 -121.024q-57.096 -52.704 -88.572 -118.34t-31.476 -136.884zm649.528 467.992q118.096 -23.424 215.208 -82.472t158.356 -145.18 74.908 -186.172q88.816 35.624 142.252 102.48t53.436 146.888q0 49.288 -21.96 95.648t-61.488 83.448l17.08 85.4q9.76 55.632 -8.54 67.832t-64.172 -17.08l-81.496 -57.584q-63.44 21.472 -136.152 21.472 -87.352 0 -162.992 -30.744t-124.44 -83.936z"/></svg>