<svg height="1000px" width="920.41015625px" xmlns="http://www.w3.org/2000/svg">
  <g>
    <path d="M0 510.986328125c0 -23.275 8.138 -43.05 24.414 -59.326c16.927 -16.276 37.028 -24.414 60.303 -24.414c23.275 0 43.375 8.138 60.303 24.414c0 0 185.546 181.64 185.546 181.64c0 0 444.336 -436.035 444.336 -436.035c16.927 -16.276 37.028 -24.414 60.303 -24.414c23.275 0 43.376 8.138 60.303 24.414c16.927 15.951 25.39 35.482 25.39 58.594c0 23.112 -8.463 42.806 -25.39 59.082c0 0 -505.371 495.117 -505.371 495.117c-16.276 16.276 -36.133 24.414 -59.571 24.414c-24.088 0 -44.27 -8.138 -60.546 -24.414c0 0 -245.606 -239.746 -245.606 -239.746c-16.276 -16.276 -24.414 -36.051 -24.414 -59.326c0 0 0 0 0 0" />
  </g>
</svg>