<svg height="1000px" width="816.89453125px" xmlns="http://www.w3.org/2000/svg">
  <g>
    <path d="M0 682.861328125c0 -17.09 6.022 -31.494 18.066 -43.213c0 0 390.625 -390.625 390.625 -390.625c0 0 390.625 390.625 390.625 390.625c11.719 11.719 17.579 26.042 17.579 42.969c0 17.252 -5.86 31.901 -17.579 43.945c-12.044 11.719 -26.53 17.578 -43.457 17.578c-16.927 0 -31.412 -5.859 -43.457 -17.578c0 0 -303.711 -304.687 -303.711 -304.687c0 0 -304.199 304.687 -304.199 304.687c-12.044 11.719 -26.53 17.578 -43.457 17.578c-16.927 0 -31.25 -5.859 -42.969 -17.578c-12.044 -12.044 -18.066 -26.611 -18.066 -43.701c0 0 0 0 0 0" />
  </g>
</svg>