<svg height="1000px" width="495.1171875px" xmlns="http://www.w3.org/2000/svg">
  <g>
    <path d="M0 497.0703125c0 0 391.113 -391.113 391.113 -391.113c12.045 -12.045 26.367 -18.067 42.969 -18.067c16.276 0 30.762 6.022 43.457 18.067c11.719 12.044 17.578 26.53 17.578 43.457c0 16.927 -5.859 31.413 -17.578 43.457c0 0 -304.687 304.199 -304.687 304.199c0 0 304.687 304.688 304.687 304.688c11.719 11.718 17.578 26.041 17.578 42.968c0 16.927 -5.859 31.413 -17.578 43.457c-12.044 11.719 -26.53 17.578 -43.457 17.578c-16.927 0 -31.25 -5.859 -42.969 -17.578c0 0 -391.113 -391.113 -391.113 -391.113" />
  </g>
</svg>