<svg height="1000px" width="817.3828125px" xmlns="http://www.w3.org/2000/svg">
  <g>
    <path d="M0 316.40625c0 -16.602 6.022 -30.924 18.066 -42.969c12.045 -12.044 26.53 -18.066 43.457 -18.066c16.928 0 31.25 6.022 42.969 18.066c0 0 304.688 303.711 304.688 303.711c0 0 304.199 -303.711 304.199 -303.711c12.044 -12.044 26.53 -18.066 43.457 -18.066c16.927 0 31.25 6.022 42.969 18.066c12.044 12.045 18.066 26.449 18.066 43.213c0 16.764 -6.022 31.169 -18.066 43.213c0 0 -390.625 390.625 -390.625 390.625c0 0 -391.114 -390.625 -391.114 -390.625c-12.044 -12.695 -18.066 -27.181 -18.066 -43.457c0 0 0 0 0 0" />
  </g>
</svg>