<svg height="1000px" width="495.1171875px" xmlns="http://www.w3.org/2000/svg">
  <g>
    <path d="M0 850.341796875c0 -16.764 6.022 -31.169 18.066 -43.213c0 0 304.688 -304.199 304.688 -304.199c0 0 -304.688 -304.688 -304.688 -304.688c-12.044 -12.044 -18.066 -26.448 -18.066 -43.213c0 -16.764 6.022 -31.168 18.066 -43.212c12.045 -12.045 26.53 -18.067 43.457 -18.067c16.928 0 31.413 6.022 43.457 18.067c0 0 390.625 391.113 390.625 391.113c0 0 -390.625 390.625 -390.625 390.625c-12.695 12.044 -27.181 18.066 -43.457 18.066c-16.276 0 -30.761 -6.022 -43.457 -18.066c-12.044 -12.044 -18.066 -26.449 -18.066 -43.213c0 0 0 0 0 0" />
  </g>
</svg>