<svg height="1000px" width="937.5px" xmlns="http://www.w3.org/2000/svg">
  <g>
    <path d="M0 500c0 -63.477 12.37 -124.186 37.109 -182.129c24.74 -57.943 58.024 -107.829 99.854 -149.658c41.829 -41.83 91.715 -75.114 149.658 -99.854c57.943 -24.739 118.652 -37.109 182.129 -37.109c63.477 0 124.186 12.37 182.129 37.109c57.943 24.74 107.829 58.024 149.658 99.854c41.83 41.829 75.114 91.715 99.854 149.658c24.739 57.943 37.109 118.652 37.109 182.129c0 63.477 -12.37 124.186 -37.109 182.129c-24.74 57.943 -58.024 107.829 -99.854 149.658c-41.829 41.83 -91.715 75.114 -149.658 99.854c-57.943 24.739 -118.652 37.109 -182.129 37.109c-63.477 0 -124.186 -12.37 -182.129 -37.109c-57.943 -24.74 -107.829 -58.024 -149.658 -99.854c-41.83 -41.829 -75.114 -91.715 -99.854 -149.658c-24.739 -57.943 -37.109 -118.652 -37.109 -182.129c0 0 0 0 0 0m117.188 0c0 63.802 15.706 122.64 47.119 176.514c31.412 53.873 74.137 96.517 128.173 127.929c54.037 31.413 112.793 47.12 176.27 47.12c63.802 0 122.64 -15.707 176.514 -47.12c53.873 -31.412 96.517 -74.056 127.929 -127.929c31.413 -53.874 47.12 -112.712 47.12 -176.514c0 -63.477 -15.707 -122.233 -47.12 -176.27c-31.412 -54.036 -74.056 -96.761 -127.929 -128.173c-53.874 -31.413 -112.712 -47.12 -176.514 -47.12c-47.526 0 -93.018 9.278 -136.475 27.833c-43.457 18.554 -80.892 43.538 -112.304 74.951c-31.413 31.412 -56.397 68.847 -74.951 112.304c-18.555 43.457 -27.832 88.949 -27.832 136.475c0 0 0 0 0 0m292.968 0c0 0 0 -224.609 0 -224.609c0 -15.951 5.697 -29.704 17.09 -41.26c11.393 -11.556 25.228 -17.334 41.504 -17.334c16.276 0 30.111 5.778 41.504 17.334c11.393 11.556 17.09 25.309 17.09 41.26c0 0 0 200.195 0 200.195c0 0 141.601 141.602 141.601 141.602c11.394 11.393 17.09 25.227 17.09 41.503c0 16.276 -5.696 30.111 -17.09 41.504c-11.393 11.394 -25.065 17.09 -41.015 17.09c-16.276 0 -30.111 -5.696 -41.504 -17.09c0 0 -159.18 -158.691 -159.18 -158.691c-0.976 -0.977 -2.197 -2.523 -3.662 -4.639c-1.465 -2.116 -2.523 -3.499 -3.174 -4.15c-0.651 -0.977 -1.465 -2.442 -2.441 -4.395c0 0 -1.465 -2.929 -1.465 -2.929c0 0 -0.488 -1.14 -1.465 -3.418c-0.325 -0.326 -0.977 -2.116 -1.953 -5.371c-0.977 -2.93 -1.465 -4.558 -1.465 -4.883c-0.976 -3.907 -1.465 -7.813 -1.465 -11.719c0 0 0 0 0 0" />
  </g>
</svg>