<svg height="1000px" width="1205.078125px" xmlns="http://www.w3.org/2000/svg">
  <g>
    <path d="M0.244140625 598.6328125c-1.465 -29.948 1.709 -58.675 9.521 -86.182c7.813 -27.506 19.369 -53.385 34.668 -77.636c15.3 -24.252 34.506 -45.817 57.618 -64.698c23.112 -18.88 48.828 -33.854 77.148 -44.922c51.432 -19.531 103.353 -23.763 155.762 -12.695c24.414 -53.711 61.523 -96.924 111.328 -129.638c49.805 -32.715 105.143 -49.073 166.016 -49.073c41.341 0 80.81 8.057 118.408 24.17c37.597 16.113 69.987 37.761 97.168 64.942c27.181 27.181 48.828 59.57 64.941 97.168c16.113 37.597 24.17 77.067 24.17 118.408c0 6.185 -0.651 15.136 -1.953 26.855c0.976 0 2.197 -0.325 3.662 -0.976c1.465 -0.651 2.523 -1.14 3.174 -1.465c53.385 -20.834 106.364 -19.45 158.935 4.15c52.572 23.6 89.274 62.093 110.108 115.479c13.021 37.109 16.927 73.161 11.719 108.154c-5.209 34.994 -19.532 67.22 -42.969 96.68c-23.438 29.459 -52.897 51.025 -88.379 64.697c-23.438 8.464 -47.526 13.021 -72.266 13.672c0 0 -298.34 0 -298.34 0c0 0 0 -167.969 0 -167.969c0 0 67.872 0 67.872 0c12.369 0 20.589 -3.581 24.658 -10.742c4.069 -7.162 2.848 -15.788 -3.662 -25.879c0 0 -170.899 -275.391 -170.899 -275.391c-4.557 -6.51 -9.928 -9.765 -16.113 -9.765c-2.93 0 -5.778 0.814 -8.545 2.441c-2.767 1.628 -4.801 3.255 -6.104 4.883c0 0 -1.953 2.441 -1.953 2.441c0 0 -170.898 275.391 -170.898 275.391c-6.51 10.091 -7.568 18.717 -3.174 25.879c4.395 7.161 12.777 10.742 25.147 10.742c0 0 66.894 0 66.894 0c0 0 0 167.969 0 167.969c0 0 -224.121 0 -224.121 0c0 0 0 -0.488 0 -0.488c-56.966 0 -109.456 -16.195 -157.471 -48.584c-48.014 -32.39 -82.438 -75.928 -103.271 -130.616c-11.068 -28.32 -17.334 -57.454 -18.799 -87.402c0 0 0 0 0 0" />
  </g>
</svg>