<svg height="1000px" width="1205.078125px" xmlns="http://www.w3.org/2000/svg">
  <g>
    <path d="M0.244140625 593.26171875c-1.465 -29.948 1.79 -58.675 9.766 -86.182c7.975 -27.506 19.531 -53.466 34.668 -77.88c15.136 -24.415 34.261 -46.062 57.373 -64.942c23.112 -18.88 48.828 -33.854 77.148 -44.922c51.432 -19.531 103.353 -23.763 155.762 -12.695c24.414 -53.711 61.523 -96.924 111.328 -129.639c49.805 -32.715 105.143 -49.072 166.016 -49.072c41.341 0 80.81 8.057 118.408 24.17c37.597 16.113 69.987 37.76 97.168 64.941c27.181 27.181 48.828 59.571 64.941 97.168c16.113 37.598 24.17 77.067 24.17 118.408c0 6.185 -0.651 15.137 -1.953 26.856c0.976 0 2.197 -0.326 3.662 -0.977c1.465 -0.651 2.523 -0.976 3.174 -0.976c53.711 -20.834 106.771 -19.613 159.18 3.662c52.408 23.275 89.029 61.767 109.863 115.478c13.021 37.11 16.927 73.161 11.719 108.155c-5.209 34.993 -19.532 67.22 -42.969 96.679c-23.438 29.46 -52.897 51.026 -88.379 64.698c-24.414 9.114 -48.503 13.834 -72.266 14.16c0 0 -719.238 0 -719.238 0c0 0 0 -0.488 0 -0.488c-56.966 0 -109.456 -16.195 -157.471 -48.584c-48.014 -32.39 -82.438 -75.928 -103.271 -130.616c-11.068 -28.32 -17.334 -57.454 -18.799 -87.402c0 0 0 0 0 0" />
  </g>
</svg>