<svg height="1000px" width="1205.56640625px" xmlns="http://www.w3.org/2000/svg">
  <g>
    <path d="M-0.244140625 576.171875c1.79 -36.458 9.684 -70.801 23.682 -103.027c13.997 -32.227 34.749 -61.524 62.255 -87.891c27.507 -26.367 59.164 -46.712 94.971 -61.035c42.969 -18.229 94.401 -23.112 154.297 -14.649c26.367 -52.734 64.128 -95.214 113.281 -127.441c49.154 -32.227 104.004 -48.34 164.551 -48.34c55.013 0 105.632 13.753 151.856 41.26c46.224 27.506 82.519 64.29 108.886 110.352c26.367 46.061 39.551 95.621 39.551 148.681c0 0 0 28.809 0 28.809c0 0 7.324 0 7.324 0c53.711 -21.159 106.69 -19.938 158.936 3.662c52.246 23.6 89.599 61.442 112.06 113.525c21.159 53.711 19.939 106.771 -3.662 159.18c-23.6 52.409 -61.442 89.844 -113.525 112.305c0 0 -16.602 4.15 -16.602 4.15c0 0 -5.371 1.383 -16.113 4.15c-10.742 2.767 -15.218 3.744 -13.428 2.93c1.791 -0.814 -3.011 -0.081 -14.404 2.197c-11.393 2.279 -15.625 2.523 -12.695 0.733c0 0 -724.61 0 -724.61 0c-56.315 0 -107.828 -16.195 -154.541 -48.584c-46.712 -32.39 -80.647 -77.23 -101.806 -134.522c-15.3 -34.505 -22.054 -69.987 -20.264 -106.445c0 0 0 0 0 0m448.242 -103.76c-4.069 6.348 -2.685 13.102 4.151 20.264c0 0 131.347 219.238 131.347 219.238c4.883 5.209 9.766 7.813 14.649 7.813c2.278 0 4.638 -0.651 7.08 -1.953c2.441 -1.303 4.313 -2.605 5.615 -3.907c0 0 1.953 -1.953 1.953 -1.953c0 0 139.649 -219.238 139.649 -219.238c3.906 -7.813 3.824 -14.73 -0.245 -20.752c-4.069 -6.022 -11.474 -9.033 -22.216 -9.033c0 0 -51.27 0 -51.27 0c0 0 0 -102.051 0 -102.051c0 0 -153.809 0 -153.809 0c0 0 0 102.051 0 102.051c0 0 -58.593 0 -58.593 0c-8.138 0 -14.242 3.174 -18.311 9.521c0 0 0 0 0 0" />
  </g>
</svg>