<svg height="1000" width="1205.078" xmlns="http://www.w3.org/2000/svg"><path d="M.244 593.496q-2.196 -44.896 9.76 -86.132t34.648 -77.836 57.34 -64.904 77.104 -44.896q77.104 -29.28 155.672 -12.688 36.6 -80.52 111.264 -129.564t165.92 -49.044q61.976 0 118.34 24.156t97.112 64.904 64.904 97.112 24.156 118.34q0 9.272 -1.952 26.84 1.464 0 3.66 -.976t3.172 -.976q80.52 -31.232 159.088 3.66t109.8 115.412q19.52 55.632 11.712 108.092t-42.944 96.624 -88.328 64.66q-36.6 13.664 -72.224 14.152h-718.824v-.488q-85.4 0 -157.38 -48.556t-103.212 -130.54q-16.592 -42.456 -18.788 -87.352z"/></svg>