<svg height="1000" width="937.5" xmlns="http://www.w3.org/2000/svg"><path d="M0 497.848q0 -37.576 7.32 -82.472 49.776 3.416 94.428 -19.52t70.028 -67.344q25.376 -45.872 22.936 -95.648t-30.256 -91.256q64.416 -55.632 150.304 -85.888 22.936 41.48 63.928 66.124t89.792 24.644 89.548 -24.644 63.684 -66.124q84.912 30.256 150.304 85.888 -21.472 39.528 -21.472 85.156t23.424 86.132q23.912 41.48 64.904 64.416t87.352 22.936q10.736 49.288 10.736 97.6 0 32.208 -6.832 74.664 -44.896 .976 -84.18 24.156t-62.708 63.684q-24.888 43.92 -23.668 91.988t26.596 88.572q-65.88 60.512 -145.424 92.72 -22.936 -41.968 -64.172 -66.856t-90.036 -24.888q-52.216 0 -95.404 28.06t-64.172 74.42q-82.472 -26.352 -152.744 -82.472 27.816 -40.992 30.012 -90.524t-23.668 -95.404q-26.352 -46.36 -73.444 -69.54t-98.332 -17.324q-8.784 -40.992 -8.784 -91.256zm292.8 0q0 72.712 51.484 124.196t124.196 51.484 124.196 -51.484 51.484 -124.196 -51.484 -124.196 -124.196 -51.484 -124.196 51.484 -51.484 124.196z"/></svg>