<svg height="1000" width="937.5" xmlns="http://www.w3.org/2000/svg"><path d="M0 500.288q0-95.16 37.088-181.78t100.04-149.572 149.572-100.04 181.78-37.088 182.024 37.088 149.572 100.04 99.796 149.572 37.088 181.78-37.088 181.78-99.796 149.572-149.572 100.04-182.024 37.088-181.78-37.088-149.572-100.04-100.04-149.572-37.088-181.78zm396.744 225.456q0 46.36 32.452 78.812t78.812 32.452q2.928 0 10.736.976 81.496-12.2 148.108-59.536t105.164-120.536 38.552-157.624q0-89.792-43.432-166.896t-118.34-123.708-164.212-50.996q60.512 95.648 60.512 209.352 0 81.008-30.744 153.476t-85.888 127.612q-31.72 33.184-31.72 76.616z"/></svg>