<svg height="1000px" width="937.5px" xmlns="http://www.w3.org/2000/svg">
  <g>
    <path d="M0 500c0 -63.477 12.37 -124.105 37.109 -181.885c24.74 -57.78 58.106 -107.666 100.098 -149.658c41.992 -41.992 91.878 -75.358 149.658 -100.098c57.78 -24.739 118.408 -37.109 181.885 -37.109c63.477 0 124.186 12.37 182.129 37.109c57.943 24.74 107.829 58.106 149.658 100.098c41.83 41.992 75.114 91.878 99.854 149.658c24.739 57.78 37.109 118.408 37.109 181.885c0 63.477 -12.37 124.105 -37.109 181.885c-24.74 57.78 -58.024 107.666 -99.854 149.658c-41.829 41.992 -91.715 75.358 -149.658 100.098c-57.943 24.739 -118.652 37.109 -182.129 37.109c-63.477 0 -124.105 -12.37 -181.885 -37.109c-57.78 -24.74 -107.666 -58.106 -149.658 -100.098c-41.992 -41.992 -75.358 -91.878 -100.098 -149.658c-24.739 -57.78 -37.109 -118.408 -37.109 -181.885c0 0 0 0 0 0m396.973 225.586c0 30.924 10.823 57.21 32.47 78.857c21.647 21.647 47.933 32.471 78.858 32.471c1.953 0 5.534 0.326 10.742 0.977c54.362 -8.138 103.76 -27.995 148.193 -59.571c44.434 -31.575 79.509 -71.777 105.225 -120.605c25.716 -48.828 38.574 -101.4 38.574 -157.715c0 -59.896 -14.486 -115.56 -43.457 -166.992c-28.971 -51.432 -68.441 -92.692 -118.408 -123.779c-49.968 -31.088 -104.736 -48.096 -164.307 -51.026c40.365 63.802 60.547 133.626 60.547 209.473c0 54.036 -10.254 105.224 -30.762 153.564c-20.507 48.34 -49.153 90.902 -85.937 127.686c-21.159 22.135 -31.738 47.689 -31.738 76.66c0 0 0 0 0 0" />
  </g>
</svg>