<svg height="1000" width="790.527" xmlns="http://www.w3.org/2000/svg"><path d="M0 880.928v-761.28q0 -36.112 25.62 -61.976t61.732 -25.864h615.368q36.112 0 61.732 25.864t25.62 61.976v761.28q0 36.112 -25.62 61.976t-61.732 25.864h-615.368q-36.112 0 -61.732 -25.864t-25.62 -61.976zm179.096 -293.776q0 59.048 28.792 108.824t78.812 78.812 108.58 29.036q89.792 0 153.476 -63.44t63.684 -153.232 -63.684 -153.476 -153.476 -63.684q-43.92 0 -83.936 17.324t-69.052 46.36 -46.116 69.296 -17.08 84.18zm58.56 -7.32q2.928 -62.952 48.556 -107.116t109.068 -44.164q59.536 0 103.944 39.284t52.704 97.356q0 .488 -.244 1.708t-.244 2.196q0 20.984 -15.128 36.112t-36.112 15.128q-21.472 0 -35.624 -14.152 -54.168 -54.168 -129.808 -54.168 -53.68 0 -97.112 27.816zm347.944 -386.496q0 18.056 12.932 30.744t30.988 12.688 30.744 -12.688 12.688 -30.744 -12.688 -30.988 -30.744 -12.932q-18.544 0 -31.232 12.688t-12.688 31.232z"/></svg>