<svg height="1000px" width="790.52734375px" xmlns="http://www.w3.org/2000/svg">
  <g>
    <path d="M0 880.859375c0 0 0 -761.719 0 -761.719c0 -24.088 8.545 -44.759 25.635 -62.011c17.09 -17.253 37.679 -25.879 61.767 -25.879c0 0 615.723 0 615.723 0c24.089 0 44.678 8.626 61.768 25.879c17.089 17.252 25.634 37.923 25.634 62.011c0 0 0 761.719 0 761.719c0 24.089 -8.545 44.759 -25.634 62.012c-17.09 17.252 -37.679 25.879 -61.768 25.879c0 0 -615.723 0 -615.723 0c-24.088 0 -44.677 -8.627 -61.767 -25.879c-17.09 -17.253 -25.635 -37.923 -25.635 -62.012c0 0 0 0 0 0m179.199 -293.945c0 39.388 9.603 75.683 28.809 108.886c19.206 33.204 45.491 59.489 78.857 78.858c33.366 19.368 69.58 29.053 108.643 29.053c59.896 0 111.084 -21.159 153.564 -63.477c42.481 -42.318 63.721 -93.424 63.721 -153.32c0 -59.896 -21.24 -111.084 -63.721 -153.565c-42.48 -42.48 -93.668 -63.72 -153.564 -63.72c-29.297 0 -57.292 5.778 -83.985 17.334c-26.692 11.556 -49.723 27.018 -69.091 46.386c-19.369 19.369 -34.75 42.481 -46.143 69.336c-11.393 26.856 -17.09 54.932 -17.09 84.229c0 0 0 0 0 0m58.594 -7.325c1.953 -41.992 18.148 -77.718 48.584 -107.177c30.436 -29.46 66.813 -44.19 109.131 -44.19c39.713 0 74.381 13.102 104.004 39.307c29.622 26.204 47.2 58.675 52.734 97.412c0 0.326 -0.081 0.895 -0.244 1.709c-0.163 0.814 -0.244 1.546 -0.244 2.197c0 13.998 -5.046 26.042 -15.137 36.133c-10.091 10.091 -22.135 15.137 -36.133 15.137c-14.323 0 -26.204 -4.72 -35.644 -14.16c-36.133 -36.133 -79.427 -54.2 -129.883 -54.2c-35.807 0 -68.197 9.278 -97.168 27.832c0 0 0 0 0 0m348.144 -386.718c0 12.044 4.314 22.298 12.94 30.761c8.626 8.464 18.962 12.696 31.006 12.696c12.044 0 22.298 -4.232 30.762 -12.696c8.463 -8.463 12.695 -18.717 12.695 -30.761c0 -12.045 -4.232 -22.38 -12.695 -31.006c-8.464 -8.626 -18.718 -12.94 -30.762 -12.94c-12.37 0 -22.787 4.232 -31.25 12.696c-8.464 8.463 -12.696 18.88 -12.696 31.25c0 0 0 0 0 0" />
  </g>
</svg>