<svg height="1000px" width="1083.49609375px" xmlns="http://www.w3.org/2000/svg">
  <g>
    <path d="M0 655.2734375c0 0 0 -312.5 0 -312.5c0 -5.208 2.93 -9.521 8.789 -12.939c5.859 -3.418 12.858 -5.127 20.996 -5.127c8.138 0 14.974 1.709 20.508 5.127c5.534 3.418 8.301 7.731 8.301 12.939c0 0 0 312.5 0 312.5c0 5.208 -2.767 9.684 -8.301 13.428c-5.534 3.743 -12.37 5.615 -20.508 5.615c-8.138 0 -15.137 -1.872 -20.996 -5.615c-5.859 -3.744 -8.789 -8.22 -8.789 -13.428c0 0 0 0 0 0m124.512 58.594c0 0 0 -428.711 0 -428.711c0 -5.209 2.848 -9.684 8.545 -13.428c5.696 -3.743 12.614 -5.615 20.752 -5.615c7.812 0 14.648 1.872 20.507 5.615c5.86 3.744 8.789 8.219 8.789 13.428c0 0 0 428.711 0 428.711c0 5.208 -2.929 9.603 -8.789 13.183c-5.859 3.581 -12.695 5.371 -20.507 5.371c-8.138 0 -15.056 -1.79 -20.752 -5.371c-5.697 -3.58 -8.545 -7.975 -8.545 -13.183c0 0 0 0 0 0m140.625 38.574c0 0 0 -506.348 0 -506.348c0 -10.416 3.743 -19.368 11.23 -26.855c7.487 -7.487 16.439 -11.231 26.856 -11.231c0 0 477.539 0 477.539 0c10.416 0 19.45 3.744 27.099 11.231c7.65 7.487 11.475 16.439 11.475 26.855c0 0 0 506.348 0 506.348c0 10.417 -3.825 19.45 -11.475 27.1c-7.649 7.649 -16.683 11.474 -27.099 11.474c0 0 -477.539 0 -477.539 0c-10.417 0 -19.369 -3.825 -26.856 -11.474c-7.487 -7.65 -11.23 -16.683 -11.23 -27.1c0 0 0 0 0 0m87.402 -48.828c0 0 378.906 0 378.906 0c0 0 0 -408.692 0 -408.692c0 0 -378.906 0 -378.906 0c0 0 0 408.692 0 408.692c0 0 0 0 0 0m548.828 10.254c0 0 0 -428.711 0 -428.711c0 -5.209 2.767 -9.684 8.301 -13.428c5.534 -3.743 12.37 -5.615 20.508 -5.615c8.138 0 15.136 1.872 20.996 5.615c5.859 3.744 8.789 8.219 8.789 13.428c0 0 0 428.711 0 428.711c0 5.208 -2.93 9.603 -8.789 13.183c-5.86 3.581 -12.858 5.371 -20.996 5.371c-8.138 0 -14.974 -1.79 -20.508 -5.371c-5.534 -3.58 -8.301 -7.975 -8.301 -13.183c0 0 0 0 0 0m124.512 -58.594c0 0 0 -312.5 0 -312.5c0 -5.208 2.767 -9.521 8.301 -12.939c5.534 -3.418 12.369 -5.127 20.508 -5.127c8.138 0 14.973 1.709 20.507 5.127c5.534 3.418 8.301 7.731 8.301 12.939c0 0 0 312.5 0 312.5c0 5.208 -2.767 9.684 -8.301 13.428c-5.534 3.743 -12.369 5.615 -20.507 5.615c-8.139 0 -14.974 -1.872 -20.508 -5.615c-5.534 -3.744 -8.301 -8.22 -8.301 -13.428c0 0 0 0 0 0" />
  </g>
</svg>