<svg height="1000px" width="1083.49609375px" xmlns="http://www.w3.org/2000/svg">
  <g>
    <path d="M0 656.73828125c0 0 0 -313.965 0 -313.965c0 -5.208 2.767 -9.603 8.301 -13.183c5.534 -3.581 12.37 -5.372 20.508 -5.372c8.138 0 15.055 1.791 20.752 5.372c5.696 3.58 8.544 7.975 8.544 13.183c0 0 0 313.965 0 313.965c0 5.208 -2.848 9.684 -8.544 13.428c-5.697 3.743 -12.614 5.615 -20.752 5.615c-8.138 0 -14.974 -1.872 -20.508 -5.615c-5.534 -3.744 -8.301 -8.22 -8.301 -13.428c0 0 0 0 0 0m124.023 58.594c0 0 0 -431.153 0 -431.153c0 -5.208 2.849 -9.602 8.545 -13.183c5.697 -3.581 12.614 -5.371 20.752 -5.371c8.138 0 15.056 1.79 20.752 5.371c5.697 3.581 8.545 7.975 8.545 13.183c0 0 0 431.153 0 431.153c0 5.208 -2.848 9.684 -8.545 13.427c-5.696 3.744 -12.614 5.616 -20.752 5.616c-8.138 0 -15.055 -1.872 -20.752 -5.616c-5.696 -3.743 -8.545 -8.219 -8.545 -13.427c0 0 0 0 0 0m140.625 39.062c0 0 0 -508.301 0 -508.301c0 -10.742 3.744 -19.938 11.231 -27.587c7.487 -7.65 16.601 -11.475 27.344 -11.475c0 0 477.539 0 477.539 0c10.416 0 19.368 3.743 26.855 11.23c7.487 7.487 11.231 16.765 11.231 27.832c0 0 0 508.301 0 508.301c0 10.417 -3.744 19.45 -11.231 27.1c-7.487 7.65 -16.439 11.474 -26.855 11.474c0 0 -477.539 0 -477.539 0c-10.417 0 -19.45 -3.824 -27.1 -11.474c-7.65 -7.65 -11.475 -16.683 -11.475 -27.1c0 0 0 0 0 0m636.231 -39.062c0 0 0 -431.153 0 -431.153c0 -5.208 2.848 -9.602 8.545 -13.183c5.696 -3.581 12.451 -5.371 20.264 -5.371c8.138 0 15.136 1.79 20.996 5.371c5.859 3.581 8.789 7.975 8.789 13.183c0 0 0 431.153 0 431.153c0 5.208 -2.93 9.684 -8.789 13.427c-5.86 3.744 -12.858 5.616 -20.996 5.616c-7.813 0 -14.568 -1.872 -20.264 -5.616c-5.697 -3.743 -8.545 -8.219 -8.545 -13.427c0 0 0 0 0 0m124.023 -58.594c0 0 0 -313.965 0 -313.965c0 -5.208 2.849 -9.603 8.545 -13.183c5.697 -3.581 12.614 -5.372 20.752 -5.372c8.138 0 15.056 1.791 20.752 5.372c5.697 3.58 8.545 7.975 8.545 13.183c0 0 0 313.965 0 313.965c0 5.208 -2.848 9.684 -8.545 13.428c-5.696 3.743 -12.614 5.615 -20.752 5.615c-8.138 0 -15.055 -1.872 -20.752 -5.615c-5.696 -3.744 -8.545 -8.22 -8.545 -13.428c0 0 0 0 0 0" />
  </g>
</svg>