<svg height="1000" width="1083.496" xmlns="http://www.w3.org/2000/svg"><path d="M0 656.936v-313.784q0 -7.808 8.296 -13.176t20.496 -5.368 20.74 5.368 8.54 13.176v313.784q0 7.808 -8.54 13.42t-20.74 5.612 -20.496 -5.612 -8.296 -13.42zm123.952 58.56v-430.904q0 -7.808 8.54 -13.176t20.74 -5.368 20.74 5.368 8.54 13.176v430.904q0 7.808 -8.54 13.42t-20.74 5.612 -20.74 -5.612 -8.54 -13.42zm140.544 39.04v-508.008q0 -16.104 11.224 -27.572t27.328 -11.468h477.264q15.616 0 26.84 11.224t11.224 27.816v508.008q0 15.616 -11.224 27.084t-26.84 11.468h-477.264q-15.616 0 -27.084 -11.468t-11.468 -27.084zm635.864 -39.04v-430.904q0 -7.808 8.54 -13.176t20.252 -5.368q12.2 0 20.984 5.368t8.784 13.176v430.904q0 7.808 -8.784 13.42t-20.984 5.612q-11.712 0 -20.252 -5.612t-8.54 -13.42zm123.952 -58.56v-313.784q0 -7.808 8.54 -13.176t20.74 -5.368 20.74 5.368 8.54 13.176v313.784q0 7.808 -8.54 13.42t-20.74 5.612 -20.74 -5.612 -8.54 -13.42z"/></svg>