<svg height="1000" width="1083.496" xmlns="http://www.w3.org/2000/svg"><path d="M0 655.472v-312.32q0 -7.808 8.784 -12.932t20.984 -5.124 20.496 5.124 8.296 12.932v312.32q0 7.808 -8.296 13.42t-20.496 5.612 -20.984 -5.612 -8.784 -13.42zm124.44 58.56v-428.464q0 -7.808 8.54 -13.42t20.74 -5.612q11.712 0 20.496 5.612t8.784 13.42v428.464q0 7.808 -8.784 13.176t-20.496 5.368q-12.2 0 -20.74 -5.368t-8.54 -13.176zm140.544 38.552v-506.056q0 -15.616 11.224 -26.84t26.84 -11.224h477.264q15.616 0 27.084 11.224t11.468 26.84v506.056q0 15.616 -11.468 27.084t-27.084 11.468h-477.264q-15.616 0 -26.84 -11.468t-11.224 -27.084zm87.352 -48.8h378.688v-408.456h-378.688v408.456zm548.512 10.248v-428.464q0 -7.808 8.296 -13.42t20.496 -5.612 20.984 5.612 8.784 13.42v428.464q0 7.808 -8.784 13.176t-20.984 5.368 -20.496 -5.368 -8.296 -13.176zm124.44 -58.56v-312.32q0 -7.808 8.296 -12.932t20.496 -5.124 20.496 5.124 8.296 12.932v312.32q0 7.808 -8.296 13.42t-20.496 5.612 -20.496 -5.612 -8.296 -13.42z"/></svg>