<svg height="1000px" width="686.5234375px" xmlns="http://www.w3.org/2000/svg">
  <g>
    <path d="M0 759.765625c0 -23.763 8.626 -44.271 25.879 -61.523c0 0 195.312 -195.313 195.312 -195.313c0 0 -195.312 -195.801 -195.312 -195.801c-17.253 -16.927 -25.879 -37.272 -25.879 -61.035c0 -23.763 8.626 -44.108 25.879 -61.035c17.253 -16.927 37.679 -25.391 61.279 -25.391c23.6 0 43.864 8.464 60.791 25.391c0 0 195.801 195.801 195.801 195.801c0 0 195.313 -195.801 195.313 -195.801c16.927 -16.927 37.272 -25.391 61.035 -25.391c23.763 0 44.108 8.464 61.035 25.391c16.927 16.927 25.39 37.272 25.39 61.035c0 23.763 -8.463 44.108 -25.39 61.035c0 0 -195.313 195.801 -195.313 195.801c0 0 195.313 195.313 195.313 195.313c16.927 17.252 25.39 37.76 25.39 61.523c0 23.763 -8.463 44.108 -25.39 61.035c-16.602 16.927 -36.947 25.391 -61.035 25.391c-24.089 0 -44.434 -8.464 -61.035 -25.391c0 0 -195.313 -195.312 -195.313 -195.312c0 0 -195.801 195.312 -195.801 195.312c-16.601 16.927 -36.946 25.391 -61.035 25.391c-24.088 0 -44.434 -8.464 -61.035 -25.391c-17.253 -16.927 -25.879 -37.272 -25.879 -61.035c0 0 0 0 0 0" />
  </g>
</svg>