<svg height="1000" width="937.5" xmlns="http://www.w3.org/2000/svg"><path d="M0 500.288q0-95.648 37.088-182.268t99.796-149.328 149.328-99.796 182.268-37.088q84.424 0 161.772 28.548t139.324 81.252q41.48 31.232 71.248 75.152 96.136 125.904 96.136 283.528 0 95.16-37.088 182.024t-99.796 149.572-149.572 99.796-182.024 37.088q-95.648 0-182.268-37.088t-149.328-99.796-99.796-149.572-37.088-182.024zm93.696-62.464q50.752-13.664 102.48-13.664h5.368q0 .488.976 4.636t1.952 6.1q-69.296 70.76-102.968 163.968 11.224 42.944 33.672 83.936 21.96-119.072 106.384-207.4 17.08 9.76 37.088 9.76 40.504 0 64.904-33.184 67.344 26.352 121.512 74.42t88.816 111.508q-25.376 23.912-25.376 58.072 0 28.792 19.52 52.216-53.68 79.544-136.64 127.856 28.792 4.392 57.096 4.392 17.08 0 34.648-1.464 55.632-46.36 93.208-103.944h1.464l.976.488q4.88 30.744 4.88 55.632l-1.464 24.888q31.232-11.712 56.608-26.84 0-31.72-5.368-66.368 36.112-25.376 36.112-66.856 0-39.04-31.232-62.952 13.664-54.656 13.664-110.288 0-66.368-21.472-137.128 7.32-6.344 12.688-15.128 110.776 36.6 185.44 127.368 0-44.408-10.736-89.792-72.224-61.976-161.528-90.768-2.928-30.256-25.62-51.24t-53.436-20.984q-9.272 0-18.056 2.44-59.536-79.544-142.984-126.88-43.92 4.392-89.304 19.032 113.704 40.992 186.904 136.64-5.856 7.32-10.736 18.544-103.944 1.952-193.736 47.824-22.936-18.056-50.752-18.056-23.424 0-42.456 12.2t-29.28 32.696q-1.952 0-5.368-.244t-5.368-.244q-41.48 0-87.84 8.784-9.272 27.816-14.64 60.024zm264.496-46.848q79.544-39.04 162.504-40.992 8.296 24.4 29.036 40.016t47.58 15.616h1.464q18.056 60.512 18.056 117.12 0 47.824-11.712 93.208-39.04-74.176-102.968-130.052t-142.984-86.132q0-1.464-.244-4.392t-.732-4.392z"/></svg>