<svg height="1000" width="937.5" xmlns="http://www.w3.org/2000/svg"><path d="M0 500.288q0 -95.648 37.088 -182.268t99.796 -149.328 149.328 -99.796 182.268 -37.088q95.16 0 182.024 37.088t149.572 99.796 99.796 149.328 37.088 182.268q0 95.16 -37.088 182.024t-99.796 149.572 -149.572 99.796 -182.024 37.088q-95.648 0 -182.268 -37.088t-149.328 -99.796 -99.796 -149.572 -37.088 -182.024zm88.328 0q0 48.8 13.176 99.064 35.136 -95.16 102.968 -164.456 -.976 -1.952 -1.952 -6.1t-.976 -4.636h-5.368q-48.8 0 -102.48 13.664 -5.368 32.208 -5.368 62.464zm20.008 -122.488q46.36 -8.784 87.84 -8.784 1.952 0 5.368 .244t5.368 .244q10.248 -20.496 29.28 -32.696t42.456 -12.2q27.816 0 50.752 18.056 89.792 -45.872 193.736 -47.824 4.88 -11.224 10.736 -18.544 -73.2 -96.136 -187.88 -136.152 -83.936 28.792 -146.644 91.256t-91.012 146.4zm26.84 304.512q41.968 77.104 114.436 128.588t161.284 65.148q84.912 -49.288 137.128 -128.344 -19.52 -22.448 -19.52 -51.728 0 -34.16 25.376 -58.072 -34.648 -63.44 -88.816 -111.508t-121.512 -74.42q-24.4 33.184 -64.904 33.184 -19.032 0 -37.088 -9.76 -84.424 88.328 -106.384 206.912zm223.016 -291.336q.488 1.464 .732 4.392t.244 4.392q79.544 30.256 143.228 86.132t102.724 130.052h.488q11.712 -48.312 11.712 -93.208 0 -55.144 -18.544 -117.12h-1.464q-26.84 0 -47.58 -15.616t-29.036 -40.016q-86.376 3.416 -162.504 40.992zm78.568 -270.352q83.448 47.824 142.496 126.88 8.784 -2.44 18.056 -2.44 30.744 0 53.436 20.984t25.62 51.24q90.768 29.768 161.528 91.256 -31.72 -125.416 -134.444 -207.4t-234.972 -81.984q-4.88 0 -10.004 .244t-11.712 .732 -10.004 .488zm65.88 758.352q48.312 -3.904 99.552 -22.936 0 -2.928 .976 -11.468t.976 -13.42q0 -22.448 -4.392 -55.632 -.976 -.488 -3.416 -.488 -38.064 58.072 -93.696 103.944zm147.864 -493.368q21.472 70.76 21.472 137.128 0 55.632 -13.664 110.288 31.232 23.912 31.232 62.952 0 41.48 -36.112 66.856 5.368 34.648 5.368 66.368 86.864 -50.264 138.836 -137.86t51.972 -191.052v-1.464q-75.64 -91.744 -185.928 -128.344 -6.832 9.272 -13.176 15.128z"/></svg>