<svg height="1000px" width="937.5px" xmlns="http://www.w3.org/2000/svg">
  <g>
    <path d="M0 500c0 -63.802 12.37 -124.593 37.109 -182.373c24.74 -57.78 58.024 -107.585 99.854 -149.414c41.829 -41.83 91.634 -75.114 149.414 -99.854c57.78 -24.739 118.571 -37.109 182.373 -37.109c56.315 0 110.27 9.521 161.865 28.564c51.595 19.043 98.063 46.143 139.405 81.299c27.669 20.834 51.432 45.899 71.289 75.196c64.127 83.984 96.191 178.548 96.191 283.691c0 63.477 -12.37 124.186 -37.109 182.129c-24.74 57.943 -58.024 107.829 -99.854 149.658c-41.829 41.83 -91.715 75.114 -149.658 99.854c-57.943 24.739 -118.652 37.109 -182.129 37.109c-63.802 0 -124.593 -12.37 -182.373 -37.109c-57.78 -24.74 -107.585 -58.024 -149.414 -99.854c-41.83 -41.829 -75.114 -91.715 -99.854 -149.658c-24.739 -57.943 -37.109 -118.652 -37.109 -182.129c0 0 0 0 0 0m93.75 -62.5c33.854 -9.115 68.034 -13.672 102.539 -13.672c0 0 5.371 0 5.371 0c0 0.326 0.326 1.872 0.977 4.639c0.651 2.767 1.302 4.801 1.953 6.103c-46.224 47.201 -80.567 101.888 -103.027 164.063c7.486 28.646 18.717 56.64 33.691 83.984c14.648 -79.427 50.13 -148.6 106.445 -207.519c11.393 6.51 23.763 9.765 37.11 9.765c27.018 0 48.665 -11.067 64.941 -33.203c44.922 17.578 85.449 42.399 121.582 74.463c36.133 32.064 65.755 69.255 88.867 111.572c-16.927 15.951 -25.39 35.319 -25.39 58.106c0 19.206 6.51 36.621 19.531 52.246c-35.807 53.06 -81.38 95.703 -136.719 127.93c19.206 2.929 38.249 4.394 57.129 4.394c11.393 0 22.949 -0.488 34.668 -1.465c37.109 -30.924 68.197 -65.592 93.262 -104.004c0 0 1.465 0 1.465 0c0 0 0.976 0.489 0.976 0.489c3.255 20.507 4.883 39.062 4.883 55.664c0 0 -1.465 24.902 -1.465 24.902c20.833 -7.812 39.714 -16.764 56.641 -26.855c0 -21.159 -1.791 -43.295 -5.371 -66.407c24.088 -16.927 36.132 -39.225 36.132 -66.894c0 -26.042 -10.416 -47.038 -31.25 -62.989c9.115 -36.458 13.672 -73.242 13.672 -110.351c0 -44.271 -7.161 -90.007 -21.484 -137.207c4.883 -4.232 9.114 -9.277 12.695 -15.137c73.893 24.414 135.742 66.895 185.547 127.442c0 -29.623 -3.581 -59.571 -10.742 -89.844c-48.177 -41.341 -102.051 -71.615 -161.621 -90.82c-1.953 -20.183 -10.498 -37.273 -25.635 -51.27c-15.137 -13.997 -32.959 -20.996 -53.467 -20.996c-6.185 0 -12.207 0.814 -18.066 2.441c-39.714 -53.06 -87.403 -95.377 -143.067 -126.953c-29.296 2.93 -59.082 9.278 -89.355 19.043c75.846 27.344 138.184 72.917 187.012 136.719c-3.907 4.883 -7.487 11.068 -10.743 18.555c-69.335 1.302 -133.951 17.252 -193.847 47.851c-15.3 -12.044 -32.227 -18.066 -50.781 -18.066c-15.625 0 -29.786 4.069 -42.481 12.207c-12.695 8.138 -22.461 19.043 -29.297 32.715c-1.302 0 -3.092 -0.082 -5.371 -0.245c-2.278 -0.162 -4.069 -0.244 -5.371 -0.244c-27.669 0 -56.966 2.93 -87.891 8.789c-6.184 18.555 -11.067 38.575 -14.648 60.059c0 0 0 0 0 0m264.648 -46.875c53.06 -26.042 107.26 -39.714 162.598 -41.016c5.534 16.276 15.218 29.623 29.053 40.039c13.834 10.417 29.704 15.625 47.607 15.625c0 0 1.465 0 1.465 0c12.044 40.365 18.066 79.428 18.066 117.188c0 31.901 -3.906 62.988 -11.718 93.262c-26.042 -49.48 -60.384 -92.855 -103.028 -130.127c-42.643 -37.272 -90.332 -66 -143.066 -86.182c0 -0.976 -0.081 -2.441 -0.244 -4.394c-0.163 -1.954 -0.407 -3.418 -0.733 -4.395c0 0 0 0 0 0" />
  </g>
</svg>