<svg height="1000px" width="937.5px" xmlns="http://www.w3.org/2000/svg">
  <g>
    <path d="M0 500c0 -63.802 12.37 -124.593 37.109 -182.373c24.74 -57.78 58.024 -107.585 99.854 -149.414c41.829 -41.83 91.634 -75.114 149.414 -99.854c57.78 -24.739 118.571 -37.109 182.373 -37.109c63.477 0 124.186 12.37 182.129 37.109c57.943 24.74 107.829 58.024 149.658 99.854c41.83 41.829 75.114 91.634 99.854 149.414c24.739 57.78 37.109 118.571 37.109 182.373c0 63.477 -12.37 124.186 -37.109 182.129c-24.74 57.943 -58.024 107.829 -99.854 149.658c-41.829 41.83 -91.715 75.114 -149.658 99.854c-57.943 24.739 -118.652 37.109 -182.129 37.109c-63.802 0 -124.593 -12.37 -182.373 -37.109c-57.78 -24.74 -107.585 -58.024 -149.414 -99.854c-41.83 -41.829 -75.114 -91.715 -99.854 -149.658c-24.739 -57.943 -37.109 -118.652 -37.109 -182.129c0 0 0 0 0 0m88.379 0c0 32.552 4.394 65.592 13.184 99.121c23.437 -63.476 57.779 -118.327 103.027 -164.551c-0.651 -1.302 -1.302 -3.336 -1.953 -6.103c-0.651 -2.767 -0.977 -4.313 -0.977 -4.639c0 0 -5.371 0 -5.371 0c-32.552 0 -66.732 4.557 -102.539 13.672c-3.581 21.484 -5.371 42.318 -5.371 62.5c0 0 0 0 0 0m20.019 -122.559c30.925 -5.859 60.222 -8.789 87.891 -8.789c1.302 0 3.093 0.082 5.371 0.244c2.279 0.163 4.069 0.245 5.371 0.245c6.836 -13.672 16.602 -24.577 29.297 -32.715c12.695 -8.138 26.856 -12.207 42.481 -12.207c18.554 0 35.481 6.022 50.781 18.066c59.896 -30.599 124.512 -46.549 193.848 -47.851c3.255 -7.487 6.835 -13.672 10.742 -18.555c-48.828 -64.128 -111.491 -109.538 -187.989 -136.231c-55.989 19.206 -104.899 49.642 -146.728 91.309c-41.83 41.667 -72.184 90.495 -91.065 146.484c0 0 0 0 0 0m26.856 304.688c27.995 51.432 66.162 94.32 114.502 128.662c48.34 34.342 102.132 56.071 161.377 65.186c56.64 -32.878 102.376 -75.684 137.207 -128.418c-13.021 -14.974 -19.531 -32.227 -19.531 -51.758c0 -22.787 8.463 -42.155 25.39 -58.106c-23.112 -42.317 -52.734 -79.508 -88.867 -111.572c-36.133 -32.064 -76.66 -56.885 -121.582 -74.463c-16.276 22.136 -37.923 33.203 -64.941 33.203c-12.696 0 -25.066 -3.255 -37.11 -9.765c-56.315 58.919 -91.797 127.929 -106.445 207.031c0 0 0 0 0 0m223.144 -291.504c0.326 0.977 0.57 2.441 0.733 4.395c0.163 1.953 0.244 3.417 0.244 4.394c53.06 20.182 100.83 48.91 143.311 86.182c42.48 37.272 76.741 80.647 102.783 130.127c0 0 0.488 0 0.488 0c7.813 -32.227 11.719 -63.314 11.719 -93.262c0 -36.784 -6.185 -75.846 -18.555 -117.188c0 0 -1.465 0 -1.465 0c-17.903 0 -33.773 -5.208 -47.607 -15.625c-13.835 -10.416 -23.519 -23.763 -29.053 -40.039c-57.617 2.279 -111.816 15.951 -162.598 41.016c0 0 0 0 0 0m78.614 -270.508c55.664 31.901 103.19 74.219 142.578 126.953c5.859 -1.627 11.881 -2.441 18.066 -2.441c20.508 0 38.33 6.999 53.467 20.996c15.137 13.997 23.682 31.087 25.635 51.27c60.547 19.856 114.42 50.292 161.621 91.308c-21.159 -83.659 -65.999 -152.832 -134.522 -207.519c-68.522 -54.688 -146.891 -82.032 -235.107 -82.032c-3.255 0 -6.592 0.082 -10.01 0.244c-3.418 0.163 -7.324 0.407 -11.719 0.733c-4.394 0.325 -7.731 0.488 -10.009 0.488c0 0 0 0 0 0m65.918 758.789c32.226 -2.604 65.429 -10.254 99.609 -22.949c0 -1.953 0.326 -5.778 0.977 -11.475c0.651 -5.696 0.976 -10.172 0.976 -13.427c0 -14.974 -1.465 -33.529 -4.394 -55.664c-0.651 -0.326 -1.791 -0.489 -3.418 -0.489c-25.391 38.737 -56.641 73.405 -93.75 104.004c0 0 0 0 0 0m147.949 -493.652c14.323 47.2 21.484 92.936 21.484 137.207c0 37.109 -4.557 73.893 -13.672 110.351c20.834 15.951 31.25 36.947 31.25 62.989c0 27.669 -12.044 49.967 -36.132 66.894c3.58 23.112 5.371 45.248 5.371 66.407c57.942 -33.529 104.248 -79.509 138.916 -137.94c34.668 -58.431 52.002 -122.152 52.002 -191.162c0 0 0 -1.465 0 -1.465c-50.456 -61.198 -112.468 -104.004 -186.036 -128.418c-4.557 6.185 -8.951 11.231 -13.183 15.137c0 0 0 0 0 0" />
  </g>
</svg>