<svg height="1000px" width="1294.43359375px" xmlns="http://www.w3.org/2000/svg">
  <g>
    <path d="M0 370.1171875c0 -71.94 22.786 -138.428 68.359 -199.463c45.573 -61.035 107.422 -109.294 185.547 -144.775c78.125 -35.482 163.249 -53.223 255.371 -53.223c69.336 0 135.417 10.498 198.243 31.494c62.825 20.996 116.862 49.235 162.109 84.717c45.247 35.482 81.299 77.718 108.154 126.709c26.856 48.991 40.283 100.505 40.283 154.541c0 43.294 -8.545 85.124 -25.634 125.488c-17.09 40.365 -41.26 76.905 -72.51 109.619c-31.25 32.715 -67.708 61.361 -109.375 85.938c-41.667 24.577 -88.46 43.538 -140.381 56.885c-51.921 13.346 -105.55 20.019 -160.889 20.019c-69.01 0 -133.626 -9.928 -193.847 -29.785c0 0 -116.211 81.055 -116.211 81.055c-43.295 27.669 -73.812 35.726 -91.553 24.17c-17.741 -11.556 -21.403 -43.864 -10.986 -96.924c0 0 23.437 -121.094 23.437 -121.094c-38.086 -35.156 -67.627 -74.626 -88.623 -118.408c-20.996 -43.783 -31.494 -89.437 -31.494 -136.963c0 0 0 0 0 0m649.902 468.262c78.776 -15.625 150.554 -43.132 215.332 -82.52c64.779 -39.388 117.595 -87.809 158.448 -145.263c40.853 -57.455 65.836 -119.548 74.951 -186.28c59.245 23.763 106.689 57.943 142.334 102.539c35.644 44.597 53.467 93.588 53.467 146.973c0 32.878 -7.325 64.779 -21.973 95.703c-14.649 30.925 -35.156 58.757 -61.524 83.496c0 0 17.09 85.449 17.09 85.449c6.511 37.11 3.662 59.733 -8.545 67.871c-12.207 8.138 -33.61 2.442 -64.209 -17.089c0 0 -81.543 -57.618 -81.543 -57.618c-42.317 14.323 -87.727 21.485 -136.23 21.485c-58.268 0 -112.63 -10.254 -163.086 -30.762c-50.456 -20.508 -91.96 -48.503 -124.512 -83.984c0 0 0 0 0 0" />
  </g>
</svg>