<svg height="1000px" width="1054.6875px" xmlns="http://www.w3.org/2000/svg">
  <g>
    <path d="M0 688.96484375c0 0 0 -525.879 0 -525.879c0 -24.088 8.708 -44.678 26.123 -61.767c17.415 -17.09 38.167 -25.635 62.256 -25.635c0 0 878.906 0 878.906 0c24.089 0 44.678 8.545 61.768 25.635c17.09 17.089 25.635 37.679 25.635 61.767c0 0 0 525.879 0 525.879c0 24.089 -8.545 44.84 -25.635 62.256c-17.09 17.415 -37.679 26.123 -61.768 26.123c0 0 -253.906 0 -253.906 0c5.534 52.409 15.137 82.682 28.809 90.82c9.44 5.534 18.31 10.01 26.611 13.428c8.301 3.418 14.241 5.452 17.822 6.103c0 0 5.371 0.977 5.371 0.977c0 0 0 35.156 0 35.156c0 0 -527.344 0 -527.344 0c0 0 0 -35.156 0 -35.156c11.719 -0.977 28.158 -7.812 49.317 -20.508c13.997 -8.789 23.763 -39.062 29.297 -90.82c0 0 -254.883 0 -254.883 0c-24.089 0 -44.841 -8.708 -62.256 -26.123c-17.415 -17.416 -26.123 -38.167 -26.123 -62.256c0 0 0 0 0 0" />
  </g>
</svg>