<svg height="1000" width="790.527" xmlns="http://www.w3.org/2000/svg"><path d="M0 880.928v-761.28q0-36.112 25.62-61.976t61.732-25.864h355.264q3.416 0 5.856.488h.488q38.064 2.928 61 25.864l254.736 244.976q10.736 11.712 16.104 24.4 1.952 4.88 2.44 6.344.488.976 2.196 4.88t2.196 6.344q2.44 11.224 2.44 20.496v515.328q0 36.112-25.62 61.976t-61.732 25.864h-615.368q-36.112 0-61.732-25.864t-25.62-61.976zm87.352 0h615.368v-465.064h-132.736q-72.712 0-124.196-51.484t-51.484-124.196v-120.536h-306.952v761.28zm395.28-640.744q0 36.112 25.62 61.732t61.732 25.62h118.096l-205.448-194.224v106.872z"/></svg>