<svg height="1000px" width="937.5px" xmlns="http://www.w3.org/2000/svg">
  <g>
    <path d="M0 765.625c0 0 0 -72.266 0 -72.266c0 -22.135 7.894 -41.015 23.682 -56.64c15.787 -15.625 34.749 -23.438 56.884 -23.438c22.136 0 41.016 7.813 56.641 23.438c15.625 15.625 23.438 34.505 23.438 56.64c0 0 0 72.266 0 72.266c0 11.719 4.15 21.647 12.451 29.785c8.3 8.138 18.147 12.207 29.541 12.207c0 0 532.226 0 532.226 0c11.394 0 21.241 -4.069 29.541 -12.207c8.301 -8.138 12.451 -18.066 12.451 -29.785c0 0 0 -72.266 0 -72.266c0 -22.135 7.813 -41.015 23.438 -56.64c15.625 -15.625 34.505 -23.438 56.641 -23.438c22.135 0 41.097 7.813 56.884 23.438c15.788 15.625 23.682 34.505 23.682 56.64c0 0 0 72.266 0 72.266c0 55.99 -19.775 103.841 -59.326 143.555c-39.551 39.713 -87.321 59.57 -143.311 59.57c0 0 -532.226 0 -532.226 0c-55.99 0 -103.76 -19.857 -143.311 -59.57c-39.551 -39.714 -59.326 -87.565 -59.326 -143.555c0 0 0 0 0 0m154.785 -358.887c0 -22.135 7.975 -41.015 23.926 -56.64c15.625 -15.625 34.505 -23.438 56.641 -23.438c22.135 0 41.015 7.813 56.64 23.438c0 0 105.469 105.468 105.469 105.468c0 0 0 -344.238 0 -344.238c0 -22.135 7.812 -41.016 23.437 -56.641c15.625 -15.625 34.506 -23.437 56.641 -23.437c22.135 0 41.097 7.812 56.885 23.437c15.788 15.625 23.681 34.506 23.681 56.641c0 0 0 344.238 0 344.238c0 0 110.352 -110.351 110.352 -110.351c15.625 -15.625 34.505 -23.438 56.641 -23.438c22.135 0 41.015 7.813 56.64 23.438c15.951 15.625 23.926 34.586 23.926 56.885c0 22.298 -7.975 41.259 -23.926 56.884c0 0 -247.07 247.071 -247.07 247.071c-16.276 16.276 -35.319 24.414 -57.129 24.414c-21.484 0 -40.365 -8.138 -56.641 -24.414c0 0 -242.187 -242.188 -242.187 -242.188c-15.951 -15.95 -23.926 -34.993 -23.926 -57.129c0 0 0 0 0 0" />
  </g>
</svg>