<svg height="1000" width="1205.566" xmlns="http://www.w3.org/2000/svg"><path d="M-.244 576.416q2.684-54.656 23.668-102.968t62.22-87.84 94.916-61q64.416-27.328 154.208-14.64 39.528-79.056 113.216-127.368t164.456-48.312q82.472 0 151.768 41.236t108.824 110.288 39.528 148.596v28.792h7.32q80.52-31.72 158.844 3.66t111.996 113.46q31.72 80.52-3.66 159.088t-113.46 112.24l-16.592 4.148-16.104 4.148-13.42 2.928-14.396 2.196-12.688.732h-724.192q-84.424 0-154.452-48.556t-101.748-134.444q-22.936-51.728-20.252-106.384zm447.984-103.7q-6.1 9.516 4.148 20.252l131.272 219.112q7.32 7.808 14.64 7.808 3.416 0 7.076-1.952t5.612-3.904l1.952-1.952 139.568-219.112q5.856-11.712-.244-20.74t-22.204-9.028h-51.24v-101.992h-153.72v101.992h-58.56q-12.2 0-18.3 9.516z"/></svg>