<svg height="1000px" width="937.5px" xmlns="http://www.w3.org/2000/svg">
  <g>
    <path d="M0 500c0 -63.477 12.37 -124.186 37.109 -182.129c24.74 -57.943 58.024 -107.829 99.854 -149.658c41.829 -41.83 91.715 -75.114 149.658 -99.854c57.943 -24.739 118.652 -37.109 182.129 -37.109c63.477 0 124.186 12.37 182.129 37.109c57.943 24.74 107.829 58.024 149.658 99.854c41.83 41.829 75.114 91.715 99.854 149.658c24.739 57.943 37.109 118.652 37.109 182.129c0 63.477 -12.37 124.186 -37.109 182.129c-24.74 57.943 -58.024 107.829 -99.854 149.658c-41.829 41.83 -91.715 75.114 -149.658 99.854c-57.943 24.739 -118.652 37.109 -182.129 37.109c-63.477 0 -124.186 -12.37 -182.129 -37.109c-57.943 -24.74 -107.829 -58.024 -149.658 -99.854c-41.83 -41.829 -75.114 -91.715 -99.854 -149.658c-24.739 -57.943 -37.109 -118.652 -37.109 -182.129c0 0 0 0 0 0m182.617 -0.977c0 39.063 7.487 76.254 22.461 111.573c14.974 35.319 35.156 65.836 60.547 91.552c25.391 25.717 55.664 46.143 90.82 61.28c35.157 15.136 72.266 22.705 111.328 22.705c52.084 0 100.179 -12.777 144.288 -38.33c44.108 -25.554 78.938 -60.384 104.492 -104.492c25.553 -44.109 38.33 -92.204 38.33 -144.288c0 -51.757 -12.777 -99.528 -38.33 -143.31c-25.554 -43.783 -60.384 -78.451 -104.492 -104.004c-44.109 -25.553 -92.204 -38.33 -144.288 -38.33c-39.062 0 -76.171 7.568 -111.328 22.705c-35.156 15.137 -65.429 35.482 -90.82 61.035c-25.391 25.554 -45.573 55.908 -60.547 91.065c-14.974 35.156 -22.461 72.102 -22.461 110.839c0 0 0 0 0 0m47.363 12.696c4.232 0 9.929 0.244 17.09 0.732c7.162 0.488 12.533 0.733 16.114 0.733c69.661 0 141.276 -13.021 214.843 -39.063c3.907 10.742 8.789 21.973 14.649 33.692c-41.016 14.322 -78.614 34.505 -112.793 60.546c-34.18 26.042 -62.988 56.967 -86.426 92.774c-40.69 -41.992 -61.849 -91.797 -63.477 -149.414c0 0 0 0 0 0m1.465 -48.34c6.185 -37.435 20.59 -71.696 43.213 -102.783c22.624 -31.088 50.7 -55.42 84.229 -72.998c40.039 47.851 72.754 95.377 98.144 142.578c-60.872 22.135 -125.488 33.203 -193.847 33.203c0 0 -31.739 0 -31.739 0c0 0 0 0 0 0m97.168 230.957c45.573 -69.336 105.469 -116.211 179.688 -140.625c18.554 55.664 30.273 113.281 35.156 172.851c-22.461 8.139 -47.689 12.208 -75.684 12.208c-48.177 0 -94.563 -14.812 -139.16 -44.434c0 0 0 0 0 0m77.637 -424.316c24.089 -6.185 44.596 -9.278 61.523 -9.278c63.803 0 118.978 22.461 165.528 67.383c-40.039 35.156 -84.147 63.314 -132.324 84.473c-25.066 -47.201 -56.641 -94.727 -94.727 -142.578c0 0 0 0 0 0m116.211 187.011c48.503 -22.135 96.029 -52.734 142.578 -91.797c28.32 42.318 42.481 86.914 42.481 133.789c-36.784 -8.463 -67.221 -12.695 -91.309 -12.695c-20.182 0 -46.061 2.93 -77.637 8.789c-1.627 -3.906 -4.232 -10.254 -7.812 -19.043c-3.581 -8.789 -6.348 -15.136 -8.301 -19.043c0 0 0 0 0 0m31.738 83.985c19.857 -3.256 40.528 -4.883 62.012 -4.883c27.995 0 56.803 3.581 86.426 10.742c-7.487 33.854 -20.996 64.535 -40.528 92.041c-19.531 27.507 -43.782 49.561 -72.754 66.162c-7.812 -62.825 -19.531 -117.513 -35.156 -164.062c0 0 0 0 0 0" />
  </g>
</svg>