<svg height="1000" width="937.5" xmlns="http://www.w3.org/2000/svg"><path d="M0 498.824q0-94.672 36.844-181.048t99.308-149.084 149.084-99.796 181.78-37.088q95.648 0 182.756 37.088t150.06 99.796 100.04 149.084 37.088 181.048q0 95.648-37.088 182.512t-100.04 149.816-150.06 100.284-182.756 37.332-182.024-37.332-148.84-100.284-99.308-149.816-36.844-182.512zm78.08 20.008q1.952 68.808 29.036 131.76t74.908 113.216q57.584-87.84 141.276-151.768t184.22-99.064q-11.224-21.96-23.424-54.656-179.584 63.44-351.36 63.44-8.296 0-26.352-1.464t-28.304-1.464zm2.928-78.08h51.728q165.432 0 316.712-54.656-60.512-114.192-161.04-233.264-82.472 43.92-137.372 119.804t-70.028 168.116zm158.112 377.712q108.824 72.712 227.896 72.712 65.88 0 123.952-20.984-12.688-143.472-57.584-282.064-90.28 29.768-165.188 88.816t-129.076 141.52zm127.368-694.424q90.768 112.728 155.672 233.264 118.096-52.704 215.696-138.104-54.168-52.704-123.708-81.008t-147.132-28.304q-44.896 0-100.528 14.152zm190.32 305.976q3.904 10.248 12.444 31.72t12.932 31.232q76.616-14.64 127.368-14.64 58.56 0 149.328 20.496 0-113.216-69.296-219.112-110.776 92.72-232.776 150.304zm51.728 138.104q38.552 117.608 57.584 267.912 70.76-40.992 119.072-108.824t65.392-150.792q-71.736-17.08-141.032-17.08-53.192 0-101.016 8.784z"/></svg>