<svg height="1000px" width="937.5px" xmlns="http://www.w3.org/2000/svg">
  <g>
    <path d="M0 498.53515625c0 -63.151 12.288 -123.535 36.865 -181.152c24.577 -57.618 57.699 -107.341 99.365 -149.17c41.667 -41.83 91.39 -75.114 149.17 -99.854c57.78 -24.739 118.409 -37.109 181.885 -37.109c63.802 0 124.756 12.37 182.861 37.109c58.106 24.74 108.155 58.024 150.147 99.854c41.992 41.829 75.358 91.552 100.098 149.17c24.739 57.617 37.109 118.001 37.109 181.152c0 63.802 -12.37 124.674 -37.109 182.617c-24.74 57.943 -58.106 107.91 -100.098 149.903c-41.992 41.992 -92.041 75.439 -150.147 100.341c-58.105 24.903 -119.059 37.354 -182.861 37.354c-63.802 0 -124.512 -12.451 -182.129 -37.354c-57.617 -24.902 -107.259 -58.349 -148.926 -100.341c-41.666 -41.993 -74.788 -91.96 -99.365 -149.903c-24.577 -57.943 -36.865 -118.815 -36.865 -182.617c0 0 0 0 0 0m78.125 20.02c1.302 45.898 10.986 89.843 29.053 131.835c18.066 41.993 43.05 79.753 74.951 113.282c38.411 -58.594 85.531 -109.213 141.357 -151.856c55.827 -42.643 117.269 -75.683 184.327 -99.121c-7.487 -14.648 -15.3 -32.877 -23.438 -54.687c-119.792 42.317 -236.979 63.476 -351.563 63.476c-5.533 0 -14.322 -0.488 -26.367 -1.465c-12.044 -0.976 -21.484 -1.464 -28.32 -1.464c0 0 0 0 0 0m2.93 -78.125c0 0 51.757 0 51.757 0c110.352 0 215.984 -18.23 316.895 -54.688c-40.365 -76.172 -94.075 -153.971 -161.133 -233.398c-55.013 29.296 -100.83 69.254 -137.451 119.873c-36.621 50.618 -59.977 106.689 -70.068 168.213c0 0 0 0 0 0m158.203 377.929c72.591 48.503 148.6 72.754 228.027 72.754c43.945 0 85.287 -6.999 124.024 -20.996c-8.464 -95.703 -27.67 -189.779 -57.618 -282.227c-60.221 19.857 -115.315 49.48 -165.283 88.868c-49.967 39.388 -93.017 86.588 -129.15 141.601c0 0 0 0 0 0m127.441 -694.824c60.547 75.195 112.468 152.995 155.762 233.398c78.776 -35.156 150.716 -81.217 215.82 -138.183c-36.133 -35.156 -77.392 -62.175 -123.779 -81.055c-46.387 -18.88 -95.459 -28.32 -147.217 -28.32c-29.948 0 -63.476 4.72 -100.586 14.16c0 0 0 0 0 0m190.43 306.152c2.604 6.836 6.754 17.416 12.451 31.739c5.697 14.323 10.01 24.739 12.94 31.25c51.106 -9.766 93.587 -14.649 127.441 -14.649c39.062 0 88.867 6.836 149.414 20.508c0 -75.521 -23.112 -148.6 -69.336 -219.238c-73.893 61.849 -151.53 111.979 -232.91 150.39c0 0 0 0 0 0m51.758 138.184c25.716 78.45 44.922 167.806 57.617 268.066c47.2 -27.343 86.914 -63.639 119.141 -108.886c32.226 -45.248 54.036 -95.541 65.429 -150.879c-47.851 -11.394 -94.889 -17.09 -141.113 -17.09c-35.482 0 -69.173 2.93 -101.074 8.789c0 0 0 0 0 0" />
  </g>
</svg>