<svg height="1000" width="937.5" xmlns="http://www.w3.org/2000/svg"><path d="M0 500.288q0-95.16 37.088-182.024t99.796-149.572 149.572-99.796 182.024-37.088 182.024 37.088 149.572 99.796 99.796 149.572 37.088 182.024-37.088 182.024-99.796 149.572-149.572 99.796-182.024 37.088-182.024-37.088-149.572-99.796-99.796-149.572-37.088-182.024zm182.512-.976q0 58.56 22.448 111.508t60.512 91.5 90.768 61.244 111.264 22.692q78.08 0 144.204-38.308t104.432-104.432 38.308-144.204q0-77.592-38.308-143.228t-104.432-103.944-144.204-38.308q-58.56 0-111.264 22.692t-90.768 61-60.512 91.012-22.448 110.776zm47.336 12.688q6.344 0 17.08.732t16.104.732q104.432 0 214.72-39.04 5.856 16.104 14.64 33.672-61.488 21.472-112.728 60.512t-86.376 92.72q-61-62.952-63.44-149.328zm1.464-48.312q9.272-56.12 43.188-102.724t84.18-72.956q60.024 71.736 98.088 142.496-91.256 33.184-193.736 33.184h-31.72zm97.112 230.824q68.32-103.944 179.584-140.544 27.816 83.448 35.136 172.752-33.672 12.2-75.64 12.2-72.224 0-139.08-44.408zm77.592-424.072q36.112-9.272 61.488-9.272 95.648 0 165.432 67.344-60.024 52.704-132.248 84.424-37.576-70.76-94.672-142.496zm116.144 186.904q72.712-33.184 142.496-91.744 42.456 63.44 42.456 133.712-55.144-12.688-91.256-12.688-30.256 0-77.592 8.784-2.44-5.856-7.808-19.032t-8.296-19.032zm31.72 83.936q29.768-4.88 61.976-4.88 41.968 0 86.376 10.736-11.224 50.752-40.504 91.988t-72.712 66.124q-11.712-94.184-35.136-163.968z"/></svg>