<svg height="1000" width="937.5" xmlns="http://www.w3.org/2000/svg"><path d="M0 760.392v-490.44q0 -69.784 49.532 -119.316t119.316 -49.532h129.32q28.304 0 47.824 19.52t19.52 46.848q0 28.304 -19.52 47.824t-47.824 19.52h-129.32q-14.64 0 -24.888 10.248t-10.248 24.888v490.44q0 14.152 10.248 24.644t24.888 10.492h588.04q14.64 0 24.888 -10.492t10.248 -24.644v-60.024q0 -27.328 19.52 -47.092t46.848 -19.764q27.816 0 47.336 19.52t19.52 47.336v60.024q0 69.784 -49.288 119.072t-119.072 49.288h-588.04q-69.784 0 -119.316 -49.288t-49.532 -119.072zm243.512 -90.28q45.384 -81.008 121.268 -132.004t167.628 -59.292q41.968 -2.44 73.2 1.952v102.968q0 22.448 11.468 30.256t26.596 -3.904l283.04 -206.912q10.248 -7.808 10.248 -19.52 0 -5.368 -2.44 -10.248t-5.368 -7.32l-2.44 -2.44 -283.04 -206.424q-15.128 -12.2 -26.596 -4.636t-11.468 30.012v84.912q-6.344 0 -20.008 .976 -72.224 6.344 -136.396 40.992t-109.556 88.084 -71.492 124.684 -24.644 147.864z"/></svg>