<svg height="1000" width="937.5" xmlns="http://www.w3.org/2000/svg"><path d="M0 500.288q0 -29.768 15.372 -67.344t43.188 -77.348 70.272 -77.836 92.476 -68.076 114.68 -48.312 132.492 -18.3 132.492 18.3 114.68 48.312 92.476 68.076 70.272 77.836 43.188 77.348 15.372 67.344q0 29.28 -15.372 66.856t-43.188 77.348 -70.272 77.592 -92.476 67.832 -114.68 48.312 -132.492 18.3 -132.492 -18.3 -114.68 -48.312 -92.476 -67.832 -70.272 -77.592 -43.188 -77.348 -15.372 -66.856zm234.24 0q0 63.44 31.476 117.12t85.4 84.912 117.364 31.232 117.364 -31.232 85.4 -84.912 31.476 -117.12 -31.476 -117.364 -85.4 -85.4 -117.364 -31.476 -117.364 31.476 -85.4 85.4 -31.476 117.364zm136.152 0q0 40.504 28.792 69.296t69.296 28.792 69.296 -28.792 28.792 -69.296q0 -40.992 -28.792 -70.028t-69.296 -29.036 -69.296 29.036 -28.792 70.028z"/></svg>