<svg height="1000px" width="437.5px" xmlns="http://www.w3.org/2000/svg">
  <g>
    <path d="M0 500c0 0 0 -161.621 0 -161.621c0 0 97.168 0 97.168 0c0 0 0 -97.168 0 -97.168c0 -69.01 16.276 -121.257 48.828 -156.738c32.552 -35.482 86.263 -53.223 161.133 -53.223c0 0 129.394 0 129.394 0c0 0 0 161.621 0 161.621c0 0 -81.054 0 -81.054 0c-14.649 0 -26.367 1.221 -35.157 3.662c-8.789 2.442 -15.218 6.836 -19.287 13.184c-4.069 6.347 -6.673 12.858 -7.812 19.531c-1.139 6.673 -1.709 16.195 -1.709 28.564c0 0 0 80.567 0 80.567c0 0 145.996 0 145.996 0c0 0 -17.09 161.621 -17.09 161.621c0 0 -129.883 0 -129.883 0c0 0 0 468.75 0 468.75c0 0 -193.359 0 -193.359 0c0 0 0 -468.75 0 -468.75c0 0 -97.168 0 -97.168 0c0 0 0 0 0 0" />
  </g>
</svg>