<svg height="1000px" width="937.5px" xmlns="http://www.w3.org/2000/svg">
  <g>
    <path d="M0 500c0 -63.477 12.37 -124.186 37.109 -182.129c24.74 -57.943 58.106 -107.829 100.098 -149.658c41.992 -41.83 91.878 -75.114 149.658 -99.854c57.78 -24.739 118.408 -37.109 181.885 -37.109c63.477 0 124.186 12.37 182.129 37.109c57.943 24.74 107.829 58.024 149.658 99.854c41.83 41.829 75.114 91.715 99.854 149.658c24.739 57.943 37.109 118.652 37.109 182.129c0 63.477 -12.37 124.186 -37.109 182.129c-24.74 57.943 -58.024 107.829 -99.854 149.658c-41.829 41.83 -91.715 75.114 -149.658 99.854c-57.943 24.739 -118.652 37.109 -182.129 37.109c-63.477 0 -124.105 -12.37 -181.885 -37.109c-57.78 -24.74 -107.666 -58.024 -149.658 -99.854c-41.992 -41.829 -75.358 -91.715 -100.098 -149.658c-24.739 -57.943 -37.109 -118.652 -37.109 -182.129c0 0 0 0 0 0m351.074 0c0 0 52.246 0 52.246 0c0 0 0 252.93 0 252.93c0 0 104.493 0 104.493 0c0 0 0 -252.93 0 -252.93c0 0 70.312 0 70.312 0c0 0 8.789 -87.402 8.789 -87.402c0 0 -78.613 0 -78.613 0c0 0 0 -43.946 0 -43.946c0 -13.02 1.953 -22.054 5.859 -27.099c3.906 -5.046 13.509 -7.569 28.809 -7.569c0 0 43.457 0 43.457 0c0 0 0 -87.402 0 -87.402c0 0 -69.824 0 -69.824 0c-40.691 0 -69.743 9.603 -87.159 28.809c-17.415 19.205 -26.123 47.526 -26.123 84.961c0 0 0 52.246 0 52.246c0 0 -52.246 0 -52.246 0c0 0 0 87.402 0 87.402c0 0 0 0 0 0" />
  </g>
</svg>