<svg height="1000" width="937.5" xmlns="http://www.w3.org/2000/svg"><path d="M0 500.288q0 -95.16 37.088 -182.024t100.04 -149.572 149.572 -99.796 181.78 -37.088 182.024 37.088 149.572 99.796 99.796 149.572 37.088 182.024 -37.088 182.024 -99.796 149.572 -149.572 99.796 -182.024 37.088 -181.78 -37.088 -149.572 -99.796 -100.04 -149.572 -37.088 -182.024zm350.872 0h52.216v252.784h104.432v-252.784h70.272l8.784 -87.352h-78.568v-43.92q0 -19.52 5.856 -27.084t28.792 -7.564h43.432v-87.352h-69.784q-61 0 -87.108 28.792t-26.108 84.912v52.216h-52.216v87.352z"/></svg>