<svg height="1000" width="1471.68" xmlns="http://www.w3.org/2000/svg"><path d="M0 833.592v-666.608q0-25.864 18.056-44.164t43.92-18.3h122.488q25.864 0 43.92 18.3t18.056 44.164v285.48l542.168-335.744q30.256-20.496 52.46-7.32t22.204 51.728v285.968l533.384-330.376q30.256-20.496 52.46-7.32t22.204 51.728v678.808q0 38.552-22.204 51.24t-52.46-7.32l-533.384-330.376v286.456q0 38.552-22.204 51.24t-52.46-7.32l-542.168-335.744v285.48q0 25.864-18.056 44.164t-43.92 18.3h-122.488q-25.864 0-43.92-18.3t-18.056-44.164z"/></svg>