<svg height="1000px" width="1471.6796875px" xmlns="http://www.w3.org/2000/svg">
  <g>
    <path d="M0 839.84375c0 0 0 -679.199 0 -679.199c0 -25.716 7.324 -42.969 21.973 -51.758c14.648 -8.789 32.389 -6.348 53.222 7.324c0 0 533.203 330.567 533.203 330.567c0 0 0 -286.133 0 -286.133c0 -25.716 7.325 -42.969 21.973 -51.758c14.649 -8.789 32.389 -6.348 53.223 7.324c0 0 541.992 335.938 541.992 335.938c0 0 0 -285.645 0 -285.645c0 -17.252 6.022 -31.982 18.066 -44.189c12.045 -12.207 26.693 -18.311 43.946 -18.311c0 0 122.558 0 122.558 0c17.253 0 31.901 6.104 43.946 18.311c12.044 12.207 18.066 26.937 18.066 44.189c0 0 0 666.992 0 666.992c0 17.253 -6.022 31.901 -18.066 43.946c-12.045 12.044 -26.693 18.066 -43.946 18.066c0 0 -122.558 0 -122.558 0c-17.253 0 -31.901 -6.022 -43.946 -18.066c-12.044 -12.045 -18.066 -26.693 -18.066 -43.946c0 0 0 -285.644 0 -285.644c0 0 -541.992 335.937 -541.992 335.937c-20.834 13.347 -38.574 15.788 -53.223 7.325c-14.648 -8.464 -21.973 -25.554 -21.973 -51.27c0 0 0 -286.621 0 -286.621c0 0 -533.203 330.566 -533.203 330.566c-20.833 13.347 -38.574 15.788 -53.222 7.325c-14.649 -8.464 -21.973 -25.554 -21.973 -51.27c0 0 0 0 0 0" />
  </g>
</svg>