<svg height="1000" width="1471.68" xmlns="http://www.w3.org/2000/svg"><path d="M0 839.936v-678.808q0-38.552 21.96-51.728t53.192 7.32l532.896 330.376v-285.968q0-38.552 21.96-51.728t53.192 7.32l541.68 335.744v-285.48q0-25.864 18.056-44.164t43.92-18.3h122.488q25.864 0 43.92 18.3t18.056 44.164v666.608q0 25.864-18.056 43.92t-43.92 18.056h-122.488q-25.864 0-43.92-18.056t-18.056-43.92v-285.48l-541.68 335.744q-31.232 20.008-53.192 7.32t-21.96-51.24v-286.456l-532.896 330.376q-31.232 20.008-53.192 7.32t-21.96-51.24z"/></svg>