<svg height="1000px" width="1471.6796875px" xmlns="http://www.w3.org/2000/svg">
  <g>
    <path d="M0 833.49609375c0 0 0 -666.992 0 -666.992c0 -17.253 6.022 -31.983 18.066 -44.19c12.045 -12.207 26.693 -18.31 43.946 -18.31c0 0 122.558 0 122.558 0c17.253 0 31.901 6.103 43.946 18.31c12.044 12.207 18.066 26.937 18.066 44.19c0 0 0 285.644 0 285.644c0 0 542.481 -335.937 542.481 -335.937c20.182 -13.672 37.679 -16.113 52.49 -7.324c14.811 8.789 22.217 26.041 22.217 51.757c0 0 0 286.133 0 286.133c0 0 533.691 -330.566 533.691 -330.566c20.182 -13.672 37.679 -16.113 52.49 -7.324c14.811 8.789 22.217 26.041 22.217 51.757c0 0 0 679.2 0 679.2c0 25.716 -7.406 42.806 -22.217 51.269c-14.811 8.464 -32.308 6.022 -52.49 -7.324c0 0 -533.691 -330.566 -533.691 -330.566c0 0 0 286.621 0 286.621c0 25.716 -7.406 42.806 -22.217 51.269c-14.811 8.464 -32.308 6.022 -52.49 -7.324c0 0 -542.481 -335.938 -542.481 -335.938c0 0 0 285.645 0 285.645c0 17.253 -6.022 31.982 -18.066 44.189c-12.045 12.207 -26.693 18.311 -43.946 18.311c0 0 -122.558 0 -122.558 0c-17.253 0 -31.901 -6.104 -43.946 -18.311c-12.044 -12.207 -18.066 -26.936 -18.066 -44.189c0 0 0 0 0 0" />
  </g>
</svg>