<svg height="1000" width="568.848" xmlns="http://www.w3.org/2000/svg"><path d="M0 315.824q0 -57.584 22.692 -110.288t60.756 -90.768 90.768 -60.512 110.288 -22.448q76.616 0 142.252 38.064t103.944 103.456 38.308 142.496q0 99.064 -61.488 175.924t-155.672 99.796v78.568h95.648q28.304 0 48.068 19.52t19.764 47.824 -19.764 48.312 -48.068 20.008h-95.648v95.16q0 28.304 -19.52 48.068t-47.824 19.764 -48.312 -19.764 -20.008 -48.068v-95.16h-95.16q-28.304 0 -47.824 -20.008t-19.52 -48.312 19.52 -47.824 47.824 -19.52h95.16v-78.568q-94.184 -22.936 -155.184 -99.796t-61 -175.924zm136.152 0q0 61.488 43.432 104.92t104.92 43.432 104.92 -43.432 43.432 -104.92 -43.432 -104.92 -104.92 -43.432 -104.92 43.432 -43.432 104.92z"/></svg>