<svg height="1000px" width="937.5px" xmlns="http://www.w3.org/2000/svg">
  <g>
    <path d="M0 794.921875c0 0 0 -512.207 0 -512.207c0 -23.438 8.708 -43.538 26.123 -60.303c17.415 -16.764 38.167 -25.146 62.256 -25.146c0 0 29.297 0 29.297 0c1.953 -22.136 11.312 -40.772 28.076 -55.908c16.764 -15.137 36.702 -22.706 59.814 -22.706c0 0 195.313 0 195.313 0c23.112 0 43.05 7.569 59.814 22.706c16.765 15.136 25.961 33.772 27.588 55.908c0 0 360.84 0 360.84 0c24.414 0 45.247 8.382 62.5 25.146c17.253 16.765 25.879 36.865 25.879 60.303c0 0 0 512.207 0 512.207c0 23.438 -8.626 43.62 -25.879 60.547c-17.253 16.927 -38.086 25.39 -62.5 25.39c0 0 -760.742 0 -760.742 0c-24.089 0 -44.841 -8.463 -62.256 -25.39c-17.415 -16.927 -26.123 -37.11 -26.123 -60.547c0 0 0 0 0 0" />
  </g>
</svg>