<svg height="1000px" width="1047.36328125px" xmlns="http://www.w3.org/2000/svg">
  <g>
    <path d="M0 792.96875c0 0 0 -508.789 0 -508.789c0 -23.438 8.382 -43.376 25.146 -59.815c16.765 -16.438 36.866 -24.658 60.303 -24.658c0 0 28.809 0 28.809 0c1.627 -21.81 10.579 -40.283 26.855 -55.42c16.276 -15.136 35.645 -22.705 58.106 -22.705c0 0 190.429 0 190.429 0c22.136 0 41.342 7.569 57.618 22.705c16.276 15.137 25.227 33.61 26.855 55.42c0 0 351.074 0 351.074 0c23.438 0 43.539 8.22 60.303 24.658c16.764 16.439 25.147 36.377 25.147 59.815c0 0 0 84.961 0 84.961c0 0 65.917 0 65.917 0c23.438 0 41.911 8.301 55.42 24.902c13.51 16.602 18.148 36.621 13.916 60.059c0 0 -99.121 338.867 -99.121 338.867c-4.231 23.438 -16.357 43.457 -36.377 60.059c-20.019 16.601 -41.91 24.902 -65.673 24.902c0 0 -759.278 0 -759.278 0c-23.437 0 -43.538 -8.301 -60.303 -24.902c-16.764 -16.602 -25.146 -36.621 -25.146 -60.059c0 0 0 0 0 0m85.449 -169.922c0 0 48.828 -168.945 48.828 -168.945c4.558 -23.438 16.846 -43.457 36.866 -60.059c20.019 -16.601 41.91 -24.902 65.673 -24.902c0 0 588.379 0 588.379 0c0 0 0 -84.961 0 -84.961c0 0 -739.746 0 -739.746 0c0 0 0 338.867 0 338.867c0 0 0 0 0 0m39.551 169.922c0 0 719.727 0 719.727 0c3.255 0 6.998 -1.709 11.23 -5.127c4.232 -3.418 6.673 -6.917 7.324 -10.498c0 0 0.489 -3.906 0.489 -3.906c0 0 0.976 -3.907 0.976 -3.907c0 0 91.797 -315.429 91.797 -315.429c0 0 -719.727 0 -719.727 0c-2.929 0 -6.591 1.709 -10.986 5.127c-4.394 3.418 -6.754 6.917 -7.08 10.498c0 0 -0.488 3.906 -0.488 3.906c0 0 -0.977 3.906 -0.977 3.906c0 0 -92.285 315.43 -92.285 315.43" />
  </g>
</svg>