<svg height="1000px" width="937.5px" xmlns="http://www.w3.org/2000/svg">
  <g>
    <path d="M0 794.921875c0 0 0 -512.207 0 -512.207c0 -23.438 8.708 -43.538 26.123 -60.303c17.415 -16.764 38.167 -25.146 62.256 -25.146c0 0 29.785 0 29.785 0c1.628 -22.136 10.824 -40.772 27.588 -55.908c16.764 -15.137 36.702 -22.706 59.814 -22.706c0 0 195.801 0 195.801 0c23.112 0 42.969 7.569 59.571 22.706c16.601 15.136 25.716 33.772 27.343 55.908c0 0 361.817 0 361.817 0c24.088 0 44.677 8.382 61.767 25.146c17.09 16.765 25.635 36.865 25.635 60.303c0 0 0 512.207 0 512.207c0 23.438 -8.545 43.62 -25.635 60.547c-17.09 16.927 -37.679 25.39 -61.767 25.39c0 0 -761.719 0 -761.719 0c-24.089 0 -44.841 -8.463 -62.256 -25.39c-17.415 -16.927 -26.123 -37.11 -26.123 -60.547c0 0 0 0 0 0m88.379 0c0 0 761.719 0 761.719 0c0 0 0 -512.207 0 -512.207c0 0 -761.719 0 -761.719 0c0 0 0 512.207 0 512.207c0 0 0 0 0 0" />
  </g>
</svg>