<svg height="1000px" width="1046.875px" xmlns="http://www.w3.org/2000/svg">
  <g>
    <path d="M0 792.96875c0 0 0 -508.789 0 -508.789c0 -23.438 8.301 -43.376 24.902 -59.815c16.602 -16.438 36.784 -24.658 60.547 -24.658c0 0 28.809 0 28.809 0c1.627 -21.81 10.579 -40.283 26.855 -55.42c16.276 -15.136 35.645 -22.705 58.106 -22.705c0 0 190.429 0 190.429 0c22.136 0 41.342 7.569 57.618 22.705c16.276 15.137 25.227 33.61 26.855 55.42c0 0 351.074 0 351.074 0c23.438 0 43.539 8.22 60.303 24.658c16.764 16.439 25.147 36.377 25.147 59.815c0 0 0 84.961 0 84.961c0 0 65.917 0 65.917 0c23.438 0 41.911 8.301 55.42 24.902c13.51 16.602 17.985 36.621 13.428 60.059c0 0 -98.633 338.867 -98.633 338.867c-4.231 23.438 -16.357 43.457 -36.377 60.059c-20.019 16.601 -41.91 24.902 -65.673 24.902c0 0 -759.278 0 -759.278 0c-23.763 0 -43.945 -8.301 -60.547 -24.902c-16.601 -16.602 -24.902 -36.621 -24.902 -60.059c0 0 0 0 0 0m125 0c0 0 719.727 0 719.727 0c2.929 0 6.591 -1.709 10.986 -5.127c4.394 -3.418 6.754 -6.917 7.08 -10.498c0 0 1.953 -7.813 1.953 -7.813c0 0 91.797 -315.429 91.797 -315.429c0 0 -719.727 0 -719.727 0c-2.929 0 -6.591 1.709 -10.986 5.127c-4.394 3.418 -6.754 6.917 -7.08 10.498c0 0 -2.441 7.812 -2.441 7.812c0 0 -91.309 315.43 -91.309 315.43" />
  </g>
</svg>