<svg height="1000" width="587.402" xmlns="http://www.w3.org/2000/svg"><path d="M0 674.992q0 -14.152 1.464 -27.328h-1.464q0 -56.608 11.712 -116.876t26.596 -103.212 28.548 -92.72 17.812 -85.644 -5.612 -82.228q2.928 .488 8.296 2.684t20.984 13.42 30.744 28.548 34.892 52.216 36.356 80.276q26.84 -24.888 46.604 -51.728t37.332 -63.928 26.84 -86.62 9.272 -110.044q5.368 3.416 14.64 9.76t35.868 31.72 50.996 56.608 53.924 85.644 50.752 116.632 35.868 152.256 14.64 190.564q0 79.544 -39.284 147.132t-106.872 107.116 -147.132 39.528q-80.032 0 -147.62 -39.528t-106.872 -107.116 -39.284 -147.132zm189.832 73.2q0 43.432 30.5 73.932t73.444 30.5 73.444 -30.5 30.5 -73.932q0 -48.8 -9.272 -90.28t-22.692 -65.88 -26.84 -41.48 -22.692 -23.424l-9.272 -6.832q0 40.504 -11.224 65.88t-31.72 44.408q-9.272 -25.376 -20.74 -40.992t-18.788 -18.544l-6.832 -2.928q5.368 20.496 -1.464 46.604t-16.592 60.024 -9.76 64.172h.488q-.488 2.928 -.488 9.272z"/></svg>