<svg height="1000" width="1047.363" xmlns="http://www.w3.org/2000/svg"><path d="M0 793.088v-508.496q0-35.136 25.132-59.78t60.268-24.644h28.792q2.44-32.696 26.84-55.388t58.072-22.692h190.32q33.184 0 57.584 22.692t26.84 55.388h350.872q35.136 0 60.268 24.644t25.132 59.78v84.912h65.88q35.136 0 55.388 24.888t13.908 60.024l-99.064 338.672q-6.344 35.136-36.356 60.024t-65.636 24.888h-758.84q-35.136 0-60.268-24.888t-25.132-60.024zm85.4-169.824l48.8-168.848q6.832-35.136 36.844-60.024t65.636-24.888h588.04v-84.912h-739.32v338.672zm39.528 169.824h719.312q4.88 0 11.224-5.124t7.32-10.492l.488-3.904.976-3.904 91.744-315.248h-719.312q-4.392 0-10.98 5.124t-7.076 10.492l-.488 3.904-.976 3.904z"/></svg>