<svg height="1000px" width="937.5px" xmlns="http://www.w3.org/2000/svg">
  <g>
    <path d="M0 544.43359375c0 -88.542 25.553 -162.76 76.66 -222.656c-10.091 -30.599 -15.137 -62.663 -15.137 -96.192c0 -44.27 9.603 -85.123 28.809 -122.558c38.737 0 73.324 6.836 103.76 20.508c30.436 13.671 66.976 37.272 109.619 70.8c56.641 -13.02 114.583 -19.531 173.828 -19.531c54.362 0 107.096 6.022 158.203 18.067c41.667 -32.553 77.718 -55.665 108.154 -69.336c30.437 -13.672 65.023 -20.508 103.76 -20.508c18.88 37.76 28.321 78.613 28.321 122.558c0 33.203 -5.046 64.942 -15.137 95.215c51.107 59.896 76.66 134.44 76.66 223.633c0 78.125 -11.393 140.462 -34.18 187.012c-13.672 27.669 -32.877 52.002 -57.617 72.998c-24.739 20.996 -51.758 37.679 -81.055 50.049c-25.716 10.742 -56.396 19.449 -92.041 26.123c-35.644 6.673 -69.254 10.986 -100.83 12.939c-37.76 1.953 -69.173 2.93 -94.238 2.93c-57.943 0 -111.979 -2.93 -162.109 -8.789c-55.664 -5.86 -110.189 -21.322 -163.575 -46.387c-52.734 -23.763 -91.634 -60.384 -116.699 -109.863c-23.437 -46.55 -35.156 -108.887 -35.156 -187.012c0 0 0 0 0 0m125.977 99.121c0 31.576 5.859 59.815 17.578 84.717c11.718 24.902 27.181 44.84 46.386 59.814c17.579 13.347 39.877 24.414 66.895 33.203c27.018 8.79 53.874 14.486 80.566 17.09c25.065 2.93 53.06 4.395 83.985 4.395c0 0 94.726 0 94.726 0c62.5 0 116.862 -6.999 163.086 -20.996c27.995 -8.464 51.026 -19.776 69.092 -33.936c18.066 -14.16 33.122 -33.284 45.166 -57.373c12.044 -25.065 18.066 -54.036 18.066 -86.914c0 -46.224 -13.183 -84.798 -39.55 -115.723c-26.368 -30.924 -61.198 -46.386 -104.493 -46.386c-16.276 0 -52.897 4.069 -109.863 12.207c-28.971 4.232 -58.594 6.347 -88.867 6.347c-30.273 0 -59.733 -2.115 -88.379 -6.347c-55.989 -8.138 -92.611 -12.207 -109.863 -12.207c-43.294 0 -78.207 15.462 -104.737 46.386c-26.529 30.925 -39.794 69.499 -39.794 115.723c0 0 0 0 0 0m90.332 0c0 -36.458 10.416 -65.918 31.25 -88.379c11.718 -13.021 25.39 -19.531 41.015 -19.531c14.974 0 28.402 6.103 40.283 18.31c11.882 12.208 20.264 26.775 25.147 43.702c4.232 15.625 6.348 30.924 6.348 45.898c0 35.807 -10.254 65.593 -30.762 89.356c-11.719 12.695 -25.391 19.043 -41.016 19.043c-14.648 0 -27.913 -6.104 -39.795 -18.311c-11.881 -12.207 -20.263 -26.774 -25.146 -43.701c-4.883 -15.625 -7.324 -31.087 -7.324 -46.387c0 0 0 0 0 0m360.839 0c0 -36.458 10.58 -65.918 31.739 -88.379c11.067 -13.021 24.414 -19.531 40.039 -19.531c14.974 0 28.401 6.103 40.283 18.31c11.881 12.208 20.264 26.775 25.146 43.702c4.558 16.601 6.836 31.901 6.836 45.898c0 35.807 -10.253 65.593 -30.761 89.356c-11.719 12.695 -25.554 19.043 -41.504 19.043c-14.649 0 -27.832 -6.104 -39.551 -18.311c-11.719 -12.207 -20.02 -26.774 -24.902 -43.701c-4.883 -15.625 -7.325 -31.087 -7.325 -46.387c0 0 0 0 0 0" />
  </g>
</svg>