<svg height="1000px" width="937.5px" xmlns="http://www.w3.org/2000/svg">
  <g>
    <path d="M0 500c0 -63.477 12.37 -124.186 37.109 -182.129c24.74 -57.943 58.024 -107.829 99.854 -149.658c41.829 -41.83 91.715 -75.114 149.658 -99.854c57.943 -24.739 118.652 -37.109 182.129 -37.109c63.477 0 124.105 12.37 181.885 37.109c57.78 24.74 107.666 58.024 149.658 99.854c41.992 41.829 75.358 91.715 100.098 149.658c24.739 57.943 37.109 118.652 37.109 182.129c0 63.477 -12.37 124.186 -37.109 182.129c-24.74 57.943 -58.106 107.829 -100.098 149.658c-41.992 41.83 -91.878 75.114 -149.658 99.854c-57.78 24.739 -118.408 37.109 -181.885 37.109c-63.477 0 -124.186 -12.37 -182.129 -37.109c-57.943 -24.74 -107.829 -58.024 -149.658 -99.854c-41.83 -41.829 -75.114 -91.715 -99.854 -149.658c-24.739 -57.943 -37.109 -118.652 -37.109 -182.129c0 0 0 0 0 0m183.594 197.266c0 20.833 6.266 38.492 18.799 52.978c12.532 14.486 28.239 24.007 47.119 28.565c17.252 4.882 36.784 7.324 58.593 7.324c81.706 0 122.559 -34.18 122.559 -102.539c0 -16.602 -4.394 -30.599 -13.184 -41.992c-8.789 -11.394 -20.345 -19.532 -34.667 -24.414c-0.977 -0.326 -6.592 -1.954 -16.846 -4.883c-10.254 -2.93 -18.148 -5.046 -23.682 -6.348c-32.226 -8.138 -48.34 -19.694 -48.34 -34.668c0 -15.95 8.952 -25.391 26.856 -28.32c27.995 -5.534 50.293 -18.474 66.894 -38.819c16.602 -20.345 24.903 -44.84 24.903 -73.486c0 -8.138 -1.953 -17.578 -5.86 -28.32c15.625 -4.232 24.577 -6.673 26.856 -7.324c0 0 0 -68.848 0 -68.848c-28.321 10.742 -52.897 16.113 -73.731 16.113c-18.554 -10.742 -38.737 -16.113 -60.547 -16.113c-31.575 0 -58.105 10.498 -79.589 31.494c-21.485 20.996 -32.227 47.119 -32.227 78.369c0 18.88 5.452 37.679 16.357 56.397c10.905 18.717 24.17 30.843 39.795 36.377c0 0 0 1.464 0 1.464c-13.672 6.511 -20.507 22.136 -20.507 46.875c0 18.881 7.487 32.878 22.46 41.993c0 0 0 1.953 0 1.953c-41.341 13.997 -62.011 39.388 -62.011 76.172c0 0 0 0 0 0m69.336 -3.907c0 -23.437 17.741 -35.156 53.222 -35.156c37.761 0 56.641 11.231 56.641 33.692c0 24.088 -17.09 36.132 -51.27 36.132c-39.062 0 -58.593 -11.556 -58.593 -34.668c0 0 0 0 0 0m7.324 -256.836c0 -32.877 13.835 -49.316 41.504 -49.316c13.021 0 23.112 4.639 30.273 13.916c7.162 9.277 10.742 20.915 10.742 34.912c0 30.925 -13.671 46.387 -41.015 46.387c-27.669 0 -41.504 -15.3 -41.504 -45.899c0 0 0 0 0 0m197.266 -208.007c0 13.346 4.557 24.902 13.671 34.668c9.115 9.765 20.02 14.648 32.715 14.648c12.696 0 23.601 -4.964 32.715 -14.893c9.115 -9.928 13.672 -21.403 13.672 -34.423c0 -13.347 -4.476 -24.984 -13.428 -34.912c-8.952 -9.929 -19.938 -14.893 -32.959 -14.893c-13.021 0 -24.007 4.883 -32.959 14.648c-8.952 9.766 -13.427 21.485 -13.427 35.157c0 0 0 0 0 0m8.3 396.484c0 0 75.684 0 75.684 0c-0.977 -14.648 -1.465 -31.087 -1.465 -49.316c0 0 0 -204.102 0 -204.102c0 -15.299 0.488 -29.297 1.465 -41.992c0 0 -75.684 0 -75.684 0c1.302 12.37 1.953 26.855 1.953 43.457c0 0 0 206.543 0 206.543c0 16.601 -0.651 31.738 -1.953 45.41c0 0 0 0 0 0m107.422 -231.445c0 0 20.02 -1.465 20.02 -1.465c0 0 6.836 0 6.836 0c1.953 0.325 3.906 0.488 5.859 0.488c0 0 0 0.977 0 0.977c0 0 -0.977 0 -0.977 0c0 0 0 119.629 0 119.629c0 27.343 2.605 49.316 7.813 65.918c6.836 21.809 19.206 36.295 37.109 43.457c10.743 4.557 22.95 6.836 36.621 6.836c22.787 0 42.481 -4.558 59.082 -13.672c0 0 0 -66.407 0 -66.407c-11.393 7.813 -23.925 11.719 -37.597 11.719c-19.206 0 -28.809 -14.974 -28.809 -44.922c0 0 0 -123.535 0 -123.535c0 0 28.321 0 28.321 0c5.533 0 10.416 0.163 14.648 0.488c4.232 0.326 9.115 0.489 14.648 0.489c0 0 0 -63.965 0 -63.965c0 0 -57.617 0 -57.617 0c0 -29.948 0.488 -48.503 1.465 -55.664c0 0 -76.66 0 -76.66 0c1.302 7.812 1.953 17.741 1.953 29.785c0 0 0 25.879 0 25.879c0 0 -32.715 0 -32.715 0c0 0 0 63.965 0 63.965c0 0 0 0 0 0" />
  </g>
</svg>