<svg height="1000px" width="937.5px" xmlns="http://www.w3.org/2000/svg">
  <g>
    <path d="M0 500c0 -63.477 12.37 -124.186 37.109 -182.129c24.74 -57.943 58.024 -107.829 99.854 -149.658c41.829 -41.83 91.715 -75.114 149.658 -99.854c57.943 -24.739 118.652 -37.109 182.129 -37.109c63.477 0 124.186 12.37 182.129 37.109c57.943 24.74 107.829 58.024 149.658 99.854c41.83 41.829 75.114 91.715 99.854 149.658c24.739 57.943 37.109 118.652 37.109 182.129c0 63.477 -12.37 124.186 -37.109 182.129c-24.74 57.943 -58.024 107.829 -99.854 149.658c-41.829 41.83 -91.715 75.114 -149.658 99.854c-57.943 24.739 -118.652 37.109 -182.129 37.109c-63.477 0 -124.186 -12.37 -182.129 -37.109c-57.943 -24.74 -107.829 -58.024 -149.658 -99.854c-41.83 -41.829 -75.114 -91.715 -99.854 -149.658c-24.739 -57.943 -37.109 -118.652 -37.109 -182.129c0 0 0 0 0 0m197.754 31.25c0 43.945 6.51 79.427 19.531 106.445c15.625 29.623 37.923 50.619 66.895 62.989c30.924 14.323 62.011 23.112 93.261 26.367c26.368 3.255 57.292 4.883 92.774 4.883c19.857 0 37.76 -0.489 53.711 -1.465c41.666 -1.953 78.45 -9.278 110.351 -21.973c37.761 -15.95 64.291 -39.551 79.59 -70.801c13.021 -27.669 19.531 -63.151 19.531 -106.445c0 -51.107 -14.811 -93.913 -44.433 -128.418c6.185 -16.602 9.277 -34.668 9.277 -54.199c0 -24.414 -5.371 -47.689 -16.113 -69.824c-22.136 0 -41.992 3.906 -59.57 11.718c-17.579 7.813 -38.086 20.996 -61.524 39.551c-29.622 -7.161 -59.896 -10.742 -90.82 -10.742c-34.831 0 -67.871 3.906 -99.121 11.719c-24.74 -19.206 -45.736 -32.715 -62.989 -40.528c-17.252 -7.812 -36.946 -11.718 -59.082 -11.718c-11.393 22.135 -17.089 45.41 -17.089 69.824c0 16.927 3.092 35.156 9.277 54.687c-28.971 33.854 -43.457 76.498 -43.457 127.93c0 0 0 0 0 0m71.777 56.641c0 -26.693 7.569 -48.91 22.705 -66.651c15.137 -17.741 35.075 -26.611 59.815 -26.611c9.44 0 30.273 2.441 62.5 7.324c13.997 2.279 30.924 3.418 50.781 3.418c19.531 0 36.296 -1.139 50.293 -3.418c33.529 -4.883 54.525 -7.324 62.988 -7.324c24.74 0 44.678 8.87 59.815 26.611c15.136 17.741 22.705 39.958 22.705 66.651c0 18.554 -3.418 34.993 -10.254 49.316c-12.695 25.716 -34.505 43.132 -65.43 52.246c-26.367 7.813 -57.454 11.719 -93.262 11.719c0 0 -54.199 0 -54.199 0c-18.88 0 -34.83 -0.651 -47.851 -1.953c-36.133 -3.907 -64.291 -13.672 -84.473 -29.297c-24.088 -17.904 -36.133 -45.248 -36.133 -82.031c0 0 0 0 0 0m51.27 0c0 10.091 1.465 18.88 4.394 26.367c2.604 9.765 7.325 18.066 14.16 24.902c6.836 6.836 14.486 10.254 22.95 10.254c8.789 0 16.601 -3.581 23.437 -10.742c11.719 -13.672 17.578 -30.599 17.578 -50.781c0 -9.766 -1.302 -18.718 -3.906 -26.856c-2.93 -9.765 -7.731 -18.066 -14.404 -24.902c-6.673 -6.836 -14.242 -10.254 -22.705 -10.254c-8.789 0 -16.602 3.581 -23.438 10.742c-12.044 13.997 -18.066 31.087 -18.066 51.27c0 0 0 0 0 0m206.543 0c0 9.765 1.302 18.554 3.906 26.367c2.604 9.765 7.243 18.066 13.916 24.902c6.673 6.836 14.242 10.254 22.705 10.254c9.115 0 17.253 -3.581 24.414 -10.742c11.393 -13.021 17.09 -29.948 17.09 -50.781c0 -9.766 -1.302 -18.718 -3.906 -26.856c-2.604 -9.765 -7.324 -18.066 -14.16 -24.902c-6.836 -6.836 -14.649 -10.254 -23.438 -10.254c-8.789 0 -16.276 3.581 -22.461 10.742c-12.044 13.346 -18.066 30.436 -18.066 51.27c0 0 0 0 0 0" />
  </g>
</svg>