<svg height="1000" width="937.5" xmlns="http://www.w3.org/2000/svg"><path d="M0 544.696q0-132.736 76.616-222.528-15.128-45.872-15.128-96.136 0-66.368 28.792-122.488 58.072 0 103.7 20.496t109.556 70.76q84.912-19.52 173.728-19.52 81.496 0 158.112 18.056 62.464-48.8 108.092-69.296t103.7-20.496q28.304 56.608 28.304 122.488 0 49.776-15.128 95.16 76.616 89.792 76.616 223.504 0 117.12-34.16 186.904-20.496 41.48-57.584 72.956t-81.008 50.02q-38.552 16.104-91.988 26.108t-100.772 12.932q-56.608 2.928-94.184 2.928-86.864 0-162.016-8.784-83.448-8.784-163.48-46.36-79.056-35.624-116.632-109.8-35.136-69.784-35.136-186.904zm125.904 99.064q0 47.336 17.568 84.668t46.36 59.78q26.352 20.008 66.856 33.184t80.52 17.08q37.576 4.392 83.936 4.392h94.672q93.696 0 162.992-20.984 41.968-12.688 69.052-33.916t45.14-57.34q18.056-37.576 18.056-86.864 0-69.296-39.528-115.656t-104.432-46.36q-24.4 0-109.8 12.2-43.432 6.344-88.816 6.344t-88.328-6.344q-83.936-12.2-109.8-12.2-64.904 0-104.676 46.36t-39.772 115.656zm90.28 0q0-54.656 31.232-88.328 17.568-19.52 40.992-19.52 22.448 0 40.26 18.3t25.132 43.676q6.344 23.424 6.344 45.872 0 53.68-30.744 89.304-17.568 19.032-40.992 19.032-21.96 0-39.772-18.3t-25.132-43.676q-7.32-23.424-7.32-46.36zm360.632 0q0-54.656 31.72-88.328 16.592-19.52 40.016-19.52 22.448 0 40.26 18.3t25.132 43.676q6.832 24.888 6.832 45.872 0 53.68-30.744 89.304-17.568 19.032-41.48 19.032-21.96 0-39.528-18.3t-24.888-43.676q-7.32-23.424-7.32-46.36z"/></svg>