<svg height="1000" width="937.5" xmlns="http://www.w3.org/2000/svg"><path d="M0 500.288q0 -95.16 37.088 -182.024t99.796 -149.572 149.572 -99.796 182.024 -37.088 182.024 37.088 149.572 99.796 99.796 149.572 37.088 182.024 -37.088 182.024 -99.796 149.572 -149.572 99.796 -182.024 37.088 -182.024 -37.088 -149.572 -99.796 -99.796 -149.572 -37.088 -182.024zm197.64 31.232q0 65.88 19.52 106.384 23.424 44.408 66.856 62.952 46.36 21.472 93.208 26.352 39.528 4.88 92.72 4.88 29.768 0 53.68 -1.464 62.464 -2.928 110.288 -21.96 56.608 -23.912 79.544 -70.76 19.52 -41.48 19.52 -106.384 0 -76.616 -44.408 -128.344 9.272 -24.888 9.272 -54.168 0 -36.6 -16.104 -69.784 -33.184 0 -59.536 11.712t-61.488 39.528q-44.408 -10.736 -90.768 -10.736 -52.216 0 -99.064 11.712 -37.088 -28.792 -62.952 -40.504t-59.048 -11.712q-17.08 33.184 -17.08 69.784 0 25.376 9.272 54.656 -43.432 50.752 -43.432 127.856zm71.736 56.608q0 -40.016 22.692 -66.612t59.78 -26.596q14.152 0 62.464 7.32 20.984 3.416 50.752 3.416 29.28 0 50.264 -3.416 50.264 -7.32 62.952 -7.32 37.088 0 59.78 26.596t22.692 66.612q0 27.816 -10.248 49.288 -19.032 38.552 -65.392 52.216 -39.528 11.712 -93.208 11.712h-54.168q-28.304 0 -47.824 -1.952 -54.168 -5.856 -84.424 -29.28 -36.112 -26.84 -36.112 -81.984zm51.24 0q0 15.128 4.392 26.352 3.904 14.64 14.152 24.888t22.936 10.248q13.176 0 23.424 -10.736 17.568 -20.496 17.568 -50.752 0 -14.64 -3.904 -26.84 -4.392 -14.64 -14.396 -24.888t-22.692 -10.248q-13.176 0 -23.424 10.736 -18.056 20.984 -18.056 51.24zm206.424 0q0 14.64 3.904 26.352 3.904 14.64 13.908 24.888t22.692 10.248q13.664 0 24.4 -10.736 17.08 -19.52 17.08 -50.752 0 -14.64 -3.904 -26.84 -3.904 -14.64 -14.152 -24.888t-23.424 -10.248 -22.448 10.736q-18.056 20.008 -18.056 51.24z"/></svg>