<svg height="1000" width="937.5" xmlns="http://www.w3.org/2000/svg"><path d="M0 500.288q0 -126.88 62.464 -234.728t171.288 -170.8q105.408 -62.952 234.728 -62.952 126.88 0 234.972 62.22t171.044 170.556q62.464 106.872 62.464 235.704 0 126.88 -62.22 234.972t-170.556 171.044q-108.336 62.464 -235.704 62.464 -126.88 0 -234.728 -62.464t-170.8 -171.288q-62.952 -105.408 -62.952 -234.728zm78.08 0q0 83.936 34.404 160.064t96.624 131.516 142.252 80.276v-103.456q-31.232 4.88 -41.968 4.88 -66.368 0 -93.696 -61 -7.32 -20.984 -21.472 -38.552 -1.464 -2.44 -13.176 -11.712 -.976 -.976 -16.592 -14.64 -8.296 -6.832 -8.296 -9.76 0 -7.32 17.08 -7.32 31.72 0 54.656 30.256 .488 .488 5.124 6.832t5.856 7.808 5.124 6.832 6.344 7.564 6.344 6.1 7.564 6.588 8.052 5.124q14.152 8.784 33.672 8.784 25.864 0 49.776 -8.296 10.736 -35.624 38.552 -54.168 -104.432 -9.76 -151.768 -52.216t-47.336 -135.664q0 -73.2 44.408 -121.024 -8.296 -25.864 -8.296 -51.24 0 -35.624 16.104 -66.368 33.672 0 60.268 10.98t63.196 37.82q47.824 -11.224 102.968 -11.224 48.312 0 93.696 10.248 37.576 -26.352 63.44 -37.088t58.56 -10.736q16.592 30.256 16.592 66.368 0 24.4 -8.784 50.752 44.408 49.288 44.408 121.512 0 93.208 -47.58 136.152t-150.548 52.216q41.968 28.792 41.968 80.032v137.616q80.032 -24.888 142.252 -80.276t96.624 -131.516 34.404 -160.064q0 -78.08 -30.5 -150.792t-83.204 -125.416q-53.192 -53.192 -125.904 -83.692t-150.792 -30.5 -150.304 30.5 -125.416 83.692q-53.192 52.704 -83.936 125.416t-30.744 150.792z"/></svg>