<svg height="1000px" width="937.5px" xmlns="http://www.w3.org/2000/svg">
  <g>
    <path d="M0 500c0 -63.802 12.37 -124.593 37.109 -182.373c24.74 -57.78 58.024 -107.585 99.854 -149.414c41.829 -41.83 91.715 -75.114 149.658 -99.854c57.943 -24.739 118.652 -37.109 182.129 -37.109c63.477 0 124.186 12.37 182.129 37.109c57.943 24.74 107.829 58.024 149.658 99.854c41.83 41.829 75.114 91.634 99.854 149.414c24.739 57.78 37.109 118.571 37.109 182.373c0 63.477 -12.37 124.186 -37.109 182.129c-24.74 57.943 -58.024 107.829 -99.854 149.658c-41.829 41.83 -91.715 75.114 -149.658 99.854c-57.943 24.739 -118.652 37.109 -182.129 37.109c-63.477 0 -124.186 -12.37 -182.129 -37.109c-57.943 -24.74 -107.829 -58.024 -149.658 -99.854c-41.83 -41.829 -75.114 -91.715 -99.854 -149.658c-24.739 -57.943 -37.109 -118.652 -37.109 -182.129c0 0 0 0 0 0m156.25 -216.797c9.115 -1.627 14.974 -1.79 17.578 -0.488c1.628 0.976 2.848 1.79 3.662 2.441c0.814 0.651 1.302 1.465 1.465 2.442c0.163 0.976 0.244 2.116 0.244 3.418c0 0 0 4.882 0 4.882c0.651 19.206 7.487 25.228 20.508 18.067c4.883 -2.93 8.545 -10.091 10.986 -21.485c2.442 -11.393 4.476 -18.391 6.104 -20.996c3.581 -5.859 11.068 -14.16 22.461 -24.902c1.302 -0.977 3.336 -2.686 6.103 -5.127c2.767 -2.441 4.802 -4.313 6.104 -5.615c1.302 -1.302 2.685 -3.255 4.15 -5.86c1.465 -2.604 2.197 -5.533 2.197 -8.789c0.326 -6.184 -1.871 -10.905 -6.591 -14.16c-4.72 -3.255 -10.498 -5.371 -17.334 -6.347c-29.297 23.112 -55.176 50.618 -77.637 82.519c0 0 0 0 0 0m83.496 369.141c1.953 11.718 5.941 21.647 11.963 29.785c6.022 8.138 12.533 14.323 19.531 18.555c6.999 4.231 16.195 7.487 27.588 9.765c11.393 2.279 21.159 3.581 29.297 3.906c8.138 0.326 18.88 0.652 32.227 0.977c13.346 0.326 23.112 0.651 29.296 0.977c11.068 0.651 18.555 2.36 22.461 5.127c3.907 2.766 7.487 9.196 10.743 19.287c1.302 3.58 3.418 9.196 6.347 16.845c2.93 7.65 5.29 14.323 7.08 20.02c1.791 5.697 3.174 11.312 4.151 16.846c1.302 6.51 2.441 15.95 3.418 28.32c0.976 12.37 1.79 20.67 2.441 24.902c2.604 16.276 6.348 27.181 11.231 32.715c1.302 0 3.173 0.081 5.615 0.244c2.441 0.163 4.313 0.244 5.615 0.244c39.388 0 79.427 -6.51 120.117 -19.531c4.883 -2.93 11.231 -7.487 19.043 -13.672c7.813 -6.185 12.695 -9.928 14.649 -11.23c1.302 -0.651 3.418 -1.628 6.347 -2.93c2.93 -1.302 5.209 -2.685 6.836 -4.15c1.628 -1.465 2.93 -3.662 3.906 -6.592c1.303 -1.953 1.709 -4.232 1.221 -6.836c-0.488 -2.604 -0.895 -4.557 -1.221 -5.859c-0.325 -1.302 -1.22 -3.256 -2.685 -5.86c-1.465 -2.604 -2.523 -4.883 -3.174 -6.836c-1.302 -3.255 -2.034 -6.347 -2.197 -9.277c-0.163 -2.93 0.081 -5.453 0.732 -7.568c0.651 -2.116 1.953 -4.395 3.906 -6.836c1.954 -2.442 3.744 -4.395 5.372 -5.86c1.627 -1.465 3.906 -3.58 6.836 -6.347c2.929 -2.767 5.208 -4.965 6.835 -6.592c8.79 -8.789 19.694 -25.065 32.715 -48.828c13.347 -24.089 19.857 -41.667 19.532 -52.735c-4.558 -0.325 -12.94 0.733 -25.147 3.174c-12.207 2.442 -21.728 3.011 -28.564 1.709c-16.602 -2.93 -33.855 -13.672 -51.758 -32.226c-14.649 -15.3 -21.485 -33.204 -20.508 -53.711c0.325 -4.232 0.732 -6.999 1.221 -8.301c0.488 -1.302 2.034 -2.767 4.638 -4.395c3.256 3.581 9.929 8.708 20.02 15.381c10.091 6.673 16.927 12.614 20.508 17.822c1.302 1.628 3.011 3.988 5.127 7.081c2.116 3.092 3.662 5.371 4.638 6.835c0.977 1.465 2.523 3.337 4.639 5.616c2.116 2.278 4.476 4.394 7.08 6.347c2.604 1.953 5.615 5.371 9.033 10.254c3.418 4.883 6.267 8.138 8.545 9.766c5.209 3.255 10.905 3.988 17.09 2.197c6.185 -1.79 11.882 -4.801 17.09 -9.033c2.604 -2.279 4.801 -5.046 6.592 -8.301c1.79 -3.255 3.011 -5.941 3.662 -8.056c0.651 -2.116 1.383 -5.534 2.197 -10.254c0.814 -4.72 1.384 -7.732 1.709 -9.034c0.977 -3.58 3.011 -7.812 6.104 -12.695c3.092 -4.883 5.126 -8.952 6.103 -12.207c0.977 -3.255 0.977 -13.672 0 -31.25c-10.742 0 -18.555 1.302 -23.437 3.906c-1.303 0.651 -3.418 2.767 -6.348 6.348c-2.93 3.581 -6.348 5.208 -10.254 4.883c-7.161 -0.326 -12.858 -3.581 -17.09 -9.766c-4.232 -6.185 -6.673 -12.858 -7.324 -20.019c2.604 -1.953 5.941 -3.256 10.01 -3.907c4.069 -0.651 7.487 -0.976 10.254 -0.976c2.767 0 6.998 0.163 12.695 0.488c5.697 0.326 9.359 0.488 10.986 0.488c12.045 0 25.065 -2.929 39.063 -8.789c5.534 -2.604 10.742 -4.15 15.625 -4.638c4.883 -0.489 9.847 0.244 14.892 2.197c5.046 1.953 9.359 3.906 12.94 5.859c3.581 1.953 8.301 5.046 14.16 9.278c1.628 1.302 3.825 3.173 6.592 5.615c2.767 2.441 5.208 4.639 7.324 6.592c2.116 1.953 4.394 3.743 6.836 5.371c2.441 1.627 4.801 2.278 7.08 1.953c2.279 -0.326 4.394 -1.628 6.348 -3.906c2.278 -2.605 3.662 -6.592 4.15 -11.963c0.488 -5.371 0.488 -11.556 0 -18.555c-0.488 -6.999 -0.732 -11.475 -0.732 -13.428c0 0 2.441 -20.507 2.441 -20.507c0.326 -1.954 1.79 -5.86 4.395 -11.719c-7.162 -73.893 -33.529 -139.974 -79.102 -198.242c-45.573 -58.269 -102.539 -99.773 -170.898 -124.512c-4.883 7.812 -7.894 17.415 -9.034 28.808c-1.139 11.394 -1.058 25.472 0.244 42.237c1.303 16.764 1.954 26.937 1.954 30.517c0 4.883 -0.733 8.708 -2.198 11.475c-1.465 2.767 -4.069 5.615 -7.812 8.545c-3.744 2.93 -6.592 5.696 -8.545 8.301c-12.37 13.997 -24.414 19.856 -36.133 17.578c-3.255 -0.651 -9.44 -2.116 -18.555 -4.395c-9.114 -2.278 -15.787 -3.58 -20.019 -3.906c-4.232 -0.326 -9.929 -0.488 -17.09 -0.488c-7.161 0 -13.509 1.383 -19.043 4.15c-5.534 2.767 -11.068 6.755 -16.602 11.963c-0.976 0.977 -2.929 2.848 -5.859 5.615c-2.93 2.767 -4.964 4.802 -6.103 6.104c-1.14 1.302 -2.605 3.174 -4.395 5.615c-1.79 2.441 -3.011 4.883 -3.662 7.324c-0.651 2.442 -0.977 5.127 -0.977 8.057c0 1.302 -0.244 4.232 -0.732 8.789c-0.488 4.557 -0.732 7.894 -0.732 10.01c0 2.116 0.651 4.557 1.953 7.324c1.302 2.767 3.418 4.964 6.347 6.592c3.907 1.953 9.359 2.685 16.358 2.197c6.998 -0.488 12.288 -1.872 15.869 -4.15c3.581 -2.605 6.51 -8.383 8.789 -17.334c2.279 -8.952 3.581 -13.754 3.906 -14.405c3.255 -6.51 7.975 -10.579 14.16 -12.207c6.185 -1.627 11.231 0.326 15.137 5.86c5.859 9.114 4.557 20.833 -3.906 35.156c-4.883 7.812 -9.44 13.672 -13.672 17.578c-4.232 3.906 -10.417 7.161 -18.555 9.766c-0.651 0.325 -2.034 0.976 -4.15 1.953c-2.116 0.976 -4.069 1.627 -5.859 1.953c-1.791 0.325 -3.663 0.325 -5.616 0c-1.627 -0.651 -3.743 -2.36 -6.347 -5.127c-2.605 -2.767 -4.558 -4.313 -5.86 -4.639c-7.812 -2.278 -17.903 2.279 -30.273 13.672c-9.115 8.464 -19.043 13.346 -29.785 14.649c-1.302 0.325 -3.418 0.488 -6.348 0.488c0 0 -7.324 0 -7.324 0c0 0 -2.116 0.407 -6.348 1.221c-4.232 0.813 -5.371 2.115 -3.418 3.906c1.953 1.79 2.279 4.476 0.977 8.056c0.651 1.954 3.174 5.372 7.568 10.254c4.395 4.883 6.104 10.254 5.127 16.114c-1.953 0 -5.534 -0.082 -10.742 -0.245c-5.208 -0.162 -9.44 -0.162 -12.695 0c-3.256 0.163 -6.836 0.814 -10.743 1.954c-3.906 1.139 -6.836 3.011 -8.789 5.615c-2.604 3.906 -5.452 11.23 -8.545 21.973c-3.092 10.742 -3.825 17.578 -2.197 20.507c2.93 5.209 14.16 7.813 33.691 7.813c15.625 1.302 24.415 -3.906 26.368 -15.625c2.929 -1.302 6.103 -3.906 9.521 -7.813c3.418 -3.906 5.941 -6.51 7.569 -7.812c4.882 -3.906 11.556 -6.348 20.019 -7.324c4.557 -0.651 8.545 -0.733 11.963 -0.245c3.418 0.489 6.429 1.872 9.033 4.151c2.604 2.278 4.557 4.232 5.86 5.859c1.302 1.628 3.092 4.476 5.371 8.545c2.278 4.069 4.069 7.08 5.371 9.033c6.51 10.091 12.044 14.486 16.601 13.184c2.604 -0.977 3.744 -5.046 3.418 -12.207c0 -4.557 -2.604 -10.986 -7.812 -19.287c-5.209 -8.301 -7.487 -15.707 -6.836 -22.217c3.581 0 6.266 -0.163 8.056 -0.488c1.791 -0.326 3.744 0.976 5.86 3.906c2.116 2.93 3.581 5.127 4.394 6.592c0.814 1.465 1.953 3.987 3.418 7.568c1.465 3.581 2.523 6.022 3.174 7.324c3.581 9.44 6.999 16.276 10.254 20.508c0.326 0.326 1.953 1.872 4.883 4.639c2.93 2.767 4.883 5.127 5.859 7.08c0.977 -1.302 3.744 -5.697 8.301 -13.184c4.557 -7.487 7.813 -13.509 9.766 -18.066c5.534 -13.346 11.556 -22.949 18.066 -28.809c6.836 -6.185 18.555 -9.277 35.156 -9.277c14.323 0 21.322 3.255 20.996 9.766c-0.325 2.604 -2.278 5.696 -5.859 9.277c-1.953 1.953 -9.115 5.371 -21.484 10.254c-12.37 4.883 -22.299 10.091 -29.785 15.625c-7.487 5.534 -8.301 11.068 -2.442 16.601c3.581 3.256 10.173 4.558 19.775 3.907c9.603 -0.651 16.358 -0.163 20.264 1.465c2.604 1.302 4.395 3.173 5.371 5.615c0.977 2.441 1.384 4.72 1.221 6.836c-0.163 2.116 -0.651 5.208 -1.465 9.277c-0.814 4.069 -1.221 6.755 -1.221 8.057c0 0 0 5.859 0 5.859c-7.812 4.557 -17.171 7.243 -28.076 8.057c-10.905 0.813 -25.309 0.407 -43.213 -1.221c-17.903 -1.628 -27.181 -2.441 -27.832 -2.441c-13.997 -0.651 -28.808 -6.999 -44.433 -19.043c-7.162 -5.534 -13.509 -9.115 -19.043 -10.743c-5.534 -1.627 -13.347 -2.767 -23.438 -3.418c-47.526 -1.627 -86.1 9.766 -115.722 34.18c-33.204 27.669 -46.224 62.175 -39.063 103.516c0 0 0 0 0 0m40.527 -447.754c4.232 2.278 9.196 2.604 14.893 0.976c5.697 -1.627 11.556 -3.58 17.578 -5.859c6.022 -2.279 11.556 -4.15 16.602 -5.615c5.045 -1.465 9.033 -0.814 11.963 1.953c2.929 2.767 4.069 8.219 3.418 16.357c-2.605 0.977 -8.138 2.767 -16.602 5.371c-8.464 2.605 -15.625 5.046 -21.484 7.325c-5.86 2.278 -11.475 5.778 -16.846 10.498c-5.371 4.72 -8.219 10.009 -8.545 15.869c0 2.604 0.407 4.883 1.221 6.836c0.814 1.953 2.116 3.581 3.906 4.883c1.79 1.302 3.662 2.441 5.615 3.418c1.953 0.976 4.476 1.546 7.569 1.709c3.092 0.162 5.696 0.406 7.812 0.732c2.116 0.325 5.046 0.325 8.789 0c3.744 -0.326 6.348 -0.488 7.813 -0.488c1.464 0 3.906 -0.244 7.324 -0.733c3.418 -0.488 5.29 -0.732 5.615 -0.732c19.206 -2.604 35.482 -8.626 48.828 -18.067c29.948 -22.46 47.038 -42.317 51.27 -59.57c1.953 -8.138 0.488 -14.241 -4.395 -18.31c-4.883 -4.069 -10.905 -6.267 -18.066 -6.592c-7.162 -0.326 -14.649 -1.14 -22.461 -2.442c-7.813 -1.302 -13.184 -3.743 -16.113 -7.324c-1.303 -1.627 -1.954 -8.626 -1.954 -20.996c0 -1.302 0.163 -2.116 0.489 -2.441c-43.295 14.323 -72.591 25.716 -87.891 34.179c8.464 6.185 11.393 12.37 8.789 18.555c-0.651 1.302 -3.743 3.744 -9.277 7.324c-5.534 3.581 -7.487 7.976 -5.86 13.184c0 0 0 0 0 0" />
  </g>
</svg>