<svg height="1000px" width="937.5px" xmlns="http://www.w3.org/2000/svg">
  <g>
    <path d="M0 500c0 -63.802 12.37 -124.593 37.109 -182.373c24.74 -57.78 58.024 -107.585 99.854 -149.414c41.829 -41.83 91.715 -75.114 149.658 -99.854c57.943 -24.739 118.652 -37.109 182.129 -37.109c63.477 0 124.186 12.37 182.129 37.109c57.943 24.74 107.829 58.024 149.658 99.854c41.83 41.829 75.114 91.634 99.854 149.414c24.739 57.78 37.109 118.571 37.109 182.373c0 63.477 -12.37 124.186 -37.109 182.129c-24.74 57.943 -58.024 107.829 -99.854 149.658c-41.829 41.83 -91.715 75.114 -149.658 99.854c-57.943 24.739 -118.652 37.109 -182.129 37.109c-63.477 0 -124.186 -12.37 -182.129 -37.109c-57.943 -24.74 -107.829 -58.024 -149.658 -99.854c-41.83 -41.829 -75.114 -91.715 -99.854 -149.658c-24.739 -57.943 -37.109 -118.652 -37.109 -182.129c0 0 0 0 0 0m88.379 0c0 50.781 9.684 99.284 29.053 145.508c19.368 46.224 45.573 86.181 78.613 119.873c33.04 33.691 72.266 60.872 117.676 81.543c45.41 20.67 93.343 31.819 143.799 33.447c-4.883 -5.534 -8.627 -16.764 -11.231 -33.691c-0.651 -4.232 -1.465 -12.451 -2.441 -24.659c-0.977 -12.207 -2.116 -21.403 -3.418 -27.587c-0.651 -4.232 -6.511 -22.299 -17.578 -54.2c-3.256 -10.091 -6.836 -16.52 -10.743 -19.287c-3.906 -2.767 -11.393 -4.476 -22.461 -5.127c-5.859 -0.325 -14.16 -0.569 -24.902 -0.732c-10.742 -0.163 -19.857 -0.488 -27.344 -0.977c-7.487 -0.488 -16.113 -1.22 -25.879 -2.197c-9.765 -0.977 -18.066 -2.848 -24.902 -5.615c-6.836 -2.767 -13.672 -6.348 -20.508 -10.742c-6.836 -4.395 -12.37 -10.336 -16.601 -17.823c-4.232 -7.487 -7.162 -16.276 -8.789 -26.367c-7.162 -41.341 5.534 -75.683 38.086 -103.027c16.601 -13.672 34.017 -22.868 52.246 -27.588c18.229 -4.72 39.55 -6.755 63.965 -6.104c16.276 0.326 30.273 4.883 41.992 13.672c14.648 12.045 29.459 18.392 44.433 19.043c3.256 0.326 10.58 0.977 21.973 1.953c11.393 0.977 20.752 1.709 28.076 2.198c7.324 0.488 15.788 0.081 25.391 -1.221c9.603 -1.302 17.497 -3.581 23.681 -6.836c0 0 0 -6.348 0 -6.348c0 -1.302 0.326 -3.824 0.977 -7.568c0.651 -3.743 1.058 -6.836 1.221 -9.277c0.162 -2.442 -0.163 -4.965 -0.977 -7.569c-0.814 -2.604 -2.523 -4.557 -5.127 -5.859c-2.93 -1.302 -9.765 -1.546 -20.508 -0.732c-10.742 0.813 -17.252 -0.57 -19.531 -4.151c-5.859 -5.534 -5.127 -11.068 2.197 -16.601c7.325 -5.534 17.334 -10.743 30.03 -15.625c12.695 -4.883 19.856 -8.138 21.484 -9.766c9.44 -9.766 7.487 -15.951 -5.859 -18.555c-13.021 -2.604 -25.879 -1.139 -38.575 4.395c-2.604 1.302 -4.72 2.604 -6.347 3.906c-5.86 5.534 -11.719 15.137 -17.578 28.809c-1.628 4.231 -4.639 9.684 -9.034 16.357c-4.394 6.673 -7.405 11.637 -9.033 14.893c-0.976 -1.628 -2.767 -3.662 -5.371 -6.104c-2.604 -2.441 -4.394 -4.313 -5.371 -5.615c-1.953 -2.279 -5.697 -8.952 -11.23 -20.02c-0.651 -1.302 -1.465 -3.336 -2.442 -6.103c-0.976 -2.767 -1.79 -4.964 -2.441 -6.592c-0.651 -1.628 -1.628 -3.662 -2.93 -6.103c-1.302 -2.442 -2.604 -4.069 -3.906 -4.883c-1.302 -0.814 -3.093 -1.709 -5.371 -2.686c-2.279 -0.976 -4.558 -0.814 -6.836 0.488c-0.651 6.836 1.627 14.486 6.836 22.95c5.208 8.463 7.812 14.974 7.812 19.531c0.326 8.789 -1.627 12.777 -5.859 11.963c-4.232 -0.814 -8.952 -5.127 -14.16 -12.94c-1.302 -1.953 -3.093 -4.964 -5.371 -9.033c-2.279 -4.069 -4.069 -6.999 -5.371 -8.789c-1.303 -1.79 -3.256 -3.825 -5.86 -6.103c-2.604 -2.279 -5.615 -3.663 -9.033 -4.151c-3.418 -0.488 -7.406 -0.407 -11.963 0.244c-8.463 1.302 -15.137 3.744 -20.019 7.325c-1.303 0.976 -3.744 3.58 -7.325 7.812c-3.58 4.232 -6.836 6.836 -9.765 7.813c-1.953 11.393 -10.743 16.764 -26.368 16.113c-0.651 0 -2.685 -0.082 -6.103 -0.244c-3.418 -0.163 -6.185 -0.326 -8.301 -0.489c-2.116 -0.162 -4.638 -0.488 -7.568 -0.976c-2.93 -0.488 -5.371 -1.221 -7.324 -2.197c-1.954 -0.977 -3.418 -2.279 -4.395 -3.907c-1.628 -3.255 -0.895 -10.335 2.197 -21.24c3.093 -10.905 5.941 -17.985 8.545 -21.24c2.604 -3.255 6.104 -5.453 10.498 -6.592c4.395 -1.139 10.743 -1.546 19.043 -1.221c8.301 0.326 12.777 0.489 13.428 0.489c1.302 -5.86 -0.325 -11.312 -4.883 -16.358c-4.557 -5.045 -7.161 -8.382 -7.812 -10.01c-0.651 -3.58 -0.977 -6.266 -0.977 -8.056c0 -1.791 1.139 -3.093 3.418 -3.906c2.279 -0.814 4.395 -1.221 6.348 -1.221c0 0 7.324 0 7.324 0c0 0 2.116 -0.163 6.348 -0.488c12.044 -2.279 21.972 -7.325 29.785 -15.137c0.325 -0.326 1.546 -1.384 3.662 -3.174c2.116 -1.79 3.662 -3.011 4.639 -3.662c0 0 5.127 -3.418 5.127 -3.418c0 0 1.79 -0.814 5.371 -2.441c3.58 -1.628 5.452 -2.035 5.615 -1.221c0.163 0.814 2.116 1.058 5.859 0.732c1.302 0.326 3.255 1.872 5.86 4.639c2.604 2.767 4.72 4.313 6.347 4.639c2.279 0.651 7.487 -0.489 15.625 -3.418c8.464 -2.93 14.811 -6.348 19.043 -10.254c4.232 -3.907 8.627 -9.766 13.184 -17.578c8.463 -13.672 9.765 -25.228 3.906 -34.668c-3.906 -5.534 -8.952 -7.487 -15.137 -5.86c-6.185 1.628 -10.905 5.697 -14.16 12.207c-0.976 2.279 -1.953 5.86 -2.929 10.742c-0.977 4.883 -2.198 9.034 -3.663 12.452c-1.464 3.418 -3.499 6.103 -6.103 8.056c-3.255 2.279 -8.464 3.662 -15.625 4.151c-7.162 0.488 -12.695 -0.244 -16.602 -2.198c-2.929 -1.302 -5.045 -3.336 -6.347 -6.103c-1.302 -2.767 -1.953 -5.208 -1.953 -7.324c0 -2.116 0.244 -5.453 0.732 -10.01c0.488 -4.557 0.732 -7.487 0.732 -8.789c0 -2.604 0.326 -5.046 0.977 -7.324c0.651 -2.279 1.383 -4.232 2.197 -5.86c0.814 -1.627 2.035 -3.418 3.662 -5.371c1.628 -1.953 3.011 -3.499 4.151 -4.639c1.139 -1.139 2.767 -2.685 4.883 -4.638c2.115 -1.953 3.824 -3.581 5.126 -4.883c5.209 -5.208 10.661 -9.196 16.358 -11.963c5.697 -2.767 12.126 -4.15 19.287 -4.15c7.161 0 12.858 0.162 17.09 0.488c4.232 0.326 10.986 1.628 20.264 3.906c9.277 2.279 15.38 3.744 18.31 4.395c11.393 2.278 23.438 -3.581 36.133 -17.578c1.953 -2.605 4.801 -5.453 8.545 -8.545c3.743 -3.093 6.347 -5.941 7.812 -8.545c1.465 -2.604 2.198 -6.348 2.198 -11.231c0 -4.557 -0.407 -12.451 -1.221 -23.681c-0.814 -11.231 -1.384 -20.671 -1.709 -28.321c-0.326 -7.649 0.244 -16.276 1.709 -25.879c1.465 -9.602 3.988 -17.496 7.568 -23.681c-41.666 -15.3 -84.635 -22.949 -128.906 -22.949c-31.25 0 -62.663 4.069 -94.238 12.207c0 0 -0.489 2.441 -0.489 2.441c0 12.37 0.651 19.369 1.954 20.996c2.929 3.581 8.3 6.022 16.113 7.324c7.812 1.302 15.299 2.116 22.461 2.442c7.161 0.325 13.183 2.523 18.066 6.592c4.883 4.069 6.348 10.172 4.395 18.31c-2.279 9.115 -8.708 19.287 -19.287 30.518c-10.58 11.23 -21.241 20.752 -31.983 28.564c-13.346 9.766 -29.622 15.951 -48.828 18.555c-0.325 0 -2.197 0.244 -5.615 0.732c-3.418 0.489 -5.86 0.733 -7.324 0.733c-1.465 0 -4.069 0.162 -7.813 0.488c-3.743 0.325 -6.673 0.325 -8.789 0c-2.116 -0.326 -4.801 -0.651 -8.057 -0.977c-3.255 -0.325 -5.778 -0.895 -7.568 -1.709c-1.79 -0.813 -3.581 -1.871 -5.371 -3.173c-1.79 -1.302 -3.092 -3.011 -3.906 -5.127c-0.814 -2.116 -1.221 -4.476 -1.221 -7.08c0.326 -5.86 3.174 -11.15 8.545 -15.87c5.371 -4.72 10.986 -8.138 16.846 -10.253c5.859 -2.116 13.02 -4.476 21.484 -7.081c8.464 -2.604 13.997 -4.394 16.602 -5.371c0.651 -8.138 -0.489 -13.59 -3.418 -16.357c-2.93 -2.767 -6.918 -3.418 -11.963 -1.953c-5.046 1.465 -10.58 3.336 -16.602 5.615c-6.022 2.279 -11.8 4.232 -17.334 5.859c-5.534 1.628 -10.417 1.302 -14.648 -0.976c-1.628 -5.208 0.244 -9.603 5.615 -13.184c5.371 -3.58 8.382 -6.022 9.033 -7.324c2.93 -6.836 0 -13.021 -8.789 -18.555c-19.206 10.417 -36.621 22.136 -52.246 35.157c6.836 0.976 12.533 3.092 17.09 6.347c4.557 3.255 6.673 7.976 6.347 14.16c0 3.256 -0.732 6.185 -2.197 8.789c-1.465 2.605 -2.848 4.558 -4.15 5.86c-1.302 1.302 -3.337 3.174 -6.104 5.615c-2.767 2.441 -4.801 4.15 -6.103 5.127c-9.766 9.115 -16.927 17.415 -21.485 24.902c-1.953 2.93 -4.231 10.01 -6.836 21.241c-2.604 11.23 -6.347 18.31 -11.23 21.24c-7.487 4.232 -12.614 4.394 -15.381 0.488c-2.767 -3.906 -4.476 -10.091 -5.127 -18.555c0 0 0 -4.882 0 -4.882c0 0 0 -3.418 0 -3.418c0 0 -0.407 -0.896 -1.22 -2.686c-0.814 -1.79 -2.035 -2.685 -3.663 -2.685c-4.231 -1.303 -10.254 -0.977 -18.066 0.976c-45.247 64.779 -67.871 137.044 -67.871 216.797c0 0 0 0 0 0m493.164 72.266c-0.977 20.182 5.697 37.923 20.019 53.222c17.904 18.555 35.32 29.297 52.247 32.227c6.836 1.302 16.357 0.814 28.564 -1.465c12.207 -2.279 20.426 -3.418 24.658 -3.418c0.326 11.068 -6.022 28.646 -19.043 52.734c-14.323 24.74 -25.228 41.016 -32.715 48.829c-1.627 1.627 -3.987 3.824 -7.08 6.591c-3.092 2.767 -5.371 4.883 -6.836 6.348c-1.464 1.465 -3.255 3.499 -5.371 6.103c-2.116 2.605 -3.418 4.883 -3.906 6.836c-0.488 1.954 -0.732 4.395 -0.732 7.325c0 2.929 0.651 6.022 1.953 9.277c0.651 1.628 2.034 4.557 4.15 8.789c2.116 4.232 3.174 6.836 3.174 7.813c0 0.976 -0.326 4.069 -0.977 9.277c-0.976 2.604 -2.278 4.639 -3.906 6.103c-1.627 1.465 -3.906 2.849 -6.836 4.151c-2.929 1.302 -5.045 2.441 -6.347 3.418c-2.93 1.953 -6.755 4.72 -11.475 8.301c-4.72 3.58 -8.952 6.754 -12.695 9.521c-3.744 2.767 -7.731 5.29 -11.963 7.568c77.474 -25.39 140.788 -71.207 189.941 -137.451c49.154 -66.243 73.731 -141.032 73.731 -224.365c0 -8.464 -0.651 -20.508 -1.953 -36.133c-2.605 3.581 -4.069 7.487 -4.395 11.719c-1.628 11.393 -2.441 18.392 -2.441 20.996c0 2.279 0.244 6.917 0.732 13.916c0.488 6.999 0.57 13.102 0.244 18.311c-0.325 5.208 -1.627 9.114 -3.906 11.718c-1.953 2.279 -4.069 3.581 -6.348 3.907c-2.278 0.325 -4.72 -0.326 -7.324 -1.954c-2.604 -1.627 -4.964 -3.418 -7.08 -5.371c-2.116 -1.953 -4.557 -4.231 -7.324 -6.836c-2.767 -2.604 -4.964 -4.394 -6.592 -5.371c-5.859 -3.906 -10.579 -6.917 -14.16 -9.033c-3.581 -2.116 -7.894 -4.069 -12.94 -5.859c-5.045 -1.791 -10.009 -2.523 -14.892 -2.198c-4.883 0.326 -10.091 1.791 -15.625 4.395c-11.719 5.859 -24.74 8.789 -39.063 8.789c-2.278 0 -5.941 -0.163 -10.986 -0.488c-5.046 -0.326 -9.196 -0.488 -12.451 -0.488c-3.255 0 -6.918 0.406 -10.987 1.22c-4.069 0.814 -7.405 2.035 -10.009 3.662c0.651 7.162 3.173 13.835 7.568 20.02c4.395 6.185 10.01 9.44 16.846 9.765c3.255 0 5.696 -0.569 7.324 -1.708c1.628 -1.14 3.174 -2.686 4.639 -4.639c1.464 -1.953 3.173 -3.418 5.127 -4.395c4.882 -3.255 12.532 -4.557 22.949 -3.906c0.976 16.927 0.976 27.181 0 30.762c-0.977 3.581 -3.093 7.731 -6.348 12.451c-3.255 4.72 -5.208 8.87 -5.859 12.451c-0.326 1.628 -0.895 4.802 -1.709 9.522c-0.814 4.72 -1.546 8.138 -2.198 10.254c-0.651 2.115 -1.871 4.72 -3.662 7.812c-1.79 3.092 -3.987 5.778 -6.591 8.057c-5.209 4.231 -10.905 7.242 -17.09 9.033c-6.185 1.79 -11.882 1.058 -17.09 -2.197c-1.953 -1.628 -4.639 -4.802 -8.057 -9.522c-3.418 -4.72 -6.429 -8.219 -9.033 -10.498c-1.953 -1.628 -3.743 -3.092 -5.371 -4.394c-1.628 -1.303 -3.255 -2.93 -4.883 -4.883c-1.627 -1.953 -2.848 -3.5 -3.662 -4.639c-0.814 -1.139 -2.116 -3.092 -3.906 -5.859c-1.791 -2.767 -3.174 -4.802 -4.151 -6.104c-3.906 -5.534 -10.823 -11.556 -20.752 -18.066c-9.928 -6.511 -16.357 -11.393 -19.287 -14.649c-2.604 1.628 -4.15 3.011 -4.638 4.151c-0.489 1.139 -0.896 3.987 -1.221 8.545c0 0 0 0 0 0" />
  </g>
</svg>