<svg height="1000" width="937.5" xmlns="http://www.w3.org/2000/svg"><path d="M0 500.288q0 -95.648 37.088 -182.268t99.796 -149.328 149.572 -99.796 182.024 -37.088 182.024 37.088 149.572 99.796 99.796 149.328 37.088 182.268q0 95.16 -37.088 182.024t-99.796 149.572 -149.572 99.796 -182.024 37.088 -182.024 -37.088 -149.572 -99.796 -99.796 -149.572 -37.088 -182.024zm88.328 0q0 76.128 29.036 145.424t78.568 119.804 117.608 81.496 143.716 33.428q-7.32 -8.296 -11.224 -33.672 -.976 -6.344 -2.44 -24.644t-3.416 -27.572q-.976 -6.344 -17.568 -54.168 -4.88 -15.128 -10.736 -19.276t-22.448 -5.124q-8.784 -.488 -24.888 -.732t-27.328 -.976 -25.864 -2.196 -24.888 -5.612 -20.496 -10.736 -16.592 -17.812 -8.784 -26.352q-10.736 -61.976 38.064 -102.968 24.888 -20.496 52.216 -27.572t63.928 -6.1q24.4 .488 41.968 13.664 21.96 18.056 44.408 19.032 4.88 .488 21.96 1.952t28.06 2.196 25.376 -1.22 23.668 -6.832v-6.344q0 -1.952 .976 -7.564t1.22 -9.272 -.976 -7.564 -5.124 -5.856q-4.392 -1.952 -20.496 -.732t-19.52 -4.148q-8.784 -8.296 2.196 -16.592t30.012 -15.616 21.472 -9.76q14.152 -14.64 -5.856 -18.544 -19.52 -3.904 -38.552 4.392 -3.904 1.952 -6.344 3.904 -8.784 8.296 -17.568 28.792 -2.44 6.344 -9.028 16.348t-9.028 14.884q-1.464 -2.44 -5.368 -6.1t-5.368 -5.612q-2.928 -3.416 -11.224 -20.008 -.976 -1.952 -2.44 -6.1t-2.44 -6.588 -2.928 -6.1 -3.904 -4.88 -5.368 -2.684 -6.832 .488q-.976 10.248 6.832 22.936t7.808 19.52q.488 13.176 -5.856 11.956t-14.152 -12.932q-1.952 -2.928 -5.368 -9.028t-5.368 -8.784 -5.856 -6.1 -9.028 -4.148 -11.956 .244q-12.688 1.952 -20.008 7.32 -1.952 1.464 -7.32 7.808t-9.76 7.808q-2.928 17.08 -26.352 16.104 -.976 0 -6.1 -.244t-8.296 -.488 -7.564 -.976 -7.32 -2.196 -4.392 -3.904q-2.44 -4.88 2.196 -21.228t8.54 -21.228 10.492 -6.588 19.032 -1.22 13.42 .488q1.952 -8.784 -4.88 -16.348t-7.808 -10.004q-.976 -5.368 -.976 -8.052t3.416 -3.904 6.344 -1.22h7.32t6.344 -.488q18.056 -3.416 29.768 -15.128 .488 -.488 3.66 -3.172t4.636 -3.66l5.124 -3.416t5.368 -2.44 5.612 -1.22 5.856 .732q1.952 .488 5.856 4.636t6.344 4.636q3.416 .976 15.616 -3.416 12.688 -4.392 19.032 -10.248t13.176 -17.568q12.688 -20.496 3.904 -34.648 -5.856 -8.296 -15.128 -5.856t-14.152 12.2q-1.464 3.416 -2.928 10.736t-3.66 12.444 -6.1 8.052q-4.88 3.416 -15.616 4.148t-16.592 -2.196q-4.392 -1.952 -6.344 -6.1t-1.952 -7.32 .732 -10.004 .732 -8.784q0 -3.904 .976 -7.32t2.196 -5.856 3.66 -5.368 4.148 -4.636 4.88 -4.636 5.124 -4.88q7.808 -7.808 16.348 -11.956t19.276 -4.148 17.08 .488 20.252 3.904 18.3 4.392q17.08 3.416 36.112 -17.568 2.928 -3.904 8.54 -8.54t7.808 -8.54 2.196 -11.224q0 -6.832 -1.22 -23.668t-1.708 -28.304 1.708 -25.864 7.564 -23.668q-62.464 -22.936 -128.832 -22.936 -46.848 0 -94.184 12.2l-.488 2.44q0 18.544 1.952 20.984 4.392 5.368 16.104 7.32t22.448 2.44 18.056 6.588 4.392 18.3q-3.416 13.664 -19.276 30.5t-31.964 28.548q-20.008 14.64 -48.8 18.544 -.488 0 -5.612 .732t-7.32 .732 -7.808 .488 -8.784 0 -8.052 -.976 -7.564 -1.708 -5.368 -3.172 -3.904 -5.124 -1.22 -7.076q.488 -8.784 8.54 -15.86t16.836 -10.248 21.472 -7.076 16.592 -5.368q.976 -12.2 -3.416 -16.348t-11.956 -1.952 -16.592 5.612 -17.324 5.856 -14.64 -.976q-2.44 -7.808 5.612 -13.176t9.028 -7.32q4.392 -10.248 -8.784 -18.544 -28.792 15.616 -52.216 35.136 10.248 1.464 17.08 6.344t6.344 14.152q0 4.88 -2.196 8.784t-4.148 5.856 -6.1 5.612 -6.1 5.124q-14.64 13.664 -21.472 24.888 -2.928 4.392 -6.832 21.228t-11.224 21.228q-11.224 6.344 -15.372 .488t-5.124 -18.544v-8.296t-1.22 -2.684 -3.66 -2.684q-6.344 -1.952 -18.056 .976 -67.832 97.112 -67.832 216.672zm492.88 72.224q-1.464 30.256 20.008 53.192 26.84 27.816 52.216 32.208 10.248 1.952 28.548 -1.464t24.644 -3.416q.488 16.592 -19.032 52.704 -21.472 37.088 -32.696 48.8 -2.44 2.44 -7.076 6.588t-6.832 6.344 -5.368 6.1 -3.904 6.832 -.732 7.32 1.952 9.272q.976 2.44 4.148 8.784t3.172 7.808 -.976 9.272q-1.464 3.904 -3.904 6.1t-6.832 4.148 -6.344 3.416q-4.392 2.928 -11.468 8.296t-12.688 9.516 -11.956 7.564q116.144 -38.064 189.832 -137.372t73.688 -224.236q0 -12.688 -1.952 -36.112 -3.904 5.368 -4.392 11.712 -2.44 17.08 -2.44 20.984 0 3.416 .732 13.908t.244 18.3 -3.904 11.712q-2.928 3.416 -6.344 3.904t-7.32 -1.952 -7.076 -5.368 -7.32 -6.832 -6.588 -5.368q-8.784 -5.856 -14.152 -9.028t-12.932 -5.856 -14.884 -2.196 -15.616 4.392q-17.568 8.784 -39.04 8.784 -3.416 0 -10.98 -.488t-12.444 -.488 -10.98 1.22 -10.004 3.66q.976 10.736 7.564 20.008t16.836 9.76q4.88 0 7.32 -1.708t4.636 -4.636 5.124 -4.392q7.32 -4.88 22.936 -3.904 1.464 25.376 0 30.744t-6.344 12.444 -5.856 12.444q-.488 2.44 -1.708 9.516t-2.196 10.248 -3.66 7.808 -6.588 8.052q-7.808 6.344 -17.08 9.028t-17.08 -2.196q-2.928 -2.44 -8.052 -9.516t-9.028 -10.492q-2.928 -2.44 -5.368 -4.392t-4.88 -4.88 -3.66 -4.636 -3.904 -5.856 -4.148 -6.1q-5.856 -8.296 -20.74 -18.056t-19.276 -14.64q-3.904 2.44 -4.636 4.148t-1.22 8.54z"/></svg>