<svg height="1000" width="937.5" xmlns="http://www.w3.org/2000/svg"><path d="M0 500.288q0-95.648 37.088-182.268t99.796-149.328 149.572-99.796 182.024-37.088 182.024 37.088 149.572 99.796 99.796 149.328 37.088 182.268q0 95.16-37.088 182.024t-99.796 149.572-149.572 99.796-182.024 37.088-182.024-37.088-149.572-99.796-99.796-149.572-37.088-182.024zm156.16-216.672q13.664-2.44 17.568-.488 2.44 1.464 3.66 2.44t1.464 2.44.244 3.416v4.88q.976 28.792 20.496 18.056 7.32-4.392 10.98-21.472t6.1-20.984q5.368-8.784 22.448-24.888 1.952-1.464 6.1-5.124t6.1-5.612 4.148-5.856 2.196-8.784q.488-9.272-6.588-14.152t-17.324-6.344q-43.92 34.648-77.592 82.472zm83.448 368.928q2.928 17.568 11.956 29.768t19.52 18.544 27.572 9.76 29.28 3.904 32.208.976 29.28.976q16.592.976 22.448 5.124t10.736 19.276q1.952 5.368 6.344 16.836t7.076 20.008 4.148 16.836q1.952 9.76 3.416 28.304t2.44 24.888q3.904 24.4 11.224 32.696 1.952 0 5.612.244t5.612.244q59.048 0 120.048-19.52 7.32-4.392 19.032-13.664t14.64-11.224q1.952-.976 6.344-2.928t6.832-4.148 3.904-6.588q1.952-2.928 1.22-6.832t-1.22-5.856-2.684-5.856-3.172-6.832q-1.952-4.88-2.196-9.272t.732-7.564 3.904-6.832 5.368-5.856 6.832-6.344 6.832-6.588q13.176-13.176 32.696-48.8 20.008-36.112 19.52-52.704-6.832-.488-25.132 3.172t-28.548 1.708q-24.888-4.392-51.728-32.208-21.96-22.936-20.496-53.68.488-6.344 1.22-8.296t4.636-4.392q4.88 5.368 20.008 15.372t20.496 17.812q1.952 2.44 5.124 7.076t4.636 6.832 4.636 5.612 7.076 6.344 9.028 10.248 8.54 9.76q7.808 4.88 17.08 2.196t17.08-9.028q3.904-3.416 6.588-8.296t3.66-8.052 2.196-10.248 1.708-9.028q1.464-5.368 6.1-12.688t6.1-12.2 0-31.232q-16.104 0-23.424 3.904-1.952.976-6.344 6.344t-10.248 4.88q-10.736-.488-17.08-9.76t-7.32-20.008q3.904-2.928 10.004-3.904t10.248-.976 12.688.488 10.98.488q18.056 0 39.04-8.784 8.296-3.904 15.616-4.636t14.884 2.196 12.932 5.856 14.152 9.272q2.44 1.952 6.588 5.612t7.32 6.588 6.832 5.368 7.076 1.952 6.344-3.904q3.416-3.904 4.148-11.956t0-18.544-.732-13.42l2.44-20.496q.488-2.928 4.392-11.712-10.736-110.776-79.056-198.128t-170.8-124.44q-7.32 11.712-9.028 28.792t.244 42.212 1.952 30.5q0 7.32-2.196 11.468t-7.808 8.54-8.54 8.296q-18.544 20.984-36.112 17.568-4.88-.976-18.544-4.392t-20.008-3.904-17.08-.488-19.032 4.148-16.592 11.956q-1.464 1.464-5.856 5.612t-6.1 6.1-4.392 5.612-3.66 7.32-.976 8.052q0 1.952-.732 8.784t-.732 10.004 1.952 7.32 6.344 6.588q5.856 2.928 16.348 2.196t15.86-4.148q5.368-3.904 8.784-17.324t3.904-14.396q4.88-9.76 14.152-12.2t15.128 5.856q8.784 13.664-3.904 35.136-7.32 11.712-13.664 17.568t-18.544 9.76q-.976.488-4.148 1.952t-5.856 1.952-5.612 0q-2.44-.976-6.344-5.124t-5.856-4.636q-11.712-3.416-30.256 13.664-13.664 12.688-29.768 14.64-1.952.488-6.344.488h-7.32l-6.344 1.22-3.416 3.904.976 8.052q.976 2.928 7.564 10.248t5.124 16.104q-2.928 0-10.736-.244t-12.688 0-10.736 1.952-8.784 5.612q-3.904 5.856-8.54 21.96t-2.196 20.496q4.392 7.808 33.672 7.808 23.424 1.952 26.352-15.616 4.392-1.952 9.516-7.808t7.564-7.808q7.32-5.856 20.008-7.32 6.832-.976 11.956-.244t9.028 4.148 5.856 5.856 5.368 8.54 5.368 9.028q9.76 15.128 16.592 13.176 3.904-1.464 3.416-12.2 0-6.832-7.808-19.276t-6.832-22.204q5.368 0 8.052-.488t5.856 3.904 4.392 6.588 3.416 7.564 3.172 7.32q5.368 14.152 10.248 20.496.488.488 4.88 4.636t5.856 7.076q1.464-1.952 8.296-13.176t9.76-18.056q8.296-20.008 18.056-28.792 10.248-9.272 35.136-9.272 21.472 0 20.984 9.76-.488 3.904-5.856 9.272-2.928 2.928-21.472 10.248t-29.768 15.616-2.44 16.592q5.368 4.88 19.764 3.904t20.252 1.464q3.904 1.952 5.368 5.612t1.22 6.832-1.464 9.272-1.22 8.052v5.856q-11.712 6.832-28.06 8.052t-43.188-1.22-27.816-2.44q-20.984-.976-44.408-19.032-10.736-8.296-19.032-10.736t-23.424-3.416q-71.248-2.44-115.656 34.16-49.776 41.48-39.04 103.456zm40.504-447.496q6.344 3.416 14.884.976t17.568-5.856 16.592-5.612 11.956 1.952 3.416 16.348q-3.904 1.464-16.592 5.368t-21.472 7.32-16.836 10.492-8.54 15.86q0 3.904 1.22 6.832t3.904 4.88 5.612 3.416 7.564 1.708 7.808.732 8.784 0 7.808-.488 7.32-.732 5.612-.732q28.792-3.904 48.8-18.056 44.896-33.672 51.24-59.536 2.928-12.2-4.392-18.3t-18.056-6.588-22.448-2.44-16.104-7.32q-1.952-2.44-1.952-20.984 0-1.952.488-2.44-64.904 21.472-87.84 34.16 12.688 9.272 8.784 18.544-.976 1.952-9.272 7.32t-5.856 13.176z"/></svg>