<svg height="1000px" width="937.5px" xmlns="http://www.w3.org/2000/svg">
  <g>
    <path d="M0 792.96875c0 -23.763 6.755 -48.665 20.264 -74.707c13.509 -26.042 31.657 -47.526 54.443 -64.453c39.388 -28.32 95.703 -48.34 168.945 -60.059c31.901 -4.557 60.222 -6.998 84.961 -7.324c-24.088 -30.273 -36.133 -58.268 -36.133 -83.984c0 -9.44 1.303 -17.578 3.907 -24.414c4.557 -12.045 7.324 -20.02 8.3 -23.926c-20.182 1.953 -33.203 2.929 -39.062 2.929c-56.641 0 -104.818 -18.554 -144.531 -55.664c-39.714 -37.109 -59.571 -83.17 -59.571 -138.183c0 -52.409 17.741 -99.447 53.223 -141.113c35.482 -41.667 79.427 -68.36 131.836 -80.079c34.831 -7.161 69.987 -10.742 105.469 -10.742c0 0 246.094 0 246.094 0c0 0 -75.684 43.946 -75.684 43.946c0 0 -76.172 0 -76.172 0c26.367 16.601 46.956 39.957 61.768 70.068c14.811 30.111 22.216 62.093 22.216 95.947c0 26.367 -4.15 50.456 -12.451 72.266c-8.301 21.81 -18.961 39.876 -31.982 54.199c-14.649 15.3 -27.018 27.344 -37.11 36.133c-29.947 27.018 -44.921 51.269 -44.921 72.754c0 18.229 11.393 36.784 34.179 55.664c11.719 10.742 22.461 19.857 32.227 27.344c28.971 21.809 52.083 44.433 69.336 67.871c22.461 30.273 33.691 66.406 33.691 108.398c0 30.274 -7.161 59.326 -21.484 87.158c-14.323 27.832 -34.505 52.572 -60.547 74.219c-26.042 21.647 -59.326 38.981 -99.854 52.002c-40.527 13.021 -85.042 19.531 -133.545 19.531c-48.502 0 -93.912 -8.463 -136.23 -25.39c-49.805 -18.555 -84.635 -46.062 -104.492 -82.52c-11.393 -19.531 -17.09 -42.155 -17.09 -67.871c0 0 0 0 0 0m104.492 -26.367c0 25.065 6.511 47.689 19.531 67.871c13.021 20.182 30.599 35.97 52.735 47.363c42.318 23.112 88.867 34.668 139.648 34.668c46.224 0 86.263 -9.765 120.117 -29.297c17.904 -10.091 31.901 -24.007 41.993 -41.748c10.091 -17.741 15.136 -38.167 15.136 -61.279c0 -12.695 -2.604 -27.181 -7.812 -43.457c-2.604 -6.511 -5.86 -12.858 -9.766 -19.043c-1.302 -1.628 -2.767 -3.744 -4.394 -6.348c-1.628 -2.604 -3.011 -4.801 -4.151 -6.592c-1.139 -1.79 -2.197 -3.336 -3.174 -4.638c-1.953 -2.604 -4.801 -5.86 -8.544 -9.766c-3.744 -3.906 -8.057 -8.138 -12.94 -12.695c-4.883 -4.557 -7.812 -7.324 -8.789 -8.301c-14.648 -12.044 -26.53 -21.159 -35.645 -27.344c-2.604 -1.627 -9.195 -6.103 -19.775 -13.427c-10.579 -7.325 -16.032 -10.987 -16.357 -10.987c-12.696 -0.976 -21.973 -1.465 -27.832 -1.465c-41.667 0 -81.869 6.023 -120.606 18.067c-44.596 13.672 -76.009 36.295 -94.238 67.871c-10.091 17.904 -15.137 38.086 -15.137 60.547c0 0 0 0 0 0m61.035 -562.988c0 38.085 8.789 76.171 26.368 114.257c20.833 43.295 46.223 73.405 76.171 90.332c17.904 9.766 36.133 14.649 54.688 14.649c35.156 0 61.116 -10.905 77.881 -32.715c16.764 -21.81 25.146 -52.409 25.146 -91.797c0 -47.2 -11.719 -95.54 -35.156 -145.019c-12.044 -24.74 -28.158 -44.597 -48.34 -59.571c-20.182 -14.974 -42.318 -22.461 -66.406 -22.461c-33.854 0 -60.71 12.614 -80.567 37.842c-19.856 25.228 -29.785 56.722 -29.785 94.483c0 0 0 0 0 0m411.621 43.457c0 0 0 -72.266 0 -72.266c0 0 144.532 0 144.532 0c0 0 0 -143.555 0 -143.555c0 0 71.777 0 71.777 0c0 0 0 143.555 0 143.555c0 0 144.043 0 144.043 0c0 0 0 72.266 0 72.266c0 0 -144.043 0 -144.043 0c0 0 0 144.531 0 144.531c0 0 -71.777 0 -71.777 0c0 0 0 -144.531 0 -144.531c0 0 -144.532 0 -144.532 0c0 0 0 0 0 0" />
  </g>
</svg>