<svg height="1000" width="937.5" xmlns="http://www.w3.org/2000/svg"><path d="M0 500.288q0-95.16 37.088-182.024t99.796-149.572 149.572-99.796 182.024-37.088 182.024 37.088 149.572 99.796 99.796 149.572 37.088 182.024-37.088 182.024-99.796 149.572-149.572 99.796-182.024 37.088q-95.648 0-183.976-37.576h.976q106.384 0 169.824-50.752t63.44-121.024q0-46.36-24.4-79.544-20.008-25.864-51.728-50.752-17.568-13.664-23.912-19.52-24.888-20.984-24.888-41.48 0-25.376 32.696-53.68 8.784-8.296 27.328-26.84 33.184-35.136 33.184-92.72 0-37.576-16.348-71.492t-45.628-51.972h55.632l56.608-32.208h-182.024q-37.088 0-77.592 8.296-58.56 12.688-97.844 58.804t-39.284 104.188q0 61 44.164 101.992t106.628 40.992q6.344 0 28.792-1.952-.488 2.44-3.172 9.516t-3.172 8.052q-2.44 7.32-2.44 18.056 0 27.816 26.84 61.976-30.744.488-62.464 5.368-82.472 13.664-124.928 44.896-21.96 16.104-36.112 39.284t-18.056 47.092q-96.624-125.416-96.624-285.48zm172.264 282.064q0-26.84 11.224-44.896 19.032-33.184 69.784-49.776 40.992-13.664 88.816-13.664 11.224 0 20.984.976 1.952.976 26.352 18.056.976.976 7.076 5.368t11.468 8.54 7.32 6.1q1.464 1.464 6.588 6.344t9.76 9.272 6.588 7.32q.488 1.952 8.296 12.688 5.856 8.296 7.32 14.64 5.856 17.568 5.856 31.72 0 53.192-42.456 76.616-37.576 21.472-88.816 21.472-55.144 0-102.48-25.376-24.4-12.688-39.04-35.136t-14.64-50.264zm45.384-416.264q0-41.968 21.96-69.784t59.536-27.816q26.352 0 48.8 16.836t35.624 43.676q26.352 55.632 26.352 107.36 0 42.944-18.788 67.588t-57.828 24.644q-20.496 0-40.504-10.736-34.16-20.984-55.632-67.344-19.52-41.968-19.52-84.424zm304.024 32.696h106.384v106.384h52.704v-106.384h106.872v-53.192h-106.872v-106.384h-52.704v106.384h-106.384v53.192z"/></svg>