<svg height="1000" width="937.5" xmlns="http://www.w3.org/2000/svg"><path d="M0 793.088q0 38.552 17.08 67.832 29.768 54.656 104.432 82.472 63.44 25.376 136.152 25.376t133.468 -19.52 99.796 -51.972 60.512 -74.176 21.472 -87.108q0 -62.952 -33.672 -108.336 -25.864 -35.136 -69.296 -67.832 -14.64 -11.224 -32.208 -27.328 -34.16 -28.304 -34.16 -55.632 0 -32.208 44.896 -72.712 15.128 -13.176 37.088 -36.112 19.52 -21.472 31.964 -54.168t12.444 -72.224q0 -50.752 -22.204 -95.892t-61.732 -70.028h76.128l75.64 -43.92h-245.952q-53.192 0 -105.408 10.736 -78.568 17.568 -131.76 80.032t-53.192 141.032q0 82.472 59.536 138.104t144.448 55.632q8.784 0 39.04 -2.928 -1.464 5.856 -8.296 23.912 -3.904 10.248 -3.904 24.4 0 38.552 36.112 83.936 -37.088 .488 -84.912 7.32 -109.8 17.568 -168.848 60.024 -34.16 25.376 -54.412 64.416t-20.252 74.664zm104.432 -26.352q0 -33.672 15.128 -60.512 27.328 -47.336 94.184 -67.832 58.072 -18.056 120.536 -18.056 8.784 0 27.816 1.464 .488 0 16.348 10.98t19.764 13.42q13.664 9.272 35.624 27.328 1.464 1.464 8.784 8.296t12.932 12.688 8.54 9.76q1.464 1.952 3.172 4.636t4.148 6.588 4.392 6.344q5.856 9.272 9.76 19.032 7.808 24.4 7.808 43.432 0 34.648 -15.128 61.244t-41.968 41.724q-50.752 29.28 -120.048 29.28 -76.128 0 -139.568 -34.648 -33.184 -17.08 -52.704 -47.336t-19.52 -67.832zm61 -562.664q0 -56.608 29.768 -94.428t80.52 -37.82q36.112 0 66.368 22.448t48.312 59.536q35.136 74.176 35.136 144.936 0 59.048 -25.132 91.744t-77.836 32.696q-27.816 0 -54.656 -14.64 -44.896 -25.376 -76.128 -90.28 -26.352 -57.096 -26.352 -114.192zm411.384 43.432h144.448v144.448h71.736v-144.448h143.96v-72.224h-143.96v-143.472h-71.736v143.472h-144.448v72.224z"/></svg>