<svg height="1000" width="937.5" xmlns="http://www.w3.org/2000/svg"><path d="M0 793.088q0 -35.624 20.252 -74.664t54.412 -64.416q59.048 -42.456 168.848 -60.024 47.824 -6.832 84.912 -7.32 -36.112 -45.384 -36.112 -83.936 0 -14.152 3.904 -24.4 6.832 -18.056 8.296 -23.912 -30.256 2.928 -39.04 2.928 -84.912 0 -144.448 -55.632t-59.536 -138.104q0 -78.568 53.192 -141.032t131.76 -80.032q52.216 -10.736 105.408 -10.736h245.952l-75.64 43.92h-76.128q39.528 24.888 61.732 70.028t22.204 95.892q0 39.528 -12.444 72.224t-31.964 54.168q-21.96 22.936 -37.088 36.112 -44.896 40.504 -44.896 72.712 0 27.328 34.16 55.632 17.568 16.104 32.208 27.328 43.432 32.696 69.296 67.832 33.672 45.384 33.672 108.336 0 45.384 -21.472 87.108t-60.512 74.176 -99.796 51.972 -133.468 19.52 -136.152 -25.376q-74.664 -27.816 -104.432 -82.472 -17.08 -29.28 -17.08 -67.832zm104.432 -26.352q0 37.576 19.52 67.832t52.704 47.336q63.44 34.648 139.568 34.648 69.296 0 120.048 -29.28 26.84 -15.128 41.968 -41.724t15.128 -61.244q0 -19.032 -7.808 -43.432 -3.904 -9.76 -9.76 -19.032 -1.952 -2.44 -4.392 -6.344t-4.148 -6.588 -3.172 -4.636q-2.928 -3.904 -8.54 -9.76t-12.932 -12.688 -8.784 -8.296q-21.96 -18.056 -35.624 -27.328 -3.904 -2.44 -19.764 -13.42t-16.348 -10.98q-19.032 -1.464 -27.816 -1.464 -62.464 0 -120.536 18.056 -66.856 20.496 -94.184 67.832 -15.128 26.84 -15.128 60.512zm61 -562.664q0 57.096 26.352 114.192 31.232 64.904 76.128 90.28 26.84 14.64 54.656 14.64 52.704 0 77.836 -32.696t25.132 -91.744q0 -70.76 -35.136 -144.936 -18.056 -37.088 -48.312 -59.536t-66.368 -22.448q-50.752 0 -80.52 37.82t-29.768 94.428zm411.384 43.432v-72.224h144.448v-143.472h71.736v143.472h143.96v72.224h-143.96v144.448h-71.736v-144.448h-144.448z"/></svg>