<svg height="1000" width="912.109" xmlns="http://www.w3.org/2000/svg"><path d="M1.464 643.272q4.88-24.888 25.62-41.724t46.116-16.836h148.84l36.112-169.336h-135.664q-27.816 0-45.872-21.472-17.08-21.96-11.224-50.752 4.88-25.376 25.376-41.968t45.872-16.592h148.84l31.72-149.816q5.368-25.376 26.108-42.212t46.116-16.836q29.28 0 46.36 21.472t10.736 50.752l-28.792 136.64h167.384l31.72-149.816q5.368-25.376 25.864-42.212t45.872-16.836q29.28 0 46.36 21.472 17.568 20.496 11.224 50.752l-28.792 136.64h135.176q28.304 0 46.36 21.472 17.08 21.96 11.224 50.752-4.88 25.376-25.376 41.968t-45.872 16.592h-148.84l-36.6 169.336h135.664q28.304 0 46.36 21.472 17.08 21.96 11.224 51.24-5.368 25.376-25.62 41.968t-45.628 16.592h-149.816l-31.232 149.816q-5.368 25.376-25.864 41.968t-45.872 16.592q-28.304 0-46.36-20.984-17.08-21.96-11.224-50.752l29.28-136.64h-167.872l-32.208 149.816q-5.368 25.376-25.62 41.968t-45.628 16.592q-28.304 0-46.36-20.984-17.08-21.96-11.224-50.752l29.28-136.64h-135.664q-28.792 0-46.36-21.96-17.568-20.496-11.224-50.752zm352.824-58.56h167.384l36.112-169.336h-167.872z"/></svg>