<svg height="1000px" width="912.109375px" xmlns="http://www.w3.org/2000/svg">
  <g>
    <path d="M1.46484375 643.06640625c3.255 -16.602 11.8 -30.518 25.635 -41.748c13.834 -11.231 29.215 -16.846 46.142 -16.846c0 0 148.926 0 148.926 0c0 0 36.133 -169.433 36.133 -169.433c0 0 -135.742 0 -135.742 0c-18.555 0 -33.854 -7.162 -45.899 -21.485c-11.393 -14.648 -15.136 -31.575 -11.23 -50.781c3.255 -16.927 11.719 -30.924 25.39 -41.992c13.672 -11.068 28.972 -16.602 45.899 -16.602c0 0 148.926 0 148.926 0c0 0 31.738 -149.902 31.738 -149.902c3.581 -16.927 12.288 -31.006 26.123 -42.236c13.835 -11.231 29.216 -16.846 46.143 -16.846c19.531 0 34.993 7.161 46.386 21.484c11.394 14.323 14.974 31.25 10.743 50.782c0 0 -28.809 136.718 -28.809 136.718c0 0 167.48 0 167.48 0c0 0 31.739 -149.902 31.739 -149.902c3.58 -16.927 12.207 -31.006 25.879 -42.236c13.671 -11.231 28.971 -16.846 45.898 -16.846c19.531 0 34.993 7.161 46.387 21.484c11.718 13.672 15.462 30.599 11.23 50.782c0 0 -28.808 136.718 -28.808 136.718c0 0 135.254 0 135.254 0c18.88 0 34.342 7.162 46.386 21.485c11.393 14.648 15.137 31.575 11.231 50.781c-3.256 16.927 -11.719 30.924 -25.391 41.992c-13.672 11.068 -28.971 16.602 -45.898 16.602c0 0 -148.926 0 -148.926 0c0 0 -36.621 169.433 -36.621 169.433c0 0 135.742 0 135.742 0c18.88 0 34.342 7.162 46.387 21.485c11.393 14.648 15.136 31.738 11.23 51.269c-3.581 16.927 -12.126 30.925 -25.635 41.992c-13.509 11.068 -28.727 16.602 -45.654 16.602c0 0 -149.902 0 -149.902 0c0 0 -31.25 149.902 -31.25 149.902c-3.581 16.927 -12.207 30.925 -25.879 41.992c-13.672 11.068 -28.972 16.602 -45.899 16.602c-18.88 0 -34.342 -6.999 -46.386 -20.996c-11.394 -14.649 -15.137 -31.576 -11.231 -50.781c0 0 29.297 -136.719 29.297 -136.719c0 0 -167.969 0 -167.969 0c0 0 -32.226 149.902 -32.226 149.902c-3.581 16.927 -12.126 30.925 -25.635 41.992c-13.509 11.068 -28.727 16.602 -45.654 16.602c-18.881 0 -34.343 -6.999 -46.387 -20.996c-11.393 -14.649 -15.137 -31.576 -11.23 -50.781c0 0 29.296 -136.719 29.296 -136.719c0 0 -135.742 0 -135.742 0c-19.206 0 -34.668 -7.324 -46.387 -21.973c-11.718 -13.672 -15.462 -30.599 -11.23 -50.781c0 0 0 0 0 0m353.027 -58.594c0 0 167.481 0 167.481 0c0 0 36.133 -169.433 36.133 -169.433c0 0 -167.969 0 -167.969 0c0 0 -35.645 169.433 -35.645 169.433" />
  </g>
</svg>