<svg height="1000" width="1004.395" xmlns="http://www.w3.org/2000/svg"><path d="M0 678.896v-199.592q0 -25.864 17.08 -45.384h-.488l93.208 -122.488q20.984 -29.768 57.584 -29.768h65.88q111.752 -30.256 268.888 -30.256 156.648 0 268.4 30.256h65.88q36.6 0 57.584 29.768l93.208 122.488h-.488q17.08 19.52 17.08 45.384v199.592q0 28.792 -20.496 49.288t-49.288 20.496h-863.76q-29.28 0 -49.776 -20.496t-20.496 -49.288zm99.064 -60.024q0 15.616 10.98 26.596t26.596 10.98h88.328q15.128 0 26.108 -10.98t10.98 -26.596 -10.98 -26.596 -26.108 -10.98h-88.328q-15.616 0 -26.596 10.98t-10.98 26.596zm72.712 -235.704q0 22.448 44.164 41.236t120.292 29.768 165.92 10.98 165.676 -10.98 120.048 -29.768 44.164 -41.236 -44.164 -41.236 -120.048 -29.768 -165.676 -10.98 -165.92 10.98 -120.292 29.768 -44.164 41.236zm145.912 235.704q0 15.616 10.98 26.596t26.596 10.98h10.736q15.128 0 26.108 -10.98t10.98 -26.596 -10.98 -26.596 -26.108 -10.98h-10.736q-15.616 0 -26.596 10.98t-10.98 26.596zm85.4 -235.704q0 -9.76 29.28 -17.324t69.784 -7.564q40.016 0 69.052 7.564t29.036 17.324 -28.792 17.08 -69.296 7.32q-40.992 0 -70.028 -7.32t-29.036 -17.08z"/></svg>