<svg height="1000px" width="937.5px" xmlns="http://www.w3.org/2000/svg">
  <g>
    <path d="M0 319.3359375c0 -68.685 24.495 -127.36 73.486 -176.025c48.991 -48.666 107.992 -72.998 177.002 -72.998c53.711 0 102.539 15.787 146.485 47.363c0 0 -14.161 249.512 -14.161 249.512c0.326 8.138 3.418 15.055 9.278 20.752c5.859 5.696 12.858 8.544 20.996 8.544c0 0 10.254 0 10.254 0c8.138 0 14.16 2.686 18.066 8.057c3.906 5.371 4.72 11.963 2.442 19.775c0 0 -57.129 172.364 -57.129 172.364c-2.279 7.812 -2.686 12.207 -1.221 13.183c1.465 0.977 4.476 -1.79 9.033 -8.3c0 0 193.848 -266.602 193.848 -266.602c4.557 -6.185 5.778 -11.637 3.662 -16.357c-2.116 -4.72 -7.243 -7.081 -15.381 -7.081c0 0 -77.148 0 -77.148 0c-8.138 0 -13.998 -2.604 -17.578 -7.812c-3.581 -5.208 -3.744 -11.393 -0.489 -18.555c0 0 81.543 -182.129 81.543 -182.129c38.412 -21.809 79.753 -32.714 124.024 -32.714c69.01 0 128.011 24.332 177.002 72.998c48.991 48.665 73.486 107.34 73.486 176.025c0 63.151 -21.159 118.49 -63.477 166.016c0 0 -342.773 403.808 -342.773 403.808c-16.927 20.183 -37.679 30.274 -62.256 30.274c-24.577 0 -45.491 -10.091 -62.744 -30.274c0 0 -342.285 -403.808 -342.285 -403.808c-42.643 -47.526 -63.965 -102.865 -63.965 -166.016c0 0 0 0 0 0" />
  </g>
</svg>