<svg height="1000px" width="937.5px" xmlns="http://www.w3.org/2000/svg">
  <g>
    <path d="M0 319.3359375c0 -68.685 24.495 -127.36 73.486 -176.025c48.991 -48.666 107.992 -72.998 177.002 -72.998c46.224 0 88.705 11.556 127.442 34.668c38.737 23.112 69.01 53.873 90.82 92.285c21.81 -38.412 52.083 -69.173 90.82 -92.285c38.737 -23.112 81.218 -34.668 127.442 -34.668c69.01 0 128.011 24.332 177.002 72.998c48.991 48.665 73.486 107.34 73.486 176.025c0 63.802 -21.159 119.141 -63.477 166.016c0 0 -342.773 403.808 -342.773 403.808c-16.927 20.183 -37.76 30.274 -62.5 30.274c-24.74 0 -45.573 -10.091 -62.5 -30.274c0 0 -342.773 -403.808 -342.773 -403.808c-42.318 -46.875 -63.477 -102.214 -63.477 -166.016c0 0 0 0 0 0" />
  </g>
</svg>