<svg height="1000" width="937.5" xmlns="http://www.w3.org/2000/svg"><path d="M0 319.728q0 -102.968 73.444 -175.924t176.9 -72.956q80.52 0 146.4 47.336l-14.152 249.368q.488 12.2 9.272 20.74t20.984 8.54h10.248q12.2 0 18.056 8.052t2.44 19.764l-57.096 172.264q-3.416 11.712 -1.22 13.176t9.028 -8.296l193.736 -266.448q6.832 -9.272 3.66 -16.348t-15.372 -7.076h-77.104q-12.2 0 -17.568 -7.808t-.488 -18.544l81.496 -182.024q57.584 -32.696 123.952 -32.696 103.456 0 176.9 72.956t73.444 175.924q0 94.672 -63.44 165.92l-342.576 403.576q-25.376 30.256 -62.22 30.256t-62.708 -30.256l-342.088 -403.576q-63.928 -71.248 -63.928 -165.92z"/></svg>