<svg height="1000" width="937.5" xmlns="http://www.w3.org/2000/svg"><path d="M0 500.288q0 -95.16 37.088 -182.024t99.796 -149.572 149.328 -99.796 182.268 -37.088q95.16 0 182.024 37.088t149.572 99.796 99.796 149.572 37.088 182.024 -37.088 182.024 -99.796 149.572 -149.572 99.796 -182.024 37.088q-95.648 0 -182.268 -37.088t-149.328 -99.796 -99.796 -149.572 -37.088 -182.024zm333.304 -175.68l30.744 101.504q45.872 -29.28 92.232 -29.28 49.776 0 49.776 22.448 0 4.392 -1.708 8.052t-6.1 7.32 -7.076 5.368 -10.004 5.612 -9.272 4.88l-40.016 20.984q-21.472 11.712 -27.572 24.888t-6.1 36.6v37.576h116.632v-15.616q0 -7.32 .244 -10.248t2.44 -6.1 6.588 -5.124q.488 0 10.492 -4.88t17.568 -8.54 18.3 -10.492 18.056 -13.176q19.52 -16.592 29.768 -36.6t10.248 -55.632q0 -49.288 -41.724 -82.96t-105.652 -33.672q-85.4 0 -147.864 37.088zm47.824 333.304q0 31.72 20.496 49.044t55.144 17.324q33.672 0 54.168 -17.324t20.496 -49.044 -20.496 -49.288 -54.168 -17.568q-34.648 0 -55.144 17.568t-20.496 49.288z"/></svg>