<svg height="1000px" width="916.50390625px" xmlns="http://www.w3.org/2000/svg">
  <g>
    <path d="M0.244140625 509.521484375c-1.79 -10.254 5.127 -22.542 20.752 -36.865c0 0 380.859 -351.563 380.859 -351.563c15.625 -14.323 34.587 -21.484 56.885 -21.484c22.298 0 41.26 7.161 56.885 21.484c0 0 380.371 351.563 380.371 351.563c15.625 14.323 22.542 26.611 20.752 36.865c-1.79 10.254 -11.8 15.381 -30.029 15.381c0 0 -91.309 0 -91.309 0c0 0 0 305.176 0 305.176c0 21.158 -7.65 39.388 -22.949 54.687c-15.3 15.3 -33.529 22.949 -54.688 22.949c0 0 -518.066 0 -518.066 0c-21.159 0 -39.388 -7.649 -54.688 -22.949c-15.299 -15.299 -22.949 -33.529 -22.949 -54.687c0 0 0 -305.176 0 -305.176c0 0 -91.797 0 -91.797 0c-18.229 0 -28.239 -5.127 -30.029 -15.381c0 0 0 0 0 0" />
  </g>
</svg>