<svg height="1000px" width="585.9375px" xmlns="http://www.w3.org/2000/svg">
  <g>
    <path d="M0 886.71875c0 0 0 -69.824 0 -69.824c0 -14.649 3.906 -31.006 11.719 -49.072c7.812 -18.067 15.869 -33.448 24.17 -46.143c8.3 -12.695 20.914 -31.087 37.841 -55.176c0 0 24.17 -32.226 24.17 -32.226c0 0 8.871 -12.126 26.612 -36.377c17.741 -24.252 24.983 -35.238 21.728 -32.959c-3.255 2.278 2.604 -9.44 17.578 -35.157c14.974 -25.716 16.846 -35.644 5.616 -29.785c-11.231 5.86 -13.103 -4.069 -5.616 -29.785c7.487 -25.716 1.628 -37.435 -17.578 -35.156c-19.205 2.278 -26.448 -8.708 -21.728 -32.959c4.72 -24.251 -4.151 -36.377 -26.612 -36.377c0 0 -24.17 -32.227 -24.17 -32.227c-17.252 -24.414 -29.947 -42.806 -38.085 -55.175c-8.138 -12.37 -16.114 -27.588 -23.926 -45.655c-7.813 -18.066 -11.719 -34.424 -11.719 -49.072c0 0 0 -69.824 0 -69.824c0 -22.787 8.138 -42.237 24.414 -58.35c16.276 -16.113 35.97 -24.17 59.082 -24.17c0 0 418.945 0 418.945 0c23.112 0 42.806 8.057 59.082 24.17c16.276 16.113 24.414 35.563 24.414 58.35c0 0 0 69.824 0 69.824c0 14.648 -3.906 31.006 -11.718 49.072c-7.813 18.067 -15.788 33.285 -23.926 45.655c-8.138 12.369 -20.833 30.761 -38.086 55.175c0 0 -24.17 32.227 -24.17 32.227c0 0 -8.87 12.126 -26.611 36.377c-17.741 24.251 -24.984 35.237 -21.729 32.959c3.255 -2.279 -2.604 9.44 -17.578 35.156c-14.974 25.716 -16.846 35.645 -5.615 29.785c11.23 -5.859 13.102 4.069 5.615 29.785c-7.487 25.717 -1.627 37.435 17.578 35.157c19.206 -2.279 26.449 8.707 21.729 32.959c-4.72 24.251 4.15 36.377 26.611 36.377c0 0 24.17 32.226 24.17 32.226c16.927 24.089 29.541 42.481 37.842 55.176c8.301 12.695 16.357 28.076 24.17 46.143c7.812 18.066 11.719 34.423 11.719 49.072c0 0 0 69.824 0 69.824c0 22.786 -8.139 42.155 -24.415 58.105c-16.276 15.951 -35.97 23.926 -59.082 23.926c0 0 -418.945 0 -418.945 0c-23.112 0 -42.806 -7.975 -59.082 -23.926c-16.276 -15.95 -24.414 -35.319 -24.414 -58.105c0 0 0 0 0 0m100.098 -35.156c0 0 39.55 0 39.55 0c0 -5.534 0.814 -11.149 2.442 -16.846c1.627 -5.697 4.476 -11.556 8.545 -17.578c4.069 -6.022 8.056 -11.556 11.963 -16.602c3.906 -5.045 9.603 -10.823 17.089 -17.334c7.487 -6.51 13.835 -11.963 19.043 -16.357c5.209 -4.395 12.696 -10.091 22.461 -17.09c9.766 -6.999 17.334 -12.451 22.705 -16.357c5.372 -3.907 13.672 -9.685 24.903 -17.334c11.23 -7.65 19.287 -13.265 24.17 -16.846c5.208 3.581 14.079 9.766 26.611 18.555c12.533 8.789 21.81 15.299 27.832 19.531c6.022 4.232 14.404 10.335 25.147 18.31c10.742 7.976 18.88 14.486 24.414 19.532c5.534 5.045 11.963 11.23 19.287 18.554c7.324 7.325 12.776 13.835 16.357 19.532c3.581 5.696 6.755 11.963 9.522 18.798c2.767 6.836 4.15 13.347 4.15 19.532c0 0 39.551 0 39.551 0c0 0 0 -34.668 0 -34.668c0 -4.883 -4.395 -15.3 -13.184 -31.25c-5.534 -9.44 -19.694 -30.436 -42.48 -62.989c-35.482 -50.13 -59.245 -86.1 -71.289 -107.91c-22.787 -42.317 -34.18 -80.566 -34.18 -114.746c0 -17.578 2.686 -35.563 8.057 -53.955c5.371 -18.392 13.59 -37.516 24.658 -57.373c11.068 -19.857 20.915 -36.377 29.541 -49.56c8.626 -13.184 20.589 -30.355 35.889 -51.514c0 0 7.324 -10.254 7.324 -10.254c21.81 -30.924 35.97 -52.083 42.48 -63.477c3.906 -6.51 6.918 -12.288 9.033 -17.334c2.116 -5.045 3.337 -8.544 3.663 -10.498c0 0 0.488 -2.441 0.488 -2.441c0 0 0 -34.668 0 -34.668c0 0 -385.742 0 -385.742 0c0 0 0 34.668 0 34.668c0.325 5.208 4.72 15.299 13.183 30.273c6.511 11.394 20.671 32.553 42.481 63.477c35.481 50.13 59.245 86.1 71.289 107.91c22.786 42.318 34.179 80.567 34.179 114.746c0 17.578 -2.685 35.563 -8.056 53.955c-5.371 18.392 -13.591 37.517 -24.658 57.373c-11.068 19.857 -20.915 36.377 -29.541 49.561c-8.627 13.184 -20.59 30.355 -35.889 51.514c-0.651 0.976 -1.221 1.79 -1.709 2.441c-0.488 0.651 -1.139 1.465 -1.953 2.441c-0.814 0.977 -1.465 1.872 -1.953 2.686c-0.489 0.814 -1.058 1.709 -1.709 2.685c-22.787 32.553 -36.947 53.549 -42.481 62.989c-8.789 15.95 -13.183 26.367 -13.183 31.25c0 0 0 34.668 0 34.668c0 0 0 0 0 0" />
  </g>
</svg>