<svg height="1000" width="585.938" xmlns="http://www.w3.org/2000/svg"><path d="M0 886.784v-69.784q0-21.96 11.712-49.044t24.156-46.116 37.82-55.144l24.156-32.208 26.596-36.356 21.716-32.94 17.568-35.136 5.612-29.768-5.612-29.768-17.568-35.136-21.716-32.94-26.596-36.356-24.156-32.208q-25.864-36.6-38.064-55.144t-23.912-45.628-11.712-49.044v-69.784q0-34.16 24.4-58.316t59.048-24.156h418.704q34.648 0 59.048 24.156t24.4 58.316v69.784q0 21.96-11.712 49.044t-23.912 45.628-38.064 55.144l-24.156 32.208-26.596 36.356-21.716 32.94-17.568 35.136-5.612 29.768 5.612 29.768 17.568 35.136 21.716 32.94 26.596 36.356 24.156 32.208q25.376 36.112 37.82 55.144t24.156 46.116 11.712 49.044v69.784q0 34.16-24.4 58.072t-59.048 23.912h-418.704q-34.648 0-59.048-23.912t-24.4-58.072zm100.04-35.136h39.528q0-8.296 2.44-16.836t8.54-17.568 11.956-16.592 17.08-17.324 19.032-16.348 22.448-17.08 22.692-16.348 24.888-17.324 24.156-16.836q7.808 5.368 26.596 18.544t27.816 19.52 25.132 18.3 24.4 19.52 19.276 18.544 16.348 19.52 9.516 18.788 4.148 19.52h39.528v-34.648q0-7.32-13.176-31.232-8.296-14.152-42.456-62.952-53.192-75.152-71.248-107.848-34.16-63.44-34.16-114.68 0-26.352 8.052-53.924t24.644-57.34 29.524-49.532 35.868-51.484l7.32-10.248q32.696-46.36 42.456-63.44 5.856-9.76 9.028-17.324t3.66-10.492l.488-2.44v-34.648h-385.52v34.648q.488 7.808 13.176 30.256 9.76 17.08 42.456 63.44 53.192 75.152 71.248 107.848 34.16 63.44 34.16 114.68 0 26.352-8.052 53.924t-24.644 57.34-29.524 49.532-35.868 51.484q-.976 1.464-1.708 2.44t-1.952 2.44-1.952 2.684-1.708 2.684q-34.16 48.8-42.456 62.952-13.176 23.912-13.176 31.232v34.648z"/></svg>