<svg height="1000px" width="1113.76953125px" xmlns="http://www.w3.org/2000/svg">
  <g>
    <path d="M0 666.015625c0 0 0 -191.406 0 -191.406c0 -17.904 6.348 -34.831 19.043 -50.781c0 0 103.027 -134.766 103.027 -134.766c15.951 -22.461 37.272 -33.692 63.965 -33.692c0 0 742.188 0 742.188 0c26.367 0 47.526 11.231 63.476 33.692c0 0 103.028 134.765 103.028 134.765c12.695 15.951 19.043 32.878 19.043 50.782c0 0 0 191.406 0 191.406c0 21.484 -7.65 39.876 -22.95 55.176c-15.299 15.299 -33.691 22.949 -55.175 22.949c0 0 -957.52 0 -957.52 0c-21.484 0 -39.876 -7.65 -55.176 -22.949c-15.299 -15.3 -22.949 -33.692 -22.949 -55.176c0 0 0 0 0 0m126.221 -197.021c4.72 8.3 13.916 12.451 27.588 12.451c0 0 210.937 0 210.937 0c0 21.484 7.568 39.876 22.705 55.175c15.137 15.3 33.447 22.95 54.932 22.95c0 0 229.004 0 229.004 0c21.484 0 39.795 -7.65 54.931 -22.95c15.137 -15.299 22.705 -33.691 22.705 -55.175c0 0 210.938 0 210.938 0c13.672 0 22.786 -4.151 27.344 -12.451c4.557 -8.301 3.255 -18.148 -3.907 -29.541c0 0 -55.175 -89.844 -55.175 -89.844c-7.487 -11.719 -18.636 -21.729 -33.448 -30.03c-14.811 -8.3 -29.052 -12.451 -42.724 -12.451c0 0 -590.332 0 -590.332 0c-13.672 0 -27.832 4.151 -42.481 12.451c-14.648 8.301 -25.716 18.311 -33.203 30.03c0 0 -56.152 89.844 -56.152 89.844c-7.162 11.393 -8.382 21.24 -3.662 29.541c0 0 0 0 0 0" />
  </g>
</svg>