<svg height="1000" width="1113.77" xmlns="http://www.w3.org/2000/svg"><path d="M0 666.208v-191.296q0-26.84 19.032-50.752l102.968-134.688q23.912-33.672 63.928-33.672h741.76q39.528 0 63.44 33.672l102.968 134.688q19.032 23.912 19.032 50.752v191.296q0 32.208-22.936 55.144t-55.144 22.936h-956.968q-32.208 0-55.144-22.936t-22.936-55.144zm126.148-196.908q7.076 12.444 27.572 12.444h210.816q0 32.208 22.692 55.144t54.9 22.936h228.872q32.208 0 54.9-22.936t22.692-55.144h210.816q20.496 0 27.328-12.444t-3.904-29.524l-55.144-89.792q-11.224-17.568-33.428-30.012t-42.7-12.444h-589.992q-20.496 0-42.456 12.444t-33.184 30.012l-56.12 89.792q-10.736 17.08-3.66 29.524z"/></svg>