<svg height="1000" width="937.5" xmlns="http://www.w3.org/2000/svg"><path d="M0 500.288q0 -95.648 37.088 -182.268t99.796 -149.328 149.328 -99.796 182.268 -37.088q95.16 0 182.024 37.088t149.572 99.796 99.796 149.328 37.088 182.268q0 95.16 -37.088 182.024t-99.796 149.572 -149.572 99.796 -182.024 37.088q-95.648 0 -182.268 -37.088t-149.328 -99.796 -99.796 -149.572 -37.088 -182.024zm117.12 0q0 71.248 27.816 136.396t74.908 112.24 112.24 74.908 136.396 27.816 136.396 -27.816 112.24 -74.908 74.908 -112.24 27.816 -136.396 -27.816 -136.396 -74.908 -112.24 -112.24 -74.908 -136.396 -27.816 -136.396 27.816 -112.24 74.908 -74.908 112.24 -27.816 136.396zm281.088 -169.824q0 -28.304 19.276 -45.384t50.996 -17.08q32.208 0 51.24 16.836t19.032 45.628 -19.032 45.872 -51.24 17.08q-31.72 0 -50.996 -17.08t-19.276 -45.872zm4.392 401.624v-299.144h132.248v299.144h-132.248z"/></svg>