<svg height="1000" width="937.5" xmlns="http://www.w3.org/2000/svg"><path d="M0 500.288q0 -95.648 37.088 -182.268t99.796 -149.328 149.328 -99.796 182.268 -37.088q95.16 0 182.024 37.088t149.572 99.796 99.796 149.328 37.088 182.268q0 95.16 -37.088 182.024t-99.796 149.572 -149.572 99.796 -182.024 37.088q-95.648 0 -182.268 -37.088t-149.328 -99.796 -99.796 -149.572 -37.088 -182.024zm398.208 -169.824q0 28.792 19.276 45.872t50.996 17.08q32.208 0 51.24 -17.08t19.032 -45.872 -19.032 -45.628 -51.24 -16.836q-31.72 0 -50.996 17.08t-19.276 45.384zm4.392 401.624h132.248v-299.144h-132.248v299.144z"/></svg>