<svg height="1000px" width="937.5px" xmlns="http://www.w3.org/2000/svg">
  <g>
    <path d="M0 500c0 -63.477 12.37 -124.186 37.109 -182.129c24.74 -57.943 58.024 -107.829 99.854 -149.658c41.829 -41.83 91.715 -75.114 149.658 -99.854c57.943 -24.739 118.652 -37.109 182.129 -37.109c63.477 0 124.186 12.37 182.129 37.109c57.943 24.74 107.829 58.024 149.658 99.854c41.83 41.829 75.114 91.715 99.854 149.658c24.739 57.943 37.109 118.652 37.109 182.129c0 63.477 -12.37 124.186 -37.109 182.129c-24.74 57.943 -58.024 107.829 -99.854 149.658c-41.829 41.83 -91.715 75.114 -149.658 99.854c-57.943 24.739 -118.652 37.109 -182.129 37.109c-63.477 0 -124.186 -12.37 -182.129 -37.109c-57.943 -24.74 -107.829 -58.024 -149.658 -99.854c-41.83 -41.829 -75.114 -91.715 -99.854 -149.658c-24.739 -57.943 -37.109 -118.652 -37.109 -182.129c0 0 0 0 0 0m269.043 129.883c0 20.833 7.243 38.574 21.728 53.222c14.486 14.649 32.146 21.973 52.979 21.973c0 0 250 0 250 0c20.833 0 38.493 -7.324 52.979 -21.973c14.485 -14.648 21.728 -32.389 21.728 -53.222c0 0 0 -123.047 0 -123.047c0 0 -91.797 0 -91.797 0c-6.51 23.763 -19.775 43.294 -39.795 58.594c-20.019 15.299 -42.724 22.949 -68.115 22.949c-25.391 0 -48.014 -7.65 -67.871 -22.949c-19.857 -15.3 -33.366 -34.831 -40.527 -58.594c0 0 -91.309 0 -91.309 0c0 0 0 123.047 0 123.047c0 0 0 0 0 0m0 -185.547c0 0 91.309 0 91.309 0c7.161 -23.763 20.67 -43.132 40.527 -58.106c19.857 -14.973 42.48 -22.46 67.871 -22.46c25.391 0 48.096 7.487 68.115 22.46c20.02 14.974 33.285 34.343 39.795 58.106c0 0 91.797 0 91.797 0c0 0 0 -64.453 0 -64.453c0 -20.834 -7.243 -38.493 -21.728 -52.979c-14.486 -14.485 -32.146 -21.728 -52.979 -21.728c0 0 -250 0 -250 0c-20.833 0 -38.493 7.243 -52.979 21.728c-14.485 14.486 -21.728 32.145 -21.728 52.979c0 0 0 64.453 0 64.453c0 0 0 0 0 0m137.207 31.25c0 17.253 6.104 31.982 18.311 44.189c12.207 12.207 26.936 18.311 44.189 18.311c17.253 0 31.982 -6.104 44.189 -18.311c12.207 -12.207 18.311 -26.936 18.311 -44.189c0 -17.253 -6.104 -31.982 -18.311 -44.19c-12.207 -12.207 -26.936 -18.31 -44.189 -18.31c-17.253 0 -31.982 6.103 -44.189 18.31c-12.207 12.208 -18.311 26.937 -18.311 44.19c0 0 0 0 0 0" />
  </g>
</svg>