<svg height="1000px" width="937.5px" xmlns="http://www.w3.org/2000/svg">
  <g>
    <path d="M0 792.96875c0 0 0 -287.598 0 -287.598c0 0 215.332 0 215.332 0c15.951 55.664 47.363 101.319 94.238 136.963c46.875 35.645 99.935 53.467 159.18 53.467c59.245 0 112.305 -17.822 159.18 -53.467c46.875 -35.644 78.287 -81.299 94.238 -136.963c0 0 215.332 0 215.332 0c0 0 0 287.598 0 287.598c0 48.503 -17.171 89.925 -51.514 124.268c-34.342 34.342 -75.765 51.513 -124.267 51.513c0 0 -585.938 0 -585.938 0c-48.502 0 -89.925 -17.171 -124.267 -51.513c-34.343 -34.343 -51.514 -75.765 -51.514 -124.268c0 0 0 0 0 0m0 -433.594c0 0 0 -152.344 0 -152.344c0 -48.502 17.171 -89.925 51.514 -124.267c34.342 -34.343 75.765 -51.514 124.267 -51.514c0 0 585.938 0 585.938 0c48.502 0 89.925 17.171 124.267 51.514c34.343 34.342 51.514 75.765 51.514 124.267c0 0 0 152.344 0 152.344c0 0 -215.332 0 -215.332 0c-15.951 -55.664 -47.363 -101.399 -94.238 -137.207c-46.875 -35.807 -99.935 -53.711 -159.18 -53.711c-59.245 0 -112.305 17.904 -159.18 53.711c-46.875 35.808 -78.287 81.543 -94.238 137.207c0 0 -215.332 0 -215.332 0c0 0 0 0 0 0m322.754 72.754c0 -40.69 14.241 -75.277 42.725 -103.76c28.483 -28.483 62.906 -42.724 103.271 -42.724c40.69 0 75.358 14.323 104.004 42.969c28.646 28.645 42.969 63.151 42.969 103.515c0 40.365 -14.323 74.87 -42.969 103.516c-28.646 28.646 -63.314 42.969 -104.004 42.969c-40.365 0 -74.788 -14.242 -103.271 -42.725c-28.484 -28.483 -42.725 -63.07 -42.725 -103.76c0 0 0 0 0 0" />
  </g>
</svg>