<svg height="1000" width="937.5" xmlns="http://www.w3.org/2000/svg"><path d="M0 500.288q0-95.16 37.088-182.024t99.796-149.572 149.572-99.796 182.024-37.088 182.024 37.088 149.572 99.796 99.796 149.572 37.088 182.024-37.088 182.024-99.796 149.572-149.572 99.796-182.024 37.088-182.024-37.088-149.572-99.796-99.796-149.572-37.088-182.024zm268.888 129.808q0 31.232 21.716 53.192t52.948 21.96h249.856q31.232 0 52.948-21.96t21.716-53.192v-122.976h-91.744q-9.76 35.624-39.772 58.56t-68.076 22.936-67.832-22.936-40.504-58.56h-91.256v122.976zm0-185.44h91.256q10.736-35.624 40.504-58.072t67.832-22.448 68.076 22.448 39.772 58.072h91.744v-64.416q0-31.232-21.716-52.948t-52.948-21.716h-249.856q-31.232 0-52.948 21.716t-21.716 52.948v64.416zm137.128 31.232q0 25.864 18.3 44.164t44.164 18.3 44.164-18.3 18.3-44.164-18.3-44.164-44.164-18.3-44.164 18.3-18.3 44.164z"/></svg>