<svg height="1000" width="937.5" xmlns="http://www.w3.org/2000/svg"><path d="M0 793.088v-287.432h215.208q23.912 83.448 94.184 136.884t159.088 53.436 159.088 -53.436 94.184 -136.884h215.208v287.432q0 72.712 -51.484 124.196t-124.196 51.484h-585.6q-72.712 0 -124.196 -51.484t-51.484 -124.196zm0 -433.344v-152.256q0 -72.712 51.484 -124.196t124.196 -51.484h585.6q72.712 0 124.196 51.484t51.484 124.196v152.256h-215.208q-23.912 -83.448 -94.184 -137.128t-159.088 -53.68 -159.088 53.68 -94.184 137.128h-215.208zm322.568 72.712q0 61 42.7 103.7t103.212 42.7q61 0 103.944 -42.944t42.944 -103.456 -42.944 -103.456 -103.944 -42.944q-60.512 0 -103.212 42.7t-42.7 103.7z"/></svg>