<svg height="1000" width="937.5" xmlns="http://www.w3.org/2000/svg"><path d="M0 500.288q0 -95.16 37.088 -182.024t99.796 -149.572 149.572 -99.796 182.024 -37.088 182.024 37.088 149.572 99.796 99.796 149.572 37.088 182.024 -37.088 181.78 -99.796 149.572 -149.572 100.04 -182.024 37.088 -182.024 -37.088 -149.572 -100.04 -99.796 -149.572 -37.088 -181.78zm175.68 0q0 79.056 39.284 146.644t106.628 106.872 146.888 39.284 146.888 -39.284 106.628 -106.872 39.284 -146.644q0 -79.544 -39.284 -146.888t-106.628 -106.628 -146.888 -39.284 -146.888 39.284 -106.628 106.628 -39.284 146.888zm176.656 149.816q98.576 -6.344 166.652 -78.568t68.076 -171.776q0 -26.84 -5.368 -52.704 35.624 26.352 56.364 66.856t20.74 86.376q0 78.568 -55.876 134.2t-134.444 55.632q-64.904 0 -116.144 -40.016z"/></svg>