<svg height="1000px" width="937.5px" xmlns="http://www.w3.org/2000/svg">
  <g>
    <path d="M0 500c0 -63.477 12.37 -124.186 37.109 -182.129c24.74 -57.943 58.024 -107.829 99.854 -149.658c41.829 -41.83 91.715 -75.114 149.658 -99.854c57.943 -24.739 118.652 -37.109 182.129 -37.109c63.477 0 124.186 12.37 182.129 37.109c57.943 24.74 107.829 58.024 149.658 99.854c41.83 41.829 75.114 91.715 99.854 149.658c24.739 57.943 37.109 118.652 37.109 182.129c0 63.477 -12.37 124.105 -37.109 181.885c-24.74 57.78 -58.024 107.666 -99.854 149.658c-41.829 41.992 -91.715 75.358 -149.658 100.098c-57.943 24.739 -118.652 37.109 -182.129 37.109c-63.477 0 -124.186 -12.37 -182.129 -37.109c-57.943 -24.74 -107.829 -58.106 -149.658 -100.098c-41.83 -41.992 -75.114 -91.878 -99.854 -149.658c-24.739 -57.78 -37.109 -118.408 -37.109 -181.885c0 0 0 0 0 0m175.781 0c0 52.734 13.102 101.644 39.307 146.729c26.204 45.084 61.767 80.729 106.689 106.933c44.922 26.205 93.913 39.307 146.973 39.307c53.06 0 102.051 -13.102 146.973 -39.307c44.922 -26.204 80.485 -61.849 106.689 -106.933c26.205 -45.085 39.307 -93.995 39.307 -146.729c0 -53.06 -13.102 -102.051 -39.307 -146.973c-26.204 -44.922 -61.767 -80.485 -106.689 -106.689c-44.922 -26.205 -93.913 -39.307 -146.973 -39.307c-53.06 0 -102.051 13.102 -146.973 39.307c-44.922 26.204 -80.485 61.767 -106.689 106.689c-26.205 44.922 -39.307 93.913 -39.307 146.973c0 0 0 0 0 0m176.758 149.902c65.755 -4.231 121.338 -30.436 166.748 -78.613c45.41 -48.177 68.115 -105.469 68.115 -171.875c0 -17.904 -1.79 -35.482 -5.371 -52.734c23.763 17.578 42.562 39.876 56.397 66.894c13.834 27.018 20.752 55.827 20.752 86.426c0 52.409 -18.636 97.168 -55.909 134.277c-37.272 37.11 -82.112 55.664 -134.521 55.664c-43.294 0 -82.031 -13.346 -116.211 -40.039c0 0 0 0 0 0" />
  </g>
</svg>