<svg height="1000" width="818.359" xmlns="http://www.w3.org/2000/svg"><path d="M1.464 880.44q-3.904 -31.232 5.368 -76.616l43.92 -206.912q23.912 -90.28 79.544 -90.28h122v-394.304q0 -33.184 45.872 -56.852t110.776 -23.668 110.776 23.668 45.872 56.852v394.304h122q56.12 0 80.032 90.28l43.92 206.912q9.272 45.384 5.368 76.616t-19.52 50.996 -34.16 28.548 -38.552 8.784h-630.984q-20.008 0 -38.552 -8.784t-34.16 -28.548 -19.52 -50.996zm172.752 -222.04q0 50.264 68.808 86.132t165.92 35.868q97.6 0 166.408 -35.868t68.808 -86.132q0 -26.352 -20.984 -49.776t-57.584 -40.504v89.304q0 33.184 -45.872 57.096t-110.776 23.912 -110.776 -23.912 -45.872 -57.096v-89.304q-36.6 17.08 -57.34 40.504t-20.74 49.776zm152.744 -546.072q0 17.568 23.912 30.256t58.072 12.688 58.316 -12.688 24.156 -30.256 -24.156 -30.012 -58.316 -12.444 -58.072 12.444 -23.912 30.012z"/></svg>