<svg height="1000" width="908.203" xmlns="http://www.w3.org/2000/svg"><path d="M1.952 253.36q8.784 -41.968 44.896 -65.392 36.112 -23.912 78.324 -15.128t65.636 44.896q18.056 28.792 16.592 61t-20.496 58.072q22.448 32.208 44.896 54.412t41.236 32.208 32.208 13.664 25.62 3.66q1.952 -.488 19.52 -2.928 20.984 0 35.624 -15.616t21.96 -42.7 10.492 -53.436 3.66 -57.096q-31.72 -9.76 -51.972 -37.088t-20.252 -61.488q0 -42.944 30.256 -73.2t73.688 -30.256 73.688 30.256 30.256 73.2q0 34.16 -20.252 61.488t-51.972 37.088q.488 30.744 3.66 57.096t10.492 53.436 22.204 42.7 35.868 15.616q1.952 .488 5.856 .976t7.076 .976 6.1 .976q12.2 0 25.864 -3.66t32.452 -13.664 41.236 -32.208 44.896 -54.412q-19.52 -25.864 -20.984 -58.316t16.592 -60.756q23.424 -36.112 65.392 -44.896t78.08 15.128q36.112 23.424 45.14 65.392t-14.396 78.08q-18.544 27.816 -49.044 39.772t-62.22 4.148q-29.28 43.92 -53.68 99.064t-34.16 88.328l-9.76 33.184q-7.32 32.208 -15.616 81.008t-15.86 98.332 -10.004 63.684q-4.88 27.816 -36.6 50.264t-72.224 33.428 -78.08 10.98q-38.064 0 -78.568 -10.98t-72.224 -33.428 -36.6 -50.264q-2.44 -13.664 -9.272 -63.684t-14.884 -98.82 -16.836 -80.52q-3.416 -13.664 -10.492 -36.6t-32.452 -81.496 -54.656 -102.48q-31.72 7.808 -62.464 -4.148t-48.8 -39.772q-23.424 -36.112 -14.64 -78.08z"/></svg>