<svg height="1000px" width="937.5px" xmlns="http://www.w3.org/2000/svg">
  <g>
    <path d="M0 792.96875c0 0 0 -585.938 0 -585.938c0 -48.502 17.171 -89.925 51.514 -124.267c34.342 -34.343 75.765 -51.514 124.267 -51.514c0 0 585.938 0 585.938 0c48.502 0 89.925 17.171 124.267 51.514c34.343 34.342 51.514 75.765 51.514 124.267c0 0 0 585.938 0 585.938c0 48.503 -17.171 89.925 -51.514 124.268c-34.342 34.342 -75.765 51.513 -124.267 51.513c0 0 -585.938 0 -585.938 0c-48.502 0 -89.925 -17.171 -124.267 -51.513c-34.343 -34.343 -51.514 -75.765 -51.514 -124.268c0 0 0 0 0 0m156.25 0c0 5.208 1.953 9.766 5.859 13.672c3.907 3.906 8.464 5.859 13.672 5.859c0 0 117.188 0 117.188 0c5.208 0 9.765 -1.871 13.672 -5.615c3.906 -3.743 5.859 -8.382 5.859 -13.916c0 0 0 -390.625 0 -390.625c0 -5.208 -1.953 -9.766 -5.859 -13.672c-3.907 -3.906 -8.464 -5.859 -13.672 -5.859c0 0 -117.188 0 -117.188 0c-5.208 0 -9.765 1.953 -13.672 5.859c-3.906 3.906 -5.859 8.464 -5.859 13.672c0 0 0 390.625 0 390.625c0 0 0 0 0 0m0 -529.785c0 20.833 7.324 38.655 21.973 53.467c14.648 14.811 32.389 22.216 53.222 22.216c21.81 0 39.714 -7.487 53.711 -22.461c14.649 -14.648 21.973 -32.389 21.973 -53.222c0 -20.833 -7.406 -38.656 -22.217 -53.467c-14.811 -14.811 -32.633 -22.217 -53.467 -22.217c-20.833 0 -38.574 7.406 -53.222 22.217c-14.649 14.811 -21.973 32.634 -21.973 53.467c0 0 0 0 0 0m195.312 529.785c0 5.208 3.093 9.766 9.278 13.672c6.185 3.906 12.37 5.859 18.555 5.859c0 0 111.328 0 111.328 0c4.557 0 8.545 -1.953 11.963 -5.859c3.418 -3.906 5.126 -8.464 5.126 -13.672c0 0 0 -212.891 0 -212.891c0 -56.966 23.275 -85.449 69.825 -85.449c19.205 0 31.901 4.232 38.086 12.695c6.185 8.464 9.277 23.763 9.277 45.899c0 0 0 239.746 0 239.746c0 5.208 2.441 9.766 7.324 13.672c4.883 3.906 10.254 5.859 16.113 5.859c0 0 113.282 0 113.282 0c5.208 0 9.765 -1.871 13.672 -5.615c3.906 -3.743 5.859 -8.382 5.859 -13.916c0 0 0 -265.137 0 -265.137c0 -51.106 -14.73 -90.25 -44.189 -117.431c-29.46 -27.181 -70.883 -40.772 -124.268 -40.772c-36.784 0 -68.848 9.277 -96.191 27.832c-5.534 3.255 -8.464 5.697 -8.79 7.324c0 -14.648 -6.998 -21.972 -20.996 -21.972c0 0 -107.421 0 -107.421 0c-6.511 0 -12.777 1.627 -18.799 4.883c-6.022 3.255 -9.034 7.324 -9.034 12.207c0 0 0 393.066 0 393.066c0 0 0 0 0 0" />
  </g>
</svg>