<svg height="1000px" width="887.20703125px" xmlns="http://www.w3.org/2000/svg">
  <g>
    <path d="M8.056640625 753.41796875c-11.556 -43.945 -11.556 -87.891 0 -131.836c11.556 -43.945 33.773 -82.357 66.65 -115.234c0 0 131.348 -130.86 131.348 -130.86c32.878 -32.877 71.208 -55.094 114.99 -66.65c43.783 -11.556 87.647 -11.556 131.592 0c43.945 11.556 82.357 33.773 115.234 66.65c13.672 13.672 20.508 30.192 20.508 49.561c0 19.368 -6.836 35.889 -20.508 49.56c-13.671 13.672 -30.192 20.508 -49.56 20.508c-19.369 0 -35.889 -6.836 -49.561 -20.508c-22.786 -22.786 -50.13 -34.179 -82.031 -34.179c-31.901 0 -58.919 11.393 -81.055 34.179c0 0 -131.347 131.348 -131.347 131.348c-22.136 22.787 -33.203 50.049 -33.203 81.787c0 31.738 11.067 59.001 33.203 81.787c22.786 22.136 49.967 33.203 81.543 33.203c31.575 0 58.756 -11.067 81.543 -33.203c0 0 26.855 -27.343 26.855 -27.343c51.758 25.065 106.445 36.783 164.063 35.156c0 0 -91.309 91.308 -91.309 91.308c-32.878 32.878 -71.289 55.095 -115.234 66.651c-43.946 11.556 -87.891 11.556 -131.836 0c-43.946 -11.556 -82.357 -33.773 -115.235 -66.651c-32.877 -32.877 -55.094 -71.289 -66.65 -115.234c0 0 0 0 0 0m290.771 -179.443c0 -19.369 6.999 -35.889 20.997 -49.561c13.671 -13.672 30.192 -20.508 49.56 -20.508c19.369 0 35.889 6.836 49.561 20.508c22.135 22.787 49.153 34.18 81.054 34.18c31.901 0 59.245 -11.393 82.032 -34.18c0 0 131.347 -131.348 131.347 -131.348c22.787 -22.786 34.18 -50.048 34.18 -81.787c0 -31.738 -11.393 -58.675 -34.18 -80.81c-22.135 -22.787 -49.153 -34.18 -81.054 -34.18c-31.901 0 -59.245 11.393 -82.032 34.18c0 0 -27.343 26.367 -27.343 26.367c-51.433 -24.414 -105.957 -36.133 -163.575 -35.156c0 0 91.309 -91.309 91.309 -91.309c32.878 -32.552 71.289 -54.606 115.234 -66.162c43.946 -11.556 87.891 -11.556 131.836 0c43.946 11.556 82.194 33.61 114.746 66.162c32.878 32.878 55.095 71.289 66.651 115.234c11.556 43.946 11.556 87.891 0 131.836c-11.556 43.946 -33.773 82.357 -66.651 115.235c0 0 -131.347 130.859 -131.347 130.859c-32.878 32.878 -71.289 55.176 -115.235 66.895c-43.945 11.718 -87.809 11.718 -131.591 0c-43.783 -11.719 -81.95 -34.017 -114.502 -66.895c-13.998 -13.672 -20.997 -30.192 -20.997 -49.56c0 0 0 0 0 0" />
  </g>
</svg>