<svg height="1000" width="937.5" xmlns="http://www.w3.org/2000/svg"><path d="M0 500.288q0-95.16 37.088-182.024t99.796-149.572 149.572-99.796 182.024-37.088 182.024 37.088 149.572 99.796 99.796 149.572 37.088 182.024-37.088 182.024-99.796 149.572-149.572 99.796-182.024 37.088-182.024-37.088-149.572-99.796-99.796-149.572-37.088-182.024zm226.92 150.792q0 37.576 26.596 63.928t64.172 26.352h302.072q37.576 0 64.172-26.352t26.596-63.928v-302.072q0-37.576-26.596-63.928t-64.172-26.352h-302.072q-37.576 0-64.172 26.352t-26.596 63.928v302.072zm81.008 0v-201.056q0-3.904 2.928-7.076t6.832-3.172h60.512q3.904 0 6.832 3.172t2.928 7.076v201.056q0 3.904-2.928 7.076t-6.832 3.172h-60.512q-3.904 0-6.832-3.172t-2.928-7.076zm0-273.28q0-15.616 11.468-27.328t27.084-11.712q16.104 0 27.572 11.468t11.468 27.572-11.224 27.328q-11.712 11.712-27.816 11.712-15.616 0-27.084-11.224t-11.468-27.816zm100.528 273.28v-202.52q0-3.904 4.636-6.344t9.028-2.44h55.632q11.224 0 11.224 11.224 0-1.464 3.904-3.904 22.448-14.152 50.264-14.152 40.992 0 63.684 20.74t22.692 60.756v136.64q0 3.904-2.928 7.076t-6.832 3.172h-58.56q-4.392 0-8.052-3.172t-3.66-7.076v-123.464q0-16.592-5.124-23.424t-19.764-6.832q-35.624 0-35.624 43.92v109.8q0 3.904-2.928 7.076t-6.344 3.172h-57.584q-4.392 0-9.028-3.172t-4.636-7.076z"/></svg>