<svg height="1000px" width="937.5px" xmlns="http://www.w3.org/2000/svg">
  <g>
    <path d="M0 500c0 -63.477 12.37 -124.186 37.109 -182.129c24.74 -57.943 58.024 -107.829 99.854 -149.658c41.829 -41.83 91.715 -75.114 149.658 -99.854c57.943 -24.739 118.652 -37.109 182.129 -37.109c63.477 0 124.186 12.37 182.129 37.109c57.943 24.74 107.829 58.024 149.658 99.854c41.83 41.829 75.114 91.715 99.854 149.658c24.739 57.943 37.109 118.652 37.109 182.129c0 63.477 -12.37 124.186 -37.109 182.129c-24.74 57.943 -58.024 107.829 -99.854 149.658c-41.829 41.83 -91.715 75.114 -149.658 99.854c-57.943 24.739 -118.652 37.109 -182.129 37.109c-63.477 0 -124.186 -12.37 -182.129 -37.109c-57.943 -24.74 -107.829 -58.024 -149.658 -99.854c-41.83 -41.829 -75.114 -91.715 -99.854 -149.658c-24.739 -57.943 -37.109 -118.652 -37.109 -182.129c0 0 0 0 0 0m227.051 150.879c0 25.065 8.87 46.387 26.611 63.965c17.741 17.578 39.144 26.367 64.209 26.367c0 0 302.246 0 302.246 0c25.065 0 46.468 -8.789 64.209 -26.367c17.741 -17.578 26.611 -38.9 26.611 -63.965c0 0 0 -302.246 0 -302.246c0 -25.065 -8.87 -46.387 -26.611 -63.965c-17.741 -17.578 -39.144 -26.367 -64.209 -26.367c0 0 -302.246 0 -302.246 0c-25.065 0 -46.468 8.789 -64.209 26.367c-17.741 17.578 -26.611 38.9 -26.611 63.965c0 0 0 302.246 0 302.246c0 0 0 0 0 0m81.054 0c0 0 0 -201.172 0 -201.172c0 -2.604 0.977 -4.964 2.93 -7.08c1.953 -2.116 4.232 -3.174 6.836 -3.174c0 0 60.547 0 60.547 0c2.604 0 4.883 1.058 6.836 3.174c1.953 2.116 2.93 4.476 2.93 7.08c0 0 0 201.172 0 201.172c0 2.604 -0.977 4.964 -2.93 7.08c-1.953 2.116 -4.232 3.174 -6.836 3.174c0 0 -60.547 0 -60.547 0c-2.604 0 -4.883 -1.058 -6.836 -3.174c-1.953 -2.116 -2.93 -4.476 -2.93 -7.08c0 0 0 0 0 0m0 -273.438c0 -10.416 3.825 -19.531 11.475 -27.343c7.65 -7.813 16.683 -11.719 27.1 -11.719c10.742 0 19.938 3.825 27.588 11.475c7.649 7.649 11.474 16.845 11.474 27.587c0 10.743 -3.743 19.857 -11.23 27.344c-7.813 7.813 -17.09 11.719 -27.832 11.719c-10.417 0 -19.45 -3.744 -27.1 -11.231c-7.65 -7.487 -11.475 -16.764 -11.475 -27.832c0 0 0 0 0 0m100.586 273.438c0 0 0 -202.637 0 -202.637c0 -2.604 1.547 -4.72 4.639 -6.347c3.093 -1.628 6.104 -2.442 9.033 -2.442c0 0 55.664 0 55.664 0c7.487 0 11.231 3.744 11.231 11.231c0 -0.977 1.302 -2.279 3.906 -3.907c14.974 -9.44 31.738 -14.16 50.293 -14.16c27.344 0 48.584 6.918 63.721 20.752c15.136 13.835 22.705 34.098 22.705 60.791c0 0 0 136.719 0 136.719c0 2.604 -0.977 4.964 -2.93 7.08c-1.953 2.116 -4.232 3.174 -6.836 3.174c0 0 -58.594 0 -58.594 0c-2.929 0 -5.615 -1.058 -8.056 -3.174c-2.442 -2.116 -3.662 -4.476 -3.662 -7.08c0 0 0 -123.535 0 -123.535c0 -11.068 -1.709 -18.88 -5.127 -23.438c-3.418 -4.557 -10.01 -6.836 -19.776 -6.836c-23.763 0 -35.644 14.649 -35.644 43.946c0 0 0 109.863 0 109.863c0 2.604 -0.977 4.964 -2.93 7.08c-1.953 2.116 -4.069 3.174 -6.348 3.174c0 0 -57.617 0 -57.617 0c-2.929 0 -5.94 -1.058 -9.033 -3.174c-3.092 -2.116 -4.639 -4.476 -4.639 -7.08c0 0 0 0 0 0" />
  </g>
</svg>