<svg height="1000px" width="937.5px" xmlns="http://www.w3.org/2000/svg">
  <g>
    <path d="M0 788.0859375c0 -19.857 6.999 -36.784 20.996 -50.781c13.997 -13.998 30.925 -20.996 50.781 -20.996c0 0 32.227 0 32.227 0c19.857 0 36.784 6.998 50.781 20.996c13.998 13.997 20.996 30.924 20.996 50.781c0 19.857 -6.998 36.865 -20.996 51.025c-13.997 14.161 -30.924 21.241 -50.781 21.241c0 0 -32.227 0 -32.227 0c-19.856 0 -36.784 -7.08 -50.781 -21.241c-13.997 -14.16 -20.996 -31.168 -20.996 -51.025c0 0 0 0 0 0m0 -288.086c0 -19.857 6.999 -36.865 20.996 -51.025c13.997 -14.16 30.925 -21.241 50.781 -21.241c0 0 32.227 0 32.227 0c19.857 0 36.784 7.081 50.781 21.241c13.998 14.16 20.996 31.168 20.996 51.025c0 19.857 -6.998 36.784 -20.996 50.781c-13.997 13.998 -30.924 20.996 -50.781 20.996c0 0 -32.227 0 -32.227 0c-19.856 0 -36.784 -6.998 -50.781 -20.996c-13.997 -13.997 -20.996 -30.924 -20.996 -50.781c0 0 0 0 0 0m0 -288.574c0 -19.857 6.999 -36.865 20.996 -51.026c13.997 -14.16 30.925 -21.24 50.781 -21.24c0 0 32.227 0 32.227 0c19.857 0 36.784 7.08 50.781 21.24c13.998 14.161 20.996 31.169 20.996 51.026c0 19.857 -6.998 36.784 -20.996 50.781c-13.997 13.997 -30.924 20.996 -50.781 20.996c0 0 -32.227 0 -32.227 0c-19.856 0 -36.784 -6.999 -50.781 -20.996c-13.997 -13.997 -20.996 -30.924 -20.996 -50.781c0 0 0 0 0 0m234.375 576.66c0 -19.857 6.999 -36.784 20.996 -50.781c13.997 -13.998 30.925 -20.996 50.781 -20.996c0 0 559.571 0 559.571 0c19.856 0 36.784 6.998 50.781 20.996c13.997 13.997 20.996 30.924 20.996 50.781c0 19.857 -6.999 36.865 -20.996 51.025c-13.997 14.161 -30.925 21.241 -50.781 21.241c0 0 -559.571 0 -559.571 0c-19.856 0 -36.784 -7.08 -50.781 -21.241c-13.997 -14.16 -20.996 -31.168 -20.996 -51.025c0 0 0 0 0 0m0 -288.086c0 -19.857 6.999 -36.865 20.996 -51.025c13.997 -14.16 30.925 -21.241 50.781 -21.241c0 0 559.571 0 559.571 0c19.856 0 36.784 7.081 50.781 21.241c13.997 14.16 20.996 31.168 20.996 51.025c0 19.857 -6.999 36.784 -20.996 50.781c-13.997 13.998 -30.925 20.996 -50.781 20.996c0 0 -559.571 0 -559.571 0c-19.856 0 -36.784 -6.998 -50.781 -20.996c-13.997 -13.997 -20.996 -30.924 -20.996 -50.781c0 0 0 0 0 0m0 -288.574c0 -19.857 6.999 -36.865 20.996 -51.026c13.997 -14.16 30.925 -21.24 50.781 -21.24c0 0 559.571 0 559.571 0c19.856 0 36.784 7.08 50.781 21.24c13.997 14.161 20.996 31.169 20.996 51.026c0 19.857 -6.999 36.784 -20.996 50.781c-13.997 13.997 -30.925 20.996 -50.781 20.996c0 0 -559.571 0 -559.571 0c-19.856 0 -36.784 -6.999 -50.781 -20.996c-13.997 -13.997 -20.996 -30.924 -20.996 -50.781c0 0 0 0 0 0" />
  </g>
</svg>