<svg height="1000" width="691.406" xmlns="http://www.w3.org/2000/svg"><path d="M0 376.824q0-69.784 27.328-134.2 24.888-61 73.688-110.288 47.336-47.336 109.8-73.2 63.44-27.328 134.2-27.328 72.224 0 134.688 27.328 61.976 25.864 109.8 73.2 48.8 48.8 74.176 110.288 27.328 64.416 27.328 134.2t-27.328 134.2q-17.568 39.528-36.112 65.392l-228.384 346.968q-22.448 34.16-53.68 34.16t-54.168-34.16l-227.896-346.968q-22.448-31.232-36.112-65.392-27.328-64.416-27.328-134.2zm217.16 0q0 53.68 37.088 90.768 38.064 38.064 90.768 38.064 54.168 0 91.256-38.064 37.576-36.6 37.576-90.768 0-53.192-37.576-90.768-37.088-38.064-91.256-38.064-52.704 0-90.768 38.064-37.088 38.064-37.088 90.768z"/></svg>