<svg height="1000px" width="689.453125px" xmlns="http://www.w3.org/2000/svg">
  <g>
    <path d="M0 879.8828125c0 0 0 -393.066 0 -393.066c0 -9.441 3.337 -17.334 10.01 -23.682c6.673 -6.348 14.892 -9.522 24.658 -9.522c0 0 44.922 0 44.922 0c0 0 0 -148.925 0 -148.925c0 -36.459 6.754 -71.289 20.264 -104.493c13.509 -33.203 32.307 -62.5 56.396 -87.89c23.763 -25.391 52.002 -45.248 84.717 -59.57c32.715 -14.323 67.301 -21.485 103.76 -21.485c36.458 0 71.126 7.162 104.003 21.485c32.878 14.322 61.198 34.179 84.961 59.57c24.089 25.39 42.806 54.687 56.153 87.89c13.346 33.204 20.019 68.034 20.019 104.493c0 0 0 148.925 0 148.925c0 0 45.41 0 45.41 0c9.766 0 17.985 3.174 24.659 9.522c6.673 6.348 10.009 14.241 10.009 23.682c0 0 0 393.066 0 393.066c0 8.464 -2.685 14.811 -8.056 19.043c-5.371 4.232 -14.242 8.952 -26.612 14.16c-6.51 2.93 -18.066 6.999 -34.668 12.207c-16.601 5.208 -38.655 11.312 -66.162 18.311c-27.506 6.998 -60.14 12.939 -97.9 17.822c-37.76 4.883 -75.033 7.324 -111.816 7.324c-103.191 0 -206.543 -18.554 -310.059 -55.664c-11.068 -3.581 -19.613 -7.894 -25.635 -12.939c-6.022 -5.046 -9.033 -11.8 -9.033 -20.264c0 0 0 0 0 0m206.055 -426.27c0 0 277.832 0 277.832 0c0 0 0 -148.925 0 -148.925c0 -42.318 -13.998 -78.288 -41.992 -107.91c-27.67 -28.321 -60.059 -42.481 -97.168 -42.481c-37.11 0 -69.499 14.16 -97.168 42.481c-27.67 29.296 -41.504 65.266 -41.504 107.91c0 0 0 148.925 0 148.925c0 0 0 0 0 0m28.32 334.473c0 7.487 2.767 13.998 8.301 19.531c5.859 5.86 12.37 8.789 19.531 8.789c7.813 0 14.323 -2.929 19.531 -8.789c0 0 62.989 -62.5 62.989 -62.5c0 0 62.988 62.5 62.988 62.5c5.208 5.86 11.719 8.789 19.531 8.789c7.162 0 13.672 -2.929 19.531 -8.789c5.534 -5.533 8.301 -12.125 8.301 -19.775c0 -7.65 -2.767 -14.079 -8.301 -19.287c0 0 -62.988 -62.988 -62.988 -62.988c0 0 62.988 -62.5 62.988 -62.5c5.534 -5.534 8.301 -12.126 8.301 -19.776c0 -7.65 -2.767 -14.241 -8.301 -19.775c-5.534 -5.534 -12.044 -8.301 -19.531 -8.301c-7.487 0 -13.997 2.767 -19.531 8.301c0 0 -62.988 62.988 -62.988 62.988c0 0 -62.989 -62.988 -62.989 -62.988c-5.534 -5.534 -12.044 -8.301 -19.531 -8.301c-7.487 0 -13.997 2.767 -19.531 8.301c-5.534 5.534 -8.301 12.125 -8.301 19.775c0 7.65 2.767 14.242 8.301 19.776c0 0 62.988 62.5 62.988 62.5c0 0 -62.988 62.988 -62.988 62.988c-5.534 5.534 -8.301 12.044 -8.301 19.531c0 0 0 0 0 0" />
  </g>
</svg>