<svg height="1000" width="689.453" xmlns="http://www.w3.org/2000/svg"><path d="M0 879.952v-392.84q0-14.152 10.004-23.668t24.644-9.516h44.896v-148.84q0-54.656 20.252-104.432t56.364-87.84q35.624-38.064 84.668-59.536t103.7-21.472 103.944 21.472 84.912 59.536q36.112 38.064 56.12 87.84t20.008 104.432v148.84h45.384q14.64 0 24.644 9.516t10.004 23.668v392.84q0 12.688-8.052 19.032t-26.596 14.152q-9.76 4.392-34.648 12.2t-66.124 18.3-97.844 17.812-111.752 7.32q-154.696 0-309.88-55.632-16.592-5.368-25.62-12.932t-9.028-20.252zm205.936-426.024h277.672v-148.84q0-63.44-41.968-107.848-41.48-42.456-97.112-42.456t-97.112 42.456q-41.48 43.92-41.48 107.848v148.84zm28.304 334.28q0 11.224 8.296 19.52 8.784 8.784 19.52 8.784 11.712 0 19.52-8.784l62.952-62.464 62.952 62.464q7.808 8.784 19.52 8.784 10.736 0 19.52-8.784 8.296-8.296 8.296-19.764t-8.296-19.276l-62.952-62.952 62.952-62.464q8.296-8.296 8.296-19.764t-8.296-19.764-19.52-8.296-19.52 8.296l-62.952 62.952-62.952-62.952q-8.296-8.296-19.52-8.296t-19.52 8.296-8.296 19.764 8.296 19.764l62.952 62.464-62.952 62.952q-8.296 8.296-8.296 19.52z"/></svg>