<svg height="1000" width="1068.848" xmlns="http://www.w3.org/2000/svg"><path d="M31.72 491.504v-187.392q0-54.168 19.52-103.7t54.656-87.596q35.624-38.552 83.692-59.78t101.748-21.228 101.748 21.472 83.204 59.536 54.656 87.352 19.52 103.944v148.352h452.376q14.152 0 24.156 10.004t10.004 24.156v393.328q0 8.784-5.124 15.128t-10.492 9.272-18.544 8.784q-10.736 4.392-34.892 11.956t-65.636 18.3-98.088 18.056-111.752 7.32q-154.696 0-309.88-55.632-17.08-5.856-25.864-13.176t-8.784-20.008v-393.328q0-14.152 10.248-24.156t24.4-10.004h45.384v-148.352q0-61.976-41.48-106.872-40.016-42.456-95.16-42.456-56.608 0-95.16 42.456-40.992 44.408-40.992 106.872v45.872l-60.024 72.224h60.024v69.296l-59.048 44.408z"/></svg>