<svg height="1000px" width="688.96484375px" xmlns="http://www.w3.org/2000/svg">
  <g>
    <path d="M0 879.8828125c0 0 0 -393.555 0 -393.555c0 -9.44 3.337 -17.496 10.01 -24.17c6.673 -6.673 14.73 -10.009 24.17 -10.009c0 0 45.41 0 45.41 0c0 0 0 -148.438 0 -148.438c0 -36.133 6.673 -70.719 20.019 -103.76c13.347 -33.04 32.064 -62.255 56.153 -87.646c24.088 -25.716 52.409 -45.654 84.961 -59.815c32.552 -14.16 67.22 -21.24 104.004 -21.24c36.458 0 71.044 7.162 103.759 21.485c32.715 14.322 61.117 34.179 85.205 59.57c23.763 25.391 42.318 54.606 55.664 87.646c13.347 33.041 20.02 67.627 20.02 103.76c0 0 0 148.438 0 148.438c0 0 45.898 0 45.898 0c9.441 0 17.416 3.336 23.926 10.009c6.511 6.674 9.766 14.73 9.766 24.17c0 0 0 393.555 0 393.555c0 4.557 -0.733 8.464 -2.197 11.719c-1.465 3.255 -4.069 6.185 -7.813 8.789c-3.743 2.604 -6.999 4.638 -9.766 6.103c-2.766 1.465 -7.405 3.662 -13.916 6.592c-12.695 5.208 -30.517 11.312 -53.466 18.311c-22.95 6.998 -59.733 14.974 -110.352 23.925c-50.618 8.952 -99.691 13.428 -147.217 13.428c-100.586 0 -203.939 -18.554 -310.058 -55.664c-11.068 -3.906 -19.532 -8.301 -25.391 -13.183c-5.859 -4.883 -8.789 -11.556 -8.789 -20.02c0 0 0 0 0 0m206.055 -427.734c0 0 277.343 0 277.343 0c0 0 0 -148.438 0 -148.438c0 -41.992 -13.997 -77.799 -41.992 -107.422c-26.692 -27.669 -58.919 -41.829 -96.679 -42.48c-38.086 0.325 -70.476 14.485 -97.168 42.48c-27.67 29.297 -41.504 65.104 -41.504 107.422c0 0 0 148.438 0 148.438c0 0 0 0 0 0" />
  </g>
</svg>