<svg height="1000" width="689.453" xmlns="http://www.w3.org/2000/svg"><path d="M0 879.952v-392.84q0 -14.152 10.004 -23.668t24.644 -9.516h448.96v-148.84q0 -63.44 -41.968 -107.848 -41.48 -42.456 -97.112 -42.456t-97.112 42.456q-41.48 43.92 -41.48 107.848v38.064h-126.392v-38.064q0 -54.656 20.252 -104.432t56.364 -87.84q35.624 -38.064 84.668 -59.536t103.7 -21.472 103.944 21.472 84.912 59.536q36.112 38.064 56.12 87.84t20.008 104.432v148.84h45.384q14.64 0 24.644 9.516t10.004 23.668v392.84q0 12.688 -8.052 19.032t-26.596 14.152q-9.76 4.392 -34.648 12.2t-66.124 18.3 -97.844 17.812 -111.752 7.32q-154.696 0 -309.88 -55.632 -16.592 -5.368 -25.62 -12.932t-9.028 -20.252zm186.904 -170.556q0 11.956 8.296 20.252l85.4 83.448q8.296 8.296 20.496 8.296 13.176 0 20.496 -8.296l175.192 -171.288q8.784 -8.784 8.784 -20.74t-8.784 -20.74q-8.296 -8.296 -20.496 -8.296t-20.496 8.296l-154.696 151.28 -63.928 -62.464q-8.784 -8.784 -20.984 -8.784t-20.984 8.784q-8.296 8.296 -8.296 20.252z"/></svg>