<svg height="1000px" width="892.578125px" xmlns="http://www.w3.org/2000/svg">
  <g>
    <path d="M10.7421875 474.853515625c-15.299 -57.78 -15.299 -115.479 0 -173.096c15.299 -57.617 44.434 -107.747 87.402 -150.39c32.227 -32.227 68.929 -56.722 110.108 -73.487c41.178 -16.764 83.74 -25.146 127.685 -25.146c43.62 0 86.019 8.382 127.198 25.146c41.178 16.765 77.88 41.26 110.107 73.487c34.505 34.505 60.059 74.137 76.66 118.896c16.602 44.759 23.6 90.414 20.996 136.963c-2.604 46.55 -14.485 90.658 -35.644 132.324c18.88 5.534 35.156 15.137 48.828 28.809c0 0 174.316 173.828 174.316 173.828c23.112 23.437 34.668 51.676 34.668 84.717c0 33.04 -11.556 61.279 -34.668 84.717c-23.437 23.437 -51.758 35.156 -84.961 35.156c-33.203 0 -61.523 -11.719 -84.961 -35.156c0 0 -173.339 -173.34 -173.339 -173.34c-14.323 -13.672 -24.252 -30.274 -29.786 -49.805c-46.549 23.763 -96.354 35.645 -149.414 35.645c-43.945 0 -86.507 -8.301 -127.685 -24.903c-41.179 -16.601 -77.881 -41.015 -110.108 -73.242c-42.968 -42.969 -72.103 -93.343 -87.402 -151.123c0 0 0 0 0 0m101.563 -85.938c-0.001 62.012 21.647 114.665 64.941 157.959c43.62 43.62 96.517 65.43 158.691 65.43c61.524 0 114.095 -21.81 157.715 -65.43c43.62 -43.619 65.43 -96.354 65.43 -158.203c0 -61.849 -21.81 -114.583 -65.43 -158.203c-44.271 -43.62 -96.842 -65.429 -157.715 -65.429c-61.523 0 -114.42 21.809 -158.691 65.429c-43.294 43.62 -64.941 96.436 -64.941 158.448c0 0 0 0 0 0" />
  </g>
</svg>