<svg height="1000px" width="1045.8984375px" xmlns="http://www.w3.org/2000/svg">
  <g>
    <path d="M11.23046875 473.388671875c-15.951 -60.384 -15.951 -120.768 0 -181.152c15.951 -60.384 46.549 -113.037 91.797 -157.959c33.854 -33.854 72.347 -59.489 115.478 -76.905c43.132 -17.415 87.647 -26.123 133.545 -26.123c46.224 0 90.821 8.708 133.789 26.123c42.969 17.416 81.381 43.051 115.235 76.905c36.133 35.807 62.988 77.229 80.566 124.267c17.578 47.038 24.984 94.89 22.217 143.555c-2.767 48.665 -15.218 94.971 -37.354 138.916c20.834 6.836 38.086 17.09 51.758 30.762c0 0 181.641 182.129 181.641 182.129c24.739 24.739 37.109 54.362 37.109 88.867c0 34.505 -12.37 64.127 -37.109 88.867c-24.74 24.74 -54.199 37.109 -88.379 37.109c-34.831 0 -64.616 -12.369 -89.355 -37.109c0 0 -182.129 -181.641 -182.129 -181.641c-14.974 -14.974 -25.228 -32.389 -30.762 -52.246c-50.456 24.74 -102.865 37.11 -157.227 37.11c-45.898 0 -90.413 -8.708 -133.545 -26.123c-43.131 -17.416 -81.624 -43.051 -115.478 -76.905c-45.248 -45.247 -75.846 -98.063 -91.797 -158.447c0 0 0 0 0 0m106.934 -90.576c0 65.104 22.786 120.443 68.359 166.015c22.135 22.136 47.445 39.144 75.928 51.026c28.483 11.881 58.349 17.822 89.599 17.822c31.25 0 61.28 -5.941 90.088 -17.822c28.809 -11.882 54.118 -28.89 75.928 -51.026c22.135 -21.809 39.144 -47.037 51.025 -75.683c11.882 -28.646 17.823 -58.594 17.823 -89.844c0 -65.104 -22.95 -120.605 -68.848 -166.504c-21.81 -21.81 -47.119 -38.655 -75.928 -50.537c-28.808 -11.881 -58.838 -17.822 -90.088 -17.822c-64.778 0 -119.954 22.786 -165.527 68.359c-45.573 45.573 -68.359 100.912 -68.359 166.016c0 0 0 0 0 0m624.511 -200.195c0 -8.139 2.849 -15.056 8.545 -20.752c5.697 -5.697 12.614 -8.545 20.752 -8.545c0 0 244.629 0 244.629 0c8.138 0 15.137 2.848 20.996 8.545c5.86 5.696 8.789 12.613 8.789 20.752c0 8.138 -2.929 15.055 -8.789 20.751c-5.859 5.697 -12.858 8.545 -20.996 8.545c0 0 -244.629 0 -244.629 0c-7.812 0 -14.811 -2.767 -20.996 -8.3c-5.534 -6.185 -8.301 -13.184 -8.301 -20.996c0 0 0 0 0 0" />
  </g>
</svg>