<svg height="1000px" width="1113.28125px" xmlns="http://www.w3.org/2000/svg">
  <g>
    <path d="M0 822.265625c0 0 0 -644.531 0 -644.531c0 -5.209 0.814 -11.393 2.441 -18.555c0 0 459.961 460.938 459.961 460.938c25.716 25.716 57.292 38.574 94.727 38.574c36.784 0 68.034 -12.858 93.75 -38.574c0 0 460.937 -460.938 460.937 -460.938c0.977 6.51 1.465 12.695 1.465 18.555c0 0 0 644.531 0 644.531c0 24.089 -8.545 44.759 -25.635 62.012c-17.089 17.252 -37.679 25.879 -61.767 25.879c0 0 -937.5 0 -937.5 0c-24.089 0 -44.841 -8.627 -62.256 -25.879c-17.415 -17.253 -26.123 -37.923 -26.123 -62.012c0 0 0 0 0 0m62.988 -728.516c8.464 -2.604 16.927 -3.906 25.391 -3.906c0 0 937.5 0 937.5 0c7.812 0 15.95 1.302 24.414 3.906c0 0 -463.379 462.891 -463.379 462.891c-8.138 8.138 -18.229 12.207 -30.273 12.207c-12.045 0 -22.136 -4.069 -30.274 -12.207c0 0 -463.379 -462.891 -463.379 -462.891" />
  </g>
</svg>