<svg height="1000" width="753.906" xmlns="http://www.w3.org/2000/svg"><path d="M0 585.2q0 -59.048 22.936 -112.728t61.976 -92.72 92.72 -61.976 112.728 -22.936q81.008 0 150.792 41.968l102.968 -103.456h-47.336q-22.936 0 -39.284 -16.104t-16.348 -39.04 16.348 -39.04 39.284 -16.104h201.544q22.936 0 39.04 16.104t16.104 39.04v201.056q0 22.936 -16.104 39.284t-39.04 16.348 -39.284 -16.348 -16.348 -39.284v-47.824l-103.456 103.456q42.456 69.296 42.456 150.304 0 79.056 -39.04 146.156t-106.14 106.384 -146.156 39.284q-78.568 0 -145.668 -39.284t-105.896 -106.384 -38.796 -146.156zm139.08 0q0 62.464 44.408 107.36t106.872 44.896q62.952 0 107.604 -44.652t44.652 -107.604 -44.652 -107.604 -107.604 -44.652q-62.464 0 -106.872 44.896t-44.408 107.36z"/></svg>