<svg height="1000" width="937.5" xmlns="http://www.w3.org/2000/svg"><path d="M0 500.288q0-95.648 37.088-182.268t99.796-149.328 149.572-99.796 182.024-37.088 182.024 37.088 149.572 99.796 99.796 149.328 37.088 182.268q0 95.16-37.088 182.024t-99.796 149.572-149.572 99.796-182.024 37.088-182.024-37.088-149.572-99.796-99.796-149.572-37.088-182.024zm205.448-30.744q0 15.616 11.712 26.596t28.304 10.98h62.952l171.288 257.176 67.832-391.376h84.912q17.08 0 29.28-11.468t12.2-27.084-12.2-27.084-29.28-11.468h-152.744l-44.896 260.104-81.984-124.44h-107.36q-16.592 0-28.304 11.224t-11.712 26.84z"/></svg>