<svg height="1000" width="937.5" xmlns="http://www.w3.org/2000/svg"><path d="M0 500.288q0 -95.648 37.088 -182.268t99.796 -149.328 149.328 -99.796 182.268 -37.088q95.16 0 182.024 37.088t149.572 99.796 99.796 149.328 37.088 182.268q0 95.16 -37.088 182.024t-99.796 149.572 -149.572 99.796 -182.024 37.088q-95.648 0 -182.268 -37.088t-149.328 -99.796 -99.796 -149.572 -37.088 -182.024zm88.328 0q0 77.104 30.012 147.62t81.008 121.512 121.512 81.252 147.62 30.256 147.864 -30.256 121.756 -81.252 81.252 -121.512 30.256 -147.62 -30.256 -147.62 -81.252 -121.512 -121.756 -81.252 -147.864 -30.256 -147.62 30.256 -121.512 81.252 -81.008 121.512 -30.012 147.62zm117.12 -30.744q0 -15.616 11.712 -26.84t28.304 -11.224h107.36l81.496 124.44 45.384 -260.104h152.744q17.08 0 29.28 11.468t12.2 27.084 -12.2 27.084 -29.28 11.468h-84.912l-67.832 391.376 -171.288 -257.176h-62.952q-16.592 0 -28.304 -10.98t-11.712 -26.596z"/></svg>