<svg height="1000px" width="937.5px" xmlns="http://www.w3.org/2000/svg">
  <g>
    <path d="M0 500c0 -63.802 12.37 -124.593 37.109 -182.373c24.74 -57.78 58.024 -107.585 99.854 -149.414c41.829 -41.83 91.634 -75.114 149.414 -99.854c57.78 -24.739 118.571 -37.109 182.373 -37.109c63.477 0 124.186 12.37 182.129 37.109c57.943 24.74 107.829 58.024 149.658 99.854c41.83 41.829 75.114 91.634 99.854 149.414c24.739 57.78 37.109 118.571 37.109 182.373c0 63.477 -12.37 124.186 -37.109 182.129c-24.74 57.943 -58.024 107.829 -99.854 149.658c-41.829 41.83 -91.715 75.114 -149.658 99.854c-57.943 24.739 -118.652 37.109 -182.129 37.109c-63.802 0 -124.593 -12.37 -182.373 -37.109c-57.78 -24.74 -107.585 -58.024 -149.414 -99.854c-41.83 -41.829 -75.114 -91.715 -99.854 -149.658c-24.739 -57.943 -37.109 -118.652 -37.109 -182.129c0 0 0 0 0 0m88.379 0c0 51.432 10.01 100.667 30.029 147.705c20.02 47.038 47.038 87.565 81.055 121.582c34.017 34.017 74.544 61.117 121.582 81.299c47.038 20.182 96.273 30.273 147.705 30.273c51.432 0 100.749 -10.091 147.949 -30.273c47.201 -20.182 87.809 -47.282 121.826 -81.299c34.017 -34.017 61.117 -74.544 81.299 -121.582c20.183 -47.038 30.274 -96.273 30.274 -147.705c0 -51.432 -10.091 -100.667 -30.274 -147.705c-20.182 -47.038 -47.282 -87.565 -81.299 -121.582c-34.017 -34.017 -74.625 -61.117 -121.826 -81.299c-47.2 -20.182 -96.517 -30.273 -147.949 -30.273c-51.432 0 -100.667 10.091 -147.705 30.273c-47.038 20.182 -87.565 47.282 -121.582 81.299c-34.017 34.017 -61.035 74.544 -81.055 121.582c-20.019 47.038 -30.029 96.273 -30.029 147.705c0 0 0 0 0 0m117.187 -30.762c0 -10.416 3.907 -19.368 11.719 -26.855c7.813 -7.487 17.253 -11.231 28.32 -11.231c0 0 107.422 0 107.422 0c0 0 81.543 124.512 81.543 124.512c0 0 45.41 -260.254 45.41 -260.254c0 0 152.833 0 152.833 0c11.393 0 21.158 3.825 29.296 11.475c8.138 7.65 12.207 16.683 12.207 27.099c0 10.417 -4.069 19.45 -12.207 27.1c-8.138 7.65 -17.903 11.475 -29.296 11.475c0 0 -84.961 0 -84.961 0c0 0 -67.872 391.601 -67.872 391.601c0 0 -171.386 -257.324 -171.386 -257.324c0 0 -62.989 0 -62.989 0c-11.067 0 -20.507 -3.662 -28.32 -10.986c-7.812 -7.325 -11.719 -16.195 -11.719 -26.612c0 0 0 0 0 0" />
  </g>
</svg>