<svg height="1000px" width="937.5px" xmlns="http://www.w3.org/2000/svg">
  <g>
    <path d="M0 377.44140625c0 -20.833 7.975 -38.656 23.926 -53.467c15.95 -14.811 34.993 -22.217 57.129 -22.217c0 0 214.843 0 214.843 0c0 0 164.063 249.024 164.063 249.024c0 0 89.355 -519.531 89.355 -519.531c0 0 306.153 0 306.153 0c22.786 0 42.155 7.487 58.105 22.461c15.951 14.973 23.926 33.04 23.926 54.199c0 21.159 -7.975 39.225 -23.926 54.199c-15.95 14.974 -35.319 22.461 -58.105 22.461c0 0 -170.41 0 -170.41 0c0 0 -135.743 784.18 -135.743 784.18c0 0 -342.773 -515.625 -342.773 -515.625c0 0 -125.488 0 -125.488 0c-22.136 0 -41.179 -7.406 -57.129 -22.217c-15.951 -14.811 -23.926 -32.634 -23.926 -53.467c0 0 0 0 0 0" />
  </g>
</svg>