<svg height="1000px" width="937.5px" xmlns="http://www.w3.org/2000/svg">
  <g>
    <path d="M0 500c0 -63.802 12.37 -124.593 37.109 -182.373c24.74 -57.78 58.024 -107.585 99.854 -149.414c41.829 -41.83 91.715 -75.114 149.658 -99.854c57.943 -24.739 118.652 -37.109 182.129 -37.109c63.477 0 124.186 12.37 182.129 37.109c57.943 24.74 107.829 58.024 149.658 99.854c41.83 41.829 75.114 91.634 99.854 149.414c24.739 57.78 37.109 118.571 37.109 182.373c0 63.477 -12.37 124.186 -37.109 182.129c-24.74 57.943 -58.024 107.829 -99.854 149.658c-41.829 41.83 -91.715 75.114 -149.658 99.854c-57.943 24.739 -118.652 37.109 -182.129 37.109c-63.477 0 -124.186 -12.37 -182.129 -37.109c-57.943 -24.74 -107.829 -58.024 -149.658 -99.854c-41.83 -41.829 -75.114 -91.715 -99.854 -149.658c-24.739 -57.943 -37.109 -118.652 -37.109 -182.129c0 0 0 0 0 0m205.566 -30.762c0 10.417 3.907 19.287 11.719 26.612c7.813 7.324 17.253 10.986 28.32 10.986c0 0 62.989 0 62.989 0c0 0 171.386 257.324 171.386 257.324c0 0 67.872 -391.601 67.872 -391.601c0 0 84.961 0 84.961 0c11.393 0 21.158 -3.825 29.296 -11.475c8.138 -7.65 12.207 -16.683 12.207 -27.1c0 -10.416 -4.069 -19.449 -12.207 -27.099c-8.138 -7.65 -17.903 -11.475 -29.297 -11.475c0 0 -152.832 0 -152.832 0c0 0 -44.921 260.254 -44.921 260.254c0 0 -82.032 -124.512 -82.032 -124.512c0 0 -107.422 0 -107.422 0c-11.067 0 -20.507 3.744 -28.32 11.231c-7.812 7.487 -11.719 16.439 -11.719 26.855c0 0 0 0 0 0" />
  </g>
</svg>