<svg height="1000px" width="922.8515625px" xmlns="http://www.w3.org/2000/svg">
  <g>
    <path d="M0 705.810546875c0 -20.996 7.65 -39.144 22.949 -54.443c0 0 589.844 -590.332 589.844 -590.332c15.299 -15.3 33.447 -22.95 54.443 -22.95c20.996 0 39.144 7.487 54.444 22.461c0 0 179.687 180.176 179.687 180.176c12.37 12.37 19.531 27.344 21.485 44.922c1.953 17.578 -1.465 33.691 -10.254 48.34c0 0 -95.703 -95.215 -95.703 -95.215c0 0 -41.016 41.016 -41.016 41.016c0 0 97.656 97.168 97.656 97.168c0 0 -41.504 41.503 -41.504 41.503c0 0 -97.656 -97.167 -97.656 -97.167c0 0 -40.527 40.527 -40.527 40.527c0 0 96.679 97.656 96.679 97.656c0 0 -41.015 41.504 -41.015 41.504c0 0 -97.168 -97.656 -97.168 -97.656c0 0 -41.504 41.015 -41.504 41.015c0 0 97.656 97.168 97.656 97.168c0 0 -41.016 41.504 -41.016 41.504c0 0 -97.167 -97.656 -97.167 -97.656c0 0 -41.504 41.016 -41.504 41.016c0 0 97.168 97.656 97.168 97.656c0 0 -40.528 41.016 -40.528 41.016c0 0 -97.656 -97.168 -97.656 -97.168c0 0 -41.504 41.503 -41.504 41.503c0 0 97.656 96.68 97.656 96.68c0 0 -39.062 39.063 -39.062 39.063c0 0 -97.656 -96.68 -97.656 -96.68c0 0 -40.528 40.527 -40.528 40.527c0 0 97.168 97.657 97.168 97.657c0 0 -41.504 40.527 -41.504 40.527c0 0 -97.168 -96.68 -97.168 -96.68c0 0 -41.015 41.016 -41.015 41.016c0 0 97.656 97.168 97.656 97.168c0 0 -41.504 41.504 -41.504 41.504c0 0 -97.168 -97.657 -97.168 -97.657c0 0 -41.016 41.016 -41.016 41.016c0 0 95.704 96.191 95.704 96.191c-14.974 9.766 -31.413 13.835 -49.317 12.208c-17.903 -1.628 -33.366 -8.952 -46.387 -21.973c0 0 -179.687 -179.688 -179.687 -179.688c-14.974 -15.299 -22.461 -33.447 -22.461 -54.443c0 0 0 0 0 0" />
  </g>
</svg>