<svg height="1000" width="1073.242" xmlns="http://www.w3.org/2000/svg"><path d="M67.832 788.208q0 29.768 21.472 50.996t50.752 21.228h793q29.768 0 50.752 -21.228t20.984 -50.996 -20.984 -50.752 -50.752 -20.984h-793q-29.28 0 -50.752 20.984t-21.472 50.752zm0 -287.92q0 29.768 21.472 50.752t50.752 20.984h793q29.768 0 50.752 -20.984t20.984 -50.752 -20.984 -50.996 -50.752 -21.228h-793q-29.28 0 -50.752 21.228t-21.472 50.996zm0 -288.408q0 29.768 21.472 50.752t50.752 20.984h793q29.768 0 50.752 -20.984t20.984 -50.752 -20.984 -50.996 -50.752 -21.228h-793q-29.28 0 -50.752 21.228t-21.472 50.996z"/></svg>