<svg height="1000px" width="1054.6875px" xmlns="http://www.w3.org/2000/svg">
  <g>
    <path d="M0 445.80078125c0 -44.922 8.87 -88.298 26.611 -130.127c17.741 -41.829 42.888 -79.753 75.44 -113.769c32.552 -34.017 70.394 -63.721 113.525 -89.112c43.132 -25.39 91.553 -45.084 145.264 -59.082c53.711 -13.997 109.212 -20.996 166.504 -20.996c57.291 0 112.793 6.999 166.504 20.996c53.711 13.998 102.132 33.692 145.263 59.082c43.132 25.391 80.974 55.095 113.526 89.112c32.552 34.016 57.698 71.94 75.439 113.769c17.741 41.829 26.611 85.205 26.611 130.127c0 55.99 -13.916 109.375 -41.748 160.156c-27.832 50.782 -65.266 94.564 -112.304 131.348c-47.038 36.784 -103.109 66.081 -168.213 87.891c-65.104 21.809 -133.464 32.714 -205.078 32.714c-69.987 0 -137.207 -10.416 -201.66 -31.25c0 0 -120.118 84.961 -120.118 84.961c-44.921 28.321 -76.497 36.54 -94.726 24.659c-18.229 -11.882 -22.298 -45.329 -12.207 -100.342c0 0 24.902 -125 24.902 -125c-39.388 -36.459 -69.824 -77.311 -91.308 -122.559c-21.485 -45.247 -32.227 -92.773 -32.227 -142.578c0 0 0 0 0 0" />
  </g>
</svg>