<svg height="1000" width="937.5" xmlns="http://www.w3.org/2000/svg"><path d="M0 500.288q0 -95.16 37.088 -182.024t99.796 -149.572 149.572 -99.796 182.024 -37.088 182.024 37.088 149.572 99.796 99.796 149.572 37.088 182.024 -37.088 181.78 -99.796 149.572 -149.572 100.04 -182.024 37.088 -182.024 -37.088 -149.572 -100.04 -99.796 -149.572 -37.088 -181.78zm162.992 -45.872q0 23.912 17.08 40.992t40.992 17.08h67.344v206.424l307.44 -206.424h120.048q23.912 0 40.992 -17.08t17.08 -40.992 -17.08 -41.236 -40.992 -17.324h-156.16l-155.184 104.92v-104.92h-183.488q-23.912 0 -40.992 17.324t-17.08 41.236z"/></svg>