<svg height="1000px" width="1142.08984375px" xmlns="http://www.w3.org/2000/svg">
  <g>
    <path d="M0 312.5c0 -28.971 10.661 -53.792 31.982 -74.463c21.322 -20.67 46.957 -31.006 76.905 -31.006c0 0 342.773 0 342.773 0c0 0 0 189.453 0 189.453c0 0 290.527 -189.453 290.527 -189.453c0 0 291.504 0 291.504 0c29.948 0 55.502 10.336 76.661 31.006c21.158 20.671 31.738 45.492 31.738 74.463c0 29.297 -10.58 54.281 -31.738 74.951c-21.159 20.671 -46.713 31.006 -76.661 31.006c0 0 -225.586 0 -225.586 0c0 0 -573.73 374.512 -573.73 374.512c0 0 0 -374.512 0 -374.512c0 0 -125.488 0 -125.488 0c-29.948 0 -55.583 -10.335 -76.905 -31.006c-21.321 -20.67 -31.982 -45.654 -31.982 -74.951c0 0 0 0 0 0" />
  </g>
</svg>