<svg height="1000px" width="937.5px" xmlns="http://www.w3.org/2000/svg">
  <g>
    <path d="M0 500c0 -63.477 12.37 -124.186 37.109 -182.129c24.74 -57.943 58.024 -107.829 99.854 -149.658c41.829 -41.83 91.715 -75.114 149.658 -99.854c57.943 -24.739 118.652 -37.109 182.129 -37.109c63.477 0 124.186 12.37 182.129 37.109c57.943 24.74 107.829 58.024 149.658 99.854c41.83 41.829 75.114 91.715 99.854 149.658c24.739 57.943 37.109 118.652 37.109 182.129c0 63.477 -12.37 124.105 -37.109 181.885c-24.74 57.78 -58.024 107.666 -99.854 149.658c-41.829 41.992 -91.715 75.358 -149.658 100.098c-57.943 24.739 -118.652 37.109 -182.129 37.109c-63.477 0 -124.186 -12.37 -182.129 -37.109c-57.943 -24.74 -107.829 -58.106 -149.658 -100.098c-41.83 -41.992 -75.114 -91.878 -99.854 -149.658c-24.739 -57.78 -37.109 -118.408 -37.109 -181.885c0 0 0 0 0 0m163.086 -45.898c0 15.95 5.697 29.622 17.09 41.015c11.393 11.393 25.065 17.09 41.015 17.09c0 0 67.383 0 67.383 0c0 0 0 206.543 0 206.543c0 0 307.617 -206.543 307.617 -206.543c0 0 120.118 0 120.118 0c15.95 0 29.622 -5.697 41.015 -17.09c11.393 -11.393 17.09 -25.065 17.09 -41.015c0 -15.951 -5.697 -29.704 -17.09 -41.26c-11.393 -11.556 -25.065 -17.334 -41.015 -17.334c0 0 -156.25 0 -156.25 0c0 0 -155.274 104.98 -155.274 104.98c0 0 0 -104.98 0 -104.98c0 0 -183.594 0 -183.594 0c-15.95 0 -29.622 5.778 -41.015 17.334c-11.393 11.556 -17.09 25.309 -17.09 41.26c0 0 0 0 0 0" />
  </g>
</svg>