<svg height="1000" width="881.836" xmlns="http://www.w3.org/2000/svg"><path d="M0 119.16q0-18.056 12.688-30.744 12.688-12.2 31.232-12.2t31.232 12.2l793.976 782.752q12.688 12.2 12.688 30.256t-12.688 30.256q-12.2 12.688-30.744 12.688t-31.232-12.688l-794.464-781.776q-12.688-12.688-12.688-30.744zm118.584 436.76v-105.896q0-18.056 12.932-30.744t31.476-12.688q18.056 0 30.988 12.688t12.932 30.744v105.896q0 88.816 64.172 152.012t154.452 63.196q59.048 0 107.848-27.816l63.44 62.952q-56.608 37.088-124.928 47.824v42.456h136.64q18.056 0 30.988 12.688t12.932 30.256q0 18.056-12.932 30.744t-30.988 12.688h-361.608q-18.056 0-30.988-12.688t-12.932-30.744q0-17.568 12.932-30.256t30.988-12.688h136.64v-41.968q-73.688-9.76-134.444-51.728t-95.648-107.116-34.892-139.812zm144.448-4.88v-73.2l224.48 220.576q-30.744 12.688-61.976 12.688-67.344 0-114.924-46.848t-47.58-113.216zm0-358.68v-15.128q0-66.368 47.58-113.216t114.924-46.848 114.924 46.848 47.58 113.216v335.256zm381.128 375.272q0-1.952.244-5.856t.244-5.856v-105.896q0-18.056 12.688-30.744t30.744-12.688q18.544 0 31.476 12.688t12.932 30.744v105.896q0 42.456-13.176 85.888z"/></svg>