<svg height="1000px" width="937.5px" xmlns="http://www.w3.org/2000/svg">
  <g>
    <path d="M0 880.859375c0 0 0 -761.719 0 -761.719c0 -24.088 8.708 -44.759 26.123 -62.011c17.415 -17.253 38.167 -25.879 62.256 -25.879c0 0 117.187 0 117.187 0c0 0 0 175.781 0 175.781c0 0 527.344 0 527.344 0c0 0 0 -175.781 0 -175.781c0 0 117.188 0 117.188 0c24.088 0 44.677 8.626 61.767 25.879c17.09 17.252 25.635 37.923 25.635 62.011c0 0 0 761.719 0 761.719c0 24.089 -8.545 44.759 -25.635 62.012c-17.09 17.252 -37.679 25.879 -61.767 25.879c0 0 -117.188 0 -117.188 0c0 0 0 -175.782 0 -175.782c0 0 -527.344 0 -527.344 0c0 0 0 175.782 0 175.782c0 0 -117.187 0 -117.187 0c-24.089 0 -44.841 -8.627 -62.256 -25.879c-17.415 -17.253 -26.123 -37.923 -26.123 -62.012c0 0 0 0 0 0m73.73 -43.945c0 0 0 58.593 0 58.593c0 0 58.594 0 58.594 0c0 0 0 -58.593 0 -58.593c0 0 -58.594 0 -58.594 0c0 0 0 0 0 0m0 -88.379c0 0 58.594 0 58.594 0c0 0 0 -58.594 0 -58.594c0 0 -58.594 0 -58.594 0c0 0 0 58.594 0 58.594c0 0 0 0 0 0m0 -145.996c0 0 58.594 0 58.594 0c0 0 0 -58.594 0 -58.594c0 0 -58.594 0 -58.594 0c0 0 0 58.594 0 58.594c0 0 0 0 0 0m0 -146.973c0 0 58.594 0 58.594 0c0 0 0 -58.594 0 -58.594c0 0 -58.594 0 -58.594 0c0 0 0 58.594 0 58.594c0 0 0 0 0 0m0 -145.996c0 0 58.594 0 58.594 0c0 0 0 -58.594 0 -58.594c0 0 -58.594 0 -58.594 0c0 0 0 58.594 0 58.594c0 0 0 0 0 0m0 -146.973c0 0 58.594 0 58.594 0c0 0 0 -58.593 0 -58.593c0 0 -58.594 0 -58.594 0c0 0 0 58.593 0 58.593c0 0 0 0 0 0m131.836 483.887c0 0 527.344 0 527.344 0c0 0 0 -292.969 0 -292.969c0 0 -527.344 0 -527.344 0c0 0 0 292.969 0 292.969c0 0 0 0 0 0m599.61 190.43c0 0 0 58.593 0 58.593c0 0 58.594 0 58.594 0c0 0 0 -58.593 0 -58.593c0 0 -58.594 0 -58.594 0c0 0 0 0 0 0m0 -88.379c0 0 58.594 0 58.594 0c0 0 0 -58.594 0 -58.594c0 0 -58.594 0 -58.594 0c0 0 0 58.594 0 58.594c0 0 0 0 0 0m0 -145.996c0 0 58.594 0 58.594 0c0 0 0 -58.594 0 -58.594c0 0 -58.594 0 -58.594 0c0 0 0 58.594 0 58.594c0 0 0 0 0 0m0 -146.973c0 0 58.594 0 58.594 0c0 0 0 -58.594 0 -58.594c0 0 -58.594 0 -58.594 0c0 0 0 58.594 0 58.594c0 0 0 0 0 0m0 -145.996c0 0 58.594 0 58.594 0c0 0 0 -58.594 0 -58.594c0 0 -58.594 0 -58.594 0c0 0 0 58.594 0 58.594c0 0 0 0 0 0m0 -146.973c0 0 58.594 0 58.594 0c0 0 0 -58.593 0 -58.593c0 0 -58.594 0 -58.594 0c0 0 0 58.593 0 58.593c0 0 0 0 0 0" />
  </g>
</svg>