<svg height="1000" width="937.5" xmlns="http://www.w3.org/2000/svg"><path d="M0 880.928v-761.28q0-36.112 26.108-61.976t62.22-25.864h117.12v175.68h527.04v-175.68h117.12q36.112 0 61.732 25.864t25.62 61.976v761.28q0 36.112-25.62 61.976t-61.732 25.864h-117.12v-175.68h-527.04v175.68h-117.12q-36.112 0-62.22-25.864t-26.108-61.976zm73.688-43.92v58.56h58.56v-58.56h-58.56zm0-88.328h58.56v-58.56h-58.56v58.56zm0-145.912h58.56v-58.56h-58.56v58.56zm0-146.888h58.56v-58.56h-58.56v58.56zm0-145.912h58.56v-58.56h-58.56v58.56zm0-146.888h58.56v-58.56h-58.56v58.56zm131.76 483.608h527.04v-292.8h-527.04v292.8zm599.264 190.32v58.56h58.56v-58.56h-58.56zm0-88.328h58.56v-58.56h-58.56v58.56zm0-145.912h58.56v-58.56h-58.56v58.56zm0-146.888h58.56v-58.56h-58.56v58.56zm0-145.912h58.56v-58.56h-58.56v58.56zm0-146.888h58.56v-58.56h-58.56v58.56z"/></svg>