<svg height="1000px" width="881.8359375px" xmlns="http://www.w3.org/2000/svg">
  <g>
    <path d="M0 118.65234375c0 -12.044 4.232 -22.298 12.695 -30.762c8.464 -8.138 18.881 -12.207 31.25 -12.207c12.37 0 22.787 4.069 31.25 12.207c0 0 794.434 783.203 794.434 783.203c8.463 8.138 12.695 18.23 12.695 30.274c0 12.044 -4.232 22.135 -12.695 30.273c-8.138 8.464 -18.392 12.696 -30.762 12.696c-12.37 0 -22.786 -4.232 -31.25 -12.696c0 0 -794.922 -782.226 -794.922 -782.226c-8.463 -8.464 -12.695 -18.718 -12.695 -30.762c0 0 0 0 0 0m118.652 437.012c0 0 0 -105.957 0 -105.957c0 -12.045 4.313 -22.298 12.94 -30.762c8.626 -8.464 19.124 -12.695 31.494 -12.695c12.044 0 22.379 4.231 31.006 12.695c8.626 8.464 12.939 18.717 12.939 30.762c0 0 0 105.957 0 105.957c0 59.245 21.403 109.944 64.209 152.099c42.806 42.155 94.32 63.233 154.541 63.233c39.388 0 75.358 -9.278 107.91 -27.832c0 0 63.477 62.988 63.477 62.988c-37.76 24.74 -79.427 40.69 -125 47.852c0 0 0 42.48 0 42.48c0 0 136.719 0 136.719 0c12.044 0 22.379 4.232 31.006 12.695c8.626 8.464 12.939 18.555 12.939 30.274c0 12.044 -4.313 22.298 -12.939 30.761c-8.627 8.464 -18.962 12.696 -31.006 12.696c0 0 -361.817 0 -361.817 0c-12.044 0 -22.379 -4.232 -31.006 -12.696c-8.626 -8.463 -12.939 -18.717 -12.939 -30.761c0 -11.719 4.313 -21.81 12.939 -30.274c8.627 -8.463 18.962 -12.695 31.006 -12.695c0 0 136.719 0 136.719 0c0 0 0 -41.992 0 -41.992c-49.154 -6.511 -93.994 -23.763 -134.521 -51.758c-40.528 -27.995 -72.429 -63.721 -95.704 -107.178c-23.274 -43.457 -34.912 -90.088 -34.912 -139.892c0 0 0 0 0 0m144.532 -4.883c0 0 0 -73.242 0 -73.242c0 0 224.609 220.703 224.609 220.703c-20.508 8.463 -41.178 12.695 -62.012 12.695c-44.922 0 -83.252 -15.625 -114.99 -46.875c-31.738 -31.25 -47.607 -69.01 -47.607 -113.281c0 0 0 0 0 0m0 -358.887c0 0 0 -15.137 0 -15.137c0 -44.27 15.869 -82.031 47.607 -113.281c31.738 -31.25 70.068 -46.875 114.99 -46.875c44.922 0 83.252 15.625 114.99 46.875c31.739 31.25 47.608 69.011 47.608 113.281c0 0 0 335.45 0 335.45c0 0 -325.195 -320.313 -325.195 -320.313m381.347 375.488c0 -1.302 0.082 -3.255 0.244 -5.859c0.163 -2.604 0.245 -4.557 0.245 -5.859c0 0 0 -105.957 0 -105.957c0 -12.045 4.231 -22.298 12.695 -30.762c8.463 -8.464 18.717 -12.695 30.762 -12.695c12.369 0 22.867 4.231 31.494 12.695c8.626 8.464 12.939 18.717 12.939 30.762c0 0 0 105.957 0 105.957c0 28.32 -4.394 56.966 -13.183 85.937c0 0 -75.196 -74.219 -75.196 -74.219" />
  </g>
</svg>