<svg height="1000px" width="613.76953125px" xmlns="http://www.w3.org/2000/svg">
  <g>
    <path d="M0 555.6640625c0 0 0 -105.957 0 -105.957c0 -12.044 4.232 -22.298 12.695 -30.762c8.464 -8.463 18.718 -12.695 30.762 -12.695c12.044 0 22.38 4.232 31.006 12.695c8.626 8.464 12.939 18.718 12.939 30.762c0 0 0 105.957 0 105.957c0 59.245 21.485 109.945 64.453 152.1c42.969 42.155 94.727 63.232 155.274 63.232c60.221 0 111.735 -21.077 154.541 -63.232c42.806 -42.155 64.209 -92.855 64.209 -152.1c0 0 0 -105.957 0 -105.957c0 -12.044 4.313 -22.298 12.939 -30.762c8.627 -8.463 18.962 -12.695 31.006 -12.695c12.044 0 22.38 4.232 31.006 12.695c8.626 8.464 12.94 18.718 12.94 30.762c0 0 0 105.957 0 105.957c0 75.195 -24.984 140.869 -74.952 197.021c-49.967 56.153 -112.06 89.926 -186.279 101.319c0 0 0 42.48 0 42.48c0 0 136.719 0 136.719 0c12.044 0 22.461 4.232 31.25 12.696c8.789 8.463 13.183 18.554 13.183 30.273c0 12.044 -4.313 22.298 -12.939 30.762c-8.626 8.463 -19.124 12.695 -31.494 12.695c0 0 -361.328 0 -361.328 0c-12.045 0 -22.298 -4.232 -30.762 -12.695c-8.464 -8.464 -12.695 -18.718 -12.695 -30.762c0 -11.719 4.231 -21.81 12.695 -30.273c8.464 -8.464 18.717 -12.696 30.762 -12.696c0 0 137.207 0 137.207 0c0 0 0 -41.992 0 -41.992c-49.154 -6.51 -93.994 -23.763 -134.522 -51.758c-40.527 -27.994 -72.428 -63.72 -95.703 -107.177c-23.275 -43.457 -34.912 -90.088 -34.912 -139.893c0 0 0 0 0 0m144.531 -4.883c0 0 0 -374.023 0 -374.023c0 -44.271 15.869 -82.031 47.608 -113.281c31.738 -31.25 70.068 -46.875 114.99 -46.875c44.596 0 82.682 15.625 114.258 46.875c31.575 31.25 47.363 69.01 47.363 113.281c0 0 0 374.023 0 374.023c0 44.271 -15.788 82.031 -47.363 113.281c-31.576 31.25 -69.662 46.875 -114.258 46.875c-44.922 0 -83.252 -15.625 -114.99 -46.875c-31.739 -31.25 -47.608 -69.01 -47.608 -113.281c0 0 0 0 0 0" />
  </g>
</svg>