<svg height="1000" width="937.5" xmlns="http://www.w3.org/2000/svg"><path d="M0 785.768v-571.448q0 -39.04 27.816 -66.856t66.856 -27.816h558.76q39.04 0 67.1 27.816t28.06 66.856v63.928h93.696q39.04 0 66.856 27.816t27.816 66.856v412.848q0 39.04 -27.816 66.856t-66.856 27.816h-747.616q-39.04 0 -66.856 -27.816t-27.816 -66.856zm87.352 -42.944q.488 20.008 14.396 34.16t33.916 15.128h517.768q6.344 0 7.32 -6.344v-527.528q0 -20.984 -14.884 -35.624t-35.868 -14.64h-471.896q-20.984 0 -35.624 14.396t-15.128 34.892v485.56zm73.688 -69.784q0 -18.056 13.176 -30.988t31.232 -12.932h132.736q18.056 0 30.988 12.932t12.932 30.988 -12.932 30.988 -30.988 12.932h-132.736q-18.056 0 -31.232 -12.932t-13.176 -30.988zm0 -172.752q0 -18.056 13.176 -31.232t31.232 -13.176h337.696q18.056 0 30.988 12.932t12.932 31.476q0 18.056 -12.932 30.988t-30.988 12.932h-337.696q-18.056 0 -31.232 -12.932t-13.176 -30.988zm0 -173.24q0 -18.056 12.932 -30.988t31.476 -12.932h337.696q18.056 0 30.988 12.688t12.932 31.232q0 18.056 -12.932 31.232t-30.988 13.176h-337.696q-18.056 0 -31.232 -13.176t-13.176 -31.232zm587.552 416.264q.488 20.008 13.908 33.916t33.428 14.884h5.368q20.008 -.976 33.672 -15.128t13.664 -34.648v-369.416q0 -7.32 -6.344 -7.32h-93.696v377.712z"/></svg>