<svg height="1000px" width="937.5px" xmlns="http://www.w3.org/2000/svg">
  <g>
    <path d="M0 500c0 -84.635 20.833 -162.923 62.5 -234.863c41.667 -71.94 98.796 -128.907 171.387 -170.899c70.312 -41.992 148.6 -62.988 234.863 -62.988c84.635 0 163.005 20.752 235.107 62.256c72.103 41.504 129.151 98.389 171.143 170.654c41.667 71.289 62.5 149.903 62.5 235.84c0 84.635 -20.752 163.005 -62.256 235.107c-41.504 72.103 -98.389 129.151 -170.654 171.143c-72.266 41.667 -150.879 62.5 -235.84 62.5c-84.635 0 -162.923 -20.833 -234.863 -62.5c-71.94 -41.667 -128.907 -98.796 -170.899 -171.387c-41.992 -70.312 -62.988 -148.6 -62.988 -234.863c0 0 0 0 0 0m78.125 0c0 55.99 11.475 109.375 34.424 160.156c22.949 50.781 55.176 94.645 96.68 131.592c41.503 36.947 88.948 63.721 142.333 80.322c0 0 0 -103.515 0 -103.515c-20.833 3.255 -34.83 4.882 -41.992 4.882c-44.271 0 -75.521 -20.345 -93.75 -61.035c-4.883 -13.997 -12.044 -26.855 -21.484 -38.574c-0.977 -1.627 -5.371 -5.534 -13.184 -11.719c-0.651 -0.651 -6.185 -5.533 -16.601 -14.648c-5.534 -4.557 -8.301 -7.813 -8.301 -9.766c0 -4.883 5.697 -7.324 17.09 -7.324c21.159 0 39.388 10.091 54.687 30.274c0.326 0.325 2.035 2.604 5.127 6.835c3.093 4.232 5.046 6.836 5.86 7.813c0.813 0.977 2.522 3.255 5.127 6.836c2.604 3.581 4.72 6.103 6.347 7.568c1.628 1.465 3.744 3.5 6.348 6.104c2.604 2.604 5.127 4.801 7.568 6.592c2.442 1.79 5.127 3.499 8.057 5.127c9.44 5.859 20.671 8.789 33.691 8.789c17.253 0 33.855 -2.767 49.805 -8.301c7.161 -23.763 20.02 -41.83 38.574 -54.199c-69.661 -6.511 -120.28 -23.926 -151.855 -52.247c-31.576 -28.32 -47.364 -73.567 -47.364 -135.742c0 -48.828 14.812 -89.192 44.434 -121.093c-5.534 -17.253 -8.301 -34.343 -8.301 -51.27c0 -23.763 5.371 -45.898 16.114 -66.406c22.461 0 42.561 3.662 60.302 10.986c17.741 7.324 38.819 19.938 63.233 37.842c31.901 -7.487 66.243 -11.231 103.027 -11.231c32.227 0 63.477 3.418 93.75 10.254c25.065 -17.578 46.224 -29.948 63.477 -37.109c17.252 -7.161 36.784 -10.742 58.593 -10.742c11.068 20.182 16.602 42.317 16.602 66.406c0 16.276 -2.93 33.203 -8.789 50.781c29.622 32.878 44.433 73.405 44.433 121.582c0 62.175 -15.869 107.585 -47.607 136.231c-31.738 28.646 -81.95 46.061 -150.635 52.246c27.995 19.206 41.992 45.898 41.992 80.078c0 0 0 137.695 0 137.695c53.386 -16.601 100.831 -43.375 142.334 -80.322c41.504 -36.947 73.731 -80.811 96.68 -131.592c22.949 -50.781 34.424 -104.166 34.424 -160.156c0 -52.083 -10.173 -102.376 -30.518 -150.879c-20.345 -48.503 -48.095 -90.332 -83.252 -125.488c-35.481 -35.482 -77.473 -63.395 -125.976 -83.74c-48.503 -20.345 -98.796 -30.518 -150.879 -30.518c-52.083 0 -102.214 10.173 -150.391 30.518c-48.177 20.345 -90.006 48.258 -125.488 83.74c-35.482 35.156 -63.476 76.985 -83.984 125.488c-20.508 48.503 -30.762 98.796 -30.762 150.879c0 0 0 0 0 0" />
  </g>
</svg>