<svg height="1000" width="937.5" xmlns="http://www.w3.org/2000/svg"><path d="M0 500.288q0 -95.16 37.088 -182.024t99.796 -149.572 149.572 -99.796 182.024 -37.088 182.024 37.088 149.572 99.796 99.796 149.572 37.088 182.024 -37.088 182.024 -99.796 149.572 -149.572 99.796 -182.024 37.088 -182.024 -37.088 -149.572 -99.796 -99.796 -149.572 -37.088 -182.024zm176.656 31.232q0 21.96 15.128 37.576l153.232 152.744q14.152 15.616 37.576 15.616 21.96 0 37.576 -15.616l314.76 -314.76q15.616 -15.616 15.616 -37.576t-15.616 -37.088 -37.576 -15.128 -37.576 15.128l-277.184 277.184 -115.656 -115.168q-15.128 -15.616 -37.332 -15.616t-37.82 15.616q-15.128 15.128 -15.128 37.088z"/></svg>