<svg height="1000" width="1146.484" xmlns="http://www.w3.org/2000/svg"><path d="M5.612 78.412q12.444 -13.42 45.628 .244l1061.4 427q20.984 8.296 29.036 20.496t1.464 24.644 -26.108 22.692l-188.856 90.768 -131.76 233.264q-18.056 28.304 -47.092 30.988t-53.436 -21.228l-25.864 -26.352q-2.44 -2.44 -3.416 -2.928l-58.072 -59.048 -142.496 66.856q-31.72 14.152 -64.904 1.952t-48.312 -43.92l-344.528 -719.8q-15.128 -32.208 -2.684 -45.628zm202.032 132.248q-2.684 3.66 23.668 27.084l378.688 337.696q26.352 23.912 66.612 31.476t69.54 -5.124q29.768 -12.688 29.28 -35.38t-31.232 -40.748l-502.64 -300.608q-31.232 -18.056 -33.916 -14.396z"/></svg>