<svg height="1000" width="937.5" xmlns="http://www.w3.org/2000/svg"><path d="M0 500.288q0-95.16 37.088-182.024t99.796-149.572 149.572-99.796 182.024-37.088 182.024 37.088 149.572 99.796 99.796 149.572 37.088 182.024-37.088 182.024-99.796 149.572-149.572 99.796-182.024 37.088-182.024-37.088-149.572-99.796-99.796-149.572-37.088-182.024zm200.08-200.08q-6.344 6.832 1.464 22.448l171.776 358.192q7.808 15.616 24.156 21.716t31.964-.732l71.248-33.184 28.792 29.28 1.464 1.464 13.176 13.176q11.712 12.2 26.352 10.736t23.424-15.616l65.88-116.144 94.184-45.384q15.128-7.808 14.396-17.324t-16.348-15.86l-528.992-213.256q-16.592-6.344-22.936.488zm100.528 65.392q1.464-1.952 16.592 7.32l251.32 149.328q15.128 9.272 15.372 20.496t-14.396 17.568q-15.128 6.344-34.892 2.684t-33.428-15.372l-188.368-167.872q-13.664-12.2-12.2-14.152z"/></svg>