<svg height="1000" width="937.5" xmlns="http://www.w3.org/2000/svg"><path d="M0 500.288q0-95.16 37.088-182.024t99.796-149.572 149.572-99.796 182.024-37.088 182.024 37.088 149.572 99.796 99.796 149.572 37.088 182.024-37.088 182.024-99.796 149.572-149.572 99.796-182.024 37.088-182.024-37.088-149.572-99.796-99.796-149.572-37.088-182.024zm88.328 0q0 103.456 50.996 191.052t138.348 138.592 190.808 50.996 191.052-50.996 138.836-138.592 51.24-191.052q0-77.104-30.256-147.62t-81.252-121.512-121.756-81.252-147.864-30.256-147.62 30.256-121.512 81.252-81.008 121.512-30.012 147.62zm118.096-200.08q6.344-6.832 22.936-.488l528.504 213.256q10.736 3.904 14.884 9.76t.976 12.2-12.932 11.224l-94.184 45.384-65.88 116.144q-9.272 14.152-23.668 15.616t-26.596-10.736l-12.688-13.176q-1.464-1.464-1.952-1.464l-28.792-29.28-70.76 33.184q-15.616 6.832-32.208.732t-24.4-21.716l-171.776-358.192q-7.808-15.616-1.464-22.448zm101.016 65.392q-.488.976 2.44 4.636t9.272 9.516l188.368 167.872q13.664 11.712 33.428 15.372t34.404-2.684q15.128-6.344 14.884-17.568t-15.86-20.496l-250.344-149.328q-7.808-4.392-11.956-6.344t-4.636-.976z"/></svg>