<svg height="1000px" width="1146.484375px" xmlns="http://www.w3.org/2000/svg">
  <g>
    <path d="M5.615234375 77.880859375c8.301 -8.952 23.519 -8.87 45.654 0.244c0 0 1062.012 427.246 1062.012 427.246c13.997 5.534 23.682 12.37 29.053 20.508c5.371 8.138 5.859 16.357 1.465 24.658c-4.395 8.301 -13.103 15.869 -26.123 22.705c0 0 -188.965 90.821 -188.965 90.821c0 0 -131.836 233.398 -131.836 233.398c-12.045 18.88 -27.751 29.216 -47.119 31.006c-19.369 1.79 -37.191 -5.29 -53.467 -21.24c0 0 -25.879 -26.367 -25.879 -26.367c-1.628 -1.628 -2.767 -2.605 -3.418 -2.93c0 0 -58.106 -59.082 -58.106 -59.082c0 0 -142.578 66.894 -142.578 66.894c-21.158 9.44 -42.806 10.091 -64.941 1.953c-22.135 -8.138 -38.249 -22.786 -48.34 -43.945c0 0 -344.726 -720.215 -344.726 -720.215c-10.092 -21.484 -10.987 -36.702 -2.686 -45.654c0 0 0 0 0 0m202.148 132.324c-1.79 2.442 6.104 11.475 23.682 27.1c0 0 378.906 337.89 378.906 337.89c17.578 15.951 39.795 26.449 66.651 31.495c26.855 5.045 50.049 3.336 69.58 -5.127c19.857 -8.464 29.622 -20.264 29.297 -35.401c-0.326 -15.136 -10.743 -28.727 -31.25 -40.771c0 0 -502.93 -300.781 -502.93 -300.781c-20.833 -12.045 -32.145 -16.846 -33.936 -14.405c0 0 0 0 0 0" />
  </g>
</svg>