<svg height="1000px" width="937.5px" xmlns="http://www.w3.org/2000/svg">
  <g>
    <path d="M0 500c0 -63.477 12.37 -124.186 37.109 -182.129c24.74 -57.943 58.024 -107.829 99.854 -149.658c41.829 -41.83 91.715 -75.114 149.658 -99.854c57.943 -24.739 118.652 -37.109 182.129 -37.109c63.477 0 124.186 12.37 182.129 37.109c57.943 24.74 107.829 58.024 149.658 99.854c41.83 41.829 75.114 91.715 99.854 149.658c24.739 57.943 37.109 118.652 37.109 182.129c0 63.477 -12.37 124.186 -37.109 182.129c-24.74 57.943 -58.024 107.829 -99.854 149.658c-41.829 41.83 -91.715 75.114 -149.658 99.854c-57.943 24.739 -118.652 37.109 -182.129 37.109c-63.477 0 -124.186 -12.37 -182.129 -37.109c-57.943 -24.74 -107.829 -58.024 -149.658 -99.854c-41.83 -41.829 -75.114 -91.715 -99.854 -149.658c-24.739 -57.943 -37.109 -118.652 -37.109 -182.129c0 0 0 0 0 0m88.379 0c0 69.01 17.008 132.731 51.025 191.162c34.017 58.431 80.16 104.655 138.428 138.672c58.268 34.017 121.908 51.025 190.918 51.025c69.01 0 132.731 -17.008 191.162 -51.025c58.431 -34.017 104.736 -80.241 138.916 -138.672c34.18 -58.431 51.27 -122.152 51.27 -191.162c0 -51.432 -10.091 -100.667 -30.274 -147.705c-20.182 -47.038 -47.282 -87.565 -81.299 -121.582c-34.017 -34.017 -74.625 -61.117 -121.826 -81.299c-47.2 -20.182 -96.517 -30.273 -147.949 -30.273c-51.432 0 -100.667 10.091 -147.705 30.273c-47.038 20.182 -87.565 47.282 -121.582 81.299c-34.017 34.017 -61.035 74.544 -81.055 121.582c-20.019 47.038 -30.029 96.273 -30.029 147.705c0 0 0 0 0 0m118.164 -200.195c4.232 -4.558 11.881 -4.72 22.949 -0.489c0 0 528.809 213.379 528.809 213.379c7.161 2.604 12.125 5.86 14.892 9.766c2.767 3.906 3.093 7.975 0.977 12.207c-2.116 4.232 -6.429 7.975 -12.94 11.23c0 0 -94.238 45.411 -94.238 45.411c0 0 -65.918 116.211 -65.918 116.211c-6.185 9.44 -14.079 14.648 -23.681 15.625c-9.603 0.976 -18.474 -2.605 -26.612 -10.743c0 0 -12.695 -13.183 -12.695 -13.183c-0.977 -0.977 -1.628 -1.465 -1.953 -1.465c0 0 -28.809 -29.297 -28.809 -29.297c0 0 -70.801 33.203 -70.801 33.203c-10.416 4.557 -21.158 4.802 -32.226 0.733c-11.068 -4.069 -19.206 -11.312 -24.414 -21.729c0 0 -171.875 -358.398 -171.875 -358.398c-5.209 -10.417 -5.697 -17.904 -1.465 -22.461c0 0 0 0 0 0m101.074 65.429c-0.325 0.651 0.488 2.198 2.442 4.639c1.953 2.441 5.045 5.615 9.277 9.522c0 0 188.477 167.968 188.477 167.968c9.114 7.813 20.263 12.94 33.447 15.381c13.183 2.442 24.658 1.546 34.424 -2.685c10.091 -4.232 15.055 -10.092 14.892 -17.579c-0.163 -7.487 -5.452 -14.322 -15.869 -20.507c0 0 -250.488 -149.414 -250.488 -149.414c-5.209 -2.93 -9.196 -5.046 -11.963 -6.348c-2.767 -1.302 -4.313 -1.628 -4.639 -0.977c0 0 0 0 0 0" />
  </g>
</svg>