<svg height="1000px" width="937.5px" xmlns="http://www.w3.org/2000/svg">
  <g>
    <path d="M0 500c0 -63.477 12.37 -124.186 37.109 -182.129c24.74 -57.943 58.024 -107.829 99.854 -149.658c41.829 -41.83 91.715 -75.114 149.658 -99.854c57.943 -24.739 118.652 -37.109 182.129 -37.109c63.477 0 124.186 12.37 182.129 37.109c57.943 24.74 107.829 58.024 149.658 99.854c41.83 41.829 75.114 91.715 99.854 149.658c24.739 57.943 37.109 118.652 37.109 182.129c0 63.477 -12.37 124.186 -37.109 182.129c-24.74 57.943 -58.024 107.829 -99.854 149.658c-41.829 41.83 -91.715 75.114 -149.658 99.854c-57.943 24.739 -118.652 37.109 -182.129 37.109c-63.477 0 -124.186 -12.37 -182.129 -37.109c-57.943 -24.74 -107.829 -58.024 -149.658 -99.854c-41.83 -41.829 -75.114 -91.715 -99.854 -149.658c-24.739 -57.943 -37.109 -118.652 -37.109 -182.129c0 0 0 0 0 0m200.195 -200.195c-4.231 4.557 -3.743 12.044 1.465 22.461c0 0 171.875 358.398 171.875 358.398c5.208 10.417 13.265 17.66 24.17 21.729c10.905 4.069 21.566 3.824 31.983 -0.733c0 0 71.289 -33.203 71.289 -33.203c0 0 28.808 29.297 28.808 29.297c0 0 1.465 1.465 1.465 1.465c0 0 13.184 13.183 13.184 13.183c7.812 8.138 16.601 11.719 26.367 10.743c9.765 -0.977 17.578 -6.185 23.437 -15.625c0 0 65.918 -116.211 65.918 -116.211c0 0 94.239 -45.411 94.239 -45.411c10.091 -5.208 14.892 -10.986 14.404 -17.334c-0.488 -6.347 -5.941 -11.637 -16.358 -15.869c0 0 -529.296 -213.379 -529.296 -213.379c-11.068 -4.231 -18.718 -4.069 -22.95 0.489c0 0 0 0 0 0m100.586 65.429c0.977 -1.302 6.511 1.14 16.602 7.325c0 0 251.465 149.414 251.465 149.414c10.091 6.185 15.218 13.02 15.381 20.507c0.162 7.487 -4.639 13.347 -14.405 17.579c-10.091 4.231 -21.728 5.127 -34.912 2.685c-13.183 -2.441 -24.333 -7.568 -33.447 -15.381c0 0 -188.477 -167.968 -188.477 -167.968c-9.114 -8.138 -13.183 -12.859 -12.207 -14.161c0 0 0 0 0 0" />
  </g>
</svg>