<svg height="1000px" width="735.3515625px" xmlns="http://www.w3.org/2000/svg">
  <g>
    <path d="M0 845.21484375c0 0 0 -691.406 0 -691.406c0 -17.904 6.185 -33.041 18.555 -45.41c12.369 -12.37 27.506 -18.555 45.41 -18.555c0 0 126.953 0 126.953 0c17.904 0 33.04 6.185 45.41 18.555c12.37 12.369 18.555 27.506 18.555 45.41c0 0 0 691.406 0 691.406c0 17.904 -6.185 33.203 -18.555 45.898c-12.37 12.696 -27.506 19.043 -45.41 19.043c0 0 -126.953 0 -126.953 0c-17.904 0 -33.041 -6.347 -45.41 -19.043c-12.37 -12.695 -18.555 -27.994 -18.555 -45.898c0 0 0 0 0 0m479.98 0c0 0 0 -691.406 0 -691.406c0 -17.904 6.267 -33.041 18.799 -45.41c12.533 -12.37 27.588 -18.555 45.166 -18.555c0 0 127.442 0 127.442 0c17.578 0 32.633 6.185 45.166 18.555c12.532 12.369 18.799 27.506 18.799 45.41c0 0 0 691.406 0 691.406c0 17.904 -6.267 33.203 -18.799 45.898c-12.533 12.696 -27.588 19.043 -45.166 19.043c0 0 -127.442 0 -127.442 0c-17.578 0 -32.633 -6.347 -45.166 -19.043c-12.532 -12.695 -18.799 -27.994 -18.799 -45.898c0 0 0 0 0 0" />
  </g>
</svg>