<svg height="1000px" width="930.17578125px" xmlns="http://www.w3.org/2000/svg">
  <g>
    <path d="M0 968.75c0 0 59.57 -281.25 59.57 -281.25c0 0 627.93 -628.418 627.93 -628.418c13.997 -13.997 30.843 -20.996 50.537 -20.996c19.694 0 36.377 6.836 50.049 20.508c0 0 121.582 121.582 121.582 121.582c13.997 13.997 20.915 30.68 20.752 50.049c-0.163 19.368 -7.08 36.051 -20.752 50.048c0 0 -628.418 628.418 -628.418 628.418c0 0 -281.25 60.059 -281.25 60.059m67.871 -68.359c0 0 194.336 -44.922 194.336 -44.922c0 0 23.438 -24.414 23.438 -24.414c0 0 -148.926 -148.926 -148.926 -148.926c0 0 -23.926 23.926 -23.926 23.926c0 0 -44.922 194.336 -44.922 194.336" />
  </g>
</svg>