<svg height="1000px" width="691.40625px" xmlns="http://www.w3.org/2000/svg">
  <g>
    <path d="M0 376.46484375c0 -46.549 9.115 -91.309 27.344 -134.277c16.601 -40.69 41.178 -77.474 73.73 -110.352c31.576 -31.575 68.197 -55.989 109.863 -73.242c42.318 -18.229 87.077 -27.344 134.278 -27.344c48.177 0 93.099 9.115 134.765 27.344c41.342 17.253 77.963 41.667 109.864 73.242c32.552 32.552 57.291 69.336 74.218 110.352c18.23 42.968 27.344 87.728 27.344 134.277c0 46.549 -9.114 91.309 -27.344 134.277c-11.718 26.368 -23.763 48.177 -36.132 65.43c0 0 -228.516 347.168 -228.516 347.168c-14.974 22.786 -32.878 34.18 -53.711 34.18c-20.833 0 -38.9 -11.394 -54.199 -34.18c0 0 -228.027 -347.168 -228.027 -347.168c-14.974 -20.833 -27.019 -42.643 -36.133 -65.43c-18.229 -42.968 -27.344 -87.728 -27.344 -134.277c0 0 0 0 0 0m217.285 0c0 35.807 12.37 66.081 37.11 90.82c25.39 25.391 55.664 38.086 90.82 38.086c36.133 0 66.569 -12.695 91.308 -38.086c25.066 -24.414 37.598 -54.687 37.598 -90.82c0 -35.482 -12.532 -65.755 -37.598 -90.82c-24.739 -25.391 -55.175 -38.086 -91.308 -38.086c-35.156 0 -65.43 12.695 -90.82 38.086c-24.74 25.39 -37.11 55.664 -37.11 90.82c0 0 0 0 0 0" />
  </g>
</svg>