<svg height="1000px" width="658.69140625px" xmlns="http://www.w3.org/2000/svg">
  <g>
    <path d="M0 838.8671875c0 0 0 -677.734 0 -677.734c0 -25.717 7.406 -42.888 22.217 -51.514c14.811 -8.626 32.308 -6.104 52.49 7.568c0 0 564.453 349.121 564.453 349.121c13.347 9.441 20.02 20.671 20.02 33.692c0 5.859 -1.628 11.637 -4.883 17.334c-3.255 5.696 -6.511 9.847 -9.766 12.451c0 0 -5.371 3.906 -5.371 3.906c0 0 -564.453 349.61 -564.453 349.61c-20.182 13.346 -37.679 15.706 -52.49 7.08c-14.811 -8.627 -22.217 -25.798 -22.217 -51.514c0 0 0 0 0 0" />
  </g>
</svg>