<svg height="1000px" width="878.90625px" xmlns="http://www.w3.org/2000/svg">
  <g>
    <path d="M0 559.08203125c0 0 0 -119.141 0 -119.141c0 -13.671 4.801 -25.309 14.404 -34.912c9.603 -9.603 21.241 -14.404 34.912 -14.404c0 0 281.25 0 281.25 0c0 0 0 -280.762 0 -280.762c0 -13.672 4.802 -25.39 14.405 -35.156c9.603 -9.766 21.24 -14.648 34.912 -14.648c0 0 119.14 0 119.14 0c13.672 0 25.228 4.882 34.668 14.648c9.441 9.766 14.161 21.484 14.161 35.156c0 0 0 280.762 0 280.762c0 0 281.25 0 281.25 0c13.671 0 25.39 4.801 35.156 14.404c9.765 9.603 14.648 21.241 14.648 34.912c0 0 0 119.141 0 119.141c0 13.672 -4.883 25.309 -14.648 34.912c-9.766 9.603 -21.485 14.404 -35.156 14.404c0 0 -281.25 0 -281.25 0c0 0 0 282.227 0 282.227c0 13.672 -4.72 25.228 -14.161 34.668c-9.44 9.44 -20.996 14.16 -34.668 14.16c0 0 -119.14 0 -119.14 0c-13.672 0 -25.309 -4.72 -34.912 -14.16c-9.603 -9.44 -14.405 -20.996 -14.405 -34.668c0 0 0 -282.227 0 -282.227c0 0 -281.25 0 -281.25 0c-13.671 0 -25.309 -4.801 -34.912 -14.404c-9.603 -9.603 -14.404 -21.24 -14.404 -34.912c0 0 0 0 0 0" />
  </g>
</svg>