<svg height="1000" width="937.5" xmlns="http://www.w3.org/2000/svg"><path d="M0 757.952v-511.424q0 -35.136 26.108 -60.268t62.22 -25.132h58.56v-14.152q0 -35.624 25.62 -60.512t61.732 -24.888h468.48q36.112 0 61.732 24.888t25.62 60.512v20.008q0 -.976 .732 -2.684t.732 -3.172h57.096q36.112 0 62.22 25.132t26.108 60.268v511.424q0 35.136 -25.864 60.024t-62.464 24.888h-58.56v9.76q0 35.624 -25.62 60.756t-61.732 25.132h-468.48q-36.112 0 -61.732 -25.132t-25.62 -60.756v-9.76h-58.56q-36.6 0 -62.464 -24.888t-25.864 -60.024zm205.448 94.672q0 11.224 8.296 19.276t20.496 8.052h468.48q12.2 0 20.984 -8.052t8.784 -19.276v-338.672q-20.984 -11.712 -44.896 -11.712h-438.712q-22.936 0 -43.432 11.712v338.672zm0 -611.952q15.128 5.856 29.28 5.856h468.48q12.2 0 29.28 -5.368v-94.184q0 -11.224 -8.784 -19.032t-20.984 -7.808h-468.48q-12.2 0 -20.496 7.808t-8.296 19.032v93.696z"/></svg>