<svg height="1000px" width="1054.6875px" xmlns="http://www.w3.org/2000/svg">
  <g>
    <path d="M0 816.40625c0 0 0 -173.828 0 -173.828c0 0 229.492 0 229.492 0c18.229 0 35.319 -3.255 51.27 -9.766c21.159 56.315 54.036 104.818 98.633 145.508c-47.201 25.391 -97.168 38.086 -149.903 38.086c0 0 -229.492 0 -229.492 0c0 0 0 0 0 0m0 -458.984c0 0 0 -173.34 0 -173.34c0 0 229.492 0 229.492 0c42.969 0 83.985 8.382 123.047 25.146c39.063 16.765 72.673 39.226 100.83 67.383c28.158 28.158 50.619 61.768 67.383 100.83c16.764 39.063 25.146 80.078 25.146 123.047c0 39.063 13.916 72.51 41.748 100.342c27.833 27.832 61.443 41.748 100.831 41.748c0 0 84.472 0 84.472 0c0.977 0 2.279 0.081 3.906 0.244c1.628 0.163 2.93 0.244 3.907 0.244c0 0 0 -52.734 0 -52.734c0 -10.417 3.092 -17.497 9.277 -21.24c6.185 -3.744 13.509 -2.849 21.973 2.685c0 0 234.375 144.043 234.375 144.043c5.534 3.581 8.301 8.138 8.301 13.672c0 2.279 -0.652 4.639 -1.954 7.08c-1.302 2.441 -2.604 4.15 -3.906 5.127c0 0 -2.441 1.953 -2.441 1.953c0 0 -234.375 143.555 -234.375 143.555c-8.464 5.534 -15.788 6.51 -21.973 2.929c-6.185 -3.58 -9.277 -10.579 -9.277 -20.996c0 0 0 -53.711 0 -53.711c-0.977 0 -2.279 0.163 -3.907 0.489c-1.627 0.325 -2.929 0.488 -3.906 0.488c0 0 -84.472 0 -84.472 0c-42.969 0 -83.985 -8.382 -123.047 -25.146c-39.063 -16.765 -72.673 -39.226 -100.83 -67.383c-28.158 -28.158 -50.619 -61.686 -67.383 -100.586c-16.765 -38.9 -25.147 -79.834 -25.147 -122.803c0 -39.388 -13.916 -73.079 -41.748 -101.074c-27.832 -27.995 -61.442 -41.992 -100.83 -41.992c0 0 -229.492 0 -229.492 0c0 0 0 0 0 0m538.086 -135.743c45.573 -25.065 95.703 -37.597 150.391 -37.597c0 0 84.472 0 84.472 0c0.977 0 2.279 0.081 3.906 0.244c1.628 0.163 2.93 0.244 3.907 0.244c0 0 0 -53.711 0 -53.711c0 -10.417 3.092 -17.497 9.277 -21.24c6.185 -3.744 13.509 -2.848 21.973 2.685c0 0 234.375 144.532 234.375 144.532c5.534 3.906 8.301 8.463 8.301 13.672c0 2.604 -0.652 5.045 -1.954 7.324c-1.302 2.278 -2.604 3.906 -3.906 4.883c0 0 -2.441 1.464 -2.441 1.464c0 0 -234.375 144.043 -234.375 144.043c-8.464 5.534 -15.788 6.511 -21.973 2.93c-6.185 -3.581 -9.277 -10.579 -9.277 -20.996c0 0 0 -53.223 0 -53.223c-0.977 0 -2.279 0.082 -3.907 0.244c-1.627 0.163 -2.929 0.245 -3.906 0.245c0 0 -84.472 0 -84.472 0c-17.253 0 -34.343 3.418 -51.27 10.254c-21.484 -56.967 -54.525 -105.632 -99.121 -145.997c0 0 0 0 0 0" />
  </g>
</svg>