<svg height="1000px" width="1018.06640625px" xmlns="http://www.w3.org/2000/svg">
  <g>
    <path d="M2.197265625 410.64453125c3.418 -5.534 10.01 -8.301 19.775 -8.301c0 0 68.848 0 68.848 0c11.393 -52.409 31.25 -101.481 59.57 -147.217c28.321 -45.735 62.419 -85.042 102.295 -117.919c39.877 -32.878 85.531 -58.757 136.963 -77.637c51.432 -18.88 104.818 -28.321 160.156 -28.321c63.477 0 124.105 12.37 181.885 37.11c57.78 24.739 107.666 57.943 149.658 99.609c41.993 41.667 75.358 91.39 100.098 149.17c24.74 57.78 37.109 118.408 37.109 181.885c0 63.476 -12.369 124.186 -37.109 182.129c-24.74 57.943 -58.105 107.91 -100.098 149.902c-41.992 41.992 -91.878 75.44 -149.658 100.342c-57.78 24.902 -118.408 37.353 -181.885 37.353c-107.421 0 -203.613 -33.203 -288.574 -99.609c-15.95 -12.37 -25.146 -28.564 -27.588 -48.584c-2.441 -20.019 2.523 -37.842 14.893 -53.467c12.37 -15.95 28.564 -25.146 48.584 -27.588c20.019 -2.441 37.842 2.523 53.467 14.893c59.244 45.573 125.651 68.359 199.218 68.359c58.594 0 112.631 -14.485 162.11 -43.457c49.479 -28.971 88.623 -68.278 117.431 -117.92c28.809 -49.642 43.213 -103.759 43.213 -162.353c0 -43.62 -8.545 -85.368 -25.634 -125.244c-17.09 -39.877 -40.039 -74.219 -68.848 -103.028c-28.809 -28.808 -63.151 -51.757 -103.027 -68.847c-39.877 -17.09 -81.625 -25.635 -125.245 -25.635c-71.289 0 -135.172 21.077 -191.65 63.232c-56.478 42.155 -95.296 96.436 -116.455 162.842c0 0 43.457 0 43.457 0c9.766 0 16.276 2.767 19.531 8.301c3.255 5.534 2.279 12.37 -2.929 20.508c0 0 -134.766 221.68 -134.766 221.68c-3.906 5.208 -8.464 7.812 -13.672 7.812c-2.279 0 -4.476 -0.651 -6.592 -1.953c-2.116 -1.302 -3.662 -2.604 -4.638 -3.906c0 0 -1.465 -1.954 -1.465 -1.954c0 0 -135.742 -221.679 -135.742 -221.679c-5.209 -8.138 -6.104 -14.974 -2.686 -20.508c0 0 0 0 0 0" />
  </g>
</svg>