<svg height="1000px" width="1073.2421875px" xmlns="http://www.w3.org/2000/svg">
  <g>
    <path d="M67.87109375 788.0859375c0 -19.857 7.161 -36.784 21.484 -50.781c14.323 -13.998 31.25 -20.996 50.782 -20.996c0 0 793.457 0 793.457 0c19.856 0 36.784 6.998 50.781 20.996c13.997 13.997 20.996 30.924 20.996 50.781c0 19.857 -6.999 36.865 -20.996 51.025c-13.997 14.161 -30.925 21.241 -50.781 21.241c0 0 -793.457 0 -793.457 0c-19.532 0 -36.459 -7.08 -50.782 -21.241c-14.323 -14.16 -21.484 -31.168 -21.484 -51.025c0 0 0 0 0 0m0 -288.086c0 -19.857 7.161 -36.865 21.484 -51.025c14.323 -14.16 31.25 -21.241 50.782 -21.241c0 0 793.457 0 793.457 0c19.856 0 36.784 7.081 50.781 21.241c13.997 14.16 20.996 31.168 20.996 51.025c0 19.857 -6.999 36.784 -20.996 50.781c-13.997 13.998 -30.925 20.996 -50.781 20.996c0 0 -793.457 0 -793.457 0c-19.532 0 -36.459 -6.998 -50.782 -20.996c-14.323 -13.997 -21.484 -30.924 -21.484 -50.781c0 0 0 0 0 0m0 -288.574c0 -19.857 7.161 -36.865 21.484 -51.026c14.323 -14.16 31.25 -21.24 50.782 -21.24c0 0 793.457 0 793.457 0c19.856 0 36.784 7.08 50.781 21.24c13.997 14.161 20.996 31.169 20.996 51.026c0 19.857 -6.999 36.784 -20.996 50.781c-13.997 13.997 -30.925 20.996 -50.781 20.996c0 0 -793.457 0 -793.457 0c-19.532 0 -36.459 -6.999 -50.782 -20.996c-14.323 -13.997 -21.484 -30.924 -21.484 -50.781c0 0 0 0 0 0" />
  </g>
</svg>