<svg height="1000px" width="937.5px" xmlns="http://www.w3.org/2000/svg">
  <g>
    <path d="M0 915.52734375c0 0 0 -286.133 0 -286.133c0 -14.323 5.046 -26.611 15.137 -36.865c10.091 -10.254 22.298 -15.381 36.621 -15.381c0 0 285.644 0 285.644 0c14.323 0 26.612 5.127 36.866 15.381c10.253 10.254 15.38 22.542 15.38 36.865c0 0 0 286.133 0 286.133c0 14.323 -5.127 26.53 -15.38 36.621c-10.254 10.091 -22.543 15.137 -36.866 15.137c0 0 -285.644 0 -285.644 0c-14.323 0 -26.53 -5.046 -36.621 -15.137c-10.091 -10.091 -15.137 -22.298 -15.137 -36.621c0 0 0 0 0 0m0 -545.41c0 0 0 -286.133 0 -286.133c0 -14.323 5.046 -26.53 15.137 -36.621c10.091 -10.091 22.298 -15.137 36.621 -15.137c0 0 285.644 0 285.644 0c14.323 0 26.612 5.046 36.866 15.137c10.253 10.091 15.38 22.298 15.38 36.621c0 0 0 286.133 0 286.133c0 14.323 -5.127 26.611 -15.38 36.865c-10.254 10.254 -22.543 15.381 -36.866 15.381c0 0 -285.644 0 -285.644 0c-14.323 0 -26.53 -5.127 -36.621 -15.381c-10.091 -10.254 -15.137 -22.542 -15.137 -36.865c0 0 0 0 0 0m547.363 545.41c0 0 0 -286.133 0 -286.133c0 -14.323 5.127 -26.611 15.381 -36.865c10.254 -10.254 22.38 -15.381 36.377 -15.381c0 0 286.621 0 286.621 0c13.998 0 26.123 5.127 36.377 15.381c10.254 10.254 15.381 22.542 15.381 36.865c0 0 0 286.133 0 286.133c0 14.323 -5.046 26.53 -15.137 36.621c-10.091 10.091 -22.298 15.137 -36.621 15.137c0 0 -286.621 0 -286.621 0c-13.997 0 -26.123 -5.046 -36.377 -15.137c-10.254 -10.091 -15.381 -22.298 -15.381 -36.621c0 0 0 0 0 0m0 -545.41c0 0 0 -286.133 0 -286.133c0 -13.997 5.127 -26.123 15.381 -36.377c10.254 -10.254 22.38 -15.381 36.377 -15.381c0 0 286.621 0 286.621 0c14.323 0 26.53 5.127 36.621 15.381c10.091 10.254 15.137 22.38 15.137 36.377c0 0 0 286.133 0 286.133c0 14.323 -5.127 26.611 -15.381 36.865c-10.254 10.254 -22.379 15.381 -36.377 15.381c0 0 -286.621 0 -286.621 0c-13.997 0 -26.123 -5.127 -36.377 -15.381c-10.254 -10.254 -15.381 -22.542 -15.381 -36.865c0 0 0 0 0 0" />
  </g>
</svg>