<svg height="1000px" width="920.8984375px" xmlns="http://www.w3.org/2000/svg">
  <g>
    <path d="M0 470.21484375c0 -4.557 1.139 -9.115 3.418 -13.672c2.279 -4.557 4.394 -7.812 6.348 -9.765c0 0 3.418 -3.418 3.418 -3.418c0 0 376.953 -273.926 376.953 -273.926c13.672 -10.417 25.472 -12.207 35.4 -5.371c9.928 6.836 14.893 20.182 14.893 40.039c0 0 0 111.328 0 111.328c0 0 26.855 1.953 26.855 1.953c64.128 5.534 124.593 23.6 181.397 54.199c56.803 30.599 105.306 69.662 145.507 117.188c40.202 47.526 71.696 102.702 94.483 165.527c22.786 62.826 33.691 128.255 32.715 196.289c-40.365 -71.289 -94.157 -129.557 -161.377 -174.805c-67.22 -45.247 -141.358 -71.289 -222.412 -78.125c-32.878 -2.929 -65.267 -2.441 -97.168 1.465c0 0 0 137.207 0 137.207c0 19.857 -4.965 33.203 -14.893 40.039c-9.928 6.836 -21.728 5.046 -35.4 -5.371c0 0 -376.953 -274.414 -376.953 -274.414c-8.789 -7.487 -13.184 -16.276 -13.184 -26.367c0 0 0 0 0 0" />
  </g>
</svg>