<svg height="1000px" width="924.8046875px" xmlns="http://www.w3.org/2000/svg">
  <g>
    <path d="M1.708984375 582.03125c3.743 -6.185 10.824 -9.277 21.24 -9.277c0 0 62.989 0 62.989 0c0 0 0 -343.75 0 -343.75c0 -21.159 7.324 -39.144 21.972 -53.955c14.649 -14.812 32.552 -22.217 53.711 -22.217c0 0 479.981 0 479.981 0c0 0 -103.516 153.32 -103.516 153.32c0 0 -300.293 0 -300.293 0c0 0 0 266.602 0 266.602c0 0 63.477 0 63.477 0c10.416 0 17.415 3.092 20.996 9.277c3.58 6.185 2.604 13.509 -2.93 21.973c0 0 -143.555 234.375 -143.555 234.375c-3.906 5.208 -8.626 7.812 -14.16 7.812c-2.279 0 -4.557 -0.651 -6.836 -1.953c-2.278 -1.302 -4.069 -2.604 -5.371 -3.906c0 0 -1.465 -1.953 -1.465 -1.953c0 0 -143.554 -234.375 -143.554 -234.375c-5.534 -8.464 -6.429 -15.788 -2.686 -21.973c0 0 0 0 0 0m281.982 264.16c0 0 103.028 -152.832 103.028 -152.832c0 0 300.293 0 300.293 0c0 0 0 -267.09 0 -267.09c0 0 -63.477 0 -63.477 0c-10.416 0 -17.415 -3.092 -20.996 -9.277c-3.581 -6.185 -2.604 -13.346 2.93 -21.484c0 0 143.554 -234.375 143.554 -234.375c3.581 -5.534 8.138 -8.301 13.672 -8.301c2.279 0 4.639 0.651 7.08 1.953c2.442 1.302 4.314 2.604 5.616 3.906c0 0 1.464 2.442 1.464 2.442c0 0 143.555 234.375 143.555 234.375c5.534 8.138 6.429 15.299 2.686 21.484c-3.744 6.185 -10.824 9.277 -21.241 9.277c0 0 -62.988 0 -62.988 0c0 0 0 343.75 0 343.75c0 21.159 -7.405 39.144 -22.217 53.955c-14.811 14.812 -32.796 22.217 -53.955 22.217c0 0 -479.004 0 -479.004 0c0 0 0 0 0 0" />
  </g>
</svg>