<svg height="1000px" width="904.78515625px" xmlns="http://www.w3.org/2000/svg">
  <g>
    <path d="M0 409.66796875c0.651 -14.323 5.534 -28.158 14.648 -41.504c10.092 -15.299 23.194 -26.937 39.307 -34.912c16.113 -7.975 32.308 -11.312 48.584 -10.01c1.953 0 4.72 0.326 8.301 0.977c27.344 2.604 52.409 0.325 75.195 -6.836c61.524 -19.857 141.113 -78.613 238.77 -176.27c36.132 -36.132 78.369 -60.547 126.709 -73.242c48.34 -12.695 96.598 -12.695 144.775 0c48.177 12.695 90.332 37.11 126.465 73.242c36.133 36.133 60.547 78.369 73.242 126.709c12.695 48.34 12.695 96.599 0 144.776c-12.695 48.177 -37.109 90.332 -73.242 126.465c-27.018 27.018 -50.944 52.653 -71.777 76.904c-20.834 24.251 -37.761 45.166 -50.782 62.744c-13.021 17.578 -24.007 34.912 -32.959 52.002c-8.951 17.09 -15.381 30.843 -19.287 41.26c-3.906 10.416 -6.673 21.565 -8.301 33.447c-1.627 11.881 -2.278 20.508 -1.953 25.879c0.326 5.371 0.814 12.451 1.465 21.24c0.651 3.906 0.977 6.836 0.977 8.789c1.302 16.276 -2.116 32.552 -10.254 48.828c-8.138 16.276 -19.694 29.46 -34.668 39.551c-13.347 8.789 -27.181 13.591 -41.504 14.404c-14.323 0.814 -29.785 -1.22 -46.387 -6.103c-0.325 0 -3.825 -0.814 -10.498 -2.442c-6.673 -1.627 -13.428 -3.418 -20.263 -5.371c-6.836 -1.953 -16.439 -5.371 -28.809 -10.254c-12.37 -4.882 -24.821 -10.253 -37.354 -16.113c-12.532 -5.859 -27.262 -13.834 -44.189 -23.926c-16.927 -10.091 -33.854 -21.158 -50.781 -33.203c-16.927 -12.044 -35.726 -26.774 -56.397 -44.189c-20.67 -17.416 -41.097 -36.214 -61.279 -56.397c-18.229 -18.229 -35.238 -36.458 -51.025 -54.687c-15.788 -18.229 -29.46 -35.319 -41.016 -51.27c-11.556 -15.95 -22.136 -31.412 -31.738 -46.386c-9.603 -14.974 -17.741 -29.053 -24.414 -42.237c-6.674 -13.183 -12.452 -25.228 -17.334 -36.133c-4.883 -10.905 -8.952 -21.158 -12.207 -30.761c-3.256 -9.603 -5.697 -17.416 -7.325 -23.438c-1.627 -6.022 -3.092 -11.637 -4.394 -16.846c-1.302 -5.208 -1.953 -7.975 -1.953 -8.3c-4.883 -16.602 -6.999 -32.064 -6.348 -46.387c0 0 0 0 0 0m98.145 65.43c3.255 19.856 11.067 42.236 23.437 67.138c12.37 24.903 29.867 52.328 52.49 82.276c22.624 29.948 48.259 59.245 76.905 87.89c58.919 58.594 115.722 101.888 170.41 129.883c54.687 27.995 91.471 32.39 110.351 13.184c13.998 -14.974 14.649 -40.446 1.953 -76.416c-12.695 -35.97 -36.132 -76.091 -70.312 -120.362c-5.208 7.162 -9.928 12.859 -14.16 17.09c-22.136 21.81 -48.991 32.715 -80.567 32.715c-31.575 0 -58.431 -10.905 -80.566 -32.715c-22.135 -22.135 -33.203 -49.153 -33.203 -81.054c0 -31.901 11.068 -58.92 33.203 -81.055c4.232 -3.581 9.766 -7.975 16.602 -13.184c-44.271 -34.179 -84.31 -57.698 -120.118 -70.556c-35.807 -12.858 -61.198 -12.289 -76.172 1.709c-10.091 9.114 -13.509 23.6 -10.253 43.457c0 0 0 0 0 0" />
  </g>
</svg>