<svg height="1000" width="922.852" xmlns="http://www.w3.org/2000/svg"><path d="M0 705.98q0 31.476 22.448 54.412l179.584 179.584q19.52 19.52 46.36 21.96t49.288 -12.2l-95.648 -96.136 40.992 -40.992 97.112 97.6 41.48 -41.48 -97.6 -97.112 40.992 -40.992 97.112 96.624 41.48 -40.504 -97.112 -97.6 40.504 -40.504 97.6 96.624 39.04 -39.04 -97.6 -96.624 41.48 -41.48 97.6 97.112 40.504 -40.992 -97.112 -97.6 41.48 -40.992 97.112 97.6 40.992 -41.48 -97.6 -97.112 41.48 -40.992 97.112 97.6 40.992 -41.48 -96.624 -97.6 40.504 -40.504 97.6 97.112 41.48 -41.48 -97.6 -97.112 40.992 -40.992 95.648 95.16q13.176 -21.96 10.248 -48.312t-21.472 -44.896l-179.584 -180.072q-22.936 -22.448 -54.412 -22.448t-54.412 22.936l-589.504 589.992q-22.936 22.936 -22.936 54.412z"/></svg>