<svg height="1000" width="922.852" xmlns="http://www.w3.org/2000/svg"><path d="M0 705.98q0 -31.476 22.936 -54.412l589.504 -589.992q22.936 -22.936 54.412 -22.936t54.412 22.448l179.584 180.072q18.544 18.544 21.472 44.896t-10.248 48.312l-95.648 -95.16 -40.992 40.992 97.6 97.112 -41.48 41.48 -97.6 -97.112 -40.504 40.504 96.624 97.6 -40.992 41.48 -97.112 -97.6 -41.48 40.992 97.6 97.112 -40.992 41.48 -97.112 -97.6 -41.48 40.992 97.112 97.6 -40.504 40.992 -97.6 -97.112 -41.48 41.48 97.6 96.624 -39.04 39.04 -97.6 -96.624 -40.504 40.504 97.112 97.6 -41.48 40.504 -97.112 -96.624 -40.992 40.992 97.6 97.112 -41.48 41.48 -97.112 -97.6 -40.992 40.992 95.648 96.136q-22.448 14.64 -49.288 12.2t-46.36 -21.96l-179.584 -179.584q-22.448 -22.936 -22.448 -54.412z"/></svg>