<svg height="1000" width="892.578" xmlns="http://www.w3.org/2000/svg"><path d="M10.736 475.156q-22.936 -86.62 0 -172.996t87.352 -150.304q48.312 -48.312 110.044 -73.444t127.612 -25.132q65.392 0 127.124 25.132t110.044 73.444q51.728 51.728 76.616 118.828t20.984 136.884 -35.624 132.248q28.304 8.296 48.8 28.792l174.216 173.728q34.648 35.136 34.648 84.668t-34.648 84.668q-35.136 35.136 -84.912 35.136t-84.912 -35.136l-173.24 -173.24q-21.472 -20.496 -29.768 -49.776 -69.784 35.624 -149.328 35.624 -65.88 0 -127.612 -24.888t-110.044 -73.2q-64.416 -64.416 -87.352 -151.036zm101.504 -85.888q0 92.964 64.904 157.868 65.392 65.392 158.6 65.392 92.232 0 157.624 -65.392t65.392 -158.112 -65.392 -158.112q-66.368 -65.392 -157.624 -65.392 -92.232 0 -158.6 65.392 -64.904 65.392 -64.904 158.356z"/></svg>