<svg height="1000px" width="937.5px" xmlns="http://www.w3.org/2000/svg">
  <g>
    <path d="M0 497.55859375c0 -25.065 2.441 -52.572 7.324 -82.52c33.203 2.279 64.697 -4.231 94.483 -19.531c29.785 -15.299 53.141 -37.76 70.068 -67.383c16.927 -30.599 24.577 -62.5 22.949 -95.703c-1.627 -33.203 -11.719 -63.639 -30.273 -91.308c42.969 -37.11 93.099 -65.756 150.39 -85.938c15.3 27.669 36.621 49.723 63.965 66.162c27.344 16.439 57.292 24.658 89.844 24.658c32.552 0 62.419 -8.219 89.6 -24.658c27.181 -16.439 48.421 -38.493 63.72 -66.162c56.641 20.182 106.771 48.828 150.391 85.938c-14.323 26.367 -21.484 54.769 -21.484 85.205c0 30.436 7.812 59.163 23.437 86.181c15.951 27.67 37.598 49.154 64.941 64.454c27.344 15.299 56.478 22.949 87.403 22.949c7.161 32.877 10.742 65.429 10.742 97.656c0 21.484 -2.279 46.387 -6.836 74.707c-29.948 0.651 -58.024 8.708 -84.228 24.17c-26.205 15.462 -47.12 36.702 -62.745 63.721c-16.601 29.297 -24.495 59.977 -23.681 92.041c0.814 32.063 9.684 61.604 26.611 88.623c-43.945 40.364 -92.448 71.289 -145.508 92.773c-15.299 -27.995 -36.702 -50.293 -64.209 -66.894c-27.506 -16.602 -57.536 -24.903 -90.088 -24.903c-34.83 0 -66.65 9.359 -95.459 28.076c-28.808 18.718 -50.211 43.539 -64.209 74.463c-55.013 -17.578 -105.957 -45.084 -152.832 -82.519c18.555 -27.344 28.565 -57.536 30.03 -90.576c1.465 -33.041 -6.429 -64.86 -23.682 -95.459c-17.578 -30.925 -42.074 -54.118 -73.486 -69.58c-31.413 -15.463 -64.209 -21.241 -98.389 -17.334c-5.859 -27.344 -8.789 -57.78 -8.789 -91.309c0 0 0 0 0 0m292.969 0c0 48.503 17.171 89.925 51.513 124.268c34.343 34.342 75.765 51.513 124.268 51.513c48.503 0 89.925 -17.171 124.268 -51.513c34.342 -34.343 51.513 -75.765 51.513 -124.268c0 -48.503 -17.171 -89.925 -51.513 -124.268c-34.343 -34.342 -75.765 -51.513 -124.268 -51.513c-48.503 0 -89.925 17.171 -124.268 51.513c-34.342 34.343 -51.513 75.765 -51.513 124.268c0 0 0 0 0 0" />
  </g>
</svg>