<svg height="1000px" width="790.52734375px" xmlns="http://www.w3.org/2000/svg">
  <g>
    <path d="M0 880.859375c0 0 0 -761.719 0 -761.719c0 -24.088 8.545 -44.759 25.635 -62.011c17.09 -17.253 37.679 -25.879 61.767 -25.879c0 0 355.469 0 355.469 0c2.279 0 4.232 0.162 5.859 0.488c0 0 0.489 0 0.489 0c25.39 1.953 45.735 10.579 61.035 25.879c0 0 254.883 245.117 254.883 245.117c7.161 7.813 12.532 15.951 16.113 24.414c1.302 3.255 2.116 5.371 2.441 6.348c0.326 0.651 1.058 2.278 2.198 4.883c1.139 2.604 1.871 4.72 2.197 6.347c1.628 7.487 2.441 14.323 2.441 20.508c0 0 0 4.395 0 4.395c0 0 0 511.23 0 511.23c0 24.089 -8.545 44.759 -25.634 62.012c-17.09 17.252 -37.679 25.879 -61.768 25.879c0 0 -615.723 0 -615.723 0c-24.088 0 -44.677 -8.627 -61.767 -25.879c-17.09 -17.253 -25.635 -37.923 -25.635 -62.012c0 0 0 0 0 0m87.402 0c0 0 615.723 0 615.723 0c0 0 0 -465.332 0 -465.332c0 0 -132.813 0 -132.813 0c-48.502 0 -89.925 -17.171 -124.267 -51.514c-34.343 -34.342 -51.514 -75.765 -51.514 -124.267c0 0 0 -120.606 0 -120.606c0 0 -307.129 0 -307.129 0c0 0 0 761.719 0 761.719c0 0 0 0 0 0m395.508 -641.113c0 24.088 8.545 44.677 25.635 61.767c17.09 17.09 37.679 25.635 61.768 25.635c0 0 118.164 0 118.164 0c0 0 -205.567 -194.336 -205.567 -194.336c0 0 0 106.934 0 106.934c0 0 0 0 0 0" />
  </g>
</svg>