<svg height="1000" width="1054.688" xmlns="http://www.w3.org/2000/svg"><path d="M0 816.512v-173.728h229.36q27.328 0 51.24 -9.76 31.72 84.424 98.576 145.424 -70.76 38.064 -149.816 38.064h-229.36zm0 -458.72v-173.24h229.36q64.416 0 122.976 25.132t100.772 67.344 67.344 100.772 25.132 122.976q0 58.56 41.724 100.284t100.772 41.724h84.424q1.464 0 3.904 .244t3.904 .244v-52.704q0 -15.616 9.272 -21.228t21.96 2.684l234.24 143.96q8.296 5.368 8.296 13.664 0 3.416 -1.952 7.076t-3.904 5.124l-2.44 1.952 -234.24 143.472q-12.688 8.296 -21.96 2.928t-9.272 -20.984v-53.68q-1.464 0 -3.904 .488t-3.904 .488h-84.424q-64.416 0 -122.976 -25.132t-100.772 -67.344 -67.344 -100.528 -25.132 -122.732q0 -59.048 -41.724 -101.016t-100.772 -41.968h-229.36zm537.776 -135.664q68.32 -37.576 150.304 -37.576h84.424q1.464 0 3.904 .244t3.904 .244v-53.68q0 -15.616 9.272 -21.228t21.96 2.684l234.24 144.448q8.296 5.856 8.296 13.664 0 3.904 -1.952 7.32t-3.904 4.88l-2.44 1.464 -234.24 143.96q-12.688 8.296 -21.96 2.928t-9.272 -20.984v-53.192q-1.464 0 -3.904 .244t-3.904 .244h-84.424q-25.864 0 -51.24 10.248 -32.208 -85.4 -99.064 -145.912z"/></svg>