<svg height="1000px" width="937.5px" xmlns="http://www.w3.org/2000/svg">
  <g>
    <path d="M0 765.625c0 0 0 -532.227 0 -532.227c0 -55.989 19.775 -103.678 59.326 -143.066c39.551 -39.388 87.321 -59.082 143.311 -59.082c0 0 72.265 0 72.265 0c22.136 0 41.097 7.812 56.885 23.437c15.788 15.625 23.682 34.506 23.682 56.641c0 22.136 -7.894 41.097 -23.682 56.885c-15.788 15.788 -34.749 23.682 -56.885 23.682c0 0 -72.265 0 -72.265 0c-11.394 0 -21.241 4.069 -29.541 12.207c-8.301 8.138 -12.451 17.903 -12.451 29.296c0 0 0 532.227 0 532.227c0 11.719 4.15 21.647 12.451 29.785c8.3 8.138 18.147 12.207 29.541 12.207c0 0 72.265 0 72.265 0c22.136 0 41.097 7.894 56.885 23.682c15.788 15.788 23.682 34.749 23.682 56.885c0 22.135 -7.894 41.097 -23.682 56.884c-15.788 15.788 -34.749 23.682 -56.885 23.682c0 0 -72.265 0 -72.265 0c-55.99 0 -103.76 -19.857 -143.311 -59.57c-39.551 -39.714 -59.326 -87.565 -59.326 -143.555c0 0 0 0 0 0m238.281 -251.953c0 -22.136 7.894 -41.016 23.682 -56.641c15.788 -15.625 34.749 -23.437 56.885 -23.437c0 0 344.238 0 344.238 0c0 0 -109.863 -110.84 -109.863 -110.84c-15.951 -15.625 -23.926 -34.587 -23.926 -56.885c0 -22.298 7.975 -41.26 23.926 -56.885c15.625 -15.625 34.505 -23.437 56.64 -23.437c22.136 0 41.016 7.812 56.641 23.437c0 0 247.559 248.047 247.559 248.047c15.625 15.625 23.437 34.505 23.437 56.641c0 22.135 -7.812 41.015 -23.437 56.64c0 0 -242.676 242.676 -242.676 242.676c-15.625 15.625 -34.505 23.438 -56.641 23.438c-22.135 0 -41.178 -7.813 -57.129 -23.438c-15.625 -15.625 -23.437 -34.505 -23.437 -56.64c0 -22.136 7.975 -41.179 23.925 -57.129c0 0 104.981 -104.981 104.981 -104.981c0 0 -344.238 0 -344.238 0c-21.81 0 -40.69 -7.975 -56.641 -23.926c-15.95 -15.95 -23.926 -34.83 -23.926 -56.64c0 0 0 0 0 0" />
  </g>
</svg>