<svg height="1000px" width="937.5px" xmlns="http://www.w3.org/2000/svg">
  <g>
    <path d="M0 490.72265625c0 -22.135 7.894 -41.016 23.682 -56.641c15.787 -15.625 34.749 -23.437 56.884 -23.437c0 0 344.239 0 344.239 0c0 0 -110.84 -110.84 -110.84 -110.84c-15.625 -15.625 -23.438 -34.505 -23.438 -56.641c0 -22.135 7.813 -41.178 23.438 -57.129c15.95 -15.625 35.075 -23.437 57.373 -23.437c22.298 0 41.26 7.813 56.885 23.438c0 0 247.07 248.046 247.07 248.046c15.95 15.625 23.926 34.506 23.926 56.641c0 22.135 -7.976 41.016 -23.926 56.641c0 0 -242.188 242.675 -242.188 242.675c-15.625 15.625 -34.586 23.438 -56.884 23.438c-22.298 0 -41.26 -7.813 -56.885 -23.438c-15.625 -15.625 -23.438 -34.505 -23.438 -56.64c0 -22.136 7.813 -41.179 23.438 -57.129c0 0 105.469 -104.981 105.469 -104.981c0 0 -344.239 0 -344.239 0c-22.135 0 -41.097 -7.893 -56.884 -23.681c-15.788 -15.788 -23.682 -34.75 -23.682 -56.885c0 0 0 0 0 0m582.031 397.461c0 -22.135 7.894 -41.097 23.682 -56.885c15.788 -15.788 34.749 -23.681 56.885 -23.681c0 0 71.777 0 71.777 0c11.719 0 21.729 -4.069 30.029 -12.207c8.301 -8.139 12.451 -18.067 12.451 -29.786c0 0 0 -532.226 0 -532.226c0 -11.393 -4.15 -21.159 -12.451 -29.297c-8.3 -8.138 -18.31 -12.207 -30.029 -12.207c0 0 -71.777 0 -71.777 0c-22.136 0 -41.097 -7.894 -56.885 -23.682c-15.788 -15.788 -23.682 -34.749 -23.682 -56.885c0 -22.135 7.894 -41.015 23.682 -56.64c15.788 -15.625 34.749 -23.438 56.885 -23.438c0 0 71.777 0 71.777 0c56.315 0 104.248 19.694 143.799 59.082c39.551 39.388 59.326 87.077 59.326 143.067c0 0 0 532.226 0 532.226c0 56.315 -19.857 104.248 -59.57 143.799c-39.714 39.551 -87.565 59.326 -143.555 59.326c0 0 -71.777 0 -71.777 0c-22.136 0 -41.097 -7.894 -56.885 -23.681c-15.788 -15.788 -23.682 -34.75 -23.682 -56.885c0 0 0 0 0 0" />
  </g>
</svg>