<svg height="1000px" width="556.640625px" xmlns="http://www.w3.org/2000/svg">
  <g>
    <path d="M0 868.1640625c0 0 0 -736.816 0 -736.816c0 -27.67 9.603 -51.27 28.809 -70.801c19.205 -19.531 42.48 -29.297 69.824 -29.297c0 0 359.375 0 359.375 0c27.344 0 50.7 9.766 70.068 29.297c19.369 19.531 29.053 43.131 29.053 70.801c0 0 0 736.816 0 736.816c0 27.669 -9.684 51.351 -29.053 71.045c-19.368 19.694 -42.724 29.541 -70.068 29.541c0 0 -359.375 0 -359.375 0c-27.344 0 -50.619 -9.766 -69.824 -29.297c-19.206 -19.531 -28.809 -43.294 -28.809 -71.289c0 0 0 0 0 0m234.375 -61.035c0 12.37 4.313 22.868 12.939 31.494c8.627 8.626 18.962 12.939 31.006 12.939c12.045 0 22.461 -4.394 31.25 -13.183c8.789 -8.789 13.184 -19.206 13.184 -31.25c0 -12.044 -4.395 -22.298 -13.184 -30.762c-8.789 -8.463 -19.205 -12.695 -31.25 -12.695c-12.044 0 -22.379 4.232 -31.006 12.695c-8.626 8.464 -12.939 18.718 -12.939 30.762c0 0 0 0 0 0" />
  </g>
</svg>