<svg height="1000" width="937.5" xmlns="http://www.w3.org/2000/svg"><path d="M0 500.288q0 -95.16 37.088 -182.024t99.796 -149.572 149.572 -99.796 182.024 -37.088 182.024 37.088 149.572 99.796 99.796 149.572 37.088 182.024 -37.088 182.024 -99.796 149.572 -149.572 99.796 -182.024 37.088 -182.024 -37.088 -149.572 -99.796 -99.796 -149.572 -37.088 -182.024zm164.456 85.888q0 11.224 8.296 16.836t18.056 4.148q8.784 -1.952 12.2 -6.1t3.416 -14.884v-81.984q0 -8.784 -5.856 -14.884t-14.64 -6.1 -15.128 6.1 -6.344 14.884v81.984zm65.392 35.136q0 7.808 5.856 12.2t14.64 4.392q9.272 0 15.372 -4.392t6.1 -12.2v-190.808q0 -8.784 -6.344 -15.128t-15.128 -6.344q-8.296 0 -14.396 6.344t-6.1 15.128v190.808zm64.416 8.784q0 16.104 21.472 16.104 20.496 0 20.496 -16.104v-174.704q0 -8.784 -6.1 -14.64t-14.396 -5.856q-8.784 0 -15.128 5.856t-6.344 14.64v174.704zm65.392 .976q0 15.128 20.496 15.128 21.472 0 21.472 -15.128v-282.552q0 -23.424 -14.64 -26.84 -9.272 -2.44 -18.3 5.124t-9.028 21.716v282.552zm65.88 6.832q-.976 5.856 5.368 8.296h245.464q40.016 0 67.832 -27.572t28.304 -67.588q0 -39.528 -28.06 -67.588t-68.076 -28.06q-18.056 0 -36.6 7.808 -5.368 -64.904 -53.68 -109.312t-113.704 -44.408q-19.52 0 -38.064 4.392 -8.784 3.416 -8.784 17.568v306.464z"/></svg>