<svg height="1000" width="1048.828" xmlns="http://www.w3.org/2000/svg"><path d="M0 686.216q0 19.52 14.152 29.524t30.256 7.076q15.128 -2.928 21.228 -10.736t6.1 -25.864v-141.52q0 -15.128 -10.492 -25.62t-25.62 -10.492q-14.64 0 -25.132 10.492t-10.492 25.62v141.52zm112.24 60.512q0 14.152 10.004 21.228t25.62 7.076q16.104 0 26.108 -7.076t10.004 -21.228v-329.888q0 -14.64 -10.492 -25.132t-25.62 -10.492q-14.64 0 -25.132 10.492t-10.492 25.132v329.888zm111.752 15.616q0 14.152 10.248 21.228t26.352 7.076q15.616 0 25.62 -7.076t10.004 -21.228v-301.096q0 -15.128 -10.492 -25.864t-25.132 -10.736q-15.128 0 -25.864 10.736t-10.736 25.864v301.096zm112.24 1.464q0 26.84 36.112 26.84t36.112 -26.84v-488q0 -40.992 -24.888 -46.36 -16.104 -3.904 -31.72 9.272t-15.616 37.088v488zm114.192 14.152v-530.944q0 -25.376 15.128 -30.256 32.696 -7.808 64.904 -7.808 74.664 0 139.08 35.136t104.188 95.892 46.116 133.956q29.768 -12.688 63.44 -12.688 68.32 0 116.876 48.312t48.556 116.144q0 68.32 -48.556 116.632t-116.388 48.312l-424.56 -.488q-4.392 -1.464 -6.588 -5.368t-2.196 -6.832z"/></svg>