<svg height="1000" width="937.5" xmlns="http://www.w3.org/2000/svg"><path d="M0 500.288q.488 -29.768 21.716 -50.996t50.996 -21.228h127.856q29.768 0 51.24 21.228t21.472 50.996 -21.472 50.996 -51.24 21.228h-127.856q-30.256 0 -51.484 -21.228t-21.228 -50.996zm116.144 280.112q0 -29.768 21.472 -50.752l91.256 -90.768q20.984 -20.984 50.752 -21.228t50.752 20.74q20.984 21.472 20.984 51.24t-20.984 50.752l-91.256 90.768q-20.984 20.984 -50.752 20.984t-50.752 -20.984q-21.472 -20.984 -21.472 -50.752zm0 -560.224q0 -29.768 20.984 -51.24 20.984 -20.984 50.996 -20.984t50.996 20.984l91.256 90.768q20.984 21.472 20.984 51.24t-20.984 50.752 -50.752 20.984 -50.752 -20.984l-91.744 -90.768q-20.984 -20.984 -20.984 -50.752zm280.6 676.368v-128.832q0 -29.768 21.228 -50.752t50.996 -20.984 50.996 20.984 21.228 50.752v128.832q0 29.768 -21.228 50.996t-50.996 21.228 -50.996 -21.228 -21.228 -50.996zm0 -664.168v-128.344q0 -29.768 20.984 -50.996t50.752 -21.228q30.256 0 51.484 21.228t21.228 50.996v128.344q0 29.768 -21.228 50.996t-51.484 21.716q-29.768 0 -50.752 -21.472t-20.984 -51.24zm189.832 457.256q0 -29.768 20.984 -51.24 20.984 -20.984 50.752 -20.984t50.752 20.984l91.256 90.768q20.984 20.984 20.984 50.996t-20.984 50.996q-21.472 20.984 -51.24 20.984t-50.752 -20.984l-90.768 -90.768q-20.984 -20.984 -20.984 -50.752zm0 -378.688q0 -29.768 20.984 -51.24l90.768 -90.768q20.984 -20.984 50.752 -20.984t50.752 20.984q20.984 21.472 20.984 51.24t-20.984 50.752l-90.768 90.768q-20.984 20.984 -50.752 20.984t-50.752 -20.984 -20.984 -50.752zm77.592 189.344q0 -29.768 21.472 -50.996t51.24 -21.228h128.344q29.768 0 50.752 21.228t20.984 50.996 -20.984 50.996 -50.752 21.228h-128.344q-30.256 0 -51.484 -21.228t-21.228 -50.996z"/></svg>