<svg height="1000" width="1222.656" xmlns="http://www.w3.org/2000/svg"><path d="M0 357.304q0 -57.584 40.748 -98.332t98.332 -40.748q58.072 0 98.576 40.748t40.504 98.332q0 39.528 -20.984 72.712l281.576 281.088q19.52 -11.712 39.528 -16.592v-388.936q-46.36 -11.224 -76.372 -48.8t-30.012 -86.376q0 -57.584 40.748 -98.088t98.82 -40.504q57.584 0 98.088 40.504t40.504 98.088q0 48.8 -30.012 86.376t-76.372 48.8v388.936q20.008 4.88 39.528 16.592l281.576 -281.088q-20.496 -33.672 -20.496 -72.712 0 -58.072 40.504 -98.576t98.088 -40.504 98.332 40.748 40.748 98.332 -40.748 98.576 -98.332 40.992q-36.6 0 -72.224 -21.472l-281.576 281.576q20.984 33.184 20.984 72.224 0 58.072 -40.504 98.82t-98.088 40.748q-58.072 0 -98.82 -40.748t-40.748 -98.82q0 -39.04 20.984 -72.224l-281.576 -281.576q-35.624 21.472 -72.224 21.472 -57.584 0 -98.332 -40.992t-40.748 -98.576z"/></svg>