<svg height="1000px" width="480.95703125px" xmlns="http://www.w3.org/2000/svg">
  <g>
    <path d="M2.9296875 400.146484375c-7.813 -20.02 -2.604 -35.97 15.625 -47.852c18.229 -11.881 47.526 -17.822 87.891 -17.822c0 0 232.421 0 232.421 0c0 0 70.313 -213.379 70.313 -213.379c0 0 0.488 -1.465 0.488 -1.465c9.44 -28.971 20.427 -50.944 32.959 -65.918c12.533 -14.974 25.31 -22.135 38.33 -21.484c0 0 0 728.027 0 728.027c0 0 -185.547 134.766 -185.547 134.766c0 0 -2.929 1.953 -2.929 1.953c-32.878 23.438 -60.222 35.563 -82.031 36.377c-21.81 0.814 -35.238 -9.033 -40.284 -29.541c-5.045 -20.508 -1.709 -50.13 10.01 -88.867c0 0 0.488 -1.465 0.488 -1.465c0 0 0.489 -0.976 0.489 -0.976c0 0 70.312 -213.379 70.312 -213.379c0 0 -182.129 -129.883 -182.129 -129.883c0 0 -2.441 -2.442 -2.441 -2.442c0 0 -2.93 -1.464 -2.93 -1.464c-32.877 -23.438 -53.223 -45.166 -61.035 -65.186c0 0 0 0 0 0" />
  </g>
</svg>