<svg height="1000px" width="931.15234375px" xmlns="http://www.w3.org/2000/svg">
  <g>
    <path d="M1.46484375 390.13671875c7.813 -24.74 41.667 -37.109 101.563 -37.109c-0.001 0 225.585 0 225.585 0c0 0 68.848 -207.52 68.848 -207.52c0 0 0 -0.976 0 -0.976c12.37 -37.11 26.856 -62.256 43.457 -75.44c16.602 -13.184 33.122 -13.184 49.561 0c16.438 13.184 30.843 38.33 43.213 75.44c0 0 0.488 0.976 0.488 0.976c0 0 68.359 207.52 68.359 207.52c0 0 225.586 0 225.586 0c39.063 0 67.383 5.696 84.961 17.089c17.578 11.394 22.542 26.775 14.893 46.143c-7.65 19.369 -27.425 40.446 -59.327 63.232c0 0 -4.882 3.907 -4.882 3.907c0 0 -176.758 126.465 -176.758 126.465c0 0 67.871 207.031 67.871 207.031c0 0 1.465 1.953 1.465 1.953c18.229 56.641 16.764 92.855 -4.395 108.643c-21.159 15.787 -55.989 6.266 -104.492 -28.565c0 0 -2.93 -1.953 -2.93 -1.953c0 0 -2.441 -1.465 -2.441 -1.465c0 0 -176.758 -126.953 -176.758 -126.953c0 0 -179.199 128.418 -179.199 128.418c0 0 -1.953 1.953 -1.953 1.953c-48.503 34.831 -83.496 44.352 -104.981 28.565c-21.484 -15.788 -22.786 -52.002 -3.906 -108.643c0 0 0.488 -0.977 0.488 -0.977c0 0 0 -1.464 0 -1.464c0 0 67.871 -206.543 67.871 -206.543c0 0 -176.757 -126.465 -176.757 -126.465c0 0 -1.953 -1.953 -1.953 -1.953c0 0 -2.442 -1.954 -2.442 -1.954c-48.502 -34.83 -68.848 -64.615 -61.035 -89.355c0 0 0 0 0 0" />
  </g>
</svg>