<svg height="1000" width="931.152" xmlns="http://www.w3.org/2000/svg"><path d="M1.464 390.488q11.712-37.088 101.504-37.088h225.456l68.808-207.4v-.976q18.544-55.632 43.432-75.396t49.532 0 43.188 75.396l.488.976 68.32 207.4h225.456q58.56 0 84.912 17.08t14.884 46.116-59.292 63.196l-4.88 3.904-176.656 126.392 67.832 206.912 1.464 1.952q27.328 84.912-4.392 108.58t-104.432-28.548l-2.928-1.952-2.44-1.464-176.656-126.88-179.096 128.344-1.952 1.952q-72.712 52.216-104.92 28.548t-3.904-108.58l.488-.976v-1.464l67.832-206.424-176.656-126.392-1.952-1.952-2.44-1.952q-72.712-52.216-61-89.304z"/></svg>