<svg height="1000px" width="498.53515625px" xmlns="http://www.w3.org/2000/svg">
  <g>
    <path d="M2.9296875 413.57421875c-8.138 -20.833 -2.767 -37.354 16.113 -49.561c18.88 -12.207 49.317 -18.31 91.309 -18.31c0 0 241.699 0 241.699 0c0 0 73.242 -222.656 73.242 -222.656c0 0 0.489 -0.977 0.489 -0.977c9.765 -29.948 20.996 -52.572 33.691 -67.871c12.695 -15.299 25.879 -22.949 39.551 -22.949c0 0 0 168.457 0 168.457c0 0 -79.59 239.746 -79.59 239.746c0 0 -250.977 0 -250.977 0c0 0 203.125 145.019 203.125 145.019c0 0 -20.996 65.43 -20.996 65.43c0 0 -57.129 172.852 -57.129 172.852c0 0 205.567 -146.973 205.567 -146.973c0 0 0 115.234 0 115.234c0 0 -191.895 137.207 -191.895 137.207c0 0 -2.929 1.954 -2.929 1.954c-34.831 25.716 -64.128 38.574 -87.891 38.574c-21.484 0 -34.831 -10.661 -40.039 -31.983c-5.208 -21.321 -1.465 -51.839 11.23 -91.552c0 0 0.977 -3.418 0.977 -3.418c0 0 72.754 -220.703 72.754 -220.703c0 0 -189.453 -135.743 -189.453 -135.743c0 0 -2.442 -2.441 -2.442 -2.441c0 0 -2.929 -1.465 -2.929 -1.465c-34.18 -24.414 -55.339 -47.038 -63.477 -67.871c0 0 0 0 0 0" />
  </g>
</svg>