<svg height="1000px" width="997.55859375px" xmlns="http://www.w3.org/2000/svg">
  <g>
    <path d="M3.173828125 413.57421875c-8.301 -20.833 -3.011 -37.354 15.869 -49.561c18.88 -12.207 49.317 -18.31 91.309 -18.31c0 0 241.699 0 241.699 0c0 0 73.73 -222.656 73.73 -222.656c0 0 0 -0.977 0 -0.977c9.766 -29.948 20.997 -52.572 33.692 -67.871c12.695 -15.299 25.879 -22.949 39.551 -22.949c13.346 0 26.367 7.65 39.062 22.949c12.695 15.299 23.926 37.923 33.692 67.871c0 0 0.976 0.977 0.976 0.977c0 0 72.754 222.656 72.754 222.656c0 0 241.699 0 241.699 0c41.992 0 72.429 6.103 91.309 18.31c18.88 12.207 24.17 28.728 15.869 49.561c-8.301 20.833 -29.541 43.457 -63.721 67.871c0 0 -4.883 3.906 -4.883 3.906c0 0 -189.941 135.743 -189.941 135.743c0 0 73.242 220.703 73.242 220.703c0 0 0.977 3.418 0.977 3.418c12.695 39.713 16.357 70.068 10.986 91.064c-5.371 20.996 -18.636 31.494 -39.795 31.494c-24.414 0 -53.548 -12.532 -87.402 -37.597c0 0 -2.93 -1.954 -2.93 -1.954c0 0 -2.93 -1.464 -2.93 -1.464c0 0 -188.964 -135.743 -188.964 -135.743c0 0 -191.895 137.207 -191.895 137.207c0 0 -2.93 1.954 -2.93 1.954c-34.83 25.716 -64.127 38.574 -87.89 38.574c-21.159 0 -34.424 -10.661 -39.795 -31.983c-5.371 -21.321 -1.709 -51.839 10.986 -91.552c0 0 0.977 -3.418 0.977 -3.418c0 0 73.242 -220.703 73.242 -220.703c0 0 -189.941 -135.743 -189.941 -135.743c0 0 -1.954 -2.441 -1.954 -2.441c0 0 -2.929 -1.465 -2.929 -1.465c-34.18 -24.414 -55.42 -47.038 -63.721 -67.871c0 0 0 0 0 0m165.283 25.879c0 0 203.125 145.019 203.125 145.019c0 0 -20.996 65.43 -20.996 65.43c0 0 -57.129 172.852 -57.129 172.852c0 0 205.567 -146.973 205.567 -146.973c0 0 205.078 146.973 205.078 146.973c0 0 -56.641 -172.852 -56.641 -172.852c0 0 -21.484 -65.43 -21.484 -65.43c0 0 203.125 -145.019 203.125 -145.019c0 0 -250.977 0 -250.977 0c0 0 -20.996 -64.453 -20.996 -64.453c0 0 -58.105 -175.293 -58.105 -175.293c0 0 -79.59 239.746 -79.59 239.746c0 0 -250.977 0 -250.977 0c0 0 0 0 0 0" />
  </g>
</svg>