<svg height="1000" width="997.559" xmlns="http://www.w3.org/2000/svg"><path d="M3.172 413.912q-12.444 -31.232 15.86 -49.532t91.256 -18.3h241.56l73.688 -222.528v-.976q14.64 -44.896 33.672 -67.832t39.528 -22.936q20.008 0 39.04 22.936t33.672 67.832l.976 .976 72.712 222.528h241.56q62.952 0 91.256 18.3t15.86 49.532 -63.684 67.832l-4.88 3.904 -189.832 135.664 73.2 220.576 .976 3.416q19.032 59.536 10.98 91.012t-39.772 31.476q-36.6 0 -87.352 -37.576l-2.928 -1.952 -2.928 -1.464 -188.856 -135.664 -191.784 137.128 -2.928 1.952q-52.216 38.552 -87.84 38.552 -31.72 0 -39.772 -31.964t10.98 -91.5l.976 -3.416 73.2 -220.576 -189.832 -135.664 -1.952 -2.44 -2.928 -1.464q-51.24 -36.6 -63.684 -67.832zm165.188 25.864l203.008 144.936 -20.984 65.392 -57.096 172.752 205.448 -146.888 204.96 146.888 -56.608 -172.752 -21.472 -65.392 203.008 -144.936h-250.832l-20.984 -64.416 -58.072 -175.192 -79.544 239.608h-250.832z"/></svg>