<svg height="1000px" width="821.2890625px" xmlns="http://www.w3.org/2000/svg">
  <g>
    <path d="M0 817.3828125c0 0 0 -634.766 0 -634.766c0 -16.276 5.778 -30.192 17.334 -41.748c11.556 -11.556 25.472 -17.334 41.748 -17.334c0 0 116.699 0 116.699 0c16.276 0 30.111 5.778 41.504 17.334c11.393 11.556 17.09 25.472 17.09 41.748c0 0 0 271.973 0 271.973c0 0 516.113 -319.824 516.113 -319.824c19.532 -12.696 36.214 -14.974 50.049 -6.836c13.835 8.138 20.752 24.414 20.752 48.828c0 0 0 645.996 0 645.996c0 24.74 -6.917 41.178 -20.752 49.316c-13.835 8.139 -30.517 5.697 -50.049 -7.324c0 0 -516.113 -319.336 -516.113 -319.336c0 0 0 271.973 0 271.973c0 16.276 -5.778 30.192 -17.334 41.748c-11.556 11.556 -25.309 17.334 -41.26 17.334c0 0 -116.699 0 -116.699 0c-15.95 0 -29.785 -5.859 -41.504 -17.578c-11.719 -11.719 -17.578 -25.553 -17.578 -41.504c0 0 0 0 0 0" />
  </g>
</svg>