<svg height="1000px" width="876.46484375px" xmlns="http://www.w3.org/2000/svg">
  <g>
    <path d="M0 824.70703125c0 0 0 -678.711 0 -678.711c0 -27.344 6.999 -42.725 20.996 -46.143c13.997 -3.417 35.319 2.523 63.965 17.823c0 0 537.109 339.355 537.109 339.355c0 0 0 -311.035 0 -311.035c0 -13.997 5.941 -27.018 17.823 -39.062c11.881 -12.045 24.821 -18.067 38.818 -18.067c0 0 113.281 0 113.281 0c26.367 0 47.038 5.697 62.012 17.09c14.974 11.393 22.461 24.74 22.461 40.039c0 0 0 678.711 0 678.711c0 15.299 -7.487 28.646 -22.461 40.039c-14.974 11.393 -35.645 17.09 -62.012 17.09c0 0 -113.281 0 -113.281 0c-13.997 0 -26.937 -6.022 -38.818 -18.067c-11.882 -12.044 -17.823 -25.065 -17.823 -39.062c0 0 0 -282.715 0 -282.715c0 0 -537.109 339.844 -537.109 339.844c-28.646 13.021 -49.968 14.241 -63.965 3.662c-13.997 -10.579 -20.996 -30.843 -20.996 -60.791c0 0 0 0 0 0" />
  </g>
</svg>