<svg height="1000" width="1031.738" xmlns="http://www.w3.org/2000/svg"><path d="M0 232.864l245.464 -245.464 81.984 81.984 -40.992 40.992 42.944 42.944q57.584 -34.648 123.464 -52.216v-101.504h231.312v101.504q99.064 25.864 177.876 90.28t123.952 158.112 45.14 199.592q0 94.184 -36.6 179.828t-98.576 147.864 -147.62 99.064 -179.828 36.844 -180.072 -36.844 -147.864 -99.064 -98.576 -147.864 -36.6 -179.828q0 -122.976 61.976 -230.824l-44.896 -43.92 -40.504 40.504zm221.552 316.224q0 94.184 46.604 174.216t126.392 126.88 173.972 46.848 174.216 -46.848 126.636 -126.88 46.604 -174.216 -46.604 -173.972 -126.636 -126.392 -174.216 -46.604 -173.972 46.604 -126.392 126.392 -46.604 173.972zm118.096 -129.808q0 -23.912 16.592 -40.992 17.08 -17.08 40.992 -17.08t40.992 17.08l139.568 139.568h198.128q23.912 0 40.748 17.08t16.348 40.992q0 24.888 -16.592 40.504 -17.568 17.568 -40.504 17.568h-221.552q-3.904 0 -11.712 -.976l-4.88 -1.952q-.976 -.488 -3.172 -.976t-2.684 -.488q-1.464 -.488 -3.172 -1.708t-2.196 -1.22l-4.392 -2.928q-3.416 -1.464 -9.272 -7.32l-156.648 -156.648q-16.592 -16.592 -16.592 -40.504z"/></svg>