<svg height="1000px" width="1031.73828125px" xmlns="http://www.w3.org/2000/svg">
  <g>
    <path d="M0 232.421875c0 0 245.605 -245.605 245.605 -245.605c0 0 82.032 82.031 82.032 82.031c0 0 -41.016 41.015 -41.016 41.015c0 0 42.969 42.969 42.969 42.969c38.411 -23.112 79.59 -40.527 123.535 -52.246c0 0 0 -101.562 0 -101.562c0 0 231.445 0 231.445 0c0 0 0 101.562 0 101.562c66.081 17.253 125.407 47.363 177.979 90.332c52.571 42.969 93.913 95.703 124.023 158.203c30.111 62.5 45.166 129.069 45.166 199.707c0 62.826 -12.207 122.803 -36.621 179.932c-24.414 57.129 -57.291 106.445 -98.633 147.949c-41.341 41.504 -90.576 74.544 -147.705 99.121c-57.129 24.577 -117.106 36.865 -179.931 36.865c-62.826 0 -122.884 -12.288 -180.176 -36.865c-57.292 -24.577 -106.608 -57.617 -147.949 -99.121c-41.341 -41.504 -74.219 -90.82 -98.633 -147.949c-24.414 -57.129 -36.621 -117.106 -36.621 -179.932c0 -82.031 20.67 -159.017 62.011 -230.957c0 0 -44.921 -43.945 -44.921 -43.945c0 0 -40.528 40.527 -40.528 40.527c0 0 -82.031 -82.031 -82.031 -82.031m221.68 316.406c0 62.826 15.543 120.931 46.631 174.317c31.087 53.385 73.242 95.703 126.464 126.953c53.223 31.25 111.247 46.875 174.073 46.875c62.825 0 120.931 -15.625 174.316 -46.875c53.385 -31.25 95.622 -73.568 126.709 -126.953c31.087 -53.386 46.631 -111.491 46.631 -174.317c0 -62.825 -15.544 -120.849 -46.631 -174.072c-31.087 -53.223 -73.324 -95.378 -126.709 -126.465c-53.385 -31.087 -111.491 -46.631 -174.316 -46.631c-62.826 0 -120.85 15.544 -174.073 46.631c-53.222 31.087 -95.377 73.242 -126.464 126.465c-31.088 53.223 -46.631 111.247 -46.631 174.072c0 0 0 0 0 0m118.164 -129.883c0 -15.95 5.534 -29.622 16.601 -41.015c11.394 -11.393 25.065 -17.09 41.016 -17.09c15.95 0 29.622 5.697 41.016 17.09c0 0 139.648 139.648 139.648 139.648c0 0 198.242 0 198.242 0c15.951 0 29.541 5.697 40.772 17.09c11.23 11.393 16.683 25.065 16.357 41.016c0 16.601 -5.534 30.11 -16.601 40.527c-11.719 11.719 -25.228 17.578 -40.528 17.578c0 0 -221.679 0 -221.679 0c-2.605 0 -6.511 -0.325 -11.719 -0.976c0 0 -4.883 -1.953 -4.883 -1.953c-0.651 -0.326 -1.709 -0.652 -3.174 -0.977c-1.465 -0.326 -2.36 -0.488 -2.685 -0.488c-0.977 -0.326 -2.035 -0.896 -3.174 -1.709c-1.14 -0.814 -1.872 -1.221 -2.198 -1.221c0 0 -4.394 -2.93 -4.394 -2.93c-2.279 -0.976 -5.371 -3.418 -9.277 -7.324c0 0 -156.739 -156.738 -156.739 -156.738c-11.067 -11.068 -16.601 -24.577 -16.601 -40.528c0 0 0 0 0 0" />
  </g>
</svg>