<svg height="1000px" width="700.68359375px" xmlns="http://www.w3.org/2000/svg">
  <g>
    <path d="M0 880.859375c0 0 0 -761.719 0 -761.719c0 -24.088 8.545 -44.759 25.635 -62.011c17.09 -17.253 37.679 -25.879 61.767 -25.879c0 0 525.879 0 525.879 0c24.089 0 44.678 8.626 61.768 25.879c17.09 17.252 25.635 37.923 25.635 62.011c0 0 0 761.719 0 761.719c0 24.089 -8.545 44.759 -25.635 62.012c-17.09 17.252 -37.679 25.879 -61.768 25.879c0 0 -525.879 0 -525.879 0c-24.088 0 -44.677 -8.627 -61.767 -25.879c-17.09 -17.253 -25.635 -37.923 -25.635 -62.012c0 0 0 0 0 0m308.105 -67.871c0 12.37 4.314 22.786 12.94 31.25c8.626 8.463 18.962 12.695 31.006 12.695c12.044 0 22.298 -4.313 30.761 -12.939c8.464 -8.627 12.696 -18.962 12.696 -31.006c0 -12.044 -4.232 -22.298 -12.696 -30.762c-8.463 -8.463 -18.717 -12.695 -30.761 -12.695c-12.044 0 -22.38 4.232 -31.006 12.695c-8.626 8.464 -12.94 18.718 -12.94 30.762c0 0 0 0 0 0" />
  </g>
</svg>