<svg height="1000" width="937.5" xmlns="http://www.w3.org/2000/svg"><path d="M0 915.576v-285.968q0 -21.472 15.128 -36.844t36.6 -15.372h285.48q21.472 0 36.844 15.372t15.372 36.844v285.968q0 21.472 -15.372 36.6t-36.844 15.128h-285.48q-21.472 0 -36.6 -15.128t-15.128 -36.6zm0 -545.096v-285.968q0 -21.472 15.128 -36.6t36.6 -15.128h285.48q21.472 0 36.844 15.128t15.372 36.6v285.968q0 21.472 -15.372 36.844t-36.844 15.372h-285.48q-21.472 0 -36.6 -15.372t-15.128 -36.844zm547.048 545.096v-285.968q0 -21.472 15.372 -36.844t36.356 -15.372h286.456q20.984 0 36.356 15.372t15.372 36.844v285.968q0 21.472 -15.128 36.6t-36.6 15.128h-286.456q-20.984 0 -36.356 -15.128t-15.372 -36.6zm0 -545.096v-285.968q0 -20.984 15.372 -36.356t36.356 -15.372h286.456q21.472 0 36.6 15.372t15.128 36.356v285.968q0 21.472 -15.372 36.844t-36.356 15.372h-286.456q-20.984 0 -36.356 -15.372t-15.372 -36.844z"/></svg>