<svg height="1000" width="937.5" xmlns="http://www.w3.org/2000/svg"><path d="M0 915.576v-285.968q0-21.472 15.372-36.844t36.356-15.372h286.456q20.984 0 36.356 15.372t15.372 36.844v285.968q0 21.472-15.372 36.6t-36.356 15.128h-286.456q-21.472 0-36.6-15.128t-15.128-36.6zm0-545.096v-285.968q0-20.984 15.128-36.356t36.6-15.372h286.456q20.984 0 36.356 15.372t15.372 36.356v285.968q0 21.472-15.372 36.844t-36.356 15.372h-286.456q-20.984 0-36.356-15.372t-15.372-36.844zm88.328 508.984h213.256v-213.744h-213.256v213.744zm0-545.096h213.256v-213.744h-213.256v213.744zm458.72 581.208v-285.968q0-21.472 15.372-36.844t36.356-15.372h286.456q20.984 0 36.356 15.372t15.372 36.844v285.968q0 21.472-15.128 36.6t-36.6 15.128h-286.456q-20.984 0-36.356-15.128t-15.372-36.6zm0-545.096v-285.968q0-20.984 15.372-36.356t36.356-15.372h286.456q21.472 0 36.6 15.372t15.128 36.356v285.968q0 21.472-15.372 36.844t-36.356 15.372h-286.456q-20.984 0-36.356-15.372t-15.372-36.844zm88.328 508.984h214.232v-213.744h-214.232v213.744zm0-545.096h214.232v-213.744h-214.232v213.744z"/></svg>