<svg height="1000" width="884.766" xmlns="http://www.w3.org/2000/svg"><path d="M0 166.008q0 -36.6 59.048 -67.344t161.04 -48.8 222.04 -18.056q120.536 0 222.528 18.056t161.04 48.8 59.048 67.344q-10.248 80.52 -38.552 227.408t-55.388 275.72 -28.548 138.104q-6.344 36.112 -39.772 67.344t-80.52 51.24 -99.796 31.476 -100.04 11.468 -100.04 -11.468 -99.552 -31.476 -80.276 -51.24 -39.772 -67.344q-3.904 -20.984 -32.696 -160.308t-55.632 -278.16 -34.16 -202.764zm126.392 223.504l37.576 183 86.864 -75.152zm5.368 -193.736q0 31.72 90.768 53.924t219.6 22.204q129.32 0 220.088 -22.204t90.768 -53.924q0 -32.208 -91.012 -54.656t-219.844 -22.448 -219.6 22.448 -90.768 54.656zm55.144 488l20.984 102.48 49.288 -42.456zm7.808 -311.344l101.016 86.864 71.248 -61.976q-94.672 -5.856 -172.264 -24.888zm5.368 245.952l101.016 87.352 96.136 -82.472 -101.504 -87.352zm49.288 208.864q71.248 30.256 148.352 37.576l-96.624 -82.472zm90.28 -329.888l101.504 87.352 96.136 -82.472 -99.552 -89.304zm6.344 246.44l101.992 88.328 94.672 -83.448 -101.504 -87.352zm139.568 -120.536l101.016 86.864 92.232 -80.032 -98.088 -88.816zm14.152 240.584q70.76 -8.296 134.2 -35.624l-46.848 -40.992zm8.296 -466.04l73.2 66.368 105.896 -91.256q-79.056 20.008 -179.096 24.888zm116.632 105.408l93.208 83.936 40.992 -199.104zm6.832 245.464l44.896 39.04 19.52 -95.648z"/></svg>