<svg height="1000px" width="937.5px" xmlns="http://www.w3.org/2000/svg">
  <g>
    <path d="M0 500c0 -63.477 12.37 -124.186 37.109 -182.129c24.74 -57.943 58.024 -107.829 99.854 -149.658c41.829 -41.83 91.715 -75.114 149.658 -99.854c57.943 -24.739 118.652 -37.109 182.129 -37.109c63.477 0 124.186 12.37 182.129 37.109c57.943 24.74 107.829 58.024 149.658 99.854c41.83 41.829 75.114 91.715 99.854 149.658c24.739 57.943 37.109 118.652 37.109 182.129c0 63.477 -12.37 124.186 -37.109 182.129c-24.74 57.943 -58.024 107.829 -99.854 149.658c-41.829 41.83 -91.715 75.114 -149.658 99.854c-57.943 24.739 -118.652 37.109 -182.129 37.109c-63.477 0 -124.186 -12.37 -182.129 -37.109c-57.943 -24.74 -107.829 -58.024 -149.658 -99.854c-41.83 -41.829 -75.114 -91.715 -99.854 -149.658c-24.739 -57.943 -37.109 -118.652 -37.109 -182.129c0 0 0 0 0 0m189.941 199.219c0 3.255 1.465 5.859 4.395 7.812c4.232 3.255 13.184 8.464 26.855 15.625c48.503 24.74 99.447 37.11 152.832 37.11c67.058 0 127.605 -17.09 181.641 -51.27c26.042 -16.601 49.154 -36.54 69.336 -59.814c20.182 -23.275 36.214 -47.526 48.096 -72.754c11.881 -25.228 20.752 -50.537 26.611 -75.928c5.859 -25.391 8.626 -49.967 8.301 -73.73c0 0 0 -10.743 0 -10.743c23.437 -16.927 41.666 -36.295 54.687 -58.105c1.302 -1.953 1.953 -3.744 1.953 -5.371c0 -2.604 -1.058 -4.964 -3.173 -7.08c-2.116 -2.116 -4.476 -3.174 -7.08 -3.174c0 0 -7.325 2.441 -7.325 2.441c-12.695 5.209 -20.019 7.976 -21.972 8.301c5.534 -6.51 10.986 -14.648 16.357 -24.414c5.371 -9.766 8.057 -16.927 8.057 -21.484c0 -2.279 -1.058 -4.395 -3.174 -6.348c-2.116 -1.953 -4.476 -2.93 -7.08 -2.93c-1.302 0 -2.93 0.326 -4.883 0.977c-24.089 13.021 -45.41 21.647 -63.965 25.879c-24.088 -23.438 -53.06 -35.157 -86.914 -35.157c-34.18 0 -63.314 12.045 -87.402 36.133c-24.089 24.089 -36.133 53.223 -36.133 87.403c0 4.231 0.325 9.277 0.977 15.136c-69.662 -6.51 -130.046 -32.877 -181.153 -79.101c-9.114 -8.789 -20.508 -20.508 -34.18 -35.156c-2.278 -2.605 -5.045 -3.907 -8.3 -3.907c-3.581 0 -6.022 1.628 -7.325 4.883c-11.718 16.276 -17.578 37.109 -17.578 62.5c0 29.297 9.603 55.339 28.809 78.125c-0.651 0 -3.906 -1.302 -9.766 -3.906c-4.557 -2.279 -7.975 -3.418 -10.254 -3.418c-3.255 0 -6.022 0.976 -8.3 2.93c-2.279 1.953 -3.418 4.557 -3.418 7.812c0 21.484 5.371 41.585 16.113 60.303c10.742 18.717 25.228 33.773 43.457 45.166c0 0 -1.465 0 -1.465 0c-0.651 -0.326 -1.465 -0.488 -2.441 -0.488c-0.977 -0.326 -2.279 -0.489 -3.907 -0.489c-2.604 0 -4.882 0.895 -6.835 2.686c-1.954 1.79 -2.93 3.987 -2.93 6.592c0 0.325 0.325 1.464 0.976 3.418c6.511 20.507 17.66 38.086 33.448 52.734c15.787 14.648 34.261 24.577 55.42 29.785c-34.506 21.484 -72.754 32.227 -114.746 32.227c-0.977 0 -5.697 -0.326 -14.161 -0.977c-2.278 0 -4.882 -0.081 -7.812 -0.244c-2.93 -0.163 -4.72 -0.244 -5.371 -0.244c-2.279 0 -4.395 1.058 -6.348 3.174c-1.953 2.116 -2.93 4.476 -2.93 7.08c0 0 0 0 0 0" />
  </g>
</svg>