<svg height="1000px" width="937.5px" xmlns="http://www.w3.org/2000/svg">
  <g>
    <path d="M0 781.73828125c0 -4.232 1.546 -7.975 4.639 -11.23c3.092 -3.256 6.754 -4.883 10.986 -4.883c1.302 0 8.789 0.325 22.461 0.976c10.091 0.977 17.415 1.465 21.973 1.465c68.359 0 130.859 -17.415 187.5 -52.246c-34.506 -8.138 -64.616 -24.007 -90.332 -47.607c-25.717 -23.601 -44.109 -52.328 -55.176 -86.182c-0.651 -3.255 -0.977 -5.046 -0.977 -5.371c0 -3.906 1.546 -7.487 4.639 -10.742c3.092 -3.256 6.754 -4.883 10.986 -4.883c0.326 0 0.814 0.081 1.465 0.244c0.651 0.163 1.546 0.407 2.686 0.732c1.139 0.326 2.034 0.489 2.685 0.489c0 0 5.86 0.976 5.86 0.976c-29.948 -18.229 -53.711 -42.643 -71.29 -73.242c-17.578 -30.599 -26.367 -62.988 -26.367 -97.168c0 -5.208 1.872 -9.44 5.616 -12.695c3.743 -3.255 8.382 -4.883 13.916 -4.883c3.906 0 9.928 1.79 18.066 5.371c0 0 14.16 6.836 14.16 6.836c-30.273 -36.133 -45.41 -78.45 -45.41 -126.953c0 -17.578 2.441 -35.563 7.324 -53.955c4.883 -18.392 11.556 -33.936 20.02 -46.631c4.231 -5.208 8.3 -7.813 12.207 -7.813c5.208 0 9.765 1.954 13.672 5.86c27.018 28.971 45.247 48.014 54.687 57.129c40.69 36.784 86.589 66.08 137.695 87.89c51.107 21.81 104.167 34.994 159.18 39.551c-1.302 -6.185 -1.953 -14.16 -1.953 -23.926c0 -55.338 19.694 -102.539 59.082 -141.601c39.388 -39.063 87.077 -58.594 143.066 -58.594c54.688 0 101.726 18.718 141.114 56.152c32.226 -7.161 66.894 -20.67 104.004 -40.527c2.604 -1.628 5.208 -2.441 7.812 -2.441c4.557 0 8.464 1.546 11.719 4.638c3.255 3.093 4.883 6.755 4.883 10.987c0 7.487 -4.558 19.287 -13.672 35.4c-9.115 16.113 -17.904 28.89 -26.367 38.33c1.302 -0.325 3.987 -1.221 8.056 -2.685c4.069 -1.465 8.952 -3.174 14.649 -5.127c5.696 -1.954 10.498 -3.581 14.404 -4.883c5.534 -2.604 9.44 -3.906 11.719 -3.906c4.231 0 7.975 1.627 11.23 4.882c3.255 3.256 4.883 6.999 4.883 11.231c0 1.953 -0.977 4.883 -2.93 8.789c-21.484 35.156 -51.269 66.406 -89.355 93.75c0 0 0 17.09 0 17.09c0.651 38.737 -3.825 78.613 -13.428 119.629c-9.603 41.015 -24.088 81.95 -43.457 122.802c-19.368 40.853 -45.491 80.079 -78.369 117.676c-32.878 37.598 -70.475 69.743 -112.793 96.436c-88.867 55.989 -187.663 83.984 -296.387 83.984c-87.239 0 -170.573 -20.508 -250 -61.523c-20.833 -10.743 -35.319 -18.881 -43.457 -24.414c-4.883 -3.907 -7.324 -8.301 -7.324 -13.184c0 0 0 0 0 0" />
  </g>
</svg>