<svg height="1000" width="937.5" xmlns="http://www.w3.org/2000/svg"><path d="M0 781.864q0 7.32 7.32 13.176 12.2 8.296 43.432 24.4 119.072 61.488 249.856 61.488 162.992 0 296.216 -83.936 63.44 -40.016 112.728 -96.38t78.324 -117.608 43.432 -122.732 13.42 -119.56v-17.08q57.096 -40.992 89.304 -93.696 2.928 -5.856 2.928 -8.784 0 -6.344 -4.88 -11.224t-11.224 -4.88q-3.416 0 -11.712 3.904 -5.856 1.952 -14.396 4.88t-14.64 5.124 -8.052 2.684q12.688 -14.152 26.352 -38.308t13.664 -35.38q0 -6.344 -4.88 -10.98t-11.712 -4.636q-3.904 0 -7.808 2.44 -55.632 29.768 -103.944 40.504 -59.048 -56.12 -141.032 -56.12 -83.936 0 -142.984 58.56t-59.048 141.52q0 14.64 1.952 23.912 -82.472 -6.832 -159.088 -39.528t-137.616 -87.84q-14.152 -13.664 -54.656 -57.096 -5.856 -5.856 -13.664 -5.856 -5.856 0 -12.2 7.808 -12.688 19.032 -20.008 46.604t-7.32 53.924q0 72.712 45.384 126.88l-14.152 -6.832q-12.2 -5.368 -18.056 -5.368 -8.296 0 -13.908 4.88t-5.612 12.688q0 51.24 26.352 97.112t71.248 73.2l-5.856 -.976q-.976 0 -2.684 -.488t-2.684 -.732 -1.464 -.244q-6.344 0 -10.98 4.88t-4.636 10.736q0 .488 .976 5.368 16.592 50.752 55.144 86.132t90.28 47.58q-84.912 52.216 -187.392 52.216 -6.832 0 -21.96 -1.464 -20.496 -.976 -22.448 -.976 -6.344 0 -10.98 4.88t-4.636 11.224z"/></svg>