<svg height="1000" width="937.5" xmlns="http://www.w3.org/2000/svg"><path d="M0 500.288q0 -95.16 37.088 -182.024t99.796 -149.572 149.572 -99.796 182.024 -37.088 182.024 37.088 149.572 99.796 99.796 149.572 37.088 182.024 -37.088 182.024 -99.796 149.572 -149.572 99.796 -182.024 37.088 -182.024 -37.088 -149.572 -99.796 -99.796 -149.572 -37.088 -182.024zm189.832 199.104q0 4.88 4.392 7.808 6.344 4.88 26.84 15.616 72.712 37.088 152.744 37.088 100.528 0 181.536 -51.24 39.04 -24.888 69.296 -59.78t48.068 -72.712 26.596 -75.884 8.296 -73.688v-10.736q35.136 -25.376 54.656 -58.072 1.952 -2.928 1.952 -5.368 0 -3.904 -3.172 -7.076t-7.076 -3.172l-7.32 2.44q-19.032 7.808 -21.96 8.296 8.296 -9.76 16.348 -24.4t8.052 -21.472q0 -3.416 -3.172 -6.344t-7.076 -2.928q-1.952 0 -4.88 .976 -36.112 19.52 -63.928 25.864 -36.112 -35.136 -86.864 -35.136 -51.24 0 -87.352 36.112t-36.112 87.352q0 6.344 .976 15.128 -104.432 -9.76 -181.048 -79.056 -13.664 -13.176 -34.16 -35.136 -3.416 -3.904 -8.296 -3.904 -5.368 0 -7.32 4.88 -17.568 24.4 -17.568 62.464 0 43.92 28.792 78.08 -.976 0 -9.76 -3.904 -6.832 -3.416 -10.248 -3.416 -4.88 0 -8.296 2.928t-3.416 7.808q0 32.208 16.104 60.268t43.432 45.14h-1.464q-.976 -.488 -2.44 -.488 -1.464 -.488 -3.904 -.488 -3.904 0 -6.832 2.684t-2.928 6.588q0 .488 .976 3.416 9.76 30.744 33.428 52.704t55.388 29.768q-51.728 32.208 -114.68 32.208 -1.464 0 -14.152 -.976 -3.416 0 -7.808 -.244t-5.368 -.244q-3.416 0 -6.344 3.172t-2.928 7.076z"/></svg>