<svg height="1000" width="937.5" xmlns="http://www.w3.org/2000/svg"><path d="M0 781.864q0-6.344 4.636-11.224t10.98-4.88q1.952 0 22.448.976 15.128 1.464 21.96 1.464 102.48 0 187.392-52.216-51.728-12.2-90.28-47.58t-55.144-86.132q-.976-4.88-.976-5.368 0-5.856 4.636-10.736t10.98-4.88q.488 0 1.464.244t2.684.732 2.684.488l5.856.976q-44.896-27.328-71.248-73.2t-26.352-97.112q0-7.808 5.612-12.688t13.908-4.88q5.856 0 18.056 5.368l14.152 6.832q-45.384-54.168-45.384-126.88 0-26.352 7.32-53.924t20.008-46.604q6.344-7.808 12.2-7.808 7.808 0 13.664 5.856 40.504 43.432 54.656 57.096 61 55.144 137.616 87.84t159.088 39.528q-1.952-9.272-1.952-23.912 0-82.96 59.048-141.52t142.984-58.56q81.984 0 141.032 56.12 48.312-10.736 103.944-40.504 3.904-2.44 7.808-2.44 6.832 0 11.712 4.636t4.88 10.98q0 11.224-13.664 35.38t-26.352 38.308q1.952-.488 8.052-2.684t14.64-5.124 14.396-4.88q8.296-3.904 11.712-3.904 6.344 0 11.224 4.88t4.88 11.224q0 2.928-2.928 8.784-32.208 52.704-89.304 93.696v17.08q.976 58.072-13.42 119.56t-43.432 122.732-78.324 117.608-112.728 96.38q-133.224 83.936-296.216 83.936-130.784 0-249.856-61.488-31.232-16.104-43.432-24.4-7.32-5.856-7.32-13.176z"/></svg>