<svg height="1000px" width="689.453125px" xmlns="http://www.w3.org/2000/svg">
  <g>
    <path d="M0 879.8828125c0 0 0 -393.066 0 -393.066c0 -9.441 3.337 -17.334 10.01 -23.682c6.673 -6.348 14.892 -9.522 24.658 -9.522c0 0 449.219 0 449.219 0c0 0 0 -148.925 0 -148.925c0 -42.318 -13.998 -78.288 -41.992 -107.91c-27.67 -28.321 -60.059 -42.481 -97.168 -42.481c-37.11 0 -69.499 14.16 -97.168 42.481c-27.67 29.296 -41.504 65.266 -41.504 107.91c0 0 0 38.086 0 38.086c0 0 -126.465 0 -126.465 0c0 0 0 -38.086 0 -38.086c0 -36.459 6.754 -71.289 20.264 -104.493c13.509 -33.203 32.307 -62.5 56.396 -87.89c23.763 -25.391 52.002 -45.248 84.717 -59.57c32.715 -14.323 67.301 -21.485 103.76 -21.485c36.458 0 71.126 7.162 104.003 21.485c32.878 14.322 61.198 34.179 84.961 59.57c24.089 25.39 42.806 54.687 56.153 87.89c13.346 33.204 20.019 68.034 20.019 104.493c0 0 0 148.925 0 148.925c0 0 45.41 0 45.41 0c9.766 0 17.985 3.174 24.659 9.522c6.673 6.348 10.009 14.241 10.009 23.682c0 0 0 393.066 0 393.066c0 8.464 -2.685 14.811 -8.056 19.043c-5.371 4.232 -14.242 8.952 -26.612 14.16c-6.51 2.93 -18.066 6.999 -34.668 12.207c-16.601 5.208 -38.655 11.312 -66.162 18.311c-27.506 6.998 -60.14 12.939 -97.9 17.822c-37.76 4.883 -75.033 7.324 -111.816 7.324c-103.191 0 -206.543 -18.554 -310.059 -55.664c-11.068 -3.581 -19.613 -7.894 -25.635 -12.939c-6.022 -5.046 -9.033 -11.8 -9.033 -20.264c0 0 0 0 0 0m187.012 -170.654c0 7.975 2.767 14.73 8.301 20.263c0 0 85.449 83.496 85.449 83.496c5.534 5.534 12.37 8.301 20.508 8.301c8.789 0 15.625 -2.767 20.507 -8.301c0 0 175.293 -171.386 175.293 -171.386c5.86 -5.86 8.789 -12.777 8.789 -20.752c0 -7.975 -2.929 -14.893 -8.789 -20.752c-5.534 -5.534 -12.369 -8.301 -20.507 -8.301c-8.139 0 -14.974 2.767 -20.508 8.301c0 0 -154.785 151.367 -154.785 151.367c0 0 -63.965 -62.5 -63.965 -62.5c-5.86 -5.859 -12.858 -8.789 -20.996 -8.789c-8.138 0 -15.137 2.93 -20.996 8.789c-5.534 5.534 -8.301 12.288 -8.301 20.264c0 0 0 0 0 0" />
  </g>
</svg>