<svg height="1000px" width="1068.84765625px" xmlns="http://www.w3.org/2000/svg">
  <g>
    <path d="M31.73828125 491.2109375c0 0 0 -187.5 0 -187.5c0 -36.133 6.51 -70.719 19.531 -103.76c13.021 -33.04 31.25 -62.256 54.688 -87.646c23.763 -25.716 51.676 -45.655 83.74 -59.815c32.064 -14.16 65.999 -21.24 101.807 -21.24c35.807 0 69.742 7.162 101.806 21.484c32.064 14.323 59.815 34.18 83.252 59.571c23.438 25.39 41.667 54.524 54.688 87.402c13.021 32.878 19.531 67.546 19.531 104.004c0 0 0 148.438 0 148.438c0 0 452.637 0 452.637 0c9.44 0 17.496 3.336 24.17 10.009c6.673 6.673 10.009 14.73 10.009 24.17c0 0 0 393.555 0 393.555c0 5.859 -1.709 10.905 -5.127 15.137c-3.418 4.231 -6.917 7.324 -10.498 9.277c-3.58 1.953 -9.765 4.883 -18.554 8.789c-7.162 2.93 -18.799 6.917 -34.912 11.963c-16.114 5.045 -38.005 11.149 -65.674 18.31c-27.67 7.162 -60.384 13.184 -98.145 18.067c-37.76 4.883 -75.032 7.324 -111.816 7.324c-103.19 0 -206.543 -18.555 -310.059 -55.664c-11.393 -3.906 -20.019 -8.301 -25.879 -13.184c-5.859 -4.882 -8.789 -11.556 -8.789 -20.019c0 0 0 -393.555 0 -393.555c0 -9.44 3.418 -17.497 10.254 -24.17c6.836 -6.673 14.974 -10.009 24.414 -10.009c0 0 45.41 0 45.41 0c0 0 0 -148.438 0 -148.438c0 -41.341 -13.834 -76.986 -41.504 -106.934c-26.692 -28.32 -58.431 -42.48 -95.214 -42.48c-37.761 0 -69.499 14.16 -95.215 42.48c-27.344 29.623 -41.016 65.267 -41.016 106.934c0 0 0 45.898 0 45.898c0 0 -60.058 72.266 -60.058 72.266c0 0 60.058 0 60.058 0c0 0 0 69.336 0 69.336c0 0 -59.082 44.434 -59.082 44.434c0 0 -64.453 -44.434 -64.453 -44.434" />
  </g>
</svg>