<svg height="1000" width="937.5" xmlns="http://www.w3.org/2000/svg"><path d="M0 765.76v-72.224q0-33.184 23.668-56.608t56.852-23.424 56.608 23.424 23.424 56.608v72.224q0 17.568 12.444 29.768t30.012 12.2h531.432q17.08 0 29.524-12.2t12.444-29.768v-72.224q0-33.184 23.424-56.608t56.608-23.424 56.852 23.424 23.668 56.608v72.224q0 83.936-59.292 143.472t-143.228 59.536h-531.432q-83.936 0-143.472-59.292t-59.536-143.716zm155.184-406.748q0-33.428 23.424-56.852l246.928-246.928q23.424-23.424 57.096-23.424 33.184 0 56.608 23.424l242.536 242.048q23.424 23.912 23.424 57.096t-23.424 56.608q-23.912 23.424-57.096 23.424t-56.608-23.424l-105.408-105.408v344.528q0 33.184-23.424 56.852t-56.608 23.668q-32.696 0-56.608-23.668t-23.912-56.852v-344.528l-110.288 110.288q-23.424 23.424-56.608 23.424t-56.608-23.424-23.424-56.852z"/></svg>