<svg height="1000px" width="937.5px" xmlns="http://www.w3.org/2000/svg">
  <g>
    <path d="M0 765.625c0 0 0 -72.266 0 -72.266c0 -22.135 7.894 -41.015 23.682 -56.64c15.787 -15.625 34.749 -23.438 56.884 -23.438c22.136 0 41.016 7.813 56.641 23.438c15.625 15.625 23.438 34.505 23.438 56.64c0 0 0 72.266 0 72.266c0 11.719 4.15 21.647 12.451 29.785c8.3 8.138 18.31 12.207 30.029 12.207c0 0 531.738 0 531.738 0c11.394 0 21.241 -4.069 29.541 -12.207c8.301 -8.138 12.451 -18.066 12.451 -29.785c0 0 0 -72.266 0 -72.266c0 -22.135 7.813 -41.015 23.438 -56.64c15.625 -15.625 34.505 -23.438 56.641 -23.438c22.135 0 41.097 7.813 56.884 23.438c15.788 15.625 23.682 34.505 23.682 56.64c0 0 0 72.266 0 72.266c0 55.99 -19.775 103.841 -59.326 143.555c-39.551 39.713 -87.321 59.57 -143.311 59.57c0 0 -531.738 0 -531.738 0c-55.99 0 -103.841 -19.775 -143.555 -59.326c-39.713 -39.551 -59.57 -87.484 -59.57 -143.799c0 0 0 0 0 0m155.273 -406.982c0 -22.299 7.813 -41.26 23.438 -56.885c0 0 247.07 -247.071 247.07 -247.071c15.625 -15.625 34.668 -23.437 57.129 -23.437c22.136 0 41.016 7.812 56.641 23.437c0 0 242.676 242.188 242.676 242.188c15.625 15.951 23.437 34.993 23.437 57.129c0 22.135 -7.812 41.016 -23.437 56.641c-15.951 15.625 -34.994 23.437 -57.129 23.437c-22.136 0 -41.016 -7.812 -56.641 -23.437c0 0 -105.469 -105.469 -105.469 -105.469c0 0 0 344.726 0 344.726c0 22.136 -7.812 41.097 -23.437 56.885c-15.625 15.788 -34.505 23.682 -56.641 23.682c-21.81 0 -40.69 -7.894 -56.64 -23.682c-15.951 -15.788 -23.926 -34.749 -23.926 -56.885c0 0 0 -344.726 0 -344.726c0 0 -110.352 110.351 -110.352 110.351c-15.625 15.625 -34.505 23.438 -56.64 23.438c-22.136 0 -41.016 -7.813 -56.641 -23.438c-15.625 -15.625 -23.438 -34.586 -23.438 -56.884c0 0 0 0 0 0" />
  </g>
</svg>