<svg height="1000" width="1205.078" xmlns="http://www.w3.org/2000/svg"><path d="M.244 598.864q-2.196 -44.896 9.516 -86.132t34.648 -77.592 57.584 -64.66 77.104 -44.896q77.104 -29.28 155.672 -12.688 36.6 -80.52 111.264 -129.564t165.92 -49.044q61.976 0 118.34 24.156t97.112 64.904 64.904 97.112 24.156 118.34q0 9.272 -1.952 26.84 1.464 0 3.66 -.976t3.172 -1.464q80.032 -31.232 158.844 4.148t110.044 115.412q19.52 55.632 11.712 108.092t-42.944 96.624 -88.328 64.66q-35.136 12.688 -72.224 13.664h-298.168v-167.872h67.832q18.544 0 24.644 -10.736t-3.66 -25.864l-170.8 -275.232q-6.832 -9.76 -16.104 -9.76 -4.392 0 -8.54 2.44t-6.1 4.88l-1.952 2.44 -170.8 275.232q-9.76 15.128 -3.172 25.864t25.132 10.736h66.856v167.872h-223.992v-.488q-85.4 0 -157.38 -48.556t-103.212 -130.54q-16.592 -42.456 -18.788 -87.352z"/></svg>