<svg height="1000" width="977.539" xmlns="http://www.w3.org/2000/svg"><path d="M0 968.768q0 -8.784 .976 -22.448t10.492 -44.652 26.596 -48.068q16.592 -16.592 64.416 -36.356t108.58 -41.724 89.548 -36.6q36.112 -17.568 55.632 -53.436t19.52 -73.932q0 -26.84 -30.744 -61.488 -18.056 -21.472 -31.232 -58.56 -43.432 -18.056 -43.432 -72.712 0 -40.504 14.152 -58.56 -3.904 -27.328 -8.784 -80.52 -.976 -7.808 -2.196 -20.74t2.44 -44.164 15.372 -52.704q18.544 -32.696 47.092 -45.14t46.604 -4.636q.488 0 .488 -.488 .976 -4.88 4.392 -12.932t14.152 -21.472 24.888 -20.74q7.808 -3.904 25.376 -6.1t42.7 -.488 52.216 7.564 54.168 21.228 48.556 37.82 35.38 59.292 14.396 83.692q.488 10.248 0 20.008 -3.904 44.896 -9.272 80.52 14.152 18.056 14.152 58.56 0 54.656 -43.432 72.712 -13.176 37.088 -31.232 58.56 -30.744 34.648 -30.744 61.488 0 38.064 19.52 73.932t55.632 53.436q28.792 14.64 89.548 36.6t108.824 41.724 64.66 36.356q17.08 17.08 26.352 45.872t10.248 49.288l.976 20.008h-976.976z"/></svg>