<svg height="1000px" width="977.5390625px" xmlns="http://www.w3.org/2000/svg">
  <g>
    <path d="M0 968.75c0 -5.859 0.326 -13.346 0.977 -22.461c0.651 -9.115 4.15 -24.007 10.498 -44.678c6.347 -20.67 15.218 -36.702 26.611 -48.095c11.068 -11.068 32.552 -23.194 64.453 -36.377c31.901 -13.184 68.115 -27.1 108.643 -41.748c40.527 -14.649 70.394 -26.856 89.599 -36.621c24.089 -11.719 42.643 -29.541 55.664 -53.467c13.021 -23.926 19.532 -48.584 19.532 -73.975c0 -17.904 -10.254 -38.411 -30.762 -61.523c-12.044 -14.323 -22.461 -33.854 -31.25 -58.594c-28.972 -12.044 -43.457 -36.296 -43.457 -72.754c0 -27.018 4.72 -46.549 14.16 -58.594c-2.604 -18.229 -5.534 -45.084 -8.789 -80.566c-0.651 -5.208 -1.384 -12.126 -2.197 -20.752c-0.814 -8.626 0 -23.356 2.441 -44.19c2.441 -20.833 7.568 -38.411 15.381 -52.734c12.37 -21.81 28.076 -36.865 47.119 -45.166c19.043 -8.301 34.587 -9.847 46.631 -4.639c0.325 0 0.488 -0.162 0.488 -0.488c0.651 -3.255 2.116 -7.568 4.395 -12.939c2.278 -5.371 6.998 -12.533 14.16 -21.485c7.161 -8.952 15.462 -15.869 24.902 -20.752c5.209 -2.604 13.672 -4.638 25.391 -6.103c11.719 -1.465 25.96 -1.628 42.724 -0.488c16.765 1.139 34.18 3.662 52.247 7.568c18.066 3.906 36.132 10.986 54.199 21.24c18.066 10.254 34.261 22.868 48.584 37.842c14.323 14.974 26.123 34.749 35.4 59.326c9.277 24.577 14.079 52.49 14.404 83.74c0.326 6.836 0.326 13.509 0 20.02c-2.604 29.948 -5.696 56.803 -9.277 80.566c9.44 12.045 14.16 31.576 14.16 58.594c0 36.458 -14.485 60.71 -43.457 72.754c-8.789 24.74 -19.206 44.271 -31.25 58.594c-20.508 23.112 -30.761 43.619 -30.761 61.523c0 25.391 6.51 50.049 19.531 73.975c13.021 23.926 31.575 41.748 55.664 53.467c19.206 9.765 49.072 21.972 89.599 36.621c40.528 14.648 76.823 28.564 108.887 41.748c32.064 13.183 53.63 25.309 64.697 36.377c11.394 11.393 20.183 26.692 26.368 45.898c6.184 19.206 9.602 35.645 10.254 49.316c0 0 0.976 20.02 0.976 20.02c0 0 -977.539 0 -977.539 0c0 0 0 0 0 0" />
  </g>
</svg>