<svg height="1000px" width="1024.90234375px" xmlns="http://www.w3.org/2000/svg">
  <g>
    <path d="M0 968.75c0 -5.859 0.326 -13.59 0.977 -23.193c0.651 -9.603 4.231 -25.065 10.742 -46.387c6.51 -21.322 15.625 -37.842 27.343 -49.561c11.394 -11.393 34.017 -23.925 67.872 -37.597c33.854 -13.672 72.102 -28.076 114.746 -43.213c42.643 -15.137 73.893 -27.751 93.75 -37.842c25.065 -12.695 44.515 -31.25 58.349 -55.664c13.835 -24.414 20.752 -49.805 20.752 -76.172c0 -17.904 -10.742 -39.062 -32.226 -63.476c-21.81 -25.066 -39.47 -59.164 -52.979 -102.295c-13.509 -43.132 -20.264 -92.855 -20.264 -149.17c0 -42.318 6.023 -79.997 18.067 -113.037c12.044 -33.041 28.483 -59.489 49.316 -79.346c20.834 -19.857 44.515 -34.912 71.045 -45.166c26.53 -10.254 54.932 -15.381 85.205 -15.381c30.274 0 58.513 5.127 84.717 15.381c26.205 10.254 49.805 25.309 70.801 45.166c20.996 19.857 37.516 46.305 49.56 79.346c12.045 33.04 18.067 70.719 18.067 113.037c0 56.315 -6.673 106.038 -20.02 149.17c-13.346 43.131 -30.924 77.229 -52.734 102.295c-21.81 24.739 -32.715 45.898 -32.715 63.476c0 26.042 6.999 51.351 20.996 75.928c13.998 24.577 33.529 43.213 58.594 55.908c19.857 10.091 51.107 22.705 93.75 37.842c42.643 15.137 80.729 29.541 114.258 43.213c33.528 13.672 55.989 26.204 67.383 37.597c11.718 11.719 20.833 27.507 27.343 47.364c6.511 19.856 10.091 36.784 10.742 50.781c0 0 1.465 20.996 1.465 20.996c0 0 -1024.902 0 -1024.902 0c0 0 0 0 0 0" />
  </g>
</svg>