<svg height="1000" width="1024.902" xmlns="http://www.w3.org/2000/svg"><path d="M0 968.768q0-8.784.976-23.18t10.736-46.36 27.328-49.532q17.08-17.08 67.832-37.576t114.68-43.188 93.696-37.82q37.576-19.032 58.316-55.632t20.74-76.128q0-26.84-32.208-63.44-32.696-37.576-52.948-102.236t-20.252-149.084q0-63.44 18.056-112.972t49.288-79.3 71.004-45.14 85.156-15.372 84.668 15.372 70.76 45.14 49.532 79.3 18.056 112.972q0 84.424-20.008 149.084t-52.704 102.236q-32.696 37.088-32.696 63.44 0 39.04 20.984 75.884t58.56 55.876q29.768 15.128 93.696 37.82t114.192 43.188 67.344 37.576q17.568 17.568 27.328 47.336t10.736 50.752l1.464 20.984h-1024.312z"/></svg>