<svg height="1000" width="995.117" xmlns="http://www.w3.org/2000/svg"><path d="M0 968.768q0-8.784.976-22.692t10.736-45.14 26.84-48.8q16.592-17.08 65.392-37.332t110.776-42.7 91.256-37.088q32.208-16.592 51.972-47.336t23.668-64.904h-81.008q-1.952-8.784-4.88-23.668t-9.76-59.292-11.712-86.376-7.076-96.136.732-97.356 14.884-81.252 32.94-56.608q18.544-19.032 41.724-25.62t33.916.244q.976 0 1.464-.488 0-1.464 2.44-7.808 12.688-33.672 41.48-47.824 17.568-9.272 61.976-7.808 1.952 0 6.832.244t6.832.244h1.464q24.888 1.952 56.12 10.736 26.84 7.808 49.776 20.008t46.604 34.892 39.772 52.704 24.888 75.396 5.856 100.528q-3.416 66.856-9.272 122t-11.224 85.888-10.492 51.728-8.052 28.304l-3.416 7.32h-81.008q3.904 34.648 23.424 65.148t51.728 47.092q29.28 14.64 91.256 37.088t111.02 42.7 65.636 37.332q17.08 17.568 26.84 46.604t10.736 49.532l.976 20.496h-995.032z"/></svg>