<svg height="1000px" width="1201.171875px" xmlns="http://www.w3.org/2000/svg">
  <g>
    <path d="M0 801.26953125c13.021 -5.208 32.878 -12.614 59.57 -22.217c26.693 -9.603 49.886 -18.31 69.58 -26.123c19.694 -7.812 36.377 -15.137 50.049 -21.972c24.414 -12.696 43.457 -31.332 57.129 -55.909c13.672 -24.577 20.508 -50.049 20.508 -76.416c0 -17.903 -10.417 -39.062 -31.25 -63.476c-12.37 -13.998 -23.275 -34.18 -32.715 -60.547c-29.948 -11.719 -44.922 -36.947 -44.922 -75.684c0 -28.646 4.558 -48.991 13.672 -61.035c-3.255 -26.042 -6.185 -53.548 -8.789 -82.519c-2.93 -36.784 5.941 -72.673 26.611 -107.666c20.671 -34.994 48.666 -63.151 83.985 -84.473c35.319 -21.322 72.021 -31.983 110.107 -31.983c28.646 0 56.885 6.43 84.717 19.288c27.832 12.858 52.002 29.541 72.51 50.048c20.508 20.508 36.702 44.515 48.584 72.022c11.881 27.506 16.683 55.094 14.404 82.764c-3.255 37.109 -6.185 64.615 -8.789 82.519c9.44 12.37 14.16 32.715 14.16 61.035c0 38.412 -14.974 63.64 -44.922 75.684c-10.091 27.344 -20.833 47.526 -32.226 60.547c-21.485 24.414 -32.227 45.573 -32.227 63.476c0 26.367 6.836 51.839 20.508 76.416c13.672 24.577 32.878 43.213 57.617 55.909c19.857 10.091 50.781 22.705 92.774 37.841c41.992 15.137 79.589 29.541 112.793 43.213c33.203 13.672 55.338 26.205 66.406 37.598c11.718 11.719 20.833 27.506 27.343 47.363c6.511 19.857 10.092 36.784 10.743 50.781c0 0 0.976 20.996 0.976 20.996c0 0 -878.906 0 -878.906 0c0 0 0 -167.48 0 -167.48c0 0 0 0 0 0m705.566 -299.316c0 -23.112 3.907 -39.714 11.719 -49.805c-3.581 -21.81 -6.022 -44.271 -7.324 -67.383c-2.279 -30.273 4.964 -60.058 21.728 -89.355c16.765 -29.297 39.633 -53.142 68.604 -71.534c28.971 -18.392 58.919 -27.587 89.844 -27.587c30.924 0 60.872 9.195 89.843 27.587c28.972 18.392 51.84 42.237 68.604 71.534c16.764 29.297 24.007 59.082 21.728 89.355c-1.302 23.112 -3.743 45.573 -7.324 67.383c7.813 10.091 11.719 26.693 11.719 49.805c0 31.575 -12.207 52.246 -36.621 62.011c-7.487 21.81 -16.276 38.412 -26.367 49.805c-5.86 6.836 -10.173 12.126 -12.94 15.869c-2.767 3.744 -5.696 9.115 -8.789 16.113c-3.092 6.999 -4.638 13.754 -4.638 20.264c0 21.159 5.615 41.911 16.845 62.256c11.231 20.345 26.937 35.563 47.119 45.654c11.719 5.86 25.961 12.126 42.725 18.799c16.764 6.673 36.54 14.079 59.326 22.217c22.787 8.138 39.551 14.323 50.293 18.555c0 0 0 135.253 0 135.253c0 0 -253.906 0 -253.906 0c0 -2.604 -0.081 -6.184 -0.244 -10.742c-0.163 -4.557 -1.14 -13.183 -2.93 -25.879c-1.79 -12.695 -4.232 -24.821 -7.324 -36.377c-3.093 -11.556 -7.894 -24.088 -14.404 -37.597c-6.511 -13.509 -14.161 -24.658 -22.95 -33.447c-15.95 -16.277 -33.691 -30.844 -53.222 -43.702c-19.532 -12.858 -46.062 -25.309 -79.59 -37.353c18.229 -22.461 27.344 -48.34 27.344 -77.637c0 -6.51 -1.547 -13.265 -4.639 -20.264c-3.093 -6.998 -5.941 -12.369 -8.545 -16.113c-2.604 -3.743 -6.673 -9.033 -12.207 -15.869c-9.115 -10.091 -18.066 -26.53 -26.856 -49.316c-24.414 -10.743 -36.621 -31.576 -36.621 -62.5c0 0 0 0 0 0" />
  </g>
</svg>