<svg height="1000px" width="995.1171875px" xmlns="http://www.w3.org/2000/svg">
  <g>
    <path d="M0 968.75c0 -5.859 0.326 -13.428 0.977 -22.705c0.651 -9.277 4.231 -24.333 10.742 -45.166c6.51 -20.833 15.462 -37.109 26.855 -48.828c11.068 -11.393 32.878 -23.845 65.43 -37.354c32.552 -13.509 69.499 -27.75 110.84 -42.724c41.341 -14.974 71.777 -27.344 91.308 -37.11c21.485 -11.067 38.819 -26.855 52.002 -47.363c13.184 -20.508 21.078 -42.155 23.682 -64.941c0 0 -81.055 0 -81.055 0c-1.302 -5.86 -2.929 -13.754 -4.883 -23.682c-1.953 -9.928 -5.208 -29.704 -9.765 -59.326c-4.557 -29.623 -8.464 -58.431 -11.719 -86.426c-3.255 -27.995 -5.615 -60.059 -7.08 -96.191c-1.465 -36.133 -1.221 -68.604 0.732 -97.413c1.954 -28.808 6.918 -55.908 14.893 -81.298c7.975 -25.391 18.962 -44.271 32.959 -56.641c12.37 -12.695 26.286 -21.24 41.748 -25.635c15.462 -4.394 26.774 -4.313 33.936 0.244c0.651 0 1.139 -0.162 1.464 -0.488c0 -0.976 0.814 -3.581 2.442 -7.812c8.463 -22.461 22.298 -38.412 41.504 -47.852c11.718 -6.185 32.389 -8.789 62.011 -7.812c1.303 0 3.581 0.081 6.836 0.244c3.256 0.162 5.534 0.244 6.836 0.244c0 0 1.465 0 1.465 0c16.602 1.302 35.319 4.883 56.152 10.742c17.904 5.208 34.506 11.882 49.805 20.02c15.3 8.138 30.843 19.775 46.631 34.912c15.788 15.136 29.053 32.715 39.795 52.734c10.742 20.02 19.043 45.166 24.902 75.44c5.86 30.273 7.813 63.802 5.86 100.585c-2.279 44.597 -5.371 85.287 -9.278 122.071c-3.906 36.784 -7.649 65.429 -11.23 85.937c-3.581 20.508 -7.08 37.761 -10.498 51.758c-3.418 13.997 -6.104 23.438 -8.057 28.32c0 0 -3.418 7.325 -3.418 7.325c0 0 -81.054 0 -81.054 0c2.604 23.112 10.416 44.84 23.437 65.185c13.021 20.345 30.273 36.052 51.758 47.119c19.531 9.766 49.967 22.136 91.308 37.11c41.342 14.974 78.37 29.215 111.084 42.724c32.715 13.509 54.607 25.961 65.674 37.354c11.393 11.719 20.345 27.262 26.856 46.631c6.51 19.368 10.091 35.888 10.742 49.56c0 0 0.976 20.508 0.976 20.508c0 0 -995.605 0 -995.605 0c0 0 0 0 0 0" />
  </g>
</svg>