<svg height="1000" width="1201.172" xmlns="http://www.w3.org/2000/svg"><path d="M0 801.384q19.52-7.808 59.536-22.204t69.54-26.108 50.02-21.96q36.6-19.032 57.096-55.876t20.496-76.372q0-26.84-31.232-63.44-18.544-20.984-32.696-60.512-44.896-17.568-44.896-75.64 0-42.944 13.664-61-4.88-39.04-8.784-82.472-4.392-55.144 26.596-107.604t83.936-84.424 110.044-31.964q42.944 0 84.668 19.276t72.468 50.02 48.556 71.98 14.396 82.716q-4.88 55.632-8.784 82.472 14.152 18.544 14.152 61 0 57.584-44.896 75.64-15.128 40.992-32.208 60.512-32.208 36.6-32.208 63.44 0 39.528 20.496 76.372t57.584 55.876q29.768 15.128 92.72 37.82t112.728 43.188 66.368 37.576q17.568 17.568 27.328 47.336t10.736 50.752l.976 20.984h-878.4v-167.384zm705.16-299.144q0-34.648 11.712-49.776-5.368-32.696-7.32-67.344-3.416-45.384 21.716-89.304t68.564-71.492 89.792-27.572 89.792 27.572 68.564 71.492 21.716 89.304q-1.952 34.648-7.32 67.344 11.712 15.128 11.712 49.776 0 47.336-36.6 61.976-11.224 32.696-26.352 49.776-8.784 10.248-12.932 15.86t-8.784 16.104-4.636 20.252q0 31.72 16.836 62.22t47.092 45.628q17.568 8.784 42.7 18.788t59.292 22.204 50.264 18.544v135.176h-253.76q0-3.904-.244-10.736t-2.928-25.864-7.32-36.356-14.396-37.576-22.936-33.428q-23.912-24.4-53.192-43.676t-79.544-37.332q27.328-33.672 27.328-77.592 0-9.76-4.636-20.252t-8.54-16.104-12.2-15.86q-13.664-15.128-26.84-49.288-36.6-16.104-36.6-62.464z"/></svg>