<svg height="1000" width="889.16" xmlns="http://www.w3.org/2000/svg"><path d="M7.32 721.84l222.528 -221.552 11.224 15.128q10.736 15.128 33.428 41.724t46.116 50.02q52.216 52.216 107.36 90.28l-222.528 223.016q-17.568 17.568 -58.072 -3.904t-77.348 -58.804 -58.072 -78.324 -4.636 -57.584zm270.84 -236.436q-7.808 -23.668 3.416 -34.404 11.224 -11.224 22.936 -40.992t17.08 -60.512l3.904 -20.496q5.368 -30.744 30.012 -61.976t52.948 -43.432l396.744 -177.144q28.792 -12.2 33.672 -5.124t-17.568 29.524l-203.008 202.032q-42.456 43.432 -52.704 53.192 -20.984 -10.248 -45.628 -6.344t-42.212 20.984q-22.448 22.448 -22.448 54.168t22.448 54.656q22.936 22.936 54.656 22.936t54.168 -22.936q17.08 -17.08 21.228 -41.48t-6.1 -45.384q14.152 -14.64 52.704 -53.192l203.008 -203.008q22.448 -22.448 29.28 -17.568t-5.368 33.672l-177.144 397.232q-12.688 28.304 -43.676 52.46t-62.22 29.524l-20.008 3.904q-30.744 5.368 -60.512 17.08t-40.992 22.936 -34.404 3.416 -45.628 -30.256l-88.328 -87.352q-22.448 -22.448 -30.256 -46.116z"/></svg>