<svg height="1000px" width="1226.5625px" xmlns="http://www.w3.org/2000/svg">
  <g>
    <path d="M0 809.5703125c0 0 135.742 -135.742 135.742 -135.742c0 0 47.363 47.363 47.363 47.363c0 0 219.727 -219.726 219.727 -219.726c-20.182 -29.623 -28.646 -62.745 -25.391 -99.366c3.256 -36.621 17.904 -68.115 43.946 -94.482c26.041 -26.042 57.373 -40.609 93.994 -43.701c36.621 -3.093 69.743 5.615 99.365 26.123c0 0 220.215 -220.703 220.215 -220.703c0 0 -47.363 -47.364 -47.363 -47.364c0 0 135.254 -135.254 135.254 -135.254c0 0 135.742 135.254 135.742 135.254c0 0 -135.742 135.743 -135.742 135.743c0 0 -47.364 -47.364 -47.364 -47.364c0 0 -142.09 142.09 -142.09 142.09c44.271 -10.417 85.124 -15.625 122.559 -15.625c67.383 0 131.999 12.858 193.848 38.574c61.849 25.716 116.536 62.338 164.062 109.864c8.464 8.463 12.695 18.717 12.695 30.761c0 12.045 -4.231 22.298 -12.695 30.762c-8.463 8.464 -18.717 12.695 -30.762 12.695c-12.044 0 -22.298 -4.231 -30.761 -12.695c-39.714 -39.714 -85.043 -70.068 -135.987 -91.064c-50.944 -20.997 -104.41 -31.495 -160.4 -31.495c-64.453 0 -125.488 13.998 -183.105 41.993c9.765 26.367 11.474 54.036 5.127 83.007c-6.348 28.972 -19.939 53.874 -40.772 74.707c-21.159 20.834 -46.061 34.424 -74.707 40.772c-28.646 6.348 -56.152 4.639 -82.52 -5.127c-25.065 52.083 -39.062 106.852 -41.992 164.307c-2.929 57.454 6.022 113.769 26.856 168.945c20.833 55.176 52.409 103.922 94.726 146.24c8.464 8.464 12.696 18.636 12.696 30.518c0 11.881 -4.232 22.054 -12.696 30.517c-8.789 8.789 -19.043 13.184 -30.761 13.184c-11.068 0 -20.997 -4.395 -29.786 -13.184c-64.127 -63.802 -107.584 -138.59 -130.371 -224.365c-22.786 -85.775 -23.437 -171.142 -1.953 -256.103c0 0 -143.066 142.578 -143.066 142.578c0 0 47.363 47.363 47.363 47.363c0 0 -135.254 135.742 -135.254 135.742c0 0 -135.742 -135.742 -135.742 -135.742m81.543 0c0 0 54.199 54.199 54.199 54.199c0 0 53.223 -54.199 53.223 -54.199c0 0 -53.223 -53.711 -53.223 -53.711c0 0 -54.199 53.711 -54.199 53.711m788.086 -787.598c0 0 53.223 54.2 53.223 54.2c0 0 53.71 -54.2 53.71 -54.2c0 0 -53.71 -53.222 -53.71 -53.222c0 0 -53.223 53.222 -53.223 53.222" />
  </g>
</svg>