<svg height="1000px" width="889.16015625px" xmlns="http://www.w3.org/2000/svg">
  <g>
    <path d="M7.32421875 721.6796875c0 0 222.656 -221.68 222.656 -221.68c0 0 11.231 15.137 11.231 15.137c7.161 10.091 18.31 24.007 33.447 41.748c15.137 17.741 30.518 34.424 46.143 50.049c34.83 34.831 70.638 64.941 107.421 90.332c0 0 -222.656 223.144 -222.656 223.144c-11.719 11.719 -31.087 10.417 -58.105 -3.906c-27.019 -14.323 -52.816 -33.935 -77.393 -58.838c-24.577 -24.902 -43.945 -51.025 -58.105 -78.369c-14.16 -27.344 -15.707 -46.549 -4.639 -57.617c0 0 0 0 0 0m270.996 -236.572c-5.208 -15.788 -4.069 -27.263 3.418 -34.424c7.487 -7.487 15.137 -21.159 22.949 -41.016c7.813 -19.856 13.509 -40.039 17.09 -60.547c0 0 3.906 -20.507 3.906 -20.507c3.581 -20.508 13.591 -41.179 30.03 -62.012c16.438 -20.833 34.098 -35.319 52.978 -43.457c0 0 396.973 -177.246 396.973 -177.246c19.206 -8.138 30.436 -9.847 33.691 -5.127c3.255 4.72 -2.604 14.567 -17.578 29.541c0 0 -203.125 202.148 -203.125 202.148c-28.32 28.972 -45.898 46.712 -52.734 53.223c-13.998 -6.836 -29.216 -8.952 -45.655 -6.348c-16.438 2.604 -30.517 9.603 -42.236 20.996c-14.974 14.974 -22.461 33.041 -22.461 54.2c0 21.158 7.487 39.388 22.461 54.687c15.3 15.3 33.529 22.949 54.688 22.949c21.158 0 39.225 -7.649 54.199 -22.949c11.393 -11.393 18.473 -25.228 21.24 -41.504c2.767 -16.276 0.732 -31.413 -6.103 -45.41c9.44 -9.766 27.018 -27.507 52.734 -53.223c0 0 203.125 -203.125 203.125 -203.125c14.974 -14.974 24.74 -20.833 29.297 -17.578c4.557 3.255 2.767 14.486 -5.371 33.692c0 0 -177.246 397.461 -177.246 397.461c-8.464 18.88 -23.031 36.377 -43.702 52.49c-20.67 16.113 -41.422 25.96 -62.255 29.541c0 0 -20.02 3.906 -20.02 3.906c-20.508 3.581 -40.69 9.277 -60.547 17.09c-19.857 7.812 -33.528 15.462 -41.015 22.949c-7.487 7.487 -18.962 8.626 -34.424 3.418c-15.463 -5.208 -30.681 -15.299 -45.655 -30.273c0 0 -88.378 -87.403 -88.378 -87.403c-14.974 -14.974 -25.066 -30.355 -30.274 -46.142c0 0 0 0 0 0" />
  </g>
</svg>