<svg height="1000" width="1226.563" xmlns="http://www.w3.org/2000/svg"><path d="M0 809.68l135.664 -135.664 47.336 47.336 219.6 -219.6q-30.256 -44.408 -25.376 -99.308t43.92 -94.428q39.04 -39.04 93.94 -43.676t99.308 26.108l220.088 -220.576 -47.336 -47.336 135.176 -135.176 135.664 135.176 -135.664 135.664 -47.336 -47.336 -142.008 142.008q66.368 -15.616 122.488 -15.616 101.016 0 193.736 38.552t163.968 109.8q12.688 12.688 12.688 30.744t-12.688 30.744 -30.744 12.688 -30.744 -12.688q-59.536 -59.536 -135.908 -91.012t-160.308 -31.476q-96.624 0 -183 41.968 14.64 39.528 5.124 82.96t-40.748 74.664q-31.72 31.232 -74.664 40.748t-82.472 -5.124q-37.576 78.08 -41.968 164.212t26.84 168.848 94.672 146.156q12.688 12.688 12.688 30.5t-12.688 30.5q-13.176 13.176 -30.744 13.176 -16.592 0 -29.768 -13.176 -96.136 -95.648 -130.296 -224.236t-1.952 -255.956l-142.984 142.496 47.336 47.336 -135.176 135.664zm81.496 0l54.168 54.168 53.192 -54.168 -53.192 -53.68zm787.632 -787.144l53.192 54.168 53.68 -54.168 -53.68 -53.192z"/></svg>