<svg height="1000" width="1113.77" xmlns="http://www.w3.org/2000/svg"><path d="M0 686.216v-373.32q0 -61.976 43.432 -106.14t103.944 -44.164h549q59.048 0 101.504 41.968t45.384 101.504l207.888 -132.736q25.376 -17.08 43.676 -6.344t18.3 43.432v577.792q0 32.696 -18.3 43.92t-43.676 -5.856l-207.888 -133.224q-2.44 60.024 -45.14 101.748t-101.748 41.724h-549q-61 0 -104.188 -44.164t-43.188 -106.14zm635.864 -352.824q0 18.056 12.932 30.988t30.988 12.932 30.988 -12.932 12.932 -30.988 -12.932 -30.988 -30.988 -12.932 -30.988 12.932 -12.932 30.988z"/></svg>