<svg height="1000px" width="1113.76953125px" xmlns="http://www.w3.org/2000/svg">
  <g>
    <path d="M0 686.03515625c0 0 0 -373.535 0 -373.535c0 -41.341 14.486 -76.742 43.457 -106.201c28.971 -29.46 63.639 -44.19 104.004 -44.19c0 0 549.316 0 549.316 0c39.388 0 73.243 13.998 101.563 41.992c28.32 27.995 43.457 61.849 45.41 101.563c0 0 208.008 -132.813 208.008 -132.813c16.927 -11.393 31.494 -13.509 43.701 -6.347c12.207 7.161 18.311 21.647 18.311 43.457c0 0 0 578.125 0 578.125c0 21.81 -6.104 36.458 -18.311 43.945c-12.207 7.487 -26.774 5.534 -43.701 -5.859c0 0 -208.008 -133.301 -208.008 -133.301c-1.628 40.039 -16.683 73.975 -45.166 101.807c-28.483 27.832 -62.419 41.748 -101.807 41.748c0 0 -549.316 0 -549.316 0c-40.69 0 -75.44 -14.73 -104.248 -44.19c-28.809 -29.459 -43.213 -64.86 -43.213 -106.201c0 0 0 0 0 0m636.23 -353.027c0 12.044 4.314 22.379 12.94 31.006c8.626 8.626 18.962 12.939 31.006 12.939c12.044 0 22.379 -4.313 31.006 -12.939c8.626 -8.627 12.939 -18.962 12.939 -31.006c0 -12.045 -4.313 -22.38 -12.939 -31.006c-8.627 -8.627 -18.962 -12.94 -31.006 -12.94c-12.044 0 -22.38 4.313 -31.006 12.94c-8.626 8.626 -12.94 18.961 -12.94 31.006c0 0 0 0 0 0" />
  </g>
</svg>