<svg height="1000px" width="937.5px" xmlns="http://www.w3.org/2000/svg">
  <g>
    <path d="M0 500c0 -63.802 12.37 -124.593 37.109 -182.373c24.74 -57.78 58.024 -107.585 99.854 -149.414c41.829 -41.83 91.634 -75.114 149.414 -99.854c57.78 -24.739 118.571 -37.109 182.373 -37.109c63.477 0 124.186 12.37 182.129 37.109c57.943 24.74 107.829 58.024 149.658 99.854c41.83 41.829 75.114 91.634 99.854 149.414c24.739 57.78 37.109 118.571 37.109 182.373c0 63.477 -12.37 124.186 -37.109 182.129c-24.74 57.943 -58.024 107.829 -99.854 149.658c-41.829 41.83 -91.715 75.114 -149.658 99.854c-57.943 24.739 -118.652 37.109 -182.129 37.109c-63.802 0 -124.593 -12.37 -182.373 -37.109c-57.78 -24.74 -107.585 -58.024 -149.414 -99.854c-41.83 -41.829 -75.114 -91.715 -99.854 -149.658c-24.739 -57.943 -37.109 -118.652 -37.109 -182.129c0 0 0 0 0 0m117.188 0c0 63.802 15.706 122.64 47.119 176.514c31.412 53.873 74.137 96.517 128.173 127.929c54.037 31.413 112.793 47.12 176.27 47.12c63.802 0 122.64 -15.707 176.514 -47.12c53.873 -31.412 96.517 -74.056 127.929 -127.929c31.413 -53.874 47.12 -112.712 47.12 -176.514c0 -63.477 -15.707 -122.233 -47.12 -176.27c-31.412 -54.036 -74.056 -96.761 -127.929 -128.173c-53.874 -31.413 -112.712 -47.12 -176.514 -47.12c-47.526 0 -93.018 9.278 -136.475 27.833c-43.457 18.554 -80.892 43.538 -112.304 74.951c-31.413 31.412 -56.397 68.847 -74.951 112.304c-18.555 43.457 -27.832 88.949 -27.832 136.475c0 0 0 0 0 0m270.507 -196.777c-2.278 -23.438 4.069 -44.271 19.043 -62.5c14.974 -18.23 34.343 -28.483 58.106 -30.762c23.437 -2.279 44.271 4.069 62.5 19.043c18.229 14.974 28.483 34.18 30.761 57.617c0.652 5.859 0.652 11.393 0 16.602c0 0 -26.855 244.629 -26.855 244.629c-1.302 15.95 -8.219 29.052 -20.752 39.306c-12.533 10.254 -26.937 14.567 -43.213 12.94c-13.997 -1.302 -25.96 -6.918 -35.889 -16.846c-9.928 -9.928 -15.706 -21.729 -17.333 -35.4c0 0 -26.368 -244.629 -26.368 -244.629m11.719 411.621c0 -20.834 7.324 -38.086 21.973 -51.758c13.346 -13.672 30.517 -20.508 51.513 -20.508c20.996 0 38.168 6.836 51.514 20.508c14.649 13.672 21.973 30.924 21.973 51.758c0 20.833 -7.324 38.086 -21.973 51.758c-13.672 14.648 -30.924 21.972 -51.758 21.972c-20.508 0 -37.597 -7.324 -51.269 -21.972c-14.649 -13.672 -21.973 -30.925 -21.973 -51.758c0 0 0 0 0 0" />
  </g>
</svg>