<svg height="1000px" width="937.5px" xmlns="http://www.w3.org/2000/svg">
  <g>
    <path d="M0 500c0 -63.802 12.37 -124.593 37.109 -182.373c24.74 -57.78 58.024 -107.585 99.854 -149.414c41.829 -41.83 91.634 -75.114 149.414 -99.854c57.78 -24.739 118.571 -37.109 182.373 -37.109c63.477 0 124.105 12.37 181.885 37.109c57.78 24.74 107.666 58.024 149.658 99.854c41.992 41.829 75.358 91.634 100.098 149.414c24.739 57.78 37.109 118.571 37.109 182.373c0 63.477 -12.37 124.186 -37.109 182.129c-24.74 57.943 -58.106 107.829 -100.098 149.658c-41.992 41.83 -91.878 75.114 -149.658 99.854c-57.78 24.739 -118.408 37.109 -181.885 37.109c-63.802 0 -124.593 -12.37 -182.373 -37.109c-57.78 -24.74 -107.585 -58.024 -149.414 -99.854c-41.83 -41.829 -75.114 -91.715 -99.854 -149.658c-24.739 -57.943 -37.109 -118.652 -37.109 -182.129c0 0 0 0 0 0m387.207 -196.777c0 0 26.856 244.629 26.856 244.629c1.627 13.671 7.405 25.472 17.333 35.4c9.929 9.928 21.892 15.544 35.889 16.846c15.951 1.627 30.192 -2.605 42.725 -12.696c12.532 -10.091 19.612 -23.274 21.24 -39.55c0 0 26.855 -244.629 26.855 -244.629c0 0 0 -16.602 0 -16.602c-2.604 -23.437 -13.02 -42.643 -31.25 -57.617c-18.229 -14.974 -39.062 -21.322 -62.5 -19.043c-23.437 2.279 -42.724 12.532 -57.861 30.762c-15.137 18.229 -21.566 39.062 -19.287 62.5c0 0 0 0 0 0m12.207 411.621c0 20.182 7.162 37.435 21.484 51.758c14.323 14.322 31.576 21.484 51.758 21.484c20.183 0 37.435 -7.162 51.758 -21.484c14.323 -14.323 21.484 -31.576 21.484 -51.758c0 -20.183 -7.161 -37.435 -21.484 -51.758c-13.672 -13.672 -30.924 -20.508 -51.758 -20.508c-20.833 0 -38.086 6.836 -51.758 20.508c-14.322 14.323 -21.484 31.575 -21.484 51.758c0 0 0 0 0 0" />
  </g>
</svg>