<svg height="1000" width="1045.898" xmlns="http://www.w3.org/2000/svg"><path d="M11.224 473.692q-23.912 -90.524 0 -181.048t91.744 -157.868q50.752 -50.752 115.412 -76.86t133.468 -26.108q69.296 0 133.712 26.108t115.168 76.86q54.168 53.68 80.52 124.196t22.204 143.472 -37.332 138.836q31.232 10.248 51.728 30.744l181.536 182.024q37.088 37.088 37.088 88.816t-37.088 88.816 -88.328 37.088q-52.216 0 -89.304 -37.088l-182.024 -181.536q-22.448 -22.448 -30.744 -52.216 -75.64 37.088 -157.136 37.088 -68.808 0 -133.468 -26.108t-115.412 -76.86q-67.832 -67.832 -91.744 -158.356zm106.872 -90.524q0 97.6 68.32 165.92 33.184 33.184 75.884 50.996t89.548 17.812 90.036 -17.812 75.884 -50.996q33.184 -32.696 50.996 -75.64t17.812 -89.792q0 -97.6 -68.808 -166.408 -32.696 -32.696 -75.884 -50.508t-90.036 -17.812q-97.112 0 -165.432 68.32t-68.32 165.92zm624.152 -200.08q0 -12.2 8.54 -20.74t20.74 -8.54h244.488q12.2 0 20.984 8.54t8.784 20.74 -8.784 20.74 -20.984 8.54h-244.488q-11.712 0 -20.984 -8.296 -8.296 -9.272 -8.296 -20.984z"/></svg>